<?xml version="1.0" encoding="utf-8"?>
<!-- Generator: Adobe Illustrator 16.0.0, SVG Export Plug-In . SVG Version: 6.00 Build 0)  -->
<svg version="1.2" baseProfile="tiny" id="Calque_1"
	 xmlns="http://www.w3.org/2000/svg" xmlns:xlink="http://www.w3.org/1999/xlink" x="0px" y="0px" width="787.981px"
	 height="789.211px" viewBox="0 0 787.981 789.211" xml:space="preserve">
<circle fill="#C1D11A" cx="396.281" cy="396.303" r="382.313"/>
<g>
	<rect x="223.811" y="254.892" fill="none" width="342.348" height="281.418"/>
	<path fill="#FFFFFF" d="M501.951,527.43c0,1.344-0.461,2.554-1.377,3.627c-0.92,1.077-2.436,1.949-4.555,2.619
		c-2.117,0.674-4.943,1.209-8.473,1.612c-3.531,0.403-7.979,0.604-13.344,0.604c-5.508,0-10.061-0.201-13.662-0.604
		s-6.428-0.938-8.473-1.612c-2.049-0.67-3.531-1.542-4.447-2.619c-0.922-1.073-1.377-2.283-1.377-3.627V422.044h-102.52V527.43
		c0,1.344-0.424,2.554-1.271,3.627c-0.848,1.077-2.33,1.949-4.447,2.619c-2.119,0.674-4.945,1.209-8.473,1.612
		c-3.531,0.403-8.049,0.604-13.557,0.604c-5.367,0-9.85-0.201-13.451-0.604c-3.6-0.403-6.459-0.938-8.578-1.612
		c-2.117-0.67-3.637-1.542-4.553-2.619c-0.92-1.073-1.377-2.283-1.377-3.627V281.194c0-1.341,0.457-2.55,1.377-3.627
		c0.916-1.073,2.436-1.945,4.553-2.619c2.119-0.671,4.979-1.209,8.578-1.612c3.602-0.403,8.084-0.604,13.451-0.604
		c5.508,0,10.025,0.202,13.557,0.604c3.527,0.403,6.354,0.941,8.473,1.612c2.117,0.674,3.6,1.546,4.447,2.619
		c0.848,1.077,1.271,2.286,1.271,3.627v95.713h102.52v-95.713c0-1.341,0.455-2.55,1.377-3.627c0.916-1.073,2.398-1.945,4.447-2.619
		c2.045-0.671,4.871-1.209,8.473-1.612c3.602-0.403,8.154-0.604,13.662-0.604c5.365,0,9.813,0.202,13.344,0.604
		c3.529,0.403,6.355,0.941,8.473,1.612c2.119,0.674,3.635,1.546,4.555,2.619c0.916,1.077,1.377,2.286,1.377,3.627V527.43z"/>
</g>
</svg>
