<?xml version="1.0" encoding="utf-8"?>
<!-- Generator: Adobe Illustrator 16.0.0, SVG Export Plug-In . SVG Version: 6.00 Build 0)  -->
<!DOCTYPE svg PUBLIC "-//W3C//DTD SVG 1.1//EN" "http://www.w3.org/Graphics/SVG/1.1/DTD/svg11.dtd">
<svg version="1.1" id="Calque_1" xmlns="http://www.w3.org/2000/svg" xmlns:xlink="http://www.w3.org/1999/xlink" x="0px" y="0px"
	 width="762.076px" height="750.075px" viewBox="0 0 762.076 750.075" enable-background="new 0 0 762.076 750.075"
	 xml:space="preserve">
<circle fill="none" stroke="#000000" stroke-width="6" stroke-miterlimit="10" cx="374.872" cy="419.578" r="166.794"/>
<g>
	<path fill="none" d="M246.926,577.03c-87.205-70.674-100.605-198.654-29.943-285.848c70.668-87.199,198.645-100.601,285.838-29.933
		c87.205,70.668,100.604,198.644,29.936,285.845C462.094,634.288,334.117,647.698,246.926,577.03z"/>
	<path d="M166.252,404.54l4.818,0.391l0.326-4.029c0.025-0.279,0.088-0.477,0.189-0.592c0.104-0.111,0.232-0.162,0.385-0.15
		c0.148,0.012,0.266,0.082,0.354,0.213c0.086,0.127,0.117,0.332,0.096,0.611l-0.551,6.787c-0.021,0.279-0.086,0.477-0.195,0.59
		c-0.107,0.113-0.232,0.164-0.379,0.15c-0.154-0.012-0.273-0.082-0.355-0.211c-0.084-0.129-0.113-0.334-0.092-0.613l0.129-1.58
		l-12.191-0.988l-0.129,1.582c-0.021,0.277-0.085,0.477-0.188,0.59c-0.104,0.113-0.232,0.164-0.387,0.152
		c-0.155-0.014-0.273-0.084-0.356-0.213s-0.114-0.334-0.091-0.613l0.553-6.828c0.131-1.613,0.651-2.896,1.563-3.854
		c0.908-0.953,1.92-1.385,3.031-1.295c0.656,0.053,1.236,0.268,1.736,0.641c0.5,0.375,0.883,0.807,1.145,1.297
		c0.396,0.736,0.672,1.486,0.822,2.25c0.109,0.555,0.133,1.23,0.066,2.033L166.252,404.54z M165.23,404.456l0.305-3.748
		c0.07-0.867-0.033-1.695-0.307-2.484c-0.275-0.785-0.643-1.375-1.1-1.764c-0.459-0.391-0.939-0.604-1.443-0.645
		c-0.803-0.066-1.557,0.271-2.262,1.014c-0.705,0.74-1.107,1.717-1.205,2.93l-0.339,4.184L165.23,404.456z"/>
	<path d="M169.869,383.417l-1.176,7.66l3.463,2.137l0.342-2.232c0.043-0.277,0.121-0.471,0.232-0.574
		c0.109-0.107,0.242-0.148,0.395-0.125c0.145,0.021,0.256,0.102,0.334,0.234c0.078,0.137,0.096,0.344,0.055,0.619l-0.672,4.357
		c-0.043,0.277-0.121,0.469-0.236,0.574c-0.115,0.105-0.244,0.146-0.389,0.125c-0.152-0.023-0.268-0.104-0.34-0.236
		c-0.074-0.135-0.09-0.342-0.049-0.619l0.139-0.902l-11.297-7.006l-0.529,3.441c-0.043,0.275-0.119,0.469-0.23,0.574
		c-0.111,0.105-0.244,0.146-0.395,0.125c-0.154-0.023-0.268-0.104-0.342-0.238c-0.073-0.133-0.09-0.34-0.047-0.617l0.902-5.869
		l13.979-3.674l0.139-0.902c0.043-0.275,0.119-0.469,0.23-0.574s0.242-0.146,0.396-0.123c0.145,0.021,0.256,0.102,0.332,0.234
		c0.078,0.137,0.096,0.342,0.053,0.619l-0.666,4.344c-0.045,0.287-0.125,0.482-0.238,0.588c-0.115,0.105-0.246,0.146-0.391,0.125
		c-0.152-0.023-0.266-0.104-0.342-0.236c-0.072-0.135-0.088-0.346-0.043-0.633l0.342-2.221L169.869,383.417z M168.789,383.706
		l-7.867,2.086l-0.066,0.43l6.893,4.256L168.789,383.706z"/>
	<path d="M170.59,371.599l5.283,1.207l0.682-2.982c0.063-0.273,0.152-0.46,0.271-0.559c0.119-0.098,0.252-0.129,0.402-0.095
		c0.145,0.032,0.248,0.119,0.316,0.26c0.07,0.142,0.072,0.348,0.01,0.621l-1.629,7.129c-0.063,0.273-0.156,0.459-0.277,0.557
		c-0.123,0.098-0.256,0.131-0.396,0.098c-0.152-0.035-0.26-0.119-0.326-0.256c-0.064-0.133-0.064-0.342,0-0.625l0.682-2.983
		l-5.283-1.208l-7.795,3.533l-0.156,0.684c-0.063,0.275-0.152,0.461-0.271,0.559c-0.117,0.098-0.252,0.131-0.404,0.096
		c-0.15-0.035-0.258-0.121-0.32-0.262c-0.064-0.139-0.066-0.346-0.004-0.619l0.723-3.162c0.063-0.272,0.152-0.459,0.271-0.557
		c0.117-0.1,0.254-0.13,0.404-0.095c0.15,0.033,0.258,0.12,0.322,0.261c0.064,0.139,0.064,0.346,0.002,0.619l-0.26,1.136
		l6.611-3.011l-4.67-5.488l-0.256,1.123c-0.064,0.283-0.156,0.474-0.273,0.571c-0.119,0.098-0.254,0.129-0.404,0.095
		c-0.152-0.035-0.26-0.121-0.324-0.262c-0.063-0.14-0.063-0.351,0.002-0.634l0.719-3.146c0.063-0.274,0.154-0.46,0.271-0.558
		c0.119-0.098,0.252-0.13,0.404-0.096c0.15,0.034,0.258,0.121,0.322,0.261c0.063,0.141,0.064,0.347,0.002,0.619l-0.156,0.686
		L170.59,371.599z"/>
	<path d="M169.039,351.674l-0.328-0.101c-0.232-0.07-0.385-0.174-0.455-0.309c-0.07-0.134-0.078-0.286-0.025-0.456
		c0.051-0.17,0.143-0.291,0.275-0.362c0.133-0.071,0.316-0.071,0.551-0.001l2.496,0.764c0.234,0.072,0.387,0.175,0.455,0.308
		c0.07,0.135,0.08,0.286,0.027,0.457c-0.049,0.16-0.137,0.278-0.262,0.354c-0.123,0.074-0.293,0.084-0.506,0.028
		c-0.668-0.154-1.373,0.053-2.117,0.622c-0.744,0.57-1.297,1.445-1.658,2.628c-0.381,1.243-0.404,2.317-0.072,3.222
		c0.332,0.905,0.875,1.472,1.631,1.702c0.389,0.119,0.773,0.124,1.156,0.016c0.383-0.107,0.725-0.302,1.027-0.581
		c0.302-0.279,0.58-0.616,0.83-1.008c0.254-0.395,0.584-1.025,0.996-1.898c0.686-1.464,1.23-2.451,1.633-2.964
		c0.541-0.687,1.143-1.146,1.801-1.381c0.658-0.235,1.354-0.239,2.086-0.016c1.119,0.342,1.918,1.147,2.395,2.42
		c0.475,1.271,0.445,2.777-0.088,4.522c-0.6,1.96-1.611,3.363-3.035,4.21l0.561,0.172c0.232,0.071,0.385,0.175,0.455,0.308
		c0.07,0.135,0.078,0.286,0.025,0.456c-0.049,0.162-0.139,0.28-0.273,0.355c-0.135,0.077-0.318,0.079-0.553,0.01l-2.709-0.828
		c-0.24-0.074-0.396-0.179-0.465-0.313c-0.07-0.134-0.078-0.286-0.027-0.456c0.049-0.161,0.137-0.278,0.26-0.354
		c0.127-0.074,0.295-0.084,0.51-0.028c0.729,0.174,1.516-0.066,2.357-0.725c0.844-0.657,1.482-1.693,1.914-3.107
		c0.432-1.414,0.465-2.625,0.102-3.632c-0.365-1.007-0.967-1.638-1.809-1.896c-0.514-0.156-1.018-0.14-1.514,0.052
		c-0.498,0.19-0.957,0.56-1.379,1.104c-0.295,0.38-0.752,1.22-1.369,2.519c-0.844,1.788-1.672,3.007-2.484,3.658
		c-0.812,0.652-1.736,0.82-2.77,0.505c-1.027-0.314-1.768-1.057-2.217-2.228c-0.451-1.17-0.441-2.529,0.033-4.078
		C166.98,353.771,167.826,352.546,169.039,351.674z"/>
	<path d="M182.189,340.473l-2.795,7.229l2.924,2.83l0.816-2.107c0.1-0.262,0.217-0.433,0.348-0.513
		c0.131-0.079,0.27-0.092,0.414-0.036c0.137,0.053,0.227,0.154,0.275,0.303c0.047,0.148,0.02,0.354-0.082,0.615l-1.59,4.112
		c-0.1,0.262-0.219,0.432-0.354,0.511c-0.135,0.078-0.271,0.09-0.408,0.037c-0.143-0.057-0.236-0.156-0.279-0.305
		c-0.045-0.146-0.016-0.353,0.086-0.613l0.328-0.853l-9.531-9.268l-1.254,3.248c-0.102,0.262-0.219,0.433-0.35,0.512
		c-0.131,0.08-0.268,0.092-0.414,0.036c-0.143-0.056-0.236-0.157-0.279-0.305c-0.043-0.146-0.016-0.353,0.086-0.613l2.141-5.538
		l14.439-0.59l0.33-0.852c0.102-0.262,0.217-0.433,0.348-0.513c0.131-0.08,0.27-0.092,0.414-0.035
		c0.137,0.054,0.229,0.152,0.275,0.303c0.047,0.147,0.02,0.354-0.082,0.614l-1.584,4.1c-0.104,0.271-0.223,0.444-0.359,0.522
		c-0.135,0.078-0.27,0.091-0.406,0.038c-0.145-0.056-0.238-0.157-0.281-0.305c-0.043-0.146-0.014-0.355,0.092-0.627l0.809-2.095
		L182.189,340.473z M181.07,340.522l-8.131,0.348l-0.156,0.406l5.818,5.635L181.07,340.522z"/>
	<path d="M188.945,324.332l3.973,1.877c0.008,0.997-0.082,1.946-0.264,2.849c-0.184,0.901-0.465,1.756-0.846,2.56
		c-0.539,1.143-1.162,2.077-1.865,2.806c-0.705,0.729-1.463,1.269-2.277,1.618c-0.813,0.352-1.625,0.539-2.439,0.563
		c-0.813,0.025-1.723-0.2-2.73-0.677l-1.699-0.804c-1.016-0.479-1.867-1.236-2.553-2.27c-0.688-1.032-1.047-2.174-1.08-3.421
		c-0.031-1.247,0.232-2.462,0.793-3.646c0.811-1.718,1.906-2.977,3.281-3.775c-0.359-0.17-0.57-0.288-0.629-0.353
		c-0.061-0.063-0.096-0.155-0.107-0.275c-0.012-0.119,0.012-0.235,0.068-0.354c0.07-0.152,0.178-0.258,0.322-0.313
		c0.145-0.057,0.326-0.032,0.547,0.071l2.098,0.991c0.227,0.107,0.363,0.233,0.408,0.38c0.043,0.145,0.029,0.293-0.043,0.445
		c-0.068,0.144-0.166,0.243-0.297,0.302c-0.131,0.058-0.305,0.04-0.523-0.054c-0.648-0.243-1.381-0.019-2.195,0.68
		c-0.816,0.694-1.469,1.564-1.961,2.604c-0.463,0.982-0.695,1.957-0.697,2.923c-0.004,0.968,0.355,2.039,1.078,3.22
		c0.469,0.779,1.137,1.375,2.004,1.785L183,334.86c1.537,0.727,3.016,0.762,4.432,0.105s2.574-1.936,3.475-3.84
		c0.303-0.644,0.527-1.267,0.668-1.873c0.143-0.604,0.24-1.347,0.293-2.222l-3.432-1.621l-1.732,3.668
		c-0.121,0.254-0.248,0.416-0.385,0.486c-0.137,0.069-0.275,0.071-0.416,0.006c-0.139-0.066-0.227-0.176-0.264-0.327
		c-0.035-0.151,0.006-0.354,0.127-0.608l2.432-5.122c0.121-0.254,0.248-0.416,0.385-0.484c0.137-0.07,0.275-0.072,0.416-0.006
		c0.094,0.045,0.168,0.119,0.217,0.226c0.049,0.105,0.066,0.208,0.051,0.305S189.145,323.909,188.945,324.332z"/>
	<path d="M186.428,312.435l10.656,6.008l1.984-3.521c0.137-0.245,0.277-0.397,0.418-0.458c0.143-0.06,0.279-0.052,0.414,0.024
		c0.127,0.07,0.205,0.185,0.23,0.339c0.023,0.153-0.031,0.353-0.17,0.598l-4.551,8.07c-0.137,0.245-0.277,0.396-0.424,0.454
		c-0.145,0.059-0.279,0.052-0.406-0.021c-0.135-0.076-0.215-0.189-0.236-0.342s0.037-0.35,0.174-0.595l1.986-3.522l-10.656-6.006
		l-1.984,3.522c-0.137,0.243-0.277,0.396-0.418,0.455c-0.143,0.061-0.281,0.053-0.416-0.022c-0.133-0.076-0.211-0.189-0.234-0.342
		c-0.021-0.152,0.037-0.352,0.174-0.597l4.551-8.069c0.139-0.245,0.277-0.396,0.418-0.457c0.143-0.061,0.279-0.054,0.414,0.022
		c0.135,0.076,0.213,0.19,0.236,0.343c0.021,0.151-0.037,0.351-0.176,0.595L186.428,312.435z"/>
	<path d="M196.586,296.171l-0.285-0.188c-0.203-0.135-0.32-0.277-0.348-0.425c-0.029-0.148,0.006-0.296,0.104-0.444
		c0.098-0.148,0.221-0.238,0.367-0.27c0.148-0.031,0.324,0.021,0.527,0.155l2.18,1.443c0.203,0.135,0.318,0.275,0.348,0.424
		c0.027,0.148-0.006,0.297-0.105,0.444c-0.092,0.141-0.209,0.229-0.35,0.265c-0.143,0.036-0.307-0.003-0.494-0.116
		c-0.598-0.339-1.332-0.341-2.207-0.006c-0.877,0.334-1.656,1.017-2.338,2.046c-0.719,1.085-1.047,2.108-0.984,3.068
		c0.061,0.961,0.42,1.659,1.078,2.096c0.338,0.226,0.707,0.34,1.104,0.345s0.781-0.083,1.148-0.266
		c0.371-0.183,0.732-0.425,1.086-0.729c0.354-0.304,0.852-0.815,1.494-1.537c1.072-1.208,1.877-2,2.408-2.377
		c0.715-0.503,1.422-0.772,2.119-0.811c0.699-0.037,1.367,0.156,2.004,0.578c0.977,0.646,1.512,1.647,1.607,3.001
		c0.094,1.354-0.363,2.791-1.371,4.313c-1.133,1.708-2.502,2.767-4.107,3.172l0.488,0.324c0.203,0.134,0.318,0.276,0.348,0.425
		c0.027,0.147-0.006,0.297-0.104,0.443c-0.094,0.141-0.217,0.229-0.365,0.264c-0.15,0.035-0.328-0.015-0.531-0.148l-2.361-1.564
		c-0.209-0.139-0.33-0.282-0.357-0.431c-0.029-0.148,0.006-0.297,0.104-0.444c0.094-0.142,0.211-0.229,0.352-0.265
		c0.141-0.035,0.305,0.003,0.494,0.116c0.648,0.375,1.473,0.367,2.467-0.023c0.996-0.39,1.902-1.201,2.719-2.434
		c0.817-1.233,1.193-2.383,1.131-3.452s-0.461-1.847-1.193-2.332c-0.449-0.297-0.938-0.424-1.467-0.383
		c-0.529,0.042-1.076,0.264-1.637,0.668c-0.389,0.279-1.066,0.955-2.029,2.022c-1.316,1.475-2.459,2.407-3.422,2.802
		c-0.965,0.395-1.898,0.292-2.801-0.307c-0.895-0.593-1.391-1.515-1.49-2.765s0.299-2.55,1.191-3.9
		C194.016,297.595,195.176,296.662,196.586,296.171z"/>
	<path d="M203.625,286.617l9.691,7.462l1.867-2.425c0.172-0.223,0.332-0.354,0.479-0.393c0.15-0.039,0.285-0.012,0.408,0.083
		c0.115,0.089,0.176,0.211,0.178,0.367c0.004,0.155-0.082,0.346-0.252,0.568l-4.463,5.795c-0.17,0.223-0.332,0.352-0.482,0.389
		c-0.152,0.037-0.285,0.011-0.402-0.079c-0.121-0.094-0.184-0.218-0.184-0.371c0-0.153,0.086-0.342,0.258-0.564l1.867-2.425
		l-9.693-7.461l-2.945,3.826l2.814,2.166c0.201,0.155,0.309,0.307,0.328,0.456c0.018,0.149-0.027,0.296-0.137,0.437
		c-0.102,0.133-0.23,0.212-0.383,0.236c-0.152,0.025-0.328-0.04-0.527-0.194l-3.627-2.793l8.059-10.466l3.627,2.792
		c0.199,0.154,0.309,0.307,0.326,0.456s-0.027,0.295-0.135,0.436c-0.109,0.142-0.238,0.222-0.387,0.242
		c-0.15,0.021-0.324-0.046-0.525-0.199l-2.814-2.167L203.625,286.617z"/>
	<path d="M215.354,282.232l4.389,3.9l6.025-6.778l-2.264-2.011c-0.182-0.163-0.277-0.319-0.285-0.471
		c-0.008-0.149,0.049-0.291,0.166-0.425c0.119-0.133,0.252-0.204,0.402-0.215c0.15-0.01,0.318,0.066,0.5,0.229l3.029,2.692
		l-8.645,9.727c-0.186,0.21-0.355,0.328-0.512,0.354c-0.152,0.026-0.285-0.009-0.393-0.106c-0.117-0.103-0.168-0.23-0.158-0.384
		c0.012-0.153,0.109-0.335,0.297-0.544l1.053-1.187l-9.143-8.125l-1.053,1.186c-0.188,0.21-0.355,0.329-0.506,0.358
		c-0.152,0.028-0.285-0.009-0.4-0.111c-0.115-0.102-0.168-0.23-0.156-0.384c0.01-0.152,0.109-0.335,0.295-0.545l8.234-9.265
		l2.639,2.344c0.182,0.162,0.277,0.318,0.283,0.47c0.008,0.149-0.047,0.292-0.166,0.425c-0.117,0.133-0.252,0.204-0.402,0.215
		c-0.15,0.01-0.316-0.066-0.5-0.229l-1.869-1.662l-5.615,6.316l3.988,3.544l2.807-3.158l-0.867-0.771
		c-0.182-0.162-0.275-0.32-0.279-0.475c-0.006-0.153,0.051-0.298,0.17-0.431c0.111-0.126,0.244-0.195,0.398-0.209
		c0.152-0.014,0.32,0.06,0.504,0.223l2.5,2.222c0.182,0.162,0.277,0.32,0.281,0.475c0.004,0.155-0.051,0.294-0.162,0.42
		c-0.117,0.133-0.254,0.206-0.406,0.221c-0.154,0.013-0.324-0.061-0.506-0.223l-0.865-0.771L215.354,282.232z"/>
	<path d="M239.588,250.404l-0.465-0.55c-0.158-0.187-0.229-0.354-0.215-0.505c0.014-0.151,0.088-0.283,0.225-0.397
		c0.137-0.114,0.279-0.167,0.43-0.155c0.151,0.012,0.305,0.11,0.461,0.297l1.834,2.174c0.164,0.192,0.238,0.364,0.225,0.515
		c-0.013,0.151-0.09,0.283-0.225,0.397c-0.123,0.103-0.256,0.151-0.4,0.146c-0.145-0.006-0.297-0.086-0.451-0.242
		c-0.477-0.492-1.195-0.681-2.15-0.566c-1.297,0.146-2.475,0.668-3.533,1.561c-0.693,0.585-1.234,1.271-1.625,2.058
		c-0.295,0.579-0.459,1.124-0.494,1.633c-0.063,0.884,0.016,1.738,0.234,2.564c0.168,0.604,0.482,1.181,0.945,1.729l1.156,1.371
		c0.988,1.169,2.33,1.773,4.029,1.813c1.699,0.04,3.193-0.482,4.48-1.568c0.773-0.652,1.342-1.383,1.707-2.191
		c0.363-0.808,0.582-1.749,0.656-2.823c0.012-0.232,0.092-0.413,0.242-0.539c0.129-0.109,0.262-0.163,0.396-0.16
		c0.139,0.002,0.252,0.056,0.34,0.162c0.121,0.143,0.15,0.49,0.09,1.042c-0.104,1.067-0.398,2.055-0.889,2.962
		c-0.49,0.908-1.109,1.679-1.859,2.313c-0.65,0.549-1.404,0.998-2.262,1.348c-0.656,0.267-1.246,0.431-1.771,0.489
		c-0.525,0.061-1.258,0.031-2.195-0.087c-0.939-0.118-1.688-0.327-2.248-0.628c-0.559-0.299-1.066-0.72-1.523-1.261l-1.346-1.595
		c-0.65-0.771-1.078-1.761-1.283-2.968c-0.203-1.207-0.076-2.375,0.385-3.504c0.463-1.129,1.176-2.102,2.141-2.917
		C236.117,251.066,237.77,250.427,239.588,250.404z"/>
	<path d="M257.063,244.606c0.805,1.106,1.293,2.318,1.465,3.637c0.172,1.319-0.004,2.57-0.523,3.756
		c-0.523,1.184-1.303,2.152-2.34,2.906c-1.535,1.117-3.301,1.534-5.297,1.249c-1.996-0.285-3.639-1.316-4.932-3.093
		c-1.297-1.784-1.771-3.667-1.426-5.649c0.348-1.982,1.289-3.532,2.824-4.649c1.037-0.754,2.197-1.195,3.48-1.324
		c1.285-0.129,2.527,0.09,3.73,0.654C255.248,242.656,256.254,243.495,257.063,244.606z M256.098,245.309
		c-0.982-1.349-2.313-2.232-3.994-2.65c-1.68-0.417-3.236-0.106-4.666,0.933c-1.34,0.976-2.111,2.319-2.318,4.033
		c-0.205,1.715,0.219,3.296,1.271,4.744c1.119,1.54,2.533,2.437,4.238,2.69s3.184-0.073,4.434-0.982
		c1.43-1.04,2.207-2.422,2.33-4.146S257.084,246.665,256.098,245.309z"/>
	<path d="M272.402,243.403l-1.289,0.801l-14.127-6.263l6.207,9.981l1.848-1.149c0.248-0.153,0.445-0.222,0.6-0.207
		c0.152,0.016,0.27,0.088,0.352,0.22c0.078,0.125,0.09,0.26,0.037,0.407c-0.051,0.147-0.201,0.297-0.445,0.45l-3.684,2.291
		c-0.246,0.154-0.447,0.221-0.602,0.202c-0.156-0.019-0.271-0.09-0.35-0.214c-0.082-0.132-0.096-0.27-0.041-0.413
		c0.053-0.144,0.203-0.292,0.449-0.445l0.836-0.519l-6.461-10.387l-1.348,0.839c-0.238,0.147-0.434,0.215-0.586,0.198
		c-0.152-0.015-0.27-0.088-0.352-0.219s-0.096-0.269-0.043-0.413c0.055-0.144,0.201-0.29,0.439-0.438l2.623-1.631l14.152,6.275
		l-6.223-10.002l-1.846,1.15c-0.238,0.147-0.434,0.214-0.586,0.199c-0.154-0.016-0.271-0.089-0.354-0.22
		c-0.08-0.132-0.098-0.268-0.047-0.409c0.049-0.142,0.197-0.289,0.443-0.442l3.695-2.298c0.238-0.148,0.434-0.215,0.586-0.2
		c0.154,0.016,0.271,0.089,0.354,0.22c0.08,0.132,0.096,0.27,0.041,0.413c-0.053,0.144-0.201,0.289-0.439,0.438l-0.846,0.526
		L272.402,243.403z"/>
	<path d="M278.74,225.394l-0.336-0.638c-0.113-0.216-0.146-0.396-0.102-0.539c0.047-0.144,0.146-0.258,0.305-0.341
		c0.158-0.082,0.309-0.102,0.453-0.059s0.273,0.174,0.387,0.39l1.324,2.518c0.117,0.223,0.152,0.406,0.107,0.55
		c-0.047,0.145-0.148,0.258-0.305,0.34c-0.141,0.074-0.281,0.094-0.422,0.057c-0.141-0.035-0.271-0.146-0.391-0.333
		c-0.359-0.583-1.018-0.921-1.977-1.015c-1.299-0.136-2.561,0.119-3.785,0.764c-0.805,0.423-1.48,0.977-2.029,1.66
		c-0.414,0.502-0.691,0.998-0.836,1.487c-0.252,0.85-0.357,1.702-0.322,2.556c0.033,0.626,0.217,1.256,0.551,1.89l0.836,1.589
		c0.711,1.354,1.893,2.233,3.545,2.638c1.65,0.406,3.221,0.216,4.713-0.568c0.895-0.471,1.607-1.062,2.137-1.772
		c0.53-0.71,0.947-1.582,1.25-2.615c0.061-0.226,0.178-0.384,0.352-0.476c0.148-0.078,0.291-0.102,0.424-0.07
		c0.133,0.032,0.23,0.108,0.295,0.23c0.088,0.165,0.043,0.512-0.137,1.037c-0.33,1.021-0.832,1.921-1.504,2.702
		c-0.674,0.781-1.445,1.4-2.314,1.858c-0.754,0.396-1.586,0.673-2.498,0.831c-0.699,0.119-1.311,0.151-1.836,0.098
		c-0.525-0.056-1.234-0.241-2.125-0.559c-0.893-0.317-1.578-0.683-2.061-1.096c-0.48-0.414-0.887-0.934-1.217-1.561l-0.971-1.847
		c-0.471-0.894-0.674-1.951-0.615-3.174c0.061-1.223,0.438-2.335,1.131-3.339s1.598-1.8,2.717-2.388
		C275.207,225.292,276.959,225.024,278.74,225.394z"/>
	<path d="M286.992,228.112l2.354,5.381l8.309-3.634l-1.213-2.773c-0.098-0.224-0.119-0.405-0.063-0.546
		c0.057-0.14,0.166-0.245,0.33-0.316c0.16-0.071,0.313-0.08,0.455-0.026c0.141,0.054,0.26,0.192,0.357,0.416l1.625,3.714
		l-11.926,5.213c-0.256,0.113-0.459,0.148-0.611,0.107c-0.15-0.04-0.254-0.128-0.313-0.262c-0.063-0.142-0.057-0.28,0.018-0.415
		c0.074-0.134,0.24-0.258,0.496-0.37l1.455-0.636l-4.9-11.206l-1.453,0.635c-0.258,0.112-0.461,0.15-0.609,0.113
		c-0.15-0.037-0.256-0.127-0.318-0.268c-0.061-0.143-0.055-0.28,0.02-0.415c0.072-0.134,0.24-0.258,0.496-0.37l11.357-4.966
		l1.414,3.232c0.098,0.224,0.117,0.405,0.063,0.546c-0.057,0.14-0.168,0.245-0.328,0.316c-0.164,0.071-0.316,0.08-0.457,0.026
		c-0.141-0.054-0.26-0.192-0.357-0.416l-1.004-2.293l-7.742,3.386l2.137,4.888l3.871-1.692l-0.465-1.063
		c-0.098-0.225-0.115-0.407-0.055-0.549c0.061-0.143,0.172-0.248,0.334-0.32c0.154-0.067,0.305-0.075,0.451-0.023
		c0.145,0.053,0.266,0.19,0.363,0.413l1.34,3.065c0.098,0.223,0.117,0.406,0.057,0.548c-0.061,0.143-0.168,0.247-0.322,0.314
		c-0.162,0.071-0.318,0.081-0.463,0.028c-0.146-0.052-0.266-0.188-0.365-0.413l-0.463-1.063L286.992,228.112z"/>
	<path d="M302.461,222.87l1.613,4.557l3.811-1.35c0.266-0.094,0.471-0.117,0.617-0.069c0.145,0.048,0.244,0.145,0.295,0.29
		c0.051,0.139,0.033,0.273-0.049,0.406c-0.082,0.133-0.254,0.246-0.521,0.34l-6.418,2.272c-0.264,0.094-0.469,0.115-0.617,0.063
		c-0.146-0.052-0.246-0.146-0.293-0.284c-0.053-0.146-0.037-0.283,0.047-0.412c0.084-0.128,0.258-0.24,0.521-0.334l1.496-0.529
		l-4.082-11.529l-1.496,0.529c-0.266,0.093-0.471,0.117-0.615,0.068c-0.148-0.048-0.244-0.144-0.297-0.29
		c-0.051-0.145-0.035-0.282,0.047-0.411c0.084-0.129,0.258-0.24,0.523-0.334l6.457-2.287c1.527-0.54,2.91-0.59,4.154-0.149
		c1.242,0.44,2.051,1.186,2.422,2.236c0.221,0.621,0.262,1.237,0.125,1.847c-0.137,0.61-0.375,1.135-0.715,1.574
		c-0.51,0.664-1.082,1.221-1.717,1.67c-0.461,0.327-1.07,0.625-1.828,0.894L302.461,222.87z M302.119,221.903l3.545-1.256
		c0.82-0.29,1.535-0.723,2.141-1.295c0.605-0.573,0.992-1.148,1.162-1.727c0.168-0.576,0.168-1.104-0.002-1.579
		c-0.268-0.759-0.885-1.31-1.85-1.649c-0.965-0.341-2.021-0.308-3.166,0.099l-3.959,1.4L302.119,221.903z"/>
	<path d="M317.77,210.234l3.248,11.792l2.949-0.813c0.27-0.074,0.477-0.083,0.619-0.025c0.143,0.059,0.234,0.162,0.273,0.311
		c0.039,0.141,0.014,0.275-0.078,0.401c-0.09,0.127-0.271,0.228-0.541,0.302l-7.053,1.942c-0.271,0.074-0.479,0.08-0.621,0.02
		c-0.143-0.063-0.234-0.164-0.271-0.306c-0.043-0.148-0.018-0.285,0.076-0.406c0.092-0.123,0.273-0.222,0.543-0.297l2.951-0.813
		l-3.248-11.793l-4.654,1.282l0.941,3.425c0.068,0.243,0.063,0.431-0.012,0.561c-0.076,0.131-0.199,0.22-0.371,0.267
		c-0.162,0.045-0.313,0.031-0.447-0.041c-0.137-0.072-0.238-0.229-0.305-0.473l-1.217-4.414l12.736-3.508l1.215,4.414
		c0.066,0.243,0.063,0.43-0.012,0.561c-0.078,0.131-0.201,0.22-0.371,0.267c-0.172,0.048-0.324,0.034-0.455-0.039
		c-0.133-0.073-0.232-0.232-0.299-0.476l-0.943-3.424L317.77,210.234z"/>
	<path d="M329.787,213.794l1.152,5.758l8.891-1.778l-0.592-2.969c-0.049-0.239-0.029-0.421,0.055-0.546s0.215-0.205,0.389-0.239
		c0.174-0.035,0.326-0.012,0.451,0.071c0.125,0.082,0.213,0.243,0.262,0.483l0.795,3.974l-12.762,2.552
		c-0.275,0.055-0.482,0.046-0.621-0.026c-0.139-0.071-0.221-0.179-0.25-0.322c-0.029-0.151,0.006-0.285,0.105-0.401
		c0.102-0.115,0.289-0.2,0.564-0.256l1.557-0.312l-2.398-11.993l-1.557,0.311c-0.273,0.055-0.48,0.048-0.619-0.02
		c-0.137-0.067-0.221-0.178-0.252-0.329c-0.029-0.151,0.006-0.285,0.105-0.4c0.102-0.116,0.289-0.201,0.564-0.257l12.156-2.43
		l0.691,3.459c0.047,0.239,0.029,0.422-0.057,0.547c-0.084,0.124-0.215,0.204-0.389,0.239c-0.174,0.035-0.324,0.011-0.451-0.072
		c-0.125-0.082-0.213-0.243-0.26-0.482l-0.49-2.453l-8.287,1.656l1.047,5.231l4.143-0.829l-0.229-1.137
		c-0.047-0.239-0.027-0.423,0.063-0.549c0.09-0.125,0.223-0.206,0.396-0.24c0.164-0.033,0.313-0.009,0.443,0.073
		c0.13,0.082,0.221,0.242,0.268,0.481l0.656,3.279c0.049,0.24,0.027,0.422-0.063,0.548c-0.088,0.126-0.217,0.206-0.381,0.238
		c-0.176,0.035-0.328,0.012-0.459-0.07c-0.131-0.081-0.219-0.242-0.268-0.481l-0.227-1.138L329.787,213.794z"/>
	<path d="M353.303,203.588l1.076,8.502c0.182,1.429-0.215,2.696-1.188,3.805c-0.973,1.107-2.236,1.759-3.785,1.955
		c-1.039,0.132-1.988,0.051-2.848-0.243c-0.857-0.293-1.621-0.805-2.289-1.537c-0.668-0.731-1.063-1.581-1.186-2.551l-1.076-8.5
		l-0.988,0.125c-0.279,0.035-0.484,0.014-0.617-0.063c-0.133-0.078-0.207-0.193-0.229-0.347c-0.02-0.153,0.031-0.291,0.146-0.412
		c0.102-0.095,0.291-0.16,0.568-0.195l4.32-0.547c0.277-0.035,0.482-0.014,0.615,0.063c0.133,0.077,0.207,0.193,0.229,0.347
		c0.018,0.153-0.027,0.284-0.135,0.393c-0.109,0.107-0.303,0.18-0.582,0.215l-2.158,0.273l1.076,8.501
		c0.143,1.122,0.703,2.02,1.686,2.69c0.98,0.672,2.074,0.932,3.281,0.778c0.771-0.098,1.455-0.34,2.053-0.728
		c0.596-0.387,1.094-0.93,1.49-1.629c0.398-0.698,0.547-1.447,0.445-2.246l-1.076-8.502l-2.158,0.274
		c-0.279,0.034-0.484,0.014-0.617-0.063c-0.133-0.078-0.209-0.193-0.227-0.347c-0.021-0.153,0.023-0.284,0.133-0.393
		c0.109-0.107,0.303-0.18,0.582-0.215l4.316-0.547c0.279-0.035,0.484-0.014,0.617,0.063c0.131,0.077,0.207,0.193,0.229,0.347
		c0.018,0.153-0.027,0.284-0.135,0.393c-0.109,0.107-0.303,0.179-0.582,0.215L353.303,203.588z"/>
	<path d="M359.652,209.987l0.293,5.34l2.172-0.119c0.289-0.016,0.498,0.02,0.625,0.106c0.125,0.087,0.193,0.207,0.201,0.361
		c0.008,0.146-0.047,0.271-0.162,0.376c-0.115,0.104-0.318,0.164-0.607,0.18l-4.936,0.27c-0.279,0.016-0.482-0.022-0.609-0.113
		c-0.127-0.091-0.195-0.209-0.203-0.355c-0.008-0.154,0.045-0.281,0.162-0.382c0.115-0.1,0.314-0.157,0.596-0.173l1.582-0.087
		l-0.666-12.213l-1.584,0.087c-0.281,0.016-0.484-0.021-0.609-0.107c-0.129-0.087-0.195-0.207-0.203-0.362
		c-0.01-0.154,0.045-0.281,0.16-0.382c0.117-0.1,0.316-0.157,0.596-0.173l7.121-0.39c1.467-0.08,2.725,0.257,3.773,1.012
		c1.049,0.753,1.602,1.637,1.656,2.652c0.041,0.732-0.232,1.438-0.818,2.118c-0.586,0.68-1.598,1.274-3.031,1.785
		c0.869,0.458,1.619,0.987,2.252,1.588c0.633,0.602,1.662,1.849,3.088,3.744l0.896-0.049c0.279-0.016,0.484,0.021,0.609,0.106
		c0.127,0.087,0.195,0.208,0.203,0.362c0.008,0.146-0.047,0.271-0.162,0.375c-0.115,0.104-0.314,0.164-0.594,0.18l-1.57,0.086
		c-1.582-2.188-2.793-3.646-3.635-4.373c-0.842-0.729-1.793-1.28-2.854-1.654L359.652,209.987z M359.596,208.965l3.211-0.177
		c1.027-0.056,1.951-0.269,2.77-0.641c0.818-0.37,1.404-0.785,1.76-1.244c0.354-0.46,0.52-0.917,0.494-1.372
		c-0.037-0.683-0.469-1.313-1.291-1.886c-0.822-0.574-1.801-0.831-2.932-0.77l-4.33,0.237L359.596,208.965z"/>
</g>
<g>
	<path fill="#C5CE17" d="M413.308,475.536c0-21.223-17.209-38.428-38.432-38.428c-21.23,0-38.439,17.203-38.439,38.428
		c0,21.227,17.209,38.436,38.439,38.436C396.099,513.971,413.308,496.762,413.308,475.536z"/>
</g>
<g>
	<path d="M248.367,401.178c0.097-5.908-3.545-3.041-3.545-6.768c0-2.639,2.816-3.041,4.516-3.041h15.828
		c13.498,0,17.917,9.867,17.917,20.189c0,10.668-5.293,20.707-17.577,20.707c-2.087,0-3.835-0.057-5.341-0.172
		c-1.505-0.059-2.815-0.115-4.175-0.115c-1.36,0-2.768,0.057-4.128,0.115c-1.359,0.115-2.719,0.172-4.127,0.172
		c-1.65,0-3.738-0.975-3.738-3.27c0-4.129,3.836,0.459,3.981-7.916L248.367,401.178z M260.02,422.17
		c0,2.926,0.389,4.131,3.011,4.131c6.117,0,7.186-7.398,7.186-13.135c0-13.422-4.272-15.545-8.011-15.545
		c-2.04,0-2.186,0.975-2.186,3.156V422.17z"/>
	<path fill="#913B8E" d="M316.201,401.694c0-6.139-4.176-3.785-4.176-7.113c0-3.555,5.633-3.441,7.623-3.441
		c1.845,0,7.187,0,7.187,3.328c0,3.211-3.642,1.262-3.642,6.48v15.486c0,2.582,0.048,16.348-16.751,16.348
		c-19.131,0-16.994-17.438-16.994-18.125v-13.25c0.194-3.613-3.107-3.613-3.107-6.252c0-0.803-0.534-4.016,9.468-4.016
		c7.914,0,9.517,1.723,9.517,3.959c0,4.129-3.544,0.287-3.787,7.283v10.555c0,6.826,2.185,11.186,7.332,11.186
		c7.671,0,7.331-7.514,7.331-8.146L316.201,401.694L316.201,401.694z"/>
	<path d="M333.299,403.702c0-8.891-3.69-5.219-3.69-8.775c0-3.154,3.787-3.557,5.729-3.557c1.02,0,1.99,0.115,3.01,0.172
		c0.972,0.115,1.991,0.23,2.962,0.23c1.554,0,3.107-0.115,4.71-0.23c1.554-0.057,3.156-0.172,4.71-0.172
		c5.486,0,11.847,2.869,11.847,10.498c0,3.439-1.408,6.768-4.127,8.316c-0.437,0.287-0.776,0.459-0.776,1.146
		c0,0.861,0.631,1.09,1.213,1.377c3.399,1.492,4.904,4.129,5.584,10.324c0.583,5.334,3.738,2.123,3.738,5.621
		c0,2.18-2.233,4.475-7.72,4.475c-7.769,0-8.739-5.277-10.244-12.848c-0.534-2.639-1.36-5.221-4.03-5.221
		c-1.068,0-1.457,0.174-1.457,3.787c0,1.662,0.098,3.957,0.34,5.563c0.389,2.639,2.865,1.836,2.865,4.59
		c0,2.064-1.214,3.613-9.08,3.613c-2.33,0-9.225,0-9.225-4.188c0-2.982,3.642-0.918,3.642-8.375L333.299,403.702L333.299,403.702z
		 M344.563,406.225c-0.097,1.492-0.34,2.754,1.263,2.754c3.156,0,4.176-2.064,4.176-5.621c0-2.811-0.583-5.678-3.398-5.678
		c-1.797,0-1.748,1.318-1.846,3.098L344.563,406.225z"/>
	<path d="M379.868,411.274c1.505-3.959,3.494-9.006,3.494-13.537c0-3.959,1.555-6.941,5.875-6.941c4.226,0,6.896,5.105,8.789,8.893
		c0.826,1.662,8.156,19.215,9.904,23.918c1.604,4.357,4.226,1.721,4.226,4.988c0,4.189-6.896,4.016-9.322,4.016
		c-6.942,0-11.119-0.057-11.119-3.613c0-2.752,2.962-1.721,2.962-3.729c0-2.58-1.214-2.811-9.031-2.811
		c-2.523,0-4.028,0.115-4.028,2.924c0,2.238,3.106,0.746,3.106,3.73c0,3.439-5.244,3.498-7.187,3.498
		c-6.943,0-7.574-1.549-7.574-3.385c0-2.695,2.622-1.893,4.03-3.957c1.067-1.549,2.088-4.303,2.815-6.137L379.868,411.274z
		 M390.063,415.403c0.485,0,1.941,0.113,1.941-0.746s-1.408-3.842-1.796-4.646c-0.438-0.916-1.263-3.039-2.331-3.039
		c-1.165,0-1.99,3.441-2.186,4.072c-0.194,0.631-1.02,2.867-1.02,3.555c0,0.977,1.215,0.805,1.748,0.805H390.063L390.063,415.403z"
		/>
	<path fill="#913B8E" d="M443.915,407.889c-0.438,0.459-0.874,0.803-0.874,1.549s0.534,0.975,1.02,1.262
		c1.991,0.918,5.438,3.959,5.438,8.775c0,5.736-3.253,12.791-13.013,12.791c-1.65,0-3.155-0.057-4.612-0.172
		c-1.457-0.057-2.913-0.113-4.418-0.113c-1.651,0-3.351,0.057-5.001,0.113c-1.651,0.115-3.302,0.172-5.001,0.172
		c-1.506,0-3.205-1.031-3.205-3.039c0-3.557,3.156,0.059,3.447-9.465l0.533-16.518c0.291-8.662-3.883-4.703-3.883-8.662
		c0-2.178,1.989-3.211,3.494-3.211c1.797,0,3.593,0.115,5.391,0.172c1.797,0.113,3.593,0.229,5.39,0.229
		c1.165,0,2.282-0.115,3.397-0.229c1.117-0.059,2.282-0.172,3.398-0.172c8.886,0,11.168,4.99,11.168,9.406
		C446.586,403.415,445.663,406.225,443.915,407.889z M429.786,405.366c0,2.236-0.097,3.326,1.408,3.326
		c2.913,0,3.593-2.408,3.593-5.564c0-2.58-0.729-5.793-3.398-5.793c-1.797,0-1.603,1.721-1.603,3.385V405.366L429.786,405.366z
		 M429.786,419.36c0,6.652,0.923,6.826,2.428,6.826c2.769,0,3.738-2.236,3.738-5.221c0-3.498-0.874-6.596-4.272-6.596
		c-1.505,0-1.845,0.918-1.894,2.123V419.36z"/>
	<path d="M456.981,431.979c-1.555,0-4.03,0.115-4.03-2.523c0-3.557,3.787-0.574,3.933-7.227c0.099-4.188,0.099-7.859,0.099-11.242
		c0-3.441-0.243-6.654-0.341-9.865c-0.098-4.818-4.369-2.295-4.369-5.564c0-4.188,7.622-4.418,10.002-4.418
		c9.711,0,10.195,1.951,10.195,3.9c0,3.328-3.836,0.803-3.836,6.195v18.24c0,4.131,0.583,6.137,4.03,6.137
		c8.254,0,5.438-7.973,8.545-7.973c2.187,0,3.011,2.752,3.011,4.934c0,4.473-2.719,10.209-4.952,10.209
		c-0.873,0-1.554-0.229-2.428-0.402c-0.923-0.229-1.991-0.4-3.642-0.4H456.981L456.981,431.979z"/>
	<path d="M506.025,391.772c6.506,0,7.429-1.148,8.205-1.148c2.768,0,3.934,5.621,3.934,8.145c0,1.895-0.632,4.131-2.525,4.131
		c-3.836,0-0.729-5.508-9.953-5.508c-5.39,0-4.854,1.148-4.854,7.744c0,3.328,0.146,3.441,3.106,3.441
		c3.69,0,0.924-6.367,4.37-6.367c2.815,0,3.011,6.482,3.011,8.719c0,2.352-0.341,9.234-3.253,9.234c-3.011,0,0-6.023-4.903-6.023
		c-2.04,0-1.991,2.182-1.991,4.016c0,8.375,0.485,7.973,5.584,7.973c9.953,0,7.137-8.086,11.118-8.086
		c1.554,0,2.331,2.064,2.331,3.67c0,3.9-2.622,10.898-4.564,10.898c-0.34,0-1.116-0.172-2.136-0.344
		c-1.068-0.115-2.428-0.287-4.079-0.287H489.47c-3.205,0-3.253-1.721-3.253-2.467c0-3.154,3.302-0.631,3.643-6.711
		c0.582-10.438,0.631-9.406,0.146-19.789c-0.34-8.773-4.03-4.244-4.03-8.316c0-3.498,4.078-2.924,6.069-2.924H506.025z"/>
</g>
<g>
	<g>
		<rect x="243.317" y="324.352" fill="none" width="338.271" height="109.139"/>
		<path fill="#913B8E" d="M302.287,366.158c0,2.34,0.313,3.51,2.418,4.68c1.561,0.858,2.652,1.326,2.652,3.276
			c0,1.873-0.156,5.771-15.522,5.771c-3.432,0-13.416-0.078-13.416-5.303c-0.313-6.006,5.46,0.624,5.46-15.21
			c0-4.212-0.936-4.056-4.836-4.056c-10.921,0-9.906,0.312-9.906,7.333c0,10.686,4.836,6.396,4.836,11.466
			c0,5.459-11.389,5.772-15.133,5.772c-3.588,0-14.431-0.313-14.431-5.616c0-1.639,1.171-2.652,2.496-3.276
			c2.809-1.326,3.822-1.092,3.822-17.396c0-20.749-0.312-19.031-3.198-20.593c-1.17-0.624-2.574-1.326-2.574-2.886
			c0-6.006,13.027-6.63,17.395-6.63c3.276,0,12.325,0.39,12.325,5.07c0,2.418-1.326,3.275-3.12,4.367
			c-1.95,1.093-2.418,2.028-2.418,8.971c0,4.368,2.027,3.821,5.771,3.821h3.979c5.148,0,4.992-0.779,4.992-3.197
			c0-8.502-1.326-9.049-2.34-9.595c-1.482-0.857-2.887-1.56-2.887-3.588c0-1.481-0.312-5.85,15.211-5.85
			c3.666,0,14.041,0.078,14.041,5.538c0,1.716-0.858,2.886-2.418,3.667c-2.341,1.014-3.199,0.779-3.199,13.182V366.158
			L302.287,366.158z"/>
		<path stroke="#000000" stroke-miterlimit="10" d="M312.581,351.494c0-16.537,13.183-28.237,30.187-28.237
			c21.529,0,29.798,18.955,29.798,29.018c0,16.771-14.821,27.847-30.733,27.847C325.373,380.122,312.581,368.108,312.581,351.494z
			 M339.18,334.879c-4.367,0-6.552,4.524-6.552,8.347c0,6.631,4.681,25.273,13.104,25.273c4.758,0,6.786-4.134,6.786-8.346
			C352.519,353.054,348.307,334.879,339.18,334.879z"/>
		<path stroke="#000000" stroke-miterlimit="10" d="M384.575,336.205c0-5.85-7.254-3.276-7.254-8.19c0-3.12,3.432-3.821,5.851-3.821
			c1.949,0,3.821,0.155,5.771,0.155c11.312,0,18.176-1.092,21.451-1.092c10.608,0,20.826,6.162,20.826,17.862
			c0,11.623-9.828,17.863-20.671,17.863c-2.34,0-4.68-0.391-6.786-0.391c-0.936,0-1.248,0.391-1.248,1.248v4.524
			c0.234,9.75,5.93,5.693,5.93,10.218c0,5.071-11.232,5.303-14.742,5.303c-3.276,0-14.821-0.078-14.821-5.147
			c0-4.291,5.694-1.639,5.694-8.035V336.205L384.575,336.205z M405.479,332.461c-3.041,0-2.965,0.937-2.965,2.496v11.701
			c0,1.638-0.701,3.432,3.512,3.432c5.147,0,7.176-3.899,7.176-8.658C413.202,336.517,410.706,332.461,405.479,332.461z"/>
	</g>
</g>
<path d="M229.468,501.334c23.951,42.529,66.256,74.217,118.158,82.803c71.157,11.771,139.233-23.373,172.649-82.803l0,0H229.468
	L229.468,501.334z"/>
<path fill="none" stroke="#000000" stroke-width="13" stroke-miterlimit="10" d="M558.586,449.961
	c-16.783,101.465-112.643,170.113-214.104,153.33C243.023,586.506,174.377,490.651,191.158,389.19
	c16.783-101.464,112.639-170.105,214.098-153.323C506.717,252.649,575.369,348.501,558.586,449.961z"/>
<g id="XMLID_5_">
	<g>
		<path fill="#C1D11A" d="M463.417,331.604c-6.751,14.645-14.48,30.752-19.477,41.559c-6.113,13.219-17.275,7.872-9.814-5.617
			c7.176-12.982,13.224-28.046,19.092-41.605c0.396-0.906,0.313-2.255-0.173-3.136c-97.95-76.834-13.308-147.676-7.097-159.977
			c30.584-47.37,21.527-60.623,23.239-63.47c73.82,58.416,136.109,162.716,55.253,221.201
			c-9.764,10.688-39.341,17.201-49.954,19.467l-2.421-1.841c4.413-8.463,18.169-36.398,25.565-81.478
			c4.709-28.741-4.85-46.149-5.512-49.394c-0.204,0.023-0.397,0.056-0.603,0.079c0.028,0.43,0.047,0.87,0.106,1.292
			c1.544,10.093,1.688,20.187,0.717,30.289c-1.302,13.597-4.24,26.901-8.18,40.026c-4.456,14.839-10.194,29.271-16.6,43.505
			C466.245,325.427,464.849,328.482,463.417,331.604z"/>
		<path fill="#FFFFFF" d="M492.12,207.312c0.662,3.244,10.221,20.653,5.512,49.394c-7.396,45.078-21.151,73.014-25.565,81.478
			l-8.648-6.578c1.432-3.122,2.828-6.178,4.146-9.102c6.403-14.233,12.143-28.666,16.599-43.505
			c3.938-13.125,6.878-26.43,8.18-40.026c0.972-10.103,0.827-20.196-0.717-30.289c-0.062-0.421-0.078-0.861-0.106-1.292
			C491.723,207.368,491.916,207.334,492.12,207.312z"/>
		<path fill="#C1D11A" d="M472.065,338.183l2.421,1.841c-2.188,0.467-3.567,0.754-3.807,0.862
			C470.729,340.715,471.229,339.813,472.065,338.183z"/>
	</g>
</g>
<g>
	<path fill="#913B8E" d="M427.601,466.881l9.021-0.176c0.317-0.006,0.579,0.246,0.585,0.563c0.007,0.316-0.245,0.578-0.563,0.584
		c-0.014,0-0.025,0-0.04,0l-0.039-0.002l-8.989-0.469c-0.139-0.008-0.243-0.125-0.236-0.262c0.007-0.131,0.114-0.234,0.243-0.238
		H427.601L427.601,466.881z"/>
	<path fill="#913B8E" d="M445.676,466.811l9.015,0.287c0.587,0.02,1.049,0.51,1.028,1.098c-0.019,0.588-0.51,1.049-1.098,1.029
		c-0.019,0-0.036-0.002-0.054-0.002l-0.06-0.006l-8.972-0.77c-0.451-0.039-0.786-0.438-0.747-0.889
		c0.038-0.436,0.409-0.762,0.841-0.75L445.676,466.811z"/>
	<path fill="#913B8E" d="M463.85,467.686c0,0,0.562,0.061,1.4,0.152c0.839,0.104,1.957,0.24,3.075,0.377
		c0.284,0.041,0.548,0.057,0.847,0.119c0.291,0.055,0.578,0.109,0.855,0.16c0.557,0.105,1.074,0.205,1.521,0.289
		c0.893,0.17,1.486,0.285,1.486,0.285c0.81,0.156,1.34,0.938,1.185,1.748c-0.156,0.811-0.938,1.34-1.748,1.186
		c-0.016-0.004-0.029-0.006-0.045-0.01l-0.194-0.043c0,0-0.544-0.125-1.358-0.311c-0.408-0.094-0.884-0.203-1.395-0.318
		c-0.51-0.115-1.049-0.252-1.608-0.328c-2.224-0.363-4.443-0.727-4.443-0.727c-0.712-0.115-1.194-0.787-1.078-1.5
		c0.111-0.688,0.741-1.16,1.426-1.088L463.85,467.686z"/>
	<path fill="#913B8E" d="M472.961,478.836c0,0-0.543,0.146-1.357,0.367c-0.407,0.111-0.883,0.24-1.393,0.377
		c-0.254,0.068-0.518,0.141-0.785,0.213c-0.26,0.078-0.567,0.123-0.854,0.184c-2.331,0.453-4.663,0.906-4.663,0.906
		c-0.988,0.191-1.946-0.453-2.138-1.441c-0.192-0.99,0.452-1.947,1.44-2.139c0.015-0.002,0.029-0.006,0.043-0.008l0.129-0.021
		c0,0,2.207-0.363,4.413-0.729c0.554-0.076,1.102-0.209,1.614-0.328c0.515-0.119,0.994-0.229,1.405-0.322
		c0.822-0.188,1.371-0.313,1.371-0.313c0.898-0.207,1.796,0.355,2.003,1.256c0.199,0.877-0.329,1.75-1.189,1.986L472.961,478.836z"
		/>
	<path fill="#913B8E" d="M454.832,482.239l-8.936,1.061c-1.144,0.137-2.18-0.68-2.314-1.824c-0.136-1.143,0.681-2.178,1.823-2.313
		c0.017-0.002,0.034-0.004,0.051-0.006l0.059-0.006l8.96-0.803c1.074-0.096,2.022,0.697,2.119,1.771
		c0.094,1.055-0.668,1.988-1.713,2.113L454.832,482.239z"/>
	<path fill="#913B8E" d="M436.801,484.122l-8.976,0.662c-1.243,0.092-2.326-0.842-2.418-2.086s0.843-2.326,2.086-2.418
		c0.01,0,0.02,0,0.028-0.002l0.045-0.002l8.983-0.498c1.2-0.066,2.229,0.852,2.294,2.051c0.065,1.186-0.831,2.203-2.011,2.291
		L436.801,484.122z"/>
	<path fill="#913B8E" d="M418.759,485.348c0,0-2.246,0.119-4.494,0.236c-2.248,0.094-4.496,0.189-4.496,0.189
		c-1.321,0.055-2.438-0.973-2.494-2.295c-0.055-1.322,0.973-2.438,2.295-2.494h0.018h0.008l8.994-0.313
		c1.291-0.045,2.375,0.965,2.419,2.256c0.045,1.277-0.942,2.352-2.212,2.418L418.759,485.348z"/>
	<path fill="#913B8E" d="M400.707,486.075l-8.997,0.23c-1.357,0.035-2.488-1.039-2.521-2.396c-0.035-1.357,1.037-2.488,2.396-2.523
		h0.019h0.008l9-0.166c1.341-0.023,2.447,1.041,2.473,2.383c0.023,1.336-1.032,2.438-2.365,2.473H400.707z"/>
	<path fill="#913B8E" d="M382.647,486.471c0,0-2.25,0.033-4.5,0.023c-2.25,0.002-4.5,0.002-4.5,0.002h-0.011
		c-1.367,0-2.476-1.107-2.477-2.473c-0.001-1.361,1.099-2.467,2.458-2.477l8.999-0.063c1.377-0.01,2.501,1.1,2.511,2.477
		c0.01,1.371-1.089,2.49-2.457,2.51H382.647z"/>
	<path fill="#913B8E" d="M364.585,486.438l-9-0.123h-0.009c-1.331-0.02-2.396-1.111-2.377-2.443
		c0.018-1.326,1.103-2.387,2.426-2.379l9.001,0.059h0.009c1.35,0.01,2.436,1.111,2.427,2.459c-0.009,1.352-1.109,2.438-2.459,2.428
		H364.585L364.585,486.438z"/>
	<path fill="#913B8E" d="M346.519,486.12l-8.996-0.359l-0.033-0.002c-1.267-0.051-2.253-1.119-2.202-2.385
		c0.05-1.252,1.097-2.23,2.345-2.205l9,0.199h0.034c1.313,0.029,2.354,1.117,2.324,2.43c-0.029,1.313-1.116,2.354-2.429,2.324
		C346.551,486.122,346.528,486.122,346.519,486.12z"/>
	<path fill="#913B8E" d="M328.46,485.319l-9.006-0.529l-0.015-0.002c-1.177-0.068-2.074-1.078-2.006-2.254
		c0.068-1.164,1.059-2.055,2.217-2.008l8.991,0.365l0.038,0.002c1.223,0.051,2.174,1.08,2.124,2.305
		c-0.05,1.221-1.081,2.172-2.304,2.123C328.49,485.321,328.47,485.319,328.46,485.319z"/>
	<path fill="#913B8E" d="M310.39,484.079l-8.964-0.865l-0.046-0.004c-1.037-0.1-1.797-1.021-1.696-2.061
		c0.098-1.018,0.991-1.77,2.006-1.701l8.981,0.607l0.049,0.004c1.111,0.076,1.951,1.037,1.876,2.148
		c-0.075,1.111-1.037,1.951-2.148,1.875C310.432,484.083,310.406,484.081,310.39,484.079z"/>
	<path fill="#913B8E" d="M292.283,482.131l-8.885-1.48l-0.044-0.008c-0.862-0.145-1.445-0.961-1.301-1.822
		c0.14-0.84,0.923-1.416,1.762-1.311l8.931,1.137l0.049,0.006c0.963,0.123,1.645,1.004,1.522,1.967
		c-0.122,0.963-1.003,1.645-1.967,1.521C292.33,482.139,292.304,482.135,292.283,482.131z"/>
	<path fill="#913B8E" d="M273.874,477.905c0,0-0.122-0.07-0.335-0.193c-0.059-0.029-0.34-0.203-0.614-0.398
		c-0.136-0.094-0.28-0.201-0.445-0.363c-0.172-0.174-0.296-0.26-0.506-0.547c-0.102-0.141-0.199-0.291-0.289-0.447l-0.128-0.238
		c-0.047-0.115-0.089-0.234-0.125-0.357c-0.074-0.248-0.125-0.512-0.148-0.77c-0.005-0.268,0.023-0.557,0.083-0.836
		c0.029-0.135,0.067-0.287,0.11-0.398c0.043-0.1,0.09-0.199,0.141-0.299c0.102-0.197,0.22-0.391,0.35-0.572
		c0.197-0.229,0.441-0.48,0.656-0.654c0.189-0.141,0.387-0.279,0.59-0.41c0.174-0.09,0.352-0.182,0.529-0.273
		c0.349-0.166,0.673-0.291,0.996-0.408c0.634-0.221,1.239-0.387,1.797-0.521c0.558-0.137,1.07-0.242,1.506-0.328
		c0.873-0.168,1.448-0.26,1.448-0.26l0.04-0.008c0.648-0.105,1.259,0.336,1.364,0.984c0.1,0.619-0.302,1.205-0.903,1.348
		c0,0-0.544,0.127-1.36,0.318c-0.812,0.197-1.892,0.492-2.912,0.896c-0.251,0.104-0.502,0.213-0.733,0.336
		c-0.236,0.121-0.445,0.256-0.629,0.4c-0.084,0.074-0.148,0.152-0.224,0.225c-0.022,0.076-0.108,0.148-0.096,0.211
		c-0.052,0.119,0.033,0.238,0.116,0.367c0.108,0.117,0.227,0.24,0.355,0.316c0.125,0.082,0.226,0.158,0.345,0.213
		c0.218,0.113,0.343,0.18,0.343,0.18l0.035,0.02c0.688,0.361,0.954,1.213,0.593,1.9c-0.361,0.689-1.212,0.955-1.9,0.594
		C273.908,477.922,273.889,477.913,273.874,477.905z"/>
	<path fill="#913B8E" d="M288.625,468.602l8.996-0.535l0.038-0.002c0.389-0.023,0.723,0.273,0.746,0.662
		c0.022,0.375-0.256,0.701-0.625,0.742l-8.941,1.018l-0.051,0.006c-0.521,0.059-0.99-0.316-1.05-0.836
		c-0.059-0.52,0.315-0.99,0.836-1.049C288.59,468.606,288.608,468.604,288.625,468.602z"/>
	<path fill="#913B8E" d="M306.676,467.85l4.859-0.004h0.017c0.139,0,0.25,0.111,0.25,0.25c0.001,0.131-0.103,0.24-0.231,0.25
		l-4.835,0.35l-0.028,0.002c-0.233,0.018-0.437-0.158-0.453-0.393c-0.016-0.232,0.158-0.436,0.392-0.451
		C306.655,467.85,306.666,467.85,306.676,467.85z"/>
</g>
<g>
	<rect x="260.584" y="518.12" fill="none" width="227.931" height="102.17"/>
	<path fill="#FFFFFF" d="M277.745,517.622c2.579,0,4.237,1.787,4.922,1.787c0.579,0,0.737-0.254,1.185-0.254
		c1.105,0,2.526,2.299,2.526,6.348c0,2.08-0.895,3.83-2.447,3.83c-2.712,0-2.027-6.457-6.712-6.457
		c-2.027,0-2.869,2.625-2.869,4.633c0,5.398,2.079,9.996,5.764,9.996c3.343,0,3.844-2.518,4.659-2.518
		c0.764,0,1.132,1.242,1.132,2.152c0,1.605-1.211,4.961-2.526,4.961c-0.896,0-2.738,2.117-5.844,2.117
		c-5.527,0-10.055-6.057-10.055-13.391C267.479,523.348,272.56,517.622,277.745,517.622z"/>
	<path fill="#FFFFFF" d="M287.375,530.829c0-7.734,4.448-13.207,10.187-13.207c7.265,0,10.055,8.865,10.055,13.572
		c0,7.844-5.001,13.023-10.371,13.023C291.691,544.217,287.375,538.598,287.375,530.829z M296.351,523.057
		c-1.474,0-2.211,2.115-2.211,3.904c0,3.102,1.579,11.82,4.422,11.82c1.605,0,2.29-1.934,2.29-3.904
		C300.852,531.557,299.43,523.057,296.351,523.057z"/>
	<path fill="#FFFFFF" d="M308.902,530.829c0-7.734,4.448-13.207,10.187-13.207c7.265,0,10.055,8.865,10.055,13.572
		c0,7.844-5.001,13.023-10.371,13.023C313.219,544.217,308.902,538.598,308.902,530.829z M317.878,523.057
		c-1.474,0-2.211,2.115-2.211,3.904c0,3.102,1.579,11.82,4.422,11.82c1.605,0,2.29-1.934,2.29-3.904
		C322.379,531.557,320.957,523.057,317.878,523.057z"/>
	<path fill="#FFFFFF" d="M332.614,523.676c0-2.734-2.448-1.531-2.448-3.83c0-1.459,1.158-1.789,1.975-1.789
		c0.658,0,1.29,0.074,1.947,0.074c3.817,0,6.133-0.512,7.238-0.512c3.58,0,7.028,2.883,7.028,8.355c0,5.436-3.316,8.354-6.976,8.354
		c-0.789,0-1.579-0.182-2.29-0.182c-0.315,0-0.421,0.182-0.421,0.584v2.115c0.079,4.561,2.001,2.662,2.001,4.779
		c0,2.371-3.791,2.48-4.976,2.48c-1.105,0-5.001-0.037-5.001-2.408c0-2.006,1.922-0.766,1.922-3.758v-14.264H332.614z
		 M339.668,521.926c-1.026,0-1,0.438-1,1.166v5.475c0,0.766-0.236,1.604,1.185,1.604c1.737,0,2.422-1.824,2.422-4.049
		C342.274,523.823,341.432,521.926,339.668,521.926z"/>
	<path fill="#FFFFFF" d="M359.959,518.131c3.527,0,4.027-0.729,4.448-0.729c1.5,0,2.132,3.576,2.132,5.182
		c0,1.203-0.342,2.627-1.368,2.627c-2.08,0-0.396-3.502-5.396-3.502c-2.921,0-2.632,0.729-2.632,4.924
		c0,2.117,0.079,2.189,1.685,2.189c2,0,0.5-4.049,2.369-4.049c1.526,0,1.632,4.123,1.632,5.545c0,1.496-0.185,5.873-1.764,5.873
		c-1.632,0,0-3.83-2.658-3.83c-1.105,0-1.079,1.387-1.079,2.553c0,5.328,0.263,5.072,3.026,5.072c5.396,0,3.869-5.146,6.028-5.146
		c0.842,0,1.263,1.314,1.263,2.336c0,2.48-1.421,6.932-2.474,6.932c-0.185,0-0.605-0.109-1.158-0.219
		c-0.579-0.072-1.316-0.184-2.211-0.184h-10.818c-1.737,0-1.764-1.094-1.764-1.568c0-2.006,1.79-0.4,1.975-4.27
		c0.315-6.639,0.342-5.982,0.078-12.586c-0.184-5.582-2.185-2.701-2.185-5.291c0-2.225,2.211-1.861,3.29-1.861h7.581V518.131z
		 M354.747,515.176c0-1.531,1.843-2.043,1.843-3.027c0-0.328-0.211-0.438-0.211-0.84c0-0.91,1.79-1.094,2.211-1.094
		c0.816,0,3.212,0.365,3.212,2.043c0,0.912-2.054,4.27-5.633,4.27C355.484,516.528,354.747,516.344,354.747,515.176z"/>
	<path fill="#FFFFFF" d="M370.194,525.721c0-5.654-2.001-3.32-2.001-5.582c0-2.008,2.054-2.262,3.106-2.262
		c0.553,0,1.079,0.072,1.632,0.109c0.526,0.072,1.079,0.145,1.605,0.145c0.843,0,1.685-0.072,2.553-0.145
		c0.843-0.037,1.711-0.109,2.554-0.109c2.975,0,6.422,1.824,6.422,6.676c0,2.189-0.764,4.307-2.237,5.291
		c-0.236,0.182-0.421,0.291-0.421,0.729c0,0.547,0.343,0.693,0.658,0.875c1.843,0.949,2.658,2.627,3.026,6.566
		c0.315,3.395,2.026,1.352,2.026,3.576c0,1.387-1.211,2.846-4.186,2.846c-4.211,0-4.738-3.355-5.555-8.172
		c-0.289-1.678-0.736-3.32-2.185-3.32c-0.579,0-0.789,0.109-0.789,2.408c0,1.059,0.053,2.518,0.184,3.539
		c0.211,1.678,1.554,1.166,1.554,2.92c0,1.313-0.658,2.297-4.923,2.297c-1.263,0-5.001,0-5.001-2.664
		c0-1.896,1.975-0.582,1.975-5.326L370.194,525.721L370.194,525.721z M376.301,527.327c-0.053,0.949-0.185,1.75,0.685,1.75
		c1.711,0,2.264-1.313,2.264-3.576c0-1.787-0.316-3.611-1.843-3.611c-0.974,0-0.947,0.838-1,1.971L376.301,527.327z"/>
	<path fill="#FFFFFF" d="M394.669,530.538c0.816-2.52,1.896-5.729,1.896-8.611c0-2.518,0.843-4.414,3.185-4.414
		c2.29,0,3.737,3.246,4.765,5.654c0.447,1.059,4.422,12.223,5.369,15.215c0.869,2.773,2.29,1.094,2.29,3.174
		c0,2.662-3.737,2.555-5.054,2.555c-3.764,0-6.027-0.037-6.027-2.299c0-1.75,1.605-1.096,1.605-2.371
		c0-1.643-0.658-1.789-4.896-1.789c-1.369,0-2.185,0.072-2.185,1.859c0,1.424,1.685,0.477,1.685,2.373
		c0,2.189-2.843,2.227-3.896,2.227c-3.765,0-4.106-0.986-4.106-2.152c0-1.715,1.422-1.205,2.186-2.518
		c0.578-0.986,1.132-2.736,1.525-3.904L394.669,530.538z M400.196,533.163c0.264,0,1.054,0.074,1.054-0.473
		c0-0.549-0.765-2.445-0.976-2.955c-0.235-0.584-0.684-1.936-1.262-1.936c-0.633,0-1.08,2.189-1.186,2.59
		c-0.105,0.402-0.553,1.824-0.553,2.264c0,0.619,0.658,0.51,0.947,0.51H400.196z"/>
	<path fill="#FFFFFF" d="M423.198,518.131c1.132,0,1.658-0.145,2.053-0.254c0.368-0.146,0.579-0.256,1.079-0.256
		c1.026,0,3.158,2.809,3.158,6.75c0,1.824-0.685,3.029-2.026,3.029c-2.29,0-2.264-4.307-3.605-4.307
		c-1.026,0-0.922,1.971-0.922,2.264v11.199c0,4.344,2.423,2.264,2.423,4.816c0,1.131-0.5,2.736-5.423,2.736
		c-1.343,0-6.265,0.072-6.265-2.736c0-1.934,1.632-1.166,2.158-2.553c0.263-0.768,0.368-2.957,0.396-3.867l0.211-8.064
		c0.104-3.83-0.447-3.793-0.816-3.793c-1.186,0-1.764,4.305-3.896,4.305c-1.025,0-1.632-1.313-1.632-2.627
		c0-3.102,1.896-7.15,3.396-7.15c0.186,0,0.475,0.109,0.975,0.254c0.5,0.109,1.211,0.256,2.264,0.256h6.475V518.131z"/>
	<path fill="#FFFFFF" d="M432.038,529.114c0-4.633-0.263-5.691-0.553-6.203c-0.604-1.059-1.633-1.166-1.633-2.553
		c0-2.629,5.37-2.629,5.896-2.629c1.579,0,4.816,0.074,4.816,2.555c0,1.313-1,1.24-1.605,2.189c-0.5,0.803-0.526,4.086-0.526,6.641
		v3.611c0,6.494,0.315,6.348,0.844,6.785c0.656,0.547,1.289,0.73,1.289,1.861c0,1.096-0.236,2.736-6.001,2.736
		c-1.105,0-4.423-0.037-4.423-2.371c0-1.168,0.896-1.352,1.315-2.043c0.316-0.512,0.579-1.861,0.579-6.969L432.038,529.114
		L432.038,529.114z"/>
	<path fill="#FFFFFF" d="M454.015,540.934c-0.553,1.496-1.079,3.174-2.501,3.174c-1.525,0-1.921-1.203-2.5-2.918l-5.237-16.055
		c-0.79-2.371-1.026-2.809-2.054-3.027c-0.525-0.109-0.79-0.656-0.79-1.422c0-2.811,4.187-2.955,5.527-2.955
		c5.527,0,5.317,1.822,5.317,2.371c0,1.387-1.265,1.459-1.265,2.443c0,0.768,1.026,3.613,1.658,5.51
		c0.237,0.619,0.526,2.043,1.105,2.08c0.867,0.072,1.315-1.971,1.632-2.736c0.315-0.875,1.525-4.158,1.525-5.035
		c0-1.313-1.342-0.949-1.342-2.408c0-2.262,3.316-2.225,4.369-2.225c3.316,0,3.869,0.838,3.869,2.115
		c0,0.984-0.526,1.459-1.158,1.568c-1.132,0.182-1.237,0.074-2.237,2.883L454.015,540.934z"/>
	<path fill="#FFFFFF" d="M474.383,518.131c3.527,0,4.027-0.729,4.448-0.729c1.5,0,2.132,3.576,2.132,5.182
		c0,1.203-0.342,2.627-1.368,2.627c-2.08,0-0.396-3.502-5.396-3.502c-2.921,0-2.632,0.729-2.632,4.924
		c0,2.117,0.079,2.189,1.685,2.189c2,0,0.5-4.049,2.369-4.049c1.525,0,1.632,4.123,1.632,5.545c0,1.496-0.185,5.873-1.764,5.873
		c-1.632,0,0-3.83-2.658-3.83c-1.105,0-1.079,1.387-1.079,2.553c0,5.328,0.263,5.072,3.026,5.072c5.396,0,3.868-5.146,6.027-5.146
		c0.843,0,1.264,1.314,1.264,2.336c0,2.48-1.421,6.932-2.475,6.932c-0.185,0-0.604-0.109-1.158-0.219
		c-0.578-0.072-1.315-0.184-2.211-0.184h-10.817c-1.737,0-1.765-1.094-1.765-1.568c0-2.006,1.79-0.4,1.976-4.27
		c0.314-6.639,0.342-5.982,0.078-12.586c-0.185-5.582-2.186-2.701-2.186-5.291c0-2.225,2.211-1.861,3.29-1.861h7.581V518.131z"/>
</g>
<g>
	<g>
		<path fill="#FFFFFF" d="M368.871,563.631c4,0,8,0,12,0c3.226,0,3.226-5,0-5c-4,0-8,0-12,0
			C365.646,558.631,365.646,563.631,368.871,563.631L368.871,563.631z"/>
	</g>
</g>
</svg>
