<?xml version="1.0" encoding="utf-8"?>
<!-- Generator: Adobe Illustrator 16.0.0, SVG Export Plug-In . SVG Version: 6.00 Build 0)  -->
<svg version="1.2" baseProfile="tiny" id="Calque_1"
	 xmlns="http://www.w3.org/2000/svg" xmlns:xlink="http://www.w3.org/1999/xlink" x="0px" y="0px" width="762.076px"
	 height="750.075px" viewBox="0 0 762.076 750.075" xml:space="preserve">
<circle fill-rule="evenodd" fill="none" stroke="#000000" stroke-width="6" stroke-miterlimit="10" cx="-426.207" cy="413.577" r="166.793"/>
<g>
	<path fill-rule="evenodd" fill="none" d="M-553.736,571.364c-87.39-70.444-101.129-198.387-30.695-285.767
		c70.437-87.384,198.379-101.122,285.758-30.685c87.389,70.439,101.125,198.38,30.688,285.766
		C-338.421,628.056-466.358,641.802-553.736,571.364z"/>
	<path d="M-634.809,399.199l4.818,0.378l0.316-4.03c0.022-0.279,0.085-0.477,0.187-0.591c0.103-0.114,0.232-0.165,0.386-0.153
		c0.146,0.012,0.264,0.082,0.352,0.211c0.087,0.129,0.12,0.334,0.098,0.613l-0.531,6.788c-0.022,0.279-0.086,0.477-0.193,0.59
		s-0.233,0.165-0.379,0.153c-0.154-0.012-0.273-0.082-0.357-0.211c-0.083-0.128-0.115-0.333-0.093-0.612l0.124-1.582l-12.194-0.956
		l-0.123,1.581c-0.022,0.28-0.085,0.478-0.188,0.591c-0.104,0.114-0.231,0.165-0.386,0.153c-0.154-0.013-0.273-0.082-0.357-0.211
		c-0.083-0.128-0.114-0.334-0.092-0.613l0.535-6.829c0.127-1.614,0.644-2.899,1.552-3.856c0.907-0.957,1.917-1.392,3.028-1.305
		c0.657,0.052,1.236,0.264,1.738,0.636c0.501,0.374,0.884,0.805,1.147,1.295c0.399,0.735,0.675,1.484,0.827,2.247
		c0.113,0.554,0.137,1.231,0.073,2.033L-634.809,399.199z M-635.831,399.119l0.294-3.75c0.068-0.867-0.036-1.695-0.313-2.482
		c-0.276-0.786-0.646-1.374-1.104-1.762c-0.46-0.389-0.94-0.603-1.443-0.642c-0.804-0.063-1.558,0.276-2.26,1.02
		c-0.703,0.743-1.102,1.721-1.197,2.935l-0.328,4.184L-635.831,399.119z"/>
	<path d="M-631.247,378.068l-1.158,7.662l3.469,2.128l0.338-2.235c0.042-0.277,0.118-0.469,0.229-0.575
		c0.11-0.105,0.242-0.148,0.396-0.125c0.144,0.022,0.256,0.101,0.334,0.235s0.097,0.341,0.056,0.619l-0.658,4.358
		c-0.042,0.277-0.121,0.469-0.236,0.574c-0.114,0.106-0.244,0.147-0.39,0.126c-0.152-0.022-0.265-0.102-0.34-0.236
		c-0.074-0.134-0.092-0.34-0.049-0.617l0.137-0.902l-11.316-6.978l-0.521,3.443c-0.042,0.277-0.118,0.47-0.229,0.576
		c-0.111,0.105-0.243,0.146-0.396,0.124c-0.153-0.023-0.267-0.102-0.341-0.236c-0.074-0.134-0.092-0.341-0.05-0.618l0.888-5.871
		l13.969-3.71l0.136-0.902c0.042-0.277,0.118-0.47,0.229-0.576c0.111-0.106,0.243-0.147,0.396-0.125
		c0.146,0.022,0.256,0.101,0.336,0.235c0.078,0.135,0.096,0.341,0.054,0.618l-0.656,4.345c-0.044,0.287-0.123,0.483-0.237,0.589
		c-0.114,0.106-0.244,0.147-0.39,0.126c-0.152-0.022-0.266-0.102-0.341-0.236c-0.074-0.134-0.09-0.345-0.047-0.632l0.337-2.22
		L-631.247,378.068z M-632.328,378.358l-7.861,2.106l-0.065,0.431l6.903,4.237L-632.328,378.358z"/>
	<path d="M-630.56,366.247l5.288,1.193l0.674-2.985c0.062-0.273,0.15-0.46,0.269-0.559c0.119-0.098,0.253-0.13,0.404-0.096
		c0.143,0.032,0.248,0.118,0.316,0.259c0.069,0.141,0.071,0.347,0.011,0.621l-1.611,7.135c-0.061,0.273-0.152,0.459-0.275,0.557
		c-0.122,0.097-0.254,0.13-0.396,0.097c-0.151-0.033-0.26-0.118-0.325-0.253s-0.065-0.344-0.002-0.627l0.673-2.984l-5.286-1.193
		l-7.785,3.554l-0.154,0.685c-0.063,0.273-0.151,0.459-0.271,0.558c-0.118,0.098-0.252,0.13-0.403,0.096
		c-0.15-0.034-0.258-0.12-0.322-0.26c-0.064-0.139-0.066-0.346-0.005-0.62l0.715-3.162c0.062-0.274,0.151-0.461,0.27-0.559
		c0.117-0.099,0.253-0.13,0.403-0.097c0.15,0.034,0.258,0.122,0.323,0.261c0.064,0.14,0.064,0.346,0.003,0.619l-0.256,1.137
		l6.603-3.028l-4.684-5.476l-0.253,1.123c-0.063,0.283-0.155,0.474-0.272,0.572c-0.118,0.098-0.253,0.13-0.404,0.096
		c-0.15-0.034-0.259-0.121-0.322-0.26c-0.064-0.14-0.065-0.351-0.002-0.634l0.712-3.149c0.062-0.274,0.151-0.46,0.27-0.558
		c0.118-0.099,0.252-0.131,0.403-0.097c0.15,0.034,0.258,0.121,0.323,0.26c0.064,0.14,0.065,0.347,0.003,0.62l-0.154,0.685
		L-630.56,366.247z"/>
	<path d="M-632.162,346.326l-0.328-0.1c-0.233-0.07-0.386-0.173-0.455-0.306c-0.07-0.134-0.079-0.286-0.027-0.457
		c0.051-0.169,0.143-0.291,0.275-0.363c0.132-0.072,0.315-0.073,0.549-0.003l2.5,0.758c0.234,0.07,0.386,0.173,0.455,0.307
		c0.071,0.134,0.08,0.285,0.029,0.456c-0.049,0.16-0.137,0.279-0.26,0.354c-0.126,0.074-0.295,0.085-0.508,0.029
		c-0.667-0.152-1.373,0.057-2.115,0.629c-0.743,0.572-1.294,1.449-1.652,2.631c-0.377,1.246-0.398,2.319-0.063,3.223
		s0.88,1.47,1.635,1.698c0.391,0.117,0.775,0.122,1.157,0.012c0.382-0.108,0.724-0.303,1.025-0.584
		c0.302-0.279,0.577-0.617,0.829-1.01c0.251-0.394,0.581-1.027,0.989-1.9c0.682-1.466,1.224-2.456,1.626-2.969
		c0.54-0.688,1.14-1.149,1.797-1.386c0.658-0.235,1.354-0.243,2.086-0.021c1.121,0.34,1.921,1.145,2.4,2.414
		c0.479,1.269,0.453,2.776-0.076,4.523c-0.593,1.962-1.602,3.368-3.023,4.219l0.562,0.17c0.232,0.07,0.384,0.172,0.455,0.307
		c0.069,0.134,0.079,0.285,0.027,0.455c-0.048,0.162-0.14,0.281-0.273,0.357s-0.318,0.079-0.552,0.009l-2.71-0.82
		c-0.241-0.073-0.397-0.177-0.468-0.311c-0.069-0.134-0.079-0.285-0.028-0.456c0.049-0.16,0.137-0.278,0.261-0.354
		c0.125-0.074,0.294-0.084,0.506-0.029c0.731,0.172,1.517-0.071,2.358-0.731c0.842-0.659,1.477-1.696,1.905-3.112
		c0.429-1.415,0.458-2.626,0.091-3.632c-0.366-1.006-0.971-1.636-1.813-1.891c-0.514-0.155-1.019-0.138-1.515,0.055
		s-0.954,0.562-1.376,1.108c-0.292,0.381-0.747,1.222-1.361,2.521c-0.84,1.79-1.664,3.012-2.475,3.666s-1.733,0.824-2.77,0.512
		c-1.028-0.313-1.77-1.052-2.223-2.221c-0.454-1.17-0.447-2.529,0.022-4.079C-634.215,348.429-633.371,347.202-632.162,346.326z"/>
	<path d="M-619.041,335.091l-2.774,7.234l2.931,2.823l0.81-2.11c0.101-0.262,0.216-0.433,0.348-0.513
		c0.13-0.08,0.268-0.093,0.412-0.037c0.137,0.052,0.229,0.152,0.276,0.302c0.048,0.147,0.021,0.354-0.079,0.615l-1.579,4.116
		c-0.1,0.262-0.218,0.433-0.353,0.511c-0.134,0.078-0.271,0.092-0.407,0.039c-0.144-0.055-0.238-0.156-0.282-0.304
		c-0.044-0.146-0.016-0.351,0.085-0.613l0.326-0.853l-9.555-9.242l-1.246,3.25c-0.101,0.263-0.216,0.434-0.348,0.514
		c-0.131,0.08-0.269,0.093-0.413,0.037s-0.238-0.156-0.282-0.304c-0.043-0.147-0.016-0.352,0.085-0.613l2.127-5.545l14.438-0.627
		l0.327-0.853c0.1-0.262,0.216-0.433,0.346-0.513c0.132-0.08,0.27-0.093,0.415-0.037c0.135,0.052,0.228,0.152,0.275,0.302
		c0.048,0.148,0.021,0.354-0.08,0.615l-1.573,4.104c-0.104,0.271-0.223,0.445-0.357,0.523c-0.135,0.079-0.271,0.092-0.407,0.04
		c-0.144-0.056-0.238-0.156-0.283-0.305c-0.043-0.146-0.013-0.355,0.091-0.626l0.805-2.098L-619.041,335.091z M-620.159,335.144
		l-8.13,0.369l-0.155,0.406l5.831,5.619L-620.159,335.144z"/>
	<path d="M-612.328,318.932l3.979,1.866c0.008,0.997-0.077,1.946-0.259,2.849c-0.181,0.902-0.46,1.756-0.837,2.562
		c-0.537,1.144-1.156,2.08-1.858,2.811s-1.46,1.271-2.272,1.624c-0.813,0.354-1.625,0.543-2.438,0.569
		c-0.813,0.028-1.724-0.195-2.733-0.669l-1.701-0.799c-1.017-0.477-1.87-1.231-2.56-2.263c-0.688-1.031-1.051-2.17-1.088-3.417
		c-0.034-1.247,0.227-2.463,0.783-3.649c0.808-1.719,1.896-2.981,3.271-3.784c-0.361-0.169-0.571-0.286-0.631-0.35
		c-0.06-0.064-0.096-0.155-0.107-0.275c-0.012-0.119,0.012-0.237,0.067-0.356c0.071-0.152,0.179-0.258,0.322-0.313
		c0.143-0.057,0.325-0.034,0.546,0.07l2.1,0.984c0.229,0.107,0.365,0.233,0.409,0.378c0.045,0.146,0.031,0.295-0.04,0.446
		c-0.068,0.145-0.168,0.245-0.298,0.303s-0.304,0.041-0.521-0.051c-0.649-0.243-1.382-0.016-2.194,0.684
		c-0.814,0.698-1.465,1.569-1.953,2.611c-0.461,0.983-0.692,1.957-0.691,2.924c0,0.968,0.362,2.039,1.086,3.216
		c0.471,0.779,1.141,1.373,2.01,1.78l1.691,0.794c1.54,0.722,3.018,0.754,4.433,0.095c1.415-0.66,2.569-1.942,3.464-3.849
		c0.302-0.645,0.523-1.269,0.664-1.875s0.236-1.348,0.287-2.223l-3.438-1.612l-1.723,3.673c-0.119,0.254-0.247,0.417-0.384,0.487
		c-0.136,0.07-0.274,0.072-0.414,0.007s-0.228-0.174-0.265-0.326c-0.037-0.151,0.004-0.354,0.123-0.608l2.42-5.129
		c0.119-0.255,0.247-0.417,0.385-0.487c0.136-0.07,0.274-0.072,0.413-0.008c0.096,0.046,0.169,0.121,0.218,0.227
		c0.05,0.106,0.067,0.207,0.053,0.305C-612.023,318.248-612.13,318.508-612.328,318.932z"/>
	<path d="M-614.877,307.04l10.671,5.979l1.976-3.527c0.137-0.245,0.276-0.397,0.418-0.458c0.141-0.061,0.279-0.052,0.414,0.023
		c0.129,0.071,0.204,0.184,0.23,0.338c0.025,0.153-0.029,0.354-0.167,0.599l-4.529,8.082c-0.137,0.245-0.278,0.397-0.423,0.455
		c-0.146,0.059-0.28,0.053-0.408-0.02c-0.135-0.075-0.213-0.189-0.235-0.341c-0.022-0.152,0.035-0.351,0.172-0.595l1.977-3.528
		l-10.672-5.978l-1.976,3.526c-0.137,0.245-0.276,0.398-0.417,0.458c-0.142,0.061-0.28,0.053-0.415-0.022
		c-0.134-0.075-0.213-0.188-0.235-0.341c-0.021-0.152,0.036-0.351,0.173-0.596l4.528-8.082c0.138-0.246,0.276-0.398,0.418-0.458
		c0.141-0.062,0.279-0.054,0.413,0.021c0.136,0.076,0.215,0.19,0.236,0.342c0.021,0.152-0.035,0.35-0.173,0.595L-614.877,307.04z"/>
	<path d="M-604.763,290.75l-0.285-0.188c-0.204-0.135-0.32-0.276-0.35-0.424c-0.029-0.148,0.005-0.297,0.103-0.445
		c0.099-0.147,0.221-0.238,0.369-0.27c0.146-0.032,0.322,0.02,0.526,0.153l2.182,1.438c0.204,0.135,0.32,0.275,0.35,0.424
		c0.029,0.147-0.005,0.297-0.104,0.444c-0.092,0.141-0.208,0.229-0.35,0.266c-0.141,0.036-0.306-0.002-0.493-0.115
		c-0.598-0.338-1.333-0.337-2.208,0s-1.652,1.021-2.332,2.052c-0.716,1.087-1.041,2.111-0.978,3.071
		c0.063,0.961,0.426,1.659,1.084,2.093c0.34,0.224,0.708,0.338,1.105,0.342c0.396,0.004,0.779-0.085,1.148-0.269
		c0.369-0.183,0.73-0.427,1.082-0.733c0.354-0.305,0.85-0.818,1.49-1.539c1.07-1.212,1.872-2.006,2.403-2.385
		c0.714-0.505,1.419-0.776,2.116-0.816c0.698-0.038,1.366,0.152,2.006,0.573c0.979,0.646,1.518,1.645,1.614,2.997
		c0.099,1.354-0.355,2.792-1.358,4.316c-1.128,1.711-2.494,2.771-4.1,3.183l0.488,0.322c0.204,0.135,0.321,0.276,0.35,0.424
		s-0.006,0.296-0.103,0.444c-0.093,0.141-0.214,0.229-0.364,0.265c-0.151,0.035-0.328-0.015-0.53-0.148l-2.366-1.558
		c-0.21-0.139-0.33-0.282-0.359-0.43c-0.029-0.149,0.005-0.297,0.104-0.445c0.092-0.142,0.209-0.229,0.35-0.266
		c0.141-0.036,0.305,0.003,0.494,0.115c0.65,0.373,1.474,0.363,2.469-0.029c0.994-0.393,1.896-1.207,2.711-2.442
		c0.813-1.234,1.188-2.386,1.122-3.454c-0.065-1.069-0.466-1.846-1.2-2.329c-0.448-0.295-0.937-0.422-1.468-0.378
		c-0.529,0.043-1.075,0.267-1.634,0.671c-0.391,0.281-1.064,0.958-2.023,2.029c-1.314,1.477-2.453,2.413-3.415,2.81
		c-0.964,0.396-1.897,0.297-2.802-0.298c-0.896-0.591-1.396-1.511-1.499-2.762c-0.103-1.249,0.293-2.55,1.184-3.902
		C-607.328,292.181-606.171,291.245-604.763,290.75z"/>
	<path d="M-597.748,281.178l9.711,7.437l1.861-2.43c0.171-0.223,0.331-0.354,0.479-0.395c0.148-0.039,0.283-0.013,0.407,0.082
		c0.116,0.089,0.176,0.211,0.179,0.367c0.004,0.156-0.08,0.346-0.25,0.569l-4.447,5.806c-0.17,0.224-0.331,0.354-0.482,0.391
		c-0.152,0.037-0.286,0.012-0.401-0.077c-0.124-0.095-0.185-0.218-0.186-0.372c0-0.152,0.085-0.342,0.256-0.563l1.861-2.43
		l-9.713-7.438l-2.936,3.835l2.82,2.159c0.2,0.153,0.31,0.305,0.328,0.454c0.02,0.15-0.025,0.296-0.133,0.438
		c-0.104,0.134-0.231,0.213-0.384,0.237c-0.151,0.025-0.327-0.039-0.528-0.192l-3.635-2.783l8.031-10.488l3.635,2.783
		c0.2,0.153,0.31,0.305,0.328,0.455c0.019,0.149-0.025,0.295-0.134,0.436c-0.108,0.142-0.237,0.223-0.387,0.244
		c-0.149,0.021-0.324-0.046-0.525-0.199l-2.82-2.158L-597.748,281.178z"/>
	<path d="M-586.03,276.763l4.399,3.889l6.007-6.795l-2.269-2.005c-0.184-0.161-0.278-0.317-0.287-0.469
		c-0.008-0.15,0.048-0.292,0.166-0.426c0.117-0.134,0.251-0.205,0.401-0.216c0.151-0.01,0.317,0.065,0.501,0.228l3.036,2.683
		l-8.62,9.751c-0.186,0.21-0.355,0.328-0.509,0.354c-0.153,0.027-0.286-0.008-0.396-0.105c-0.116-0.103-0.168-0.229-0.157-0.383
		s0.107-0.336,0.294-0.546l1.051-1.188l-9.164-8.102l-1.051,1.188c-0.186,0.21-0.354,0.331-0.504,0.36
		c-0.152,0.028-0.285-0.009-0.401-0.111c-0.115-0.102-0.167-0.229-0.157-0.383c0.011-0.152,0.108-0.335,0.294-0.545l8.211-9.287
		l2.643,2.337c0.183,0.161,0.278,0.318,0.286,0.469s-0.046,0.293-0.164,0.425c-0.118,0.134-0.252,0.206-0.402,0.217
		c-0.15,0.01-0.318-0.065-0.501-0.227l-1.874-1.658l-5.598,6.331l3.996,3.534l2.799-3.166l-0.869-0.769
		c-0.183-0.161-0.276-0.319-0.282-0.474c-0.003-0.153,0.053-0.298,0.17-0.431c0.112-0.127,0.245-0.196,0.398-0.211
		c0.153-0.014,0.321,0.06,0.505,0.222l2.506,2.216c0.183,0.161,0.277,0.319,0.282,0.474s-0.049,0.294-0.16,0.42
		c-0.118,0.134-0.254,0.207-0.407,0.222c-0.154,0.014-0.322-0.06-0.505-0.222l-0.869-0.768L-586.03,276.763z"/>
	<path d="M-561.88,244.871l-0.466-0.55c-0.159-0.187-0.23-0.354-0.217-0.505c0.014-0.149,0.088-0.282,0.225-0.397
		c0.135-0.115,0.277-0.167,0.429-0.156c0.15,0.012,0.305,0.109,0.462,0.296l1.84,2.169c0.164,0.192,0.238,0.364,0.226,0.514
		c-0.014,0.15-0.088,0.283-0.225,0.398c-0.121,0.103-0.254,0.152-0.398,0.146c-0.146-0.004-0.298-0.084-0.454-0.24
		c-0.478-0.49-1.194-0.678-2.15-0.561c-1.297,0.15-2.473,0.674-3.528,1.57c-0.692,0.587-1.232,1.274-1.619,2.063
		c-0.294,0.579-0.458,1.124-0.492,1.633c-0.06,0.884,0.021,1.739,0.242,2.564c0.169,0.604,0.485,1.179,0.949,1.725l1.161,1.369
		c0.99,1.166,2.334,1.768,4.034,1.803c1.699,0.036,3.191-0.49,4.476-1.58c0.771-0.654,1.338-1.386,1.701-2.195
		c0.362-0.809,0.579-1.751,0.648-2.825c0.012-0.233,0.092-0.413,0.241-0.54c0.128-0.109,0.262-0.163,0.397-0.162
		c0.137,0.002,0.25,0.057,0.339,0.162c0.122,0.142,0.152,0.489,0.093,1.041c-0.101,1.068-0.394,2.057-0.881,2.965
		c-0.487,0.909-1.104,1.682-1.854,2.318c-0.649,0.551-1.402,1.002-2.256,1.354c-0.657,0.269-1.247,0.435-1.772,0.495
		s-1.257,0.034-2.196-0.082c-0.938-0.115-1.688-0.322-2.248-0.622c-0.561-0.297-1.069-0.717-1.528-1.257l-1.35-1.591
		c-0.652-0.77-1.084-1.758-1.29-2.964c-0.208-1.207-0.083-2.375,0.376-3.506c0.458-1.13,1.169-2.104,2.132-2.922
		C-565.35,245.541-563.698,244.897-561.88,244.871z"/>
	<path d="M-544.421,239.026c0.808,1.104,1.299,2.315,1.475,3.634c0.175,1.318,0.004,2.57-0.515,3.756s-1.295,2.156-2.33,2.913
		c-1.534,1.122-3.299,1.543-5.294,1.263c-1.996-0.279-3.643-1.306-4.939-3.08c-1.302-1.78-1.781-3.662-1.44-5.646
		c0.342-1.982,1.277-3.535,2.812-4.656c1.035-0.757,2.193-1.201,3.478-1.333c1.283-0.132,2.527,0.083,3.731,0.644
		S-545.232,237.917-544.421,239.026z M-545.383,239.731c-0.985-1.347-2.318-2.227-4.001-2.641c-1.683-0.413-3.236-0.098-4.665,0.945
		c-1.337,0.979-2.106,2.325-2.308,4.039c-0.201,1.716,0.228,3.296,1.284,4.741c1.125,1.537,2.54,2.43,4.246,2.679
		s3.184-0.082,4.43-0.993c1.428-1.044,2.201-2.429,2.319-4.153S-544.395,241.085-545.383,239.731z"/>
	<path d="M-529.085,237.782l-1.284,0.804l-14.146-6.225l6.235,9.965l1.845-1.153c0.246-0.154,0.445-0.225,0.598-0.209
		c0.153,0.015,0.271,0.087,0.354,0.219c0.077,0.124,0.09,0.26,0.039,0.406c-0.052,0.148-0.2,0.299-0.446,0.453l-3.677,2.301
		c-0.246,0.153-0.447,0.221-0.603,0.203c-0.154-0.019-0.271-0.09-0.348-0.214c-0.083-0.131-0.098-0.269-0.043-0.412
		c0.053-0.144,0.202-0.293,0.449-0.446l0.833-0.521l-6.488-10.369l-1.345,0.842c-0.239,0.148-0.434,0.215-0.587,0.2
		c-0.152-0.015-0.27-0.087-0.352-0.219c-0.081-0.131-0.096-0.269-0.043-0.412c0.054-0.144,0.199-0.29,0.438-0.439l2.618-1.638
		l14.171,6.238l-6.248-9.986l-1.845,1.154c-0.238,0.149-0.434,0.216-0.587,0.201s-0.271-0.088-0.353-0.219
		c-0.081-0.131-0.098-0.268-0.048-0.408c0.048-0.142,0.196-0.289,0.442-0.443l3.689-2.309c0.237-0.148,0.434-0.215,0.586-0.201
		c0.153,0.016,0.271,0.088,0.353,0.22c0.082,0.131,0.097,0.269,0.043,0.412s-0.199,0.29-0.438,0.438l-0.844,0.529L-529.085,237.782z
		"/>
	<path d="M-522.794,219.756l-0.337-0.636c-0.113-0.216-0.147-0.396-0.103-0.539c0.045-0.145,0.146-0.259,0.304-0.342
		s0.309-0.103,0.453-0.06c0.144,0.043,0.274,0.173,0.389,0.389l1.33,2.513c0.118,0.224,0.154,0.407,0.108,0.551
		c-0.046,0.145-0.147,0.258-0.305,0.341c-0.141,0.074-0.281,0.094-0.422,0.058c-0.141-0.035-0.271-0.146-0.391-0.332
		c-0.36-0.583-1.021-0.919-1.979-1.01c-1.299-0.133-2.56,0.126-3.784,0.773c-0.803,0.425-1.478,0.98-2.025,1.666
		c-0.411,0.503-0.688,0.999-0.831,1.49c-0.249,0.85-0.354,1.702-0.315,2.556c0.035,0.626,0.221,1.255,0.556,1.888l0.84,1.587
		c0.715,1.352,1.898,2.229,3.552,2.629c1.652,0.401,3.222,0.207,4.711-0.581c0.894-0.473,1.604-1.065,2.133-1.778
		c0.528-0.712,0.942-1.585,1.242-2.618c0.061-0.226,0.179-0.384,0.352-0.477c0.148-0.079,0.29-0.103,0.423-0.071
		c0.133,0.03,0.231,0.107,0.297,0.229c0.087,0.165,0.042,0.512-0.134,1.037c-0.328,1.021-0.828,1.923-1.498,2.707
		c-0.672,0.783-1.441,1.404-2.31,1.863c-0.752,0.398-1.584,0.678-2.495,0.838c-0.698,0.121-1.311,0.155-1.836,0.103
		c-0.526-0.054-1.234-0.237-2.128-0.553c-0.892-0.315-1.578-0.679-2.062-1.091c-0.482-0.412-0.891-0.931-1.221-1.557l-0.977-1.845
		c-0.473-0.892-0.68-1.948-0.623-3.172c0.057-1.223,0.431-2.337,1.122-3.342c0.69-1.006,1.594-1.805,2.711-2.396
		C-526.326,219.665-524.575,219.392-522.794,219.756z"/>
	<path d="M-514.533,222.454l2.365,5.373l8.3-3.654l-1.22-2.771c-0.098-0.224-0.119-0.405-0.063-0.546
		c0.055-0.14,0.164-0.246,0.327-0.317c0.162-0.072,0.314-0.08,0.456-0.027c0.141,0.053,0.261,0.192,0.359,0.415l1.633,3.71
		l-11.91,5.244c-0.257,0.113-0.46,0.149-0.61,0.109c-0.151-0.041-0.256-0.128-0.315-0.262c-0.062-0.142-0.057-0.28,0.017-0.415
		c0.074-0.134,0.24-0.258,0.497-0.371l1.451-0.64l-4.93-11.193l-1.451,0.639c-0.258,0.113-0.461,0.151-0.609,0.115
		c-0.148-0.037-0.255-0.126-0.316-0.268c-0.063-0.142-0.057-0.279,0.017-0.414s0.238-0.259,0.495-0.372l11.345-4.996l1.421,3.229
		c0.1,0.225,0.12,0.406,0.064,0.546c-0.057,0.14-0.166,0.246-0.327,0.318c-0.163,0.071-0.315,0.081-0.457,0.027
		c-0.141-0.054-0.26-0.192-0.358-0.416l-1.009-2.29l-7.734,3.406l2.15,4.882l3.867-1.703l-0.467-1.062
		c-0.099-0.223-0.118-0.406-0.058-0.548c0.06-0.142,0.172-0.249,0.333-0.32c0.155-0.068,0.305-0.076,0.45-0.024
		c0.145,0.051,0.267,0.188,0.365,0.412l1.349,3.061c0.099,0.224,0.117,0.406,0.058,0.549c-0.061,0.143-0.167,0.247-0.322,0.314
		c-0.162,0.072-0.316,0.082-0.462,0.03s-0.267-0.188-0.365-0.412l-0.468-1.062L-514.533,222.454z"/>
	<path d="M-499.079,217.171l1.626,4.552l3.808-1.359c0.265-0.095,0.47-0.118,0.614-0.071c0.146,0.048,0.246,0.145,0.298,0.29
		c0.049,0.138,0.033,0.273-0.048,0.405c-0.083,0.133-0.256,0.248-0.52,0.341l-6.412,2.29c-0.265,0.095-0.471,0.117-0.617,0.065
		c-0.148-0.051-0.246-0.146-0.296-0.283c-0.052-0.146-0.036-0.283,0.046-0.412c0.084-0.129,0.257-0.241,0.521-0.336l1.495-0.533
		l-4.113-11.519l-1.494,0.533c-0.265,0.094-0.47,0.118-0.616,0.07c-0.146-0.047-0.244-0.143-0.297-0.289
		c-0.051-0.146-0.037-0.282,0.047-0.412c0.083-0.129,0.257-0.24,0.521-0.335l6.451-2.304c1.525-0.545,2.909-0.598,4.153-0.161
		c1.244,0.438,2.054,1.181,2.429,2.231c0.222,0.62,0.265,1.235,0.13,1.846c-0.135,0.609-0.372,1.136-0.712,1.576
		c-0.507,0.665-1.078,1.224-1.712,1.674c-0.459,0.328-1.067,0.628-1.825,0.898L-499.079,217.171z M-499.424,216.204l3.543-1.265
		c0.819-0.292,1.531-0.727,2.137-1.301c0.604-0.574,0.99-1.15,1.156-1.729c0.167-0.578,0.165-1.104-0.005-1.58
		c-0.271-0.759-0.89-1.307-1.854-1.645s-2.021-0.303-3.166,0.106l-3.954,1.412L-499.424,216.204z"/>
	<path d="M-483.805,204.494l3.279,11.784l2.947-0.82c0.271-0.076,0.478-0.085,0.619-0.027c0.143,0.058,0.234,0.162,0.276,0.311
		c0.039,0.141,0.013,0.274-0.078,0.401s-0.271,0.228-0.542,0.303l-7.047,1.961c-0.27,0.075-0.477,0.081-0.619,0.021
		c-0.144-0.062-0.236-0.162-0.275-0.304c-0.041-0.149-0.016-0.285,0.077-0.407c0.091-0.123,0.272-0.223,0.543-0.298l2.948-0.819
		l-3.278-11.785l-4.652,1.295l0.952,3.422c0.067,0.244,0.063,0.431-0.012,0.561c-0.076,0.132-0.199,0.221-0.37,0.268
		c-0.162,0.046-0.312,0.032-0.448-0.039c-0.137-0.072-0.238-0.229-0.306-0.472l-1.228-4.411l12.726-3.541l1.228,4.41
		c0.067,0.243,0.064,0.43-0.012,0.561c-0.074,0.131-0.198,0.221-0.37,0.268c-0.171,0.048-0.322,0.035-0.454-0.038
		c-0.132-0.072-0.232-0.231-0.3-0.474l-0.952-3.422L-483.805,204.494z"/>
	<path d="M-471.776,208.022l1.167,5.755l8.888-1.802l-0.602-2.967c-0.049-0.239-0.03-0.422,0.054-0.547
		c0.085-0.124,0.214-0.205,0.389-0.24c0.174-0.035,0.324-0.012,0.451,0.07c0.126,0.082,0.213,0.243,0.262,0.482l0.806,3.972
		l-12.754,2.585c-0.275,0.057-0.482,0.049-0.621-0.023c-0.139-0.071-0.223-0.179-0.252-0.322c-0.03-0.151,0.006-0.285,0.105-0.401
		c0.101-0.115,0.288-0.201,0.563-0.257l1.555-0.316l-2.43-11.987l-1.555,0.315c-0.275,0.056-0.481,0.05-0.62-0.018
		c-0.138-0.067-0.222-0.178-0.252-0.329c-0.03-0.15,0.005-0.284,0.104-0.401c0.101-0.115,0.289-0.201,0.564-0.258l12.147-2.462
		l0.701,3.458c0.049,0.239,0.03,0.422-0.054,0.547c-0.085,0.125-0.214,0.205-0.389,0.24c-0.174,0.035-0.324,0.012-0.451-0.07
		c-0.126-0.082-0.213-0.243-0.262-0.482l-0.497-2.452l-8.283,1.678l1.061,5.229l4.141-0.839l-0.229-1.137
		c-0.049-0.239-0.029-0.423,0.06-0.549c0.09-0.125,0.222-0.206,0.396-0.241c0.164-0.033,0.313-0.01,0.443,0.071
		c0.131,0.082,0.222,0.243,0.27,0.481l0.664,3.278c0.05,0.239,0.028,0.422-0.061,0.548s-0.216,0.205-0.381,0.239
		c-0.175,0.035-0.327,0.012-0.458-0.069c-0.132-0.081-0.222-0.241-0.27-0.481l-0.23-1.137L-471.776,208.022z"/>
	<path d="M-448.288,197.754l1.099,8.499c0.185,1.429-0.207,2.698-1.178,3.809c-0.969,1.109-2.23,1.765-3.78,1.965
		c-1.039,0.135-1.988,0.057-2.847-0.234s-1.622-0.801-2.293-1.532c-0.67-0.729-1.068-1.579-1.193-2.547l-1.099-8.499l-0.987,0.129
		c-0.279,0.035-0.484,0.015-0.618-0.063c-0.132-0.077-0.208-0.192-0.228-0.346s0.028-0.291,0.145-0.413
		c0.102-0.095,0.29-0.16,0.568-0.196l4.316-0.558c0.279-0.036,0.484-0.016,0.616,0.062c0.133,0.077,0.209,0.192,0.229,0.346
		c0.02,0.153-0.024,0.284-0.134,0.393c-0.108,0.108-0.302,0.181-0.581,0.217l-2.157,0.279l1.099,8.498
		c0.146,1.122,0.709,2.018,1.692,2.687c0.982,0.669,2.077,0.925,3.284,0.769c0.77-0.1,1.453-0.344,2.05-0.732
		c0.596-0.389,1.091-0.933,1.487-1.633c0.396-0.699,0.541-1.448,0.438-2.247l-1.099-8.499l-2.158,0.279
		c-0.278,0.036-0.484,0.016-0.617-0.062s-0.209-0.193-0.229-0.347c-0.02-0.152,0.024-0.283,0.133-0.392
		c0.109-0.108,0.304-0.181,0.582-0.217l4.315-0.559c0.278-0.035,0.483-0.015,0.617,0.063c0.131,0.076,0.207,0.192,0.229,0.346
		c0.02,0.153-0.025,0.284-0.134,0.393c-0.109,0.108-0.303,0.181-0.581,0.217L-448.288,197.754z"/>
	<path d="M-441.922,204.138l0.308,5.338l2.171-0.125c0.291-0.016,0.498,0.02,0.626,0.105c0.126,0.086,0.194,0.207,0.202,0.361
		c0.01,0.146-0.045,0.271-0.161,0.376c-0.115,0.104-0.318,0.165-0.607,0.182l-4.934,0.282c-0.279,0.017-0.484-0.021-0.611-0.111
		s-0.195-0.209-0.202-0.354c-0.01-0.155,0.044-0.282,0.16-0.383s0.314-0.158,0.595-0.175l1.583-0.091l-0.699-12.211l-1.583,0.091
		c-0.28,0.016-0.484-0.02-0.61-0.106c-0.129-0.086-0.195-0.206-0.204-0.36c-0.009-0.155,0.044-0.282,0.16-0.383
		s0.314-0.158,0.595-0.175l7.12-0.407c1.466-0.084,2.725,0.249,3.776,1c1.051,0.751,1.605,1.635,1.664,2.649
		c0.042,0.731-0.229,1.438-0.814,2.119c-0.584,0.682-1.593,1.279-3.025,1.794c0.869,0.455,1.622,0.983,2.257,1.582
		c0.634,0.6,1.666,1.846,3.097,3.736l0.896-0.052c0.28-0.017,0.484,0.019,0.61,0.104c0.127,0.087,0.196,0.208,0.204,0.362
		c0.008,0.146-0.045,0.271-0.161,0.376c-0.115,0.104-0.314,0.164-0.594,0.18l-1.569,0.091c-1.588-2.184-2.804-3.639-3.646-4.364
		s-1.796-1.274-2.857-1.646L-441.922,204.138z M-441.979,203.114l3.209-0.185c1.028-0.058,1.951-0.274,2.769-0.647
		s1.403-0.789,1.756-1.249c0.354-0.461,0.518-0.919,0.491-1.374c-0.039-0.683-0.471-1.31-1.296-1.882
		c-0.824-0.572-1.803-0.826-2.934-0.762l-4.33,0.249L-441.979,203.114z"/>
</g>
<g>
	<path fill="#555454" d="M-387.772,469.534c0-21.223-17.208-38.428-38.431-38.428c-21.23,0-38.439,17.205-38.439,38.428
		c0,21.228,17.209,38.437,38.439,38.437C-404.98,507.971-387.772,490.762-387.772,469.534z"/>
</g>
<g>
	<path d="M-552.676,395.176c0.098-5.908-3.57-3.04-3.57-6.768c0-2.639,2.837-3.04,4.549-3.04h15.942
		c13.596,0,18.046,9.866,18.046,20.19c0,10.668-5.331,20.706-17.703,20.706c-2.104,0-3.863-0.057-5.38-0.172
		c-1.516-0.058-2.836-0.115-4.206-0.115c-1.369,0-2.787,0.057-4.156,0.115c-1.369,0.115-2.739,0.172-4.157,0.172
		c-1.663,0-3.766-0.975-3.766-3.269c0-4.13,3.863,0.458,4.011-7.916L-552.676,395.176z M-540.938,416.169
		c0,2.925,0.392,4.13,3.032,4.13c6.162,0,7.237-7.399,7.237-13.135c0-13.421-4.304-15.544-8.069-15.544
		c-2.054,0-2.2,0.975-2.2,3.155V416.169z"/>
	<path fill="#555454" d="M-484.354,395.692c0-6.137-4.206-3.785-4.206-7.112c0-3.556,5.673-3.441,7.679-3.441
		c1.858,0,7.237,0,7.237,3.327c0,3.212-3.668,1.262-3.668,6.481v15.487c0,2.581,0.049,16.347-16.872,16.347
		c-19.268,0-17.116-17.437-17.116-18.125v-13.25c0.195-3.613-3.13-3.613-3.13-6.252c0-0.803-0.538-4.015,9.536-4.015
		c7.972,0,9.586,1.721,9.586,3.958c0,4.129-3.57,0.287-3.814,7.284v10.554c0,6.826,2.2,11.185,7.384,11.185
		c7.728,0,7.385-7.514,7.385-8.145V395.692z"/>
	<path d="M-467.135,397.7c0-8.891-3.717-5.22-3.717-8.776c0-3.155,3.814-3.556,5.771-3.556c1.027,0,2.006,0.115,3.032,0.172
		c0.979,0.114,2.005,0.229,2.983,0.229c1.564,0,3.13-0.115,4.743-0.229c1.565-0.058,3.18-0.172,4.744-0.172
		c5.526,0,11.933,2.868,11.933,10.497c0,3.441-1.418,6.768-4.157,8.317c-0.439,0.287-0.782,0.459-0.782,1.147
		c0,0.86,0.636,1.09,1.223,1.376c3.424,1.492,4.939,4.13,5.624,10.325c0.587,5.334,3.766,2.122,3.766,5.621
		c0,2.18-2.249,4.474-7.775,4.474c-7.825,0-8.803-5.277-10.319-12.848c-0.538-2.638-1.369-5.219-4.059-5.219
		c-1.076,0-1.468,0.172-1.468,3.786c0,1.663,0.099,3.958,0.343,5.563c0.392,2.639,2.886,1.835,2.886,4.589
		c0,2.064-1.223,3.613-9.146,3.613c-2.348,0-9.292,0-9.292-4.187c0-2.982,3.668-0.918,3.668-8.375V397.7z M-455.789,400.224
		c-0.098,1.491-0.342,2.753,1.271,2.753c3.179,0,4.206-2.065,4.206-5.621c0-2.811-0.587-5.678-3.424-5.678
		c-1.809,0-1.76,1.319-1.858,3.097L-455.789,400.224z"/>
	<path d="M-420.232,405.271c1.516-3.958,3.521-9.005,3.521-13.537c0-3.958,1.564-6.94,5.917-6.94c4.255,0,6.944,5.105,8.852,8.891
		c0.831,1.664,8.216,19.215,9.977,23.918c1.614,4.359,4.255,1.721,4.255,4.99c0,4.188-6.944,4.015-9.39,4.015
		c-6.993,0-11.199-0.057-11.199-3.613c0-2.753,2.983-1.721,2.983-3.729c0-2.581-1.223-2.811-9.097-2.811
		c-2.543,0-4.059,0.115-4.059,2.925c0,2.237,3.13,0.746,3.13,3.729c0,3.441-5.282,3.499-7.238,3.499
		c-6.993,0-7.629-1.549-7.629-3.384c0-2.696,2.641-1.893,4.059-3.958c1.076-1.549,2.104-4.302,2.837-6.137L-420.232,405.271z
		 M-409.963,409.401c0.489,0,1.956,0.114,1.956-0.746s-1.418-3.843-1.809-4.646c-0.44-0.917-1.271-3.04-2.348-3.04
		c-1.174,0-2.005,3.441-2.201,4.072c-0.195,0.631-1.026,2.868-1.026,3.556c0,0.975,1.223,0.803,1.76,0.803H-409.963z"/>
	<path fill="#555454" d="M-355.724,401.887c-0.44,0.459-0.881,0.803-0.881,1.549s0.538,0.975,1.027,1.262
		c2.005,0.918,5.478,3.958,5.478,8.776c0,5.736-3.276,12.791-13.106,12.791c-1.663,0-3.179-0.057-4.646-0.172
		c-1.467-0.058-2.934-0.115-4.45-0.115c-1.662,0-3.374,0.057-5.037,0.115c-1.662,0.115-3.325,0.172-5.037,0.172
		c-1.516,0-3.228-1.032-3.228-3.04c0-3.557,3.179,0.057,3.473-9.464l0.538-16.519c0.293-8.661-3.913-4.703-3.913-8.661
		c0-2.179,2.005-3.212,3.521-3.212c1.81,0,3.619,0.115,5.429,0.172c1.809,0.114,3.618,0.229,5.428,0.229
		c1.174,0,2.299-0.115,3.424-0.229c1.124-0.058,2.298-0.172,3.423-0.172c8.949,0,11.248,4.99,11.248,9.407
		C-353.034,397.414-353.963,400.224-355.724,401.887z M-369.955,399.363c0,2.237-0.098,3.327,1.418,3.327
		c2.935,0,3.619-2.409,3.619-5.564c0-2.581-0.733-5.793-3.423-5.793c-1.81,0-1.614,1.721-1.614,3.384V399.363z M-369.955,413.359
		c0,6.653,0.93,6.826,2.445,6.826c2.787,0,3.766-2.237,3.766-5.22c0-3.499-0.88-6.596-4.304-6.596c-1.516,0-1.858,0.918-1.907,2.122
		V413.359z"/>
	<path d="M-342.564,425.978c-1.565,0-4.06,0.115-4.06-2.524c0-3.556,3.814-0.573,3.962-7.227c0.098-4.187,0.098-7.858,0.098-11.242
		c0-3.441-0.245-6.653-0.343-9.865c-0.098-4.818-4.401-2.294-4.401-5.564c0-4.187,7.678-4.417,10.074-4.417
		c9.781,0,10.271,1.95,10.271,3.9c0,3.327-3.864,0.803-3.864,6.195v18.24c0,4.13,0.587,6.137,4.06,6.137
		c8.313,0,5.478-7.973,8.607-7.973c2.2,0,3.032,2.753,3.032,4.933c0,4.474-2.739,10.21-4.988,10.21
		c-0.881,0-1.565-0.229-2.445-0.402c-0.93-0.229-2.006-0.401-3.668-0.401H-342.564z"/>
	<path d="M-293.169,385.77c6.554,0,7.482-1.147,8.266-1.147c2.787,0,3.961,5.621,3.961,8.145c0,1.893-0.636,4.129-2.543,4.129
		c-3.863,0-0.733-5.506-10.025-5.506c-5.429,0-4.891,1.147-4.891,7.744c0,3.327,0.146,3.441,3.13,3.441
		c3.717,0,0.929-6.367,4.401-6.367c2.837,0,3.032,6.481,3.032,8.718c0,2.352-0.343,9.234-3.276,9.234c-3.032,0,0-6.022-4.939-6.022
		c-2.055,0-2.005,2.18-2.005,4.015c0,8.374,0.488,7.973,5.624,7.973c10.025,0,7.188-8.087,11.198-8.087
		c1.565,0,2.348,2.065,2.348,3.671c0,3.9-2.641,10.898-4.597,10.898c-0.343,0-1.125-0.172-2.152-0.344
		c-1.075-0.115-2.445-0.287-4.107-0.287h-20.1c-3.228,0-3.277-1.721-3.277-2.466c0-3.155,3.326-0.631,3.668-6.711
		c0.587-10.439,0.636-9.407,0.147-19.789c-0.343-8.775-4.06-4.244-4.06-8.317c0-3.499,4.108-2.925,6.113-2.925H-293.169z"/>
</g>
<g>
	<g>
		<rect x="-557.762" y="318.351" fill="none" width="338.271" height="63.138"/>
		<path fill="#525251" d="M-498.791,360.158c0,2.34,0.312,3.51,2.418,4.68c1.56,0.858,2.652,1.326,2.652,3.276
			c0,1.872-0.156,5.772-15.523,5.772c-3.432,0-13.416-0.078-13.416-5.304c-0.313-6.006,5.46,0.624,5.46-15.21
			c0-4.212-0.937-4.056-4.836-4.056c-10.921,0-9.907,0.312-9.907,7.333c0,10.686,4.837,6.396,4.837,11.466
			c0,5.46-11.389,5.772-15.133,5.772c-3.588,0-14.431-0.312-14.431-5.616c0-1.638,1.17-2.652,2.496-3.276
			c2.809-1.326,3.822-1.092,3.822-17.395c0-20.749-0.313-19.032-3.198-20.593c-1.17-0.624-2.573-1.326-2.573-2.886
			c0-6.006,13.025-6.63,17.395-6.63c3.275,0,12.324,0.39,12.324,5.07c0,2.418-1.326,3.276-3.12,4.368
			c-1.95,1.092-2.419,2.028-2.419,8.97c0,4.368,2.029,3.822,5.773,3.822h3.978c5.148,0,4.992-0.78,4.992-3.198
			c0-8.502-1.326-9.048-2.34-9.594c-1.482-0.858-2.886-1.56-2.886-3.588c0-1.482-0.313-5.85,15.21-5.85
			c3.666,0,14.04,0.078,14.04,5.538c0,1.716-0.857,2.886-2.418,3.667c-2.34,1.014-3.197,0.78-3.197,13.182V360.158z"/>
		<path d="M-488.498,345.494c0-16.537,13.183-28.237,30.188-28.237c21.528,0,29.797,18.955,29.797,29.017
			c0,16.771-14.82,27.847-30.733,27.847C-475.705,374.121-488.498,362.108-488.498,345.494z M-461.898,328.879
			c-4.369,0-6.553,4.524-6.553,8.347c0,6.63,4.68,25.273,13.104,25.273c4.758,0,6.786-4.134,6.786-8.346
			C-448.561,347.054-452.772,328.879-461.898,328.879z"/>
		<path d="M-416.504,330.205c0-5.85-7.254-3.276-7.254-8.19c0-3.12,3.432-3.822,5.85-3.822c1.95,0,3.822,0.156,5.772,0.156
			c11.311,0,18.175-1.092,21.451-1.092c10.608,0,20.826,6.162,20.826,17.862c0,11.623-9.828,17.863-20.671,17.863
			c-2.34,0-4.68-0.39-6.786-0.39c-0.936,0-1.248,0.39-1.248,1.248v4.524c0.234,9.75,5.929,5.694,5.929,10.218
			c0,5.07-11.232,5.304-14.742,5.304c-3.276,0-14.821-0.078-14.821-5.148c0-4.291,5.694-1.638,5.694-8.035V330.205z
			 M-395.599,326.461c-3.042,0-2.965,0.936-2.965,2.496v11.701c0,1.638-0.702,3.432,3.511,3.432c5.148,0,7.176-3.9,7.176-8.658
			C-387.877,330.517-390.373,326.461-395.599,326.461z"/>
	</g>
</g>
<path fill-rule="evenodd" d="M-571.611,495.333c23.951,42.529,66.256,74.219,118.158,82.805
	c71.157,11.772,139.233-23.373,172.649-82.805l0,0H-571.611L-571.611,495.333z"/>
<path fill-rule="evenodd" fill="none" stroke="#000000" stroke-width="13" stroke-miterlimit="10" d="M-242.493,443.961
	c-16.783,101.465-112.643,170.113-214.104,153.33c-101.459-16.785-170.105-112.643-153.324-214.104
	c16.783-101.462,112.639-170.104,214.098-153.321C-294.362,246.648-225.71,342.5-242.493,443.961z"/>
<g id="XMLID_4_">
	<g>
		<path d="M-337.662,325.952c-6.751,14.541-14.48,30.533-19.477,41.263c-6.113,13.125-17.275,7.816-9.814-5.578
			c7.176-12.889,13.224-27.846,19.092-41.311c0.395-0.899,0.312-2.238-0.173-3.113c-97.95-76.288-13.308-146.626-7.097-158.839
			c30.584-47.034,21.528-60.192,23.239-63.019c73.821,58,136.11,161.559,55.253,219.628c-9.763,10.612-39.34,17.079-49.954,19.328
			l-2.421-1.827c4.414-8.403,18.169-36.141,25.566-80.898c4.709-28.537-4.85-45.822-5.512-49.043
			c-0.204,0.023-0.397,0.056-0.602,0.079c0.028,0.427,0.046,0.863,0.106,1.282c1.544,10.021,1.688,20.043,0.717,30.073
			c-1.302,13.5-4.24,26.71-8.18,39.742c-4.456,14.734-10.194,29.064-16.599,43.196C-334.834,319.819-336.23,322.853-337.662,325.952
			z"/>
		<path fill="#FFFFFF" d="M-308.959,202.542c0.662,3.221,10.221,20.506,5.512,49.043c-7.397,44.758-21.152,72.495-25.566,80.898
			l-8.648-6.532c1.432-3.099,2.828-6.133,4.146-9.036c6.404-14.132,12.143-28.462,16.599-43.196
			c3.939-13.032,6.878-26.242,8.18-39.742c0.971-10.03,0.827-20.052-0.717-30.073c-0.061-0.419-0.078-0.855-0.106-1.282
			C-309.356,202.598-309.163,202.565-308.959,202.542z"/>
		<path d="M-329.014,332.484l2.421,1.827c-2.188,0.463-3.567,0.749-3.806,0.856C-330.351,334.998-329.85,334.102-329.014,332.484z"
			/>
	</g>
	<g>
	</g>
</g>
<g>
	<path d="M-373.479,460.88l9.021-0.176c0.317-0.006,0.579,0.246,0.586,0.563c0.006,0.317-0.246,0.579-0.563,0.585
		c-0.014,0-0.026,0-0.04-0.001l-0.041-0.001l-8.988-0.471c-0.138-0.007-0.243-0.125-0.236-0.262
		c0.007-0.132,0.114-0.234,0.244-0.237H-373.479z"/>
	<path d="M-355.403,460.81l9.014,0.287c0.587,0.019,1.048,0.51,1.029,1.098c-0.019,0.587-0.51,1.048-1.098,1.03
		c-0.018,0-0.036-0.001-0.054-0.003l-0.059-0.005l-8.972-0.772c-0.451-0.039-0.786-0.436-0.747-0.887
		c0.037-0.436,0.409-0.763,0.841-0.75L-355.403,460.81z"/>
	<path d="M-337.229,461.685c0,0,0.56,0.061,1.4,0.152c0.839,0.103,1.957,0.241,3.075,0.378c0.284,0.041,0.548,0.054,0.847,0.119
		c0.291,0.054,0.578,0.108,0.855,0.16c0.557,0.105,1.075,0.203,1.521,0.288c0.892,0.171,1.486,0.286,1.486,0.286
		c0.81,0.156,1.34,0.938,1.184,1.748c-0.155,0.81-0.938,1.34-1.748,1.185c-0.015-0.003-0.029-0.006-0.044-0.01l-0.194-0.044
		c0,0-0.544-0.124-1.359-0.31c-0.408-0.093-0.884-0.202-1.394-0.319c-0.51-0.116-1.05-0.252-1.609-0.328
		c-2.222-0.363-4.444-0.726-4.444-0.726c-0.711-0.116-1.194-0.787-1.078-1.499c0.112-0.687,0.742-1.161,1.426-1.088
		L-337.229,461.685z"/>
	<path d="M-328.118,472.835c0,0-0.543,0.147-1.357,0.368c-0.407,0.11-0.883,0.24-1.392,0.377c-0.255,0.069-0.519,0.141-0.785,0.213
		c-0.261,0.079-0.568,0.124-0.854,0.184c-2.331,0.453-4.663,0.906-4.663,0.906c-0.988,0.192-1.945-0.454-2.138-1.442
		c-0.192-0.989,0.453-1.946,1.442-2.138c0.014-0.002,0.028-0.006,0.043-0.008l0.128-0.021c0,0,2.207-0.364,4.413-0.728
		c0.553-0.077,1.101-0.21,1.615-0.329c0.514-0.118,0.993-0.228,1.404-0.322c0.822-0.188,1.371-0.313,1.371-0.313
		c0.9-0.206,1.797,0.356,2.003,1.256c0.2,0.877-0.329,1.751-1.189,1.986L-328.118,472.835z"/>
	<path d="M-346.247,476.238l-8.936,1.061c-1.143,0.136-2.179-0.681-2.314-1.823c-0.136-1.143,0.681-2.18,1.823-2.315
		c0.017-0.002,0.034-0.004,0.051-0.005l0.059-0.005l8.959-0.802c1.075-0.096,2.023,0.697,2.12,1.771
		c0.094,1.055-0.668,1.988-1.712,2.113L-346.247,476.238z"/>
	<path d="M-364.278,478.122l-8.976,0.662c-1.243,0.092-2.326-0.842-2.418-2.086s0.843-2.327,2.086-2.418
		c0.01,0,0.02-0.001,0.029-0.002l0.044-0.002l8.984-0.499c1.2-0.066,2.228,0.852,2.294,2.052c0.066,1.187-0.831,2.204-2.011,2.291
		L-364.278,478.122z"/>
	<path d="M-382.32,479.348c0,0-2.247,0.118-4.494,0.237c-2.248,0.094-4.496,0.188-4.496,0.188c-1.322,0.056-2.438-0.971-2.494-2.294
		c-0.055-1.322,0.972-2.439,2.294-2.494l0.018-0.001h0.009l8.993-0.312c1.292-0.045,2.375,0.966,2.419,2.257
		c0.045,1.277-0.942,2.35-2.213,2.417L-382.32,479.348z"/>
	<path d="M-400.372,480.074l-8.997,0.231c-1.358,0.035-2.488-1.038-2.522-2.397c-0.035-1.359,1.038-2.488,2.396-2.523l0.018,0
		l0.009,0l8.999-0.166c1.341-0.025,2.448,1.042,2.473,2.383c0.024,1.335-1.032,2.439-2.364,2.473L-400.372,480.074z"/>
	<path d="M-418.432,480.471c0,0-2.249,0.032-4.499,0.023c-2.25,0.001-4.5,0.002-4.5,0.002h-0.011
		c-1.367,0.001-2.476-1.106-2.477-2.474c0-1.361,1.099-2.466,2.458-2.476l8.999-0.062c1.377-0.009,2.501,1.099,2.511,2.476
		c0.009,1.371-1.089,2.49-2.457,2.51H-418.432z"/>
	<path d="M-436.494,480.438l-9-0.124h-0.009c-1.331-0.019-2.396-1.113-2.378-2.444c0.019-1.325,1.104-2.386,2.427-2.378l9.001,0.06
		h0.009c1.35,0.009,2.436,1.11,2.427,2.459s-1.109,2.436-2.459,2.427H-436.494z"/>
	<path d="M-454.561,480.119l-8.996-0.36l-0.033-0.001c-1.267-0.051-2.253-1.119-2.202-2.386c0.05-1.252,1.097-2.23,2.345-2.204
		l9,0.199h0.034c1.313,0.029,2.354,1.117,2.324,2.429c-0.028,1.313-1.116,2.353-2.429,2.324
		C-454.528,480.121-454.551,480.12-454.561,480.119z"/>
	<path d="M-472.619,479.317l-9.006-0.529l-0.015-0.001c-1.177-0.069-2.074-1.079-2.006-2.255c0.068-1.163,1.059-2.053,2.218-2.007
		l8.99,0.366l0.039,0.001c1.222,0.05,2.173,1.081,2.123,2.303c-0.05,1.223-1.081,2.173-2.304,2.124
		C-472.588,479.319-472.609,479.318-472.619,479.317z"/>
	<path d="M-490.689,478.078l-8.964-0.866l-0.046-0.004c-1.037-0.101-1.797-1.023-1.696-2.06c0.098-1.019,0.991-1.769,2.005-1.702
		l8.982,0.608l0.049,0.003c1.111,0.075,1.951,1.037,1.876,2.148s-1.037,1.951-2.148,1.876
		C-490.648,478.082-490.674,478.08-490.689,478.078z"/>
	<path d="M-508.796,476.131l-8.885-1.482l-0.044-0.007c-0.862-0.144-1.445-0.959-1.301-1.822c0.141-0.841,0.923-1.416,1.762-1.31
		l8.931,1.136l0.049,0.006c0.964,0.123,1.646,1.003,1.522,1.967c-0.123,0.963-1.003,1.645-1.967,1.523
		C-508.748,476.138-508.775,476.134-508.796,476.131z"/>
	<path d="M-527.205,471.903c0,0-0.122-0.07-0.335-0.193c-0.059-0.028-0.339-0.202-0.614-0.399c-0.135-0.094-0.28-0.201-0.445-0.363
		c-0.172-0.174-0.295-0.26-0.506-0.547c-0.102-0.14-0.199-0.29-0.289-0.446l-0.128-0.238c-0.046-0.115-0.089-0.234-0.125-0.358
		c-0.074-0.248-0.125-0.51-0.148-0.768c-0.005-0.268,0.024-0.557,0.083-0.835c0.029-0.135,0.067-0.288,0.11-0.399
		c0.043-0.1,0.09-0.199,0.141-0.299c0.102-0.198,0.22-0.392,0.35-0.573c0.197-0.228,0.44-0.48,0.656-0.655
		c0.189-0.14,0.387-0.278,0.589-0.409c0.175-0.091,0.352-0.183,0.53-0.275c0.349-0.166,0.673-0.29,0.996-0.408
		c0.634-0.22,1.239-0.387,1.797-0.522c0.558-0.137,1.069-0.242,1.506-0.328c0.873-0.168,1.448-0.261,1.448-0.261l0.04-0.007
		c0.648-0.105,1.259,0.335,1.364,0.983c0.1,0.62-0.302,1.206-0.903,1.348c0,0-0.544,0.127-1.36,0.318
		c-0.813,0.199-1.892,0.495-2.912,0.897c-0.252,0.104-0.502,0.214-0.733,0.336c-0.236,0.121-0.446,0.256-0.629,0.4
		c-0.084,0.074-0.148,0.154-0.224,0.225c-0.022,0.076-0.107,0.148-0.096,0.211c-0.052,0.12,0.033,0.24,0.116,0.369
		c0.108,0.117,0.226,0.239,0.355,0.315c0.125,0.083,0.226,0.159,0.345,0.214c0.219,0.114,0.343,0.18,0.343,0.18l0.035,0.019
		c0.688,0.361,0.954,1.212,0.593,1.9c-0.361,0.688-1.212,0.954-1.9,0.593C-527.171,471.922-527.19,471.911-527.205,471.903z"/>
	<path d="M-512.455,462.602l8.997-0.536l0.038-0.002c0.389-0.023,0.723,0.273,0.746,0.663c0.022,0.375-0.256,0.701-0.625,0.743
		l-8.941,1.016l-0.051,0.006c-0.521,0.059-0.99-0.315-1.05-0.835c-0.059-0.52,0.315-0.99,0.835-1.048
		C-512.489,462.604-512.471,462.603-512.455,462.602z"/>
	<path d="M-494.403,461.85l4.859-0.005h0.017c0.139,0,0.25,0.112,0.25,0.25c0,0.132-0.103,0.24-0.231,0.25l-4.835,0.35l-0.028,0.002
		c-0.233,0.017-0.437-0.159-0.453-0.392c-0.017-0.233,0.158-0.437,0.392-0.453C-494.424,461.85-494.413,461.85-494.403,461.85z"/>
</g>
<g>
	<rect x="-572.209" y="512.119" fill="none" width="292.002" height="102.171"/>
	<path fill="#FFFFFF" d="M-523.012,511.611c2.579,0,4.237,1.788,4.922,1.788c0.579,0,0.736-0.255,1.184-0.255
		c1.106,0,2.527,2.299,2.527,6.348c0,2.08-0.895,3.831-2.447,3.831c-2.711,0-2.027-6.458-6.713-6.458
		c-2.026,0-2.869,2.626-2.869,4.633c0,5.399,2.08,9.997,5.766,9.997c3.342,0,3.842-2.518,4.658-2.518
		c0.764,0,1.132,1.241,1.132,2.153c0,1.605-1.211,4.961-2.526,4.961c-0.896,0-2.738,2.116-5.844,2.116
		c-5.527,0-10.055-6.056-10.055-13.39C-533.277,517.339-528.197,511.611-523.012,511.611z"/>
	<path fill="#FFFFFF" d="M-513.382,524.818c0-7.734,4.448-13.207,10.187-13.207c7.265,0,10.055,8.866,10.055,13.572
		c0,7.844-5.002,13.025-10.371,13.025C-509.065,538.208-513.382,532.589-513.382,524.818z M-504.406,517.047
		c-1.475,0-2.211,2.116-2.211,3.904c0,3.101,1.579,11.821,4.422,11.821c1.605,0,2.29-1.934,2.29-3.904
		C-499.905,525.548-501.326,517.047-504.406,517.047z"/>
	<path fill="#FFFFFF" d="M-491.855,524.818c0-7.734,4.449-13.207,10.187-13.207c7.265,0,10.056,8.866,10.056,13.572
		c0,7.844-5.002,13.025-10.371,13.025C-487.539,538.208-491.855,532.589-491.855,524.818z M-482.879,517.047
		c-1.475,0-2.211,2.116-2.211,3.904c0,3.101,1.578,11.821,4.422,11.821c1.605,0,2.289-1.934,2.289-3.904
		C-478.379,525.548-479.8,517.047-482.879,517.047z"/>
	<path fill="#FFFFFF" d="M-468.144,517.667c0-2.736-2.448-1.532-2.448-3.831c0-1.459,1.158-1.788,1.975-1.788
		c0.658,0,1.289,0.073,1.947,0.073c3.816,0,6.133-0.511,7.238-0.511c3.58,0,7.028,2.882,7.028,8.355
		c0,5.436-3.316,8.354-6.976,8.354c-0.789,0-1.579-0.182-2.289-0.182c-0.316,0-0.422,0.182-0.422,0.583v2.116
		c0.079,4.561,2,2.663,2,4.779c0,2.372-3.789,2.481-4.975,2.481c-1.105,0-5-0.037-5-2.408c0-2.006,1.921-0.766,1.921-3.758V517.667z
		 M-461.09,515.917c-1.026,0-1,0.438-1,1.167v5.473c0,0.766-0.236,1.605,1.185,1.605c1.737,0,2.422-1.824,2.422-4.049
		C-458.483,517.813-459.326,515.917-461.09,515.917z"/>
	<path fill="#FFFFFF" d="M-440.799,512.122c3.526,0,4.027-0.729,4.447-0.729c1.501,0,2.133,3.575,2.133,5.181
		c0,1.204-0.342,2.627-1.369,2.627c-2.079,0-0.395-3.502-5.396-3.502c-2.922,0-2.632,0.729-2.632,4.925
		c0,2.116,0.078,2.189,1.684,2.189c2.001,0,0.5-4.05,2.369-4.05c1.527,0,1.633,4.123,1.633,5.545c0,1.496-0.186,5.874-1.764,5.874
		c-1.633,0,0-3.831-2.659-3.831c-1.105,0-1.079,1.387-1.079,2.554c0,5.327,0.264,5.071,3.027,5.071c5.396,0,3.869-5.145,6.027-5.145
		c0.842,0,1.264,1.313,1.264,2.335c0,2.481-1.422,6.932-2.475,6.932c-0.184,0-0.605-0.109-1.158-0.219
		c-0.578-0.073-1.316-0.183-2.211-0.183h-10.818c-1.736,0-1.764-1.095-1.764-1.569c0-2.006,1.791-0.401,1.975-4.269
		c0.316-6.64,0.342-5.983,0.079-12.587c-0.185-5.582-2.185-2.7-2.185-5.29c0-2.226,2.211-1.861,3.29-1.861H-440.799z
		 M-446.011,509.167c0-1.532,1.843-2.043,1.843-3.028c0-0.328-0.211-0.438-0.211-0.839c0-0.912,1.789-1.095,2.211-1.095
		c0.816,0,3.211,0.365,3.211,2.043c0,0.912-2.053,4.269-5.633,4.269C-445.273,510.517-446.011,510.334-446.011,509.167z"/>
	<path fill="#FFFFFF" d="M-430.563,519.711c0-5.655-2.001-3.32-2.001-5.582c0-2.007,2.053-2.262,3.106-2.262
		c0.553,0,1.079,0.073,1.632,0.109c0.526,0.073,1.079,0.146,1.605,0.146c0.842,0,1.685-0.073,2.553-0.146
		c0.843-0.036,1.711-0.109,2.554-0.109c2.974,0,6.423,1.824,6.423,6.677c0,2.189-0.764,4.305-2.238,5.29
		c-0.236,0.182-0.421,0.292-0.421,0.729c0,0.547,0.343,0.693,0.658,0.875c1.843,0.949,2.659,2.627,3.026,6.567
		c0.316,3.393,2.027,1.35,2.027,3.575c0,1.387-1.211,2.846-4.186,2.846c-4.211,0-4.737-3.356-5.553-8.172
		c-0.29-1.678-0.738-3.32-2.186-3.32c-0.578,0-0.789,0.109-0.789,2.408c0,1.058,0.053,2.518,0.184,3.539
		c0.211,1.678,1.553,1.167,1.553,2.919c0,1.313-0.657,2.298-4.922,2.298c-1.264,0-5,0-5-2.664c0-1.897,1.974-0.583,1.974-5.327
		V519.711z M-424.457,521.316c-0.053,0.949-0.185,1.751,0.684,1.751c1.711,0,2.264-1.313,2.264-3.576
		c0-1.788-0.315-3.612-1.842-3.612c-0.975,0-0.947,0.839-1,1.97L-424.457,521.316z"/>
	<path fill="#FFFFFF" d="M-406.089,524.527c0.815-2.518,1.896-5.728,1.896-8.61c0-2.518,0.842-4.415,3.185-4.415
		c2.29,0,3.737,3.247,4.765,5.655c0.447,1.058,4.422,12.222,5.369,15.214c0.869,2.773,2.29,1.095,2.29,3.174
		c0,2.663-3.737,2.554-5.054,2.554c-3.764,0-6.027-0.037-6.027-2.298c0-1.751,1.605-1.095,1.605-2.372
		c0-1.642-0.658-1.788-4.896-1.788c-1.368,0-2.185,0.073-2.185,1.86c0,1.423,1.685,0.475,1.685,2.372
		c0,2.189-2.842,2.226-3.896,2.226c-3.764,0-4.106-0.985-4.106-2.152c0-1.715,1.422-1.204,2.186-2.518
		c0.578-0.985,1.131-2.736,1.526-3.904L-406.089,524.527z M-400.562,527.153c0.263,0,1.053,0.073,1.053-0.474
		s-0.763-2.444-0.974-2.955c-0.236-0.584-0.685-1.934-1.264-1.934c-0.631,0-1.079,2.189-1.184,2.59
		c-0.105,0.401-0.553,1.824-0.553,2.262c0,0.62,0.657,0.511,0.947,0.511H-400.562z"/>
	<path fill="#FFFFFF" d="M-377.561,512.122c1.132,0,1.658-0.146,2.053-0.255c0.369-0.146,0.58-0.255,1.08-0.255
		c1.026,0,3.158,2.809,3.158,6.75c0,1.824-0.685,3.028-2.027,3.028c-2.289,0-2.264-4.305-3.605-4.305
		c-1.026,0-0.922,1.97-0.922,2.262v11.201c0,4.342,2.422,2.262,2.422,4.816c0,1.131-0.5,2.736-5.422,2.736
		c-1.342,0-6.265,0.073-6.265-2.736c0-1.934,1.632-1.167,2.159-2.554c0.263-0.766,0.367-2.956,0.395-3.867l0.21-8.063
		c0.105-3.831-0.447-3.794-0.815-3.794c-1.185,0-1.764,4.305-3.896,4.305c-1.025,0-1.631-1.313-1.631-2.627
		c0-3.101,1.895-7.151,3.395-7.151c0.185,0,0.475,0.109,0.975,0.255c0.5,0.109,1.211,0.255,2.264,0.255H-377.561z"/>
	<path fill="#FFFFFF" d="M-368.72,523.104c0-4.633-0.263-5.691-0.553-6.202c-0.605-1.058-1.632-1.167-1.632-2.554
		c0-2.627,5.369-2.627,5.896-2.627c1.58,0,4.817,0.073,4.817,2.554c0,1.313-1,1.24-1.605,2.189c-0.5,0.803-0.526,4.086-0.526,6.64
		v3.612c0,6.494,0.315,6.348,0.842,6.786c0.658,0.547,1.29,0.73,1.29,1.861c0,1.095-0.237,2.736-6.002,2.736
		c-1.105,0-4.422-0.037-4.422-2.372c0-1.167,0.895-1.35,1.316-2.043c0.316-0.511,0.579-1.861,0.579-6.968V523.104z"/>
	<path fill="#FFFFFF" d="M-346.743,534.924c-0.553,1.496-1.079,3.174-2.501,3.174c-1.526,0-1.921-1.204-2.5-2.919l-5.238-16.053
		c-0.79-2.372-1.026-2.809-2.053-3.028c-0.526-0.109-0.79-0.656-0.79-1.423c0-2.809,4.186-2.955,5.527-2.955
		c5.527,0,5.317,1.824,5.317,2.372c0,1.386-1.264,1.459-1.264,2.444c0,0.766,1.026,3.612,1.658,5.509
		c0.237,0.62,0.526,2.043,1.105,2.08c0.868,0.073,1.316-1.97,1.632-2.736c0.316-0.876,1.526-4.159,1.526-5.035
		c0-1.313-1.342-0.949-1.342-2.408c0-2.262,3.316-2.226,4.369-2.226c3.316,0,3.869,0.839,3.869,2.116
		c0,0.985-0.526,1.459-1.158,1.569c-1.132,0.182-1.237,0.073-2.237,2.882L-346.743,534.924z"/>
	<path fill="#FFFFFF" d="M-326.375,512.122c3.527,0,4.027-0.729,4.448-0.729c1.5,0,2.132,3.575,2.132,5.181
		c0,1.204-0.342,2.627-1.368,2.627c-2.08,0-0.396-3.502-5.396-3.502c-2.921,0-2.632,0.729-2.632,4.925
		c0,2.116,0.079,2.189,1.685,2.189c2,0,0.5-4.05,2.369-4.05c1.526,0,1.632,4.123,1.632,5.545c0,1.496-0.185,5.874-1.764,5.874
		c-1.632,0,0-3.831-2.658-3.831c-1.105,0-1.079,1.387-1.079,2.554c0,5.327,0.263,5.071,3.026,5.071c5.396,0,3.869-5.145,6.028-5.145
		c0.842,0,1.263,1.313,1.263,2.335c0,2.481-1.421,6.932-2.474,6.932c-0.185,0-0.605-0.109-1.158-0.219
		c-0.579-0.073-1.316-0.183-2.211-0.183h-10.818c-1.737,0-1.764-1.095-1.764-1.569c0-2.006,1.79-0.401,1.975-4.269
		c0.315-6.64,0.342-5.983,0.078-12.587c-0.184-5.582-2.185-2.7-2.185-5.29c0-2.226,2.211-1.861,3.29-1.861H-326.375z"/>
</g>
<g>
	<g>
		<path fill="#FFFFFF" d="M-432.208,557.63c4,0,8,0,12,0c3.225,0,3.225-5,0-5c-4,0-8,0-12,0
			C-435.433,552.63-435.433,557.63-432.208,557.63L-432.208,557.63z"/>
	</g>
</g>
<circle fill-rule="evenodd" fill="none" stroke="#000000" stroke-width="6" stroke-miterlimit="10" cx="374.872" cy="419.578" r="166.794"/>
<g>
	<path fill-rule="evenodd" fill="none" d="M246.926,577.029c-87.205-70.674-100.605-198.653-29.943-285.847
		c70.668-87.199,198.645-100.601,285.838-29.933c87.205,70.668,100.604,198.645,29.936,285.846
		C462.094,634.288,334.117,647.697,246.926,577.029z"/>
	<path d="M166.252,404.539l4.818,0.391l0.326-4.029c0.025-0.279,0.088-0.477,0.189-0.591c0.104-0.113,0.232-0.164,0.385-0.152
		c0.148,0.013,0.266,0.083,0.354,0.213c0.086,0.128,0.117,0.333,0.096,0.612l-0.551,6.787c-0.021,0.279-0.086,0.477-0.195,0.589
		c-0.107,0.114-0.232,0.165-0.379,0.152c-0.154-0.012-0.273-0.082-0.355-0.211c-0.084-0.129-0.113-0.334-0.092-0.613l0.129-1.582
		l-12.191-0.987l-0.129,1.581c-0.021,0.279-0.085,0.477-0.188,0.59c-0.104,0.113-0.232,0.165-0.387,0.152s-0.273-0.084-0.356-0.212
		c-0.083-0.129-0.114-0.334-0.091-0.613l0.553-6.828c0.131-1.614,0.651-2.897,1.563-3.853c0.908-0.954,1.92-1.386,3.031-1.296
		c0.656,0.053,1.236,0.267,1.736,0.641s0.883,0.807,1.145,1.297c0.396,0.736,0.672,1.486,0.822,2.249
		c0.109,0.555,0.133,1.232,0.066,2.034L166.252,404.539z M165.23,404.456l0.305-3.749c0.07-0.867-0.033-1.695-0.307-2.483
		c-0.275-0.787-0.643-1.376-1.1-1.765c-0.459-0.39-0.939-0.604-1.443-0.645c-0.803-0.065-1.557,0.272-2.262,1.014
		c-0.705,0.74-1.107,1.717-1.205,2.931l-0.339,4.183L165.23,404.456z"/>
	<path d="M169.869,383.417l-1.176,7.659l3.463,2.138l0.342-2.233c0.043-0.278,0.121-0.47,0.232-0.575
		c0.109-0.106,0.242-0.148,0.395-0.124c0.145,0.021,0.256,0.102,0.334,0.235c0.078,0.136,0.096,0.342,0.055,0.619l-0.672,4.357
		c-0.043,0.277-0.121,0.469-0.236,0.574s-0.244,0.146-0.389,0.124c-0.152-0.022-0.268-0.103-0.34-0.236
		c-0.074-0.135-0.09-0.341-0.049-0.618l0.139-0.902l-11.297-7.006l-0.529,3.44c-0.043,0.277-0.119,0.47-0.23,0.575
		c-0.111,0.106-0.244,0.146-0.395,0.124c-0.154-0.023-0.268-0.103-0.342-0.237c-0.073-0.134-0.09-0.34-0.047-0.618l0.902-5.869
		l13.979-3.673l0.139-0.902c0.043-0.277,0.119-0.47,0.23-0.575s0.242-0.147,0.396-0.124c0.145,0.022,0.256,0.102,0.332,0.236
		c0.078,0.135,0.096,0.341,0.053,0.619l-0.666,4.343c-0.045,0.287-0.125,0.482-0.238,0.588c-0.115,0.105-0.246,0.146-0.391,0.125
		c-0.152-0.023-0.266-0.103-0.342-0.237c-0.072-0.135-0.088-0.345-0.043-0.632l0.342-2.22L169.869,383.417z M168.789,383.705
		l-7.867,2.086l-0.066,0.43l6.893,4.256L168.789,383.705z"/>
	<path d="M170.59,371.599l5.283,1.207l0.682-2.983c0.063-0.273,0.152-0.46,0.271-0.558s0.252-0.129,0.402-0.095
		c0.145,0.032,0.248,0.119,0.316,0.26c0.07,0.141,0.072,0.347,0.01,0.621l-1.629,7.13c-0.063,0.273-0.156,0.459-0.277,0.556
		c-0.123,0.097-0.256,0.13-0.396,0.097c-0.152-0.034-0.26-0.119-0.326-0.255c-0.064-0.134-0.064-0.343,0-0.626l0.682-2.982
		l-5.283-1.208l-7.795,3.533l-0.156,0.684c-0.063,0.274-0.152,0.46-0.271,0.558c-0.117,0.098-0.252,0.13-0.404,0.095
		c-0.15-0.034-0.258-0.121-0.32-0.261c-0.064-0.14-0.066-0.346-0.004-0.619l0.723-3.162c0.063-0.273,0.152-0.459,0.271-0.557
		c0.117-0.099,0.254-0.13,0.404-0.095c0.15,0.034,0.258,0.121,0.322,0.261c0.064,0.139,0.064,0.346,0.002,0.619l-0.26,1.136
		l6.611-3.011l-4.67-5.488l-0.256,1.123c-0.064,0.283-0.156,0.474-0.273,0.571c-0.119,0.098-0.254,0.129-0.404,0.095
		c-0.152-0.035-0.26-0.121-0.324-0.262c-0.063-0.139-0.063-0.35,0.002-0.633l0.719-3.147c0.063-0.274,0.154-0.46,0.271-0.557
		c0.119-0.098,0.252-0.13,0.404-0.096c0.15,0.034,0.258,0.121,0.322,0.261c0.063,0.14,0.064,0.346,0.002,0.619l-0.156,0.685
		L170.59,371.599z"/>
	<path d="M169.039,351.674l-0.328-0.101c-0.232-0.07-0.385-0.174-0.455-0.308s-0.078-0.286-0.025-0.456
		c0.051-0.17,0.143-0.291,0.275-0.363c0.133-0.071,0.316-0.071,0.551-0.001l2.496,0.764c0.234,0.072,0.387,0.175,0.455,0.308
		c0.07,0.134,0.08,0.286,0.027,0.457c-0.049,0.16-0.137,0.278-0.262,0.353c-0.123,0.074-0.293,0.084-0.506,0.028
		c-0.668-0.154-1.373,0.053-2.117,0.623s-1.297,1.445-1.658,2.627c-0.381,1.244-0.404,2.318-0.072,3.222
		c0.332,0.905,0.875,1.472,1.631,1.702c0.389,0.119,0.773,0.124,1.156,0.016c0.383-0.107,0.725-0.302,1.027-0.581
		s0.58-0.616,0.83-1.008c0.254-0.394,0.584-1.025,0.996-1.898c0.686-1.464,1.23-2.452,1.633-2.964
		c0.541-0.687,1.143-1.146,1.801-1.381s1.354-0.239,2.086-0.016c1.119,0.342,1.918,1.148,2.395,2.42
		c0.475,1.271,0.445,2.778-0.088,4.523c-0.6,1.96-1.611,3.363-3.035,4.21l0.561,0.171c0.232,0.072,0.385,0.175,0.455,0.308
		c0.07,0.135,0.078,0.286,0.025,0.456c-0.049,0.162-0.139,0.28-0.273,0.356c-0.135,0.077-0.318,0.079-0.553,0.009l-2.709-0.828
		c-0.24-0.074-0.396-0.178-0.465-0.312c-0.07-0.134-0.078-0.286-0.027-0.456c0.049-0.161,0.137-0.279,0.26-0.354
		c0.127-0.074,0.295-0.084,0.51-0.028c0.729,0.174,1.516-0.067,2.357-0.725c0.844-0.657,1.482-1.693,1.914-3.107
		s0.465-2.625,0.102-3.632c-0.365-1.007-0.967-1.638-1.809-1.896c-0.514-0.157-1.018-0.14-1.514,0.051
		c-0.498,0.191-0.957,0.56-1.379,1.105c-0.295,0.38-0.752,1.22-1.369,2.518c-0.844,1.788-1.672,3.007-2.484,3.659
		s-1.736,0.82-2.77,0.504c-1.027-0.314-1.768-1.056-2.217-2.227c-0.451-1.17-0.441-2.529,0.033-4.078
		C166.98,353.771,167.826,352.546,169.039,351.674z"/>
	<path d="M182.189,340.473l-2.795,7.228l2.924,2.83l0.816-2.107c0.1-0.262,0.217-0.433,0.348-0.513
		c0.131-0.079,0.27-0.092,0.414-0.036c0.137,0.053,0.227,0.154,0.275,0.303c0.047,0.148,0.02,0.354-0.082,0.615l-1.59,4.112
		c-0.1,0.262-0.219,0.432-0.354,0.511c-0.135,0.078-0.271,0.09-0.408,0.037c-0.143-0.056-0.236-0.156-0.279-0.305
		c-0.045-0.146-0.016-0.352,0.086-0.613l0.328-0.852l-9.531-9.268l-1.254,3.248c-0.102,0.262-0.219,0.433-0.35,0.512
		c-0.131,0.08-0.268,0.092-0.414,0.036c-0.143-0.056-0.236-0.157-0.279-0.305c-0.043-0.146-0.016-0.352,0.086-0.613l2.141-5.538
		l14.439-0.59l0.33-0.851c0.102-0.262,0.217-0.433,0.348-0.513s0.27-0.092,0.414-0.035c0.137,0.053,0.229,0.152,0.275,0.302
		c0.047,0.148,0.02,0.354-0.082,0.615l-1.584,4.099c-0.104,0.271-0.223,0.445-0.359,0.523c-0.135,0.078-0.27,0.091-0.406,0.038
		c-0.145-0.056-0.238-0.157-0.281-0.305c-0.043-0.146-0.014-0.355,0.092-0.627l0.809-2.095L182.189,340.473z M181.07,340.522
		l-8.131,0.348l-0.156,0.406l5.818,5.635L181.07,340.522z"/>
	<path d="M188.945,324.332l3.973,1.877c0.008,0.997-0.082,1.946-0.264,2.849c-0.184,0.901-0.465,1.755-0.846,2.559
		c-0.539,1.143-1.162,2.077-1.865,2.806c-0.705,0.729-1.463,1.268-2.277,1.618c-0.813,0.352-1.625,0.539-2.439,0.563
		c-0.813,0.025-1.723-0.201-2.73-0.677l-1.699-0.804c-1.016-0.479-1.867-1.236-2.553-2.269c-0.688-1.033-1.047-2.174-1.08-3.421
		c-0.031-1.247,0.232-2.462,0.793-3.646c0.811-1.718,1.906-2.976,3.281-3.775c-0.359-0.17-0.57-0.288-0.629-0.353
		c-0.061-0.063-0.096-0.155-0.107-0.275c-0.012-0.119,0.012-0.236,0.068-0.355c0.07-0.152,0.178-0.258,0.322-0.313
		c0.145-0.057,0.326-0.032,0.547,0.071l2.098,0.991c0.227,0.108,0.363,0.234,0.408,0.38c0.043,0.145,0.029,0.293-0.043,0.445
		c-0.068,0.144-0.166,0.244-0.297,0.302s-0.305,0.04-0.523-0.053c-0.648-0.244-1.381-0.019-2.195,0.679
		c-0.816,0.695-1.469,1.565-1.961,2.605c-0.463,0.982-0.695,1.957-0.697,2.923c-0.004,0.967,0.355,2.039,1.078,3.219
		c0.469,0.78,1.137,1.375,2.004,1.785L183,334.86c1.537,0.727,3.016,0.762,4.432,0.106s2.574-1.936,3.475-3.84
		c0.303-0.644,0.527-1.267,0.668-1.873c0.143-0.605,0.24-1.347,0.293-2.222l-3.432-1.621l-1.732,3.668
		c-0.121,0.254-0.248,0.416-0.385,0.486s-0.275,0.072-0.416,0.006c-0.139-0.066-0.227-0.175-0.264-0.327
		c-0.035-0.151,0.006-0.354,0.127-0.608l2.432-5.122c0.121-0.254,0.248-0.416,0.385-0.485c0.137-0.07,0.275-0.072,0.416-0.006
		c0.094,0.045,0.168,0.12,0.217,0.226c0.049,0.106,0.066,0.208,0.051,0.305C189.252,323.649,189.145,323.909,188.945,324.332z"/>
	<path d="M186.428,312.435l10.656,6.007l1.984-3.521c0.137-0.245,0.277-0.398,0.418-0.458c0.143-0.06,0.279-0.052,0.414,0.024
		c0.127,0.071,0.205,0.185,0.23,0.339c0.023,0.154-0.031,0.353-0.17,0.598l-4.551,8.07c-0.137,0.245-0.277,0.396-0.424,0.454
		c-0.145,0.059-0.279,0.052-0.406-0.021c-0.135-0.076-0.215-0.19-0.236-0.342c-0.021-0.152,0.037-0.35,0.174-0.595l1.986-3.522
		l-10.656-6.006l-1.984,3.522c-0.137,0.244-0.277,0.396-0.418,0.456c-0.143,0.06-0.281,0.052-0.416-0.023
		c-0.133-0.076-0.211-0.189-0.234-0.342c-0.021-0.152,0.037-0.351,0.174-0.596l4.551-8.07c0.139-0.245,0.277-0.396,0.418-0.457
		c0.143-0.06,0.279-0.053,0.414,0.023s0.213,0.19,0.236,0.342c0.021,0.152-0.037,0.351-0.176,0.595L186.428,312.435z"/>
	<path d="M196.586,296.171l-0.285-0.188c-0.203-0.135-0.32-0.277-0.348-0.425c-0.029-0.148,0.006-0.296,0.104-0.444
		s0.221-0.238,0.367-0.27c0.148-0.031,0.324,0.021,0.527,0.155l2.18,1.443c0.203,0.135,0.318,0.275,0.348,0.424
		c0.027,0.148-0.006,0.297-0.105,0.444c-0.092,0.141-0.209,0.229-0.35,0.265c-0.143,0.036-0.307-0.003-0.494-0.116
		c-0.598-0.339-1.332-0.341-2.207-0.006c-0.877,0.334-1.656,1.017-2.338,2.046c-0.719,1.085-1.047,2.108-0.984,3.068
		c0.061,0.961,0.42,1.66,1.078,2.096c0.338,0.226,0.707,0.34,1.104,0.345s0.781-0.083,1.148-0.266
		c0.371-0.182,0.732-0.425,1.086-0.729s0.852-0.816,1.494-1.537c1.072-1.208,1.877-2,2.408-2.377
		c0.715-0.503,1.422-0.773,2.119-0.811c0.699-0.037,1.367,0.156,2.004,0.578c0.977,0.647,1.512,1.648,1.607,3.001
		c0.094,1.354-0.363,2.791-1.371,4.313c-1.133,1.708-2.502,2.766-4.107,3.172l0.488,0.324c0.203,0.134,0.318,0.276,0.348,0.425
		c0.027,0.147-0.006,0.296-0.104,0.443c-0.094,0.141-0.217,0.229-0.365,0.264c-0.15,0.035-0.328-0.015-0.531-0.149l-2.361-1.564
		c-0.209-0.139-0.33-0.283-0.357-0.431c-0.029-0.148,0.006-0.297,0.104-0.444c0.094-0.142,0.211-0.229,0.352-0.265
		c0.141-0.035,0.305,0.003,0.494,0.116c0.648,0.375,1.473,0.367,2.467-0.023c0.996-0.39,1.902-1.201,2.719-2.434
		s1.193-2.383,1.131-3.452s-0.461-1.847-1.193-2.332c-0.449-0.297-0.938-0.424-1.467-0.383c-0.529,0.042-1.076,0.264-1.637,0.668
		c-0.389,0.28-1.066,0.955-2.029,2.023c-1.316,1.474-2.459,2.407-3.422,2.801c-0.965,0.395-1.898,0.292-2.801-0.306
		c-0.895-0.593-1.391-1.515-1.49-2.765s0.299-2.55,1.191-3.9C194.016,297.595,195.176,296.662,196.586,296.171z"/>
	<path d="M203.625,286.617l9.691,7.462l1.867-2.425c0.172-0.223,0.332-0.354,0.479-0.393c0.15-0.039,0.285-0.012,0.408,0.083
		c0.115,0.089,0.176,0.211,0.178,0.367c0.004,0.155-0.082,0.346-0.252,0.568l-4.463,5.795c-0.17,0.223-0.332,0.352-0.482,0.389
		c-0.152,0.037-0.285,0.011-0.402-0.079c-0.121-0.094-0.184-0.218-0.184-0.371s0.086-0.342,0.258-0.564l1.867-2.425l-9.693-7.461
		l-2.945,3.826l2.814,2.166c0.201,0.155,0.309,0.307,0.328,0.456c0.018,0.149-0.027,0.296-0.137,0.437
		c-0.102,0.133-0.23,0.212-0.383,0.236c-0.152,0.025-0.328-0.04-0.527-0.194l-3.627-2.793l8.059-10.466l3.627,2.792
		c0.199,0.154,0.309,0.307,0.326,0.456s-0.027,0.295-0.135,0.436c-0.109,0.142-0.238,0.222-0.387,0.242
		c-0.15,0.021-0.324-0.046-0.525-0.199l-2.814-2.167L203.625,286.617z"/>
	<path d="M215.354,282.232l4.389,3.9l6.025-6.778l-2.264-2.011c-0.182-0.163-0.277-0.319-0.285-0.471
		c-0.008-0.149,0.049-0.291,0.166-0.425c0.119-0.133,0.252-0.204,0.402-0.215c0.15-0.01,0.318,0.066,0.5,0.229l3.029,2.692
		l-8.645,9.727c-0.186,0.21-0.355,0.328-0.512,0.354c-0.152,0.026-0.285-0.009-0.393-0.106c-0.117-0.103-0.168-0.23-0.158-0.384
		c0.012-0.153,0.109-0.335,0.297-0.544l1.053-1.187l-9.143-8.125l-1.053,1.186c-0.188,0.21-0.355,0.329-0.506,0.358
		c-0.152,0.028-0.285-0.009-0.4-0.111s-0.168-0.23-0.156-0.384c0.01-0.152,0.109-0.335,0.295-0.545l8.234-9.265l2.639,2.344
		c0.182,0.162,0.277,0.318,0.283,0.47c0.008,0.149-0.047,0.292-0.166,0.425c-0.117,0.133-0.252,0.204-0.402,0.215
		c-0.15,0.01-0.316-0.066-0.5-0.229l-1.869-1.662l-5.615,6.316l3.988,3.544l2.807-3.158l-0.867-0.771
		c-0.182-0.162-0.275-0.32-0.279-0.475c-0.006-0.153,0.051-0.298,0.17-0.431c0.111-0.126,0.244-0.195,0.398-0.209
		c0.152-0.014,0.32,0.06,0.504,0.223l2.5,2.222c0.182,0.162,0.277,0.32,0.281,0.475s-0.051,0.294-0.162,0.42
		c-0.117,0.133-0.254,0.206-0.406,0.221c-0.154,0.013-0.324-0.061-0.506-0.223l-0.865-0.771L215.354,282.232z"/>
	<path d="M239.588,250.404l-0.465-0.55c-0.158-0.187-0.229-0.354-0.215-0.505s0.088-0.283,0.225-0.397s0.279-0.167,0.43-0.155
		s0.305,0.11,0.461,0.297l1.834,2.174c0.164,0.192,0.238,0.364,0.225,0.515s-0.09,0.283-0.225,0.397
		c-0.123,0.103-0.256,0.151-0.4,0.146c-0.145-0.006-0.297-0.086-0.451-0.242c-0.477-0.492-1.195-0.681-2.15-0.566
		c-1.297,0.146-2.475,0.668-3.533,1.561c-0.693,0.585-1.234,1.271-1.625,2.058c-0.295,0.579-0.459,1.124-0.494,1.633
		c-0.063,0.884,0.016,1.738,0.234,2.564c0.168,0.604,0.482,1.181,0.945,1.729l1.156,1.371c0.988,1.169,2.33,1.773,4.029,1.813
		s3.193-0.482,4.48-1.568c0.773-0.652,1.342-1.383,1.707-2.191c0.363-0.808,0.582-1.749,0.656-2.823
		c0.012-0.232,0.092-0.413,0.242-0.539c0.129-0.109,0.262-0.163,0.396-0.16c0.139,0.002,0.252,0.056,0.34,0.162
		c0.121,0.143,0.15,0.49,0.09,1.042c-0.104,1.067-0.398,2.055-0.889,2.962c-0.49,0.908-1.109,1.679-1.859,2.313
		c-0.65,0.549-1.404,0.998-2.262,1.348c-0.656,0.267-1.246,0.431-1.771,0.489c-0.525,0.061-1.258,0.031-2.195-0.087
		c-0.939-0.118-1.688-0.327-2.248-0.628c-0.559-0.299-1.066-0.72-1.523-1.261l-1.346-1.595c-0.65-0.771-1.078-1.761-1.283-2.968
		c-0.203-1.207-0.076-2.375,0.385-3.504c0.463-1.129,1.176-2.102,2.141-2.917C236.117,251.066,237.77,250.427,239.588,250.404z"/>
	<path d="M257.063,244.606c0.805,1.106,1.293,2.318,1.465,3.637c0.172,1.319-0.004,2.57-0.523,3.756
		c-0.523,1.184-1.303,2.152-2.34,2.906c-1.535,1.117-3.301,1.534-5.297,1.249s-3.639-1.316-4.932-3.093
		c-1.297-1.784-1.771-3.667-1.426-5.649c0.348-1.982,1.289-3.532,2.824-4.649c1.037-0.754,2.197-1.195,3.48-1.324
		c1.285-0.129,2.527,0.09,3.73,0.654C255.248,242.656,256.254,243.495,257.063,244.606z M256.098,245.309
		c-0.982-1.349-2.313-2.232-3.994-2.65c-1.68-0.417-3.236-0.106-4.666,0.933c-1.34,0.976-2.111,2.319-2.318,4.033
		c-0.205,1.715,0.219,3.296,1.271,4.744c1.119,1.54,2.533,2.437,4.238,2.69c1.705,0.253,3.184-0.073,4.434-0.982
		c1.43-1.04,2.207-2.422,2.33-4.146S257.084,246.665,256.098,245.309z"/>
	<path d="M272.402,243.403l-1.289,0.801l-14.127-6.263l6.207,9.981l1.848-1.149c0.248-0.153,0.445-0.222,0.6-0.207
		c0.152,0.016,0.27,0.088,0.352,0.22c0.078,0.125,0.09,0.26,0.037,0.407c-0.051,0.147-0.201,0.297-0.445,0.45l-3.684,2.291
		c-0.246,0.154-0.447,0.221-0.602,0.202c-0.156-0.019-0.271-0.09-0.35-0.214c-0.082-0.132-0.096-0.27-0.041-0.413
		c0.053-0.144,0.203-0.292,0.449-0.445l0.836-0.519l-6.461-10.387l-1.348,0.839c-0.238,0.147-0.434,0.215-0.586,0.198
		c-0.152-0.015-0.27-0.088-0.352-0.219s-0.096-0.269-0.043-0.413c0.055-0.144,0.201-0.29,0.439-0.438l2.623-1.631l14.152,6.275
		l-6.223-10.002l-1.846,1.15c-0.238,0.147-0.434,0.214-0.586,0.199c-0.154-0.016-0.271-0.089-0.354-0.22
		c-0.08-0.132-0.098-0.268-0.047-0.409c0.049-0.142,0.197-0.289,0.443-0.442l3.695-2.298c0.238-0.148,0.434-0.215,0.586-0.2
		c0.154,0.016,0.271,0.089,0.354,0.22c0.08,0.132,0.096,0.27,0.041,0.413c-0.053,0.144-0.201,0.289-0.439,0.438l-0.846,0.526
		L272.402,243.403z"/>
	<path d="M278.74,225.394l-0.336-0.638c-0.113-0.216-0.146-0.396-0.102-0.539c0.047-0.144,0.146-0.258,0.305-0.341
		c0.158-0.082,0.309-0.102,0.453-0.059s0.273,0.174,0.387,0.39l1.324,2.518c0.117,0.223,0.152,0.406,0.107,0.55
		c-0.047,0.145-0.148,0.258-0.305,0.34c-0.141,0.074-0.281,0.094-0.422,0.057c-0.141-0.035-0.271-0.146-0.391-0.333
		c-0.359-0.583-1.018-0.921-1.977-1.015c-1.299-0.136-2.561,0.119-3.785,0.764c-0.805,0.423-1.48,0.977-2.029,1.66
		c-0.414,0.502-0.691,0.998-0.836,1.487c-0.252,0.85-0.357,1.702-0.322,2.556c0.033,0.626,0.217,1.256,0.551,1.89l0.836,1.589
		c0.711,1.354,1.893,2.233,3.545,2.638c1.65,0.406,3.221,0.216,4.713-0.568c0.895-0.471,1.607-1.062,2.137-1.772
		s0.947-1.582,1.25-2.615c0.061-0.226,0.178-0.384,0.352-0.476c0.148-0.078,0.291-0.102,0.424-0.07s0.23,0.108,0.295,0.23
		c0.088,0.165,0.043,0.512-0.137,1.037c-0.33,1.021-0.832,1.921-1.504,2.702c-0.674,0.781-1.445,1.4-2.314,1.858
		c-0.754,0.396-1.586,0.673-2.498,0.831c-0.699,0.119-1.311,0.151-1.836,0.098c-0.525-0.056-1.234-0.241-2.125-0.559
		c-0.893-0.317-1.578-0.683-2.061-1.096c-0.48-0.414-0.887-0.934-1.217-1.561l-0.971-1.847c-0.471-0.894-0.674-1.951-0.615-3.174
		c0.061-1.223,0.438-2.335,1.131-3.339s1.598-1.8,2.717-2.388C275.207,225.292,276.959,225.024,278.74,225.394z"/>
	<path d="M286.992,228.112l2.354,5.381l8.309-3.634l-1.213-2.773c-0.098-0.224-0.119-0.405-0.063-0.546
		c0.057-0.14,0.166-0.245,0.33-0.316c0.16-0.071,0.313-0.08,0.455-0.026c0.141,0.054,0.26,0.192,0.357,0.416l1.625,3.714
		l-11.926,5.213c-0.256,0.113-0.459,0.148-0.611,0.107c-0.15-0.04-0.254-0.128-0.313-0.262c-0.063-0.142-0.057-0.28,0.018-0.415
		c0.074-0.134,0.24-0.258,0.496-0.37l1.455-0.636l-4.9-11.206l-1.453,0.635c-0.258,0.112-0.461,0.15-0.609,0.113
		c-0.15-0.037-0.256-0.127-0.318-0.268c-0.061-0.143-0.055-0.28,0.02-0.415c0.072-0.134,0.24-0.258,0.496-0.37l11.357-4.966
		l1.414,3.232c0.098,0.224,0.117,0.405,0.063,0.546c-0.057,0.14-0.168,0.245-0.328,0.316c-0.164,0.071-0.316,0.08-0.457,0.026
		s-0.26-0.192-0.357-0.416l-1.004-2.293l-7.742,3.386l2.137,4.888l3.871-1.692l-0.465-1.063c-0.098-0.225-0.115-0.407-0.055-0.549
		c0.061-0.143,0.172-0.248,0.334-0.32c0.154-0.067,0.305-0.075,0.451-0.023c0.145,0.053,0.266,0.19,0.363,0.413l1.34,3.065
		c0.098,0.223,0.117,0.406,0.057,0.548c-0.061,0.143-0.168,0.247-0.322,0.314c-0.162,0.071-0.318,0.081-0.463,0.028
		c-0.146-0.052-0.266-0.188-0.365-0.413l-0.463-1.063L286.992,228.112z"/>
	<path d="M302.461,222.87l1.613,4.557l3.811-1.35c0.266-0.094,0.471-0.117,0.617-0.069c0.145,0.048,0.244,0.145,0.295,0.29
		c0.051,0.139,0.033,0.273-0.049,0.406s-0.254,0.246-0.521,0.34l-6.418,2.272c-0.264,0.094-0.469,0.115-0.617,0.063
		c-0.146-0.052-0.246-0.146-0.293-0.284c-0.053-0.146-0.037-0.283,0.047-0.412c0.084-0.128,0.258-0.24,0.521-0.334l1.496-0.529
		l-4.082-11.529l-1.496,0.529c-0.266,0.093-0.471,0.117-0.615,0.068c-0.148-0.048-0.244-0.144-0.297-0.29
		c-0.051-0.145-0.035-0.282,0.047-0.411c0.084-0.129,0.258-0.24,0.523-0.334l6.457-2.287c1.527-0.54,2.91-0.59,4.154-0.149
		c1.242,0.44,2.051,1.186,2.422,2.236c0.221,0.621,0.262,1.237,0.125,1.847s-0.375,1.135-0.715,1.574
		c-0.51,0.664-1.082,1.221-1.717,1.67c-0.461,0.327-1.07,0.625-1.828,0.894L302.461,222.87z M302.119,221.903l3.545-1.256
		c0.82-0.29,1.535-0.723,2.141-1.295c0.605-0.573,0.992-1.148,1.162-1.727c0.168-0.576,0.168-1.104-0.002-1.579
		c-0.268-0.759-0.885-1.31-1.85-1.649c-0.965-0.341-2.021-0.308-3.166,0.099l-3.959,1.4L302.119,221.903z"/>
	<path d="M317.77,210.234l3.248,11.792l2.949-0.813c0.27-0.074,0.477-0.083,0.619-0.025c0.143,0.059,0.234,0.162,0.273,0.311
		c0.039,0.141,0.014,0.275-0.078,0.401c-0.09,0.127-0.271,0.228-0.541,0.302l-7.053,1.942c-0.271,0.074-0.479,0.08-0.621,0.02
		c-0.143-0.063-0.234-0.164-0.271-0.306c-0.043-0.148-0.018-0.285,0.076-0.406c0.092-0.123,0.273-0.222,0.543-0.297l2.951-0.812
		l-3.248-11.793l-4.654,1.282l0.941,3.425c0.068,0.243,0.063,0.431-0.012,0.561c-0.076,0.131-0.199,0.22-0.371,0.267
		c-0.162,0.045-0.313,0.031-0.447-0.041c-0.137-0.072-0.238-0.229-0.305-0.473l-1.217-4.414l12.736-3.508l1.215,4.414
		c0.066,0.243,0.063,0.43-0.012,0.561c-0.078,0.131-0.201,0.22-0.371,0.267c-0.172,0.048-0.324,0.034-0.455-0.039
		c-0.133-0.073-0.232-0.232-0.299-0.476l-0.943-3.424L317.77,210.234z"/>
	<path d="M329.787,213.794l1.152,5.758l8.891-1.778l-0.592-2.969c-0.049-0.239-0.029-0.421,0.055-0.546s0.215-0.205,0.389-0.239
		c0.174-0.035,0.326-0.012,0.451,0.071c0.125,0.082,0.213,0.243,0.262,0.483l0.795,3.974l-12.762,2.552
		c-0.275,0.055-0.482,0.046-0.621-0.026c-0.139-0.071-0.221-0.179-0.25-0.322c-0.029-0.151,0.006-0.285,0.105-0.401
		c0.102-0.115,0.289-0.2,0.564-0.256l1.557-0.312l-2.398-11.993l-1.557,0.311c-0.273,0.055-0.48,0.048-0.619-0.02
		c-0.137-0.067-0.221-0.178-0.252-0.329c-0.029-0.151,0.006-0.285,0.105-0.4c0.102-0.116,0.289-0.201,0.564-0.257l12.156-2.43
		l0.691,3.459c0.047,0.239,0.029,0.422-0.057,0.547c-0.084,0.124-0.215,0.204-0.389,0.239s-0.324,0.011-0.451-0.072
		c-0.125-0.082-0.213-0.243-0.26-0.482l-0.49-2.453l-8.287,1.656l1.047,5.231l4.143-0.829l-0.229-1.137
		c-0.047-0.239-0.027-0.423,0.063-0.549c0.09-0.125,0.223-0.206,0.396-0.24c0.164-0.033,0.313-0.009,0.443,0.073
		s0.221,0.242,0.268,0.481l0.656,3.279c0.049,0.24,0.027,0.422-0.063,0.548c-0.088,0.126-0.217,0.206-0.381,0.238
		c-0.176,0.035-0.328,0.012-0.459-0.07c-0.131-0.081-0.219-0.242-0.268-0.481l-0.227-1.138L329.787,213.794z"/>
	<path d="M353.303,203.588l1.076,8.502c0.182,1.429-0.215,2.696-1.188,3.805c-0.973,1.107-2.236,1.759-3.785,1.955
		c-1.039,0.132-1.988,0.051-2.848-0.243c-0.857-0.293-1.621-0.805-2.289-1.537c-0.668-0.731-1.063-1.581-1.186-2.551l-1.076-8.5
		l-0.988,0.125c-0.279,0.035-0.484,0.014-0.617-0.063c-0.133-0.078-0.207-0.193-0.229-0.347c-0.02-0.153,0.031-0.291,0.146-0.412
		c0.102-0.095,0.291-0.16,0.568-0.195l4.32-0.547c0.277-0.035,0.482-0.014,0.615,0.063s0.207,0.193,0.229,0.347
		c0.018,0.153-0.027,0.284-0.135,0.393c-0.109,0.107-0.303,0.18-0.582,0.215l-2.158,0.273l1.076,8.501
		c0.143,1.122,0.703,2.02,1.686,2.69c0.98,0.672,2.074,0.932,3.281,0.778c0.771-0.098,1.455-0.34,2.053-0.728
		c0.596-0.387,1.094-0.93,1.49-1.629c0.398-0.698,0.547-1.447,0.445-2.246l-1.076-8.502l-2.158,0.274
		c-0.279,0.034-0.484,0.014-0.617-0.063c-0.133-0.078-0.209-0.193-0.227-0.347c-0.021-0.153,0.023-0.284,0.133-0.393
		c0.109-0.107,0.303-0.18,0.582-0.215l4.316-0.547c0.279-0.035,0.484-0.014,0.617,0.063c0.131,0.077,0.207,0.193,0.229,0.347
		c0.018,0.153-0.027,0.284-0.135,0.393c-0.109,0.107-0.303,0.179-0.582,0.215L353.303,203.588z"/>
	<path d="M359.652,209.987l0.293,5.34l2.172-0.119c0.289-0.016,0.498,0.02,0.625,0.106c0.125,0.087,0.193,0.207,0.201,0.361
		c0.008,0.146-0.047,0.271-0.162,0.376c-0.115,0.104-0.318,0.164-0.607,0.18l-4.936,0.27c-0.279,0.016-0.482-0.022-0.609-0.113
		s-0.195-0.209-0.203-0.355c-0.008-0.154,0.045-0.281,0.162-0.382c0.115-0.1,0.314-0.157,0.596-0.173l1.582-0.087l-0.666-12.213
		l-1.584,0.087c-0.281,0.016-0.484-0.021-0.609-0.107c-0.129-0.087-0.195-0.207-0.203-0.362c-0.01-0.154,0.045-0.281,0.16-0.382
		c0.117-0.1,0.316-0.157,0.596-0.173l7.121-0.39c1.467-0.08,2.725,0.257,3.773,1.012c1.049,0.753,1.602,1.637,1.656,2.652
		c0.041,0.732-0.232,1.438-0.818,2.118c-0.586,0.68-1.598,1.274-3.031,1.785c0.869,0.458,1.619,0.987,2.252,1.588
		c0.633,0.602,1.662,1.849,3.088,3.744l0.896-0.049c0.279-0.016,0.484,0.021,0.609,0.106c0.127,0.087,0.195,0.208,0.203,0.362
		c0.008,0.146-0.047,0.271-0.162,0.375c-0.115,0.104-0.314,0.164-0.594,0.18l-1.57,0.086c-1.582-2.188-2.793-3.646-3.635-4.373
		c-0.842-0.729-1.793-1.28-2.854-1.654L359.652,209.987z M359.596,208.965l3.211-0.177c1.027-0.056,1.951-0.269,2.77-0.641
		c0.818-0.37,1.404-0.785,1.76-1.244c0.354-0.46,0.52-0.917,0.494-1.372c-0.037-0.683-0.469-1.312-1.291-1.886
		s-1.801-0.831-2.932-0.77l-4.33,0.237L359.596,208.965z"/>
</g>
<g>
	<path fill="#C5CE17" d="M413.307,475.535c0-21.223-17.208-38.428-38.431-38.428c-21.23,0-38.439,17.205-38.439,38.428
		c0,21.228,17.209,38.437,38.439,38.437C396.099,513.972,413.307,496.763,413.307,475.535z"/>
</g>
<g>
	<path d="M248.367,401.178c0.097-5.908-3.545-3.04-3.545-6.768c0-2.639,2.816-3.04,4.516-3.04h15.828
		c13.498,0,17.917,9.866,17.917,20.19c0,10.668-5.293,20.706-17.577,20.706c-2.087,0-3.835-0.057-5.341-0.172
		c-1.505-0.058-2.815-0.115-4.175-0.115c-1.36,0-2.768,0.057-4.128,0.115c-1.359,0.115-2.719,0.172-4.127,0.172
		c-1.65,0-3.738-0.975-3.738-3.269c0-4.13,3.836,0.458,3.981-7.916L248.367,401.178z M260.02,422.171c0,2.925,0.389,4.13,3.011,4.13
		c6.117,0,7.186-7.399,7.186-13.135c0-13.421-4.272-15.544-8.011-15.544c-2.04,0-2.186,0.975-2.186,3.155V422.171z"/>
	<path fill="#913B8E" d="M316.201,401.694c0-6.138-4.176-3.786-4.176-7.113c0-3.556,5.633-3.441,7.623-3.441
		c1.845,0,7.187,0,7.187,3.327c0,3.212-3.642,1.262-3.642,6.481v15.487c0,2.581,0.048,16.347-16.751,16.347
		c-19.131,0-16.994-17.437-16.994-18.125v-13.25c0.194-3.613-3.107-3.613-3.107-6.252c0-0.803-0.534-4.015,9.468-4.015
		c7.914,0,9.517,1.721,9.517,3.958c0,4.129-3.544,0.287-3.787,7.284v10.554c0,6.826,2.185,11.185,7.332,11.185
		c7.671,0,7.331-7.514,7.331-8.145V401.694z"/>
	<path d="M333.299,403.702c0-8.891-3.69-5.22-3.69-8.776c0-3.155,3.787-3.556,5.729-3.556c1.02,0,1.99,0.115,3.01,0.172
		c0.972,0.114,1.991,0.229,2.962,0.229c1.554,0,3.107-0.115,4.71-0.229c1.554-0.058,3.156-0.172,4.71-0.172
		c5.486,0,11.847,2.868,11.847,10.497c0,3.441-1.408,6.768-4.127,8.317c-0.437,0.287-0.776,0.459-0.776,1.147
		c0,0.86,0.631,1.09,1.213,1.377c3.399,1.491,4.904,4.129,5.584,10.324c0.583,5.334,3.738,2.122,3.738,5.621
		c0,2.18-2.233,4.474-7.72,4.474c-7.769,0-8.739-5.277-10.244-12.848c-0.534-2.638-1.36-5.219-4.03-5.219
		c-1.068,0-1.457,0.172-1.457,3.786c0,1.663,0.098,3.958,0.34,5.563c0.389,2.639,2.865,1.835,2.865,4.589
		c0,2.065-1.214,3.613-9.08,3.613c-2.33,0-9.225,0-9.225-4.187c0-2.982,3.642-0.918,3.642-8.374V403.702z M344.563,406.226
		c-0.097,1.491-0.34,2.753,1.263,2.753c3.156,0,4.176-2.065,4.176-5.621c0-2.811-0.583-5.678-3.398-5.678
		c-1.797,0-1.748,1.319-1.846,3.097L344.563,406.226z"/>
	<path d="M379.868,411.273c1.505-3.958,3.495-9.005,3.495-13.537c0-3.958,1.554-6.94,5.875-6.94c4.225,0,6.895,5.105,8.788,8.891
		c0.826,1.664,8.157,19.215,9.905,23.918c1.603,4.359,4.225,1.721,4.225,4.99c0,4.188-6.895,4.015-9.322,4.015
		c-6.943,0-11.119-0.057-11.119-3.613c0-2.753,2.962-1.721,2.962-3.729c0-2.581-1.214-2.811-9.031-2.811
		c-2.524,0-4.029,0.115-4.029,2.925c0,2.237,3.107,0.746,3.107,3.729c0,3.441-5.244,3.499-7.187,3.499
		c-6.943,0-7.574-1.548-7.574-3.384c0-2.696,2.622-1.893,4.03-3.958c1.067-1.548,2.088-4.302,2.815-6.137L379.868,411.273z
		 M390.064,415.403c0.485,0,1.941,0.114,1.941-0.746s-1.408-3.843-1.796-4.646c-0.438-0.917-1.263-3.04-2.331-3.04
		c-1.165,0-1.99,3.441-2.185,4.072s-1.02,2.868-1.02,3.556c0,0.975,1.214,0.803,1.748,0.803H390.064z"/>
	<path fill="#913B8E" d="M443.915,407.889c-0.437,0.459-0.874,0.803-0.874,1.549s0.534,0.975,1.02,1.262
		c1.991,0.918,5.438,3.958,5.438,8.776c0,5.736-3.253,12.791-13.013,12.791c-1.65,0-3.155-0.057-4.612-0.172
		c-1.457-0.058-2.913-0.115-4.418-0.115c-1.651,0-3.351,0.057-5.001,0.115c-1.651,0.115-3.302,0.172-5.001,0.172
		c-1.506,0-3.205-1.032-3.205-3.04c0-3.556,3.156,0.058,3.447-9.464l0.534-16.519c0.291-8.661-3.884-4.703-3.884-8.661
		c0-2.179,1.99-3.212,3.495-3.212c1.797,0,3.593,0.115,5.39,0.172c1.797,0.114,3.593,0.229,5.39,0.229
		c1.165,0,2.282-0.115,3.398-0.229c1.117-0.058,2.282-0.172,3.398-0.172c8.886,0,11.168,4.99,11.168,9.407
		C446.586,403.415,445.663,406.226,443.915,407.889z M429.786,405.365c0,2.237-0.097,3.327,1.408,3.327
		c2.913,0,3.593-2.409,3.593-5.564c0-2.581-0.729-5.793-3.398-5.793c-1.797,0-1.603,1.721-1.603,3.384V405.365z M429.786,419.36
		c0,6.653,0.923,6.826,2.428,6.826c2.768,0,3.738-2.237,3.738-5.22c0-3.499-0.874-6.596-4.272-6.596
		c-1.505,0-1.845,0.918-1.894,2.122V419.36z"/>
	<path d="M456.981,431.979c-1.554,0-4.03,0.115-4.03-2.524c0-3.556,3.787-0.573,3.933-7.227c0.098-4.187,0.098-7.858,0.098-11.242
		c0-3.441-0.243-6.653-0.34-9.865c-0.098-4.818-4.37-2.294-4.37-5.564c0-4.187,7.623-4.417,10.002-4.417
		c9.711,0,10.196,1.95,10.196,3.9c0,3.327-3.836,0.803-3.836,6.195v18.24c0,4.13,0.583,6.137,4.03,6.137
		c8.254,0,5.438-7.973,8.545-7.973c2.186,0,3.011,2.753,3.011,4.933c0,4.474-2.719,10.21-4.952,10.21
		c-0.874,0-1.554-0.229-2.428-0.402c-0.923-0.229-1.991-0.401-3.642-0.401H456.981z"/>
	<path d="M506.025,391.771c6.506,0,7.429-1.147,8.205-1.147c2.768,0,3.934,5.621,3.934,8.145c0,1.893-0.632,4.129-2.525,4.129
		c-3.836,0-0.729-5.506-9.953-5.506c-5.39,0-4.855,1.147-4.855,7.744c0,3.327,0.146,3.441,3.107,3.441
		c3.69,0,0.923-6.367,4.37-6.367c2.815,0,3.01,6.481,3.01,8.718c0,2.352-0.34,9.234-3.253,9.234c-3.01,0,0-6.022-4.903-6.022
		c-2.04,0-1.991,2.18-1.991,4.015c0,8.374,0.485,7.973,5.584,7.973c9.953,0,7.137-8.087,11.118-8.087
		c1.554,0,2.331,2.065,2.331,3.671c0,3.9-2.622,10.898-4.564,10.898c-0.34,0-1.116-0.172-2.136-0.344
		c-1.068-0.115-2.428-0.287-4.079-0.287h-19.955c-3.205,0-3.253-1.721-3.253-2.466c0-3.155,3.302-0.631,3.642-6.711
		c0.582-10.439,0.631-9.407,0.146-19.789c-0.34-8.775-4.03-4.244-4.03-8.317c0-3.499,4.078-2.925,6.069-2.925H506.025z"/>
</g>
<g>
	<g>
		<rect x="243.317" y="324.352" fill="none" width="338.271" height="109.138"/>
		<path fill="#913B8E" d="M302.287,366.158c0,2.34,0.313,3.51,2.418,4.68c1.561,0.858,2.652,1.326,2.652,3.276
			c0,1.872-0.156,5.772-15.522,5.772c-3.432,0-13.416-0.078-13.416-5.304c-0.313-6.006,5.46,0.624,5.46-15.21
			c0-4.212-0.936-4.056-4.836-4.056c-10.921,0-9.906,0.312-9.906,7.333c0,10.686,4.836,6.396,4.836,11.466
			c0,5.46-11.389,5.772-15.133,5.772c-3.588,0-14.431-0.312-14.431-5.616c0-1.638,1.171-2.652,2.496-3.276
			c2.809-1.326,3.822-1.092,3.822-17.395c0-20.749-0.312-19.032-3.198-20.593c-1.17-0.624-2.574-1.326-2.574-2.886
			c0-6.006,13.027-6.63,17.395-6.63c3.276,0,12.325,0.39,12.325,5.07c0,2.418-1.326,3.276-3.12,4.368
			c-1.95,1.092-2.418,2.028-2.418,8.97c0,4.368,2.027,3.822,5.771,3.822h3.979c5.148,0,4.992-0.78,4.992-3.198
			c0-8.502-1.326-9.048-2.34-9.594c-1.482-0.858-2.887-1.56-2.887-3.588c0-1.482-0.312-5.85,15.211-5.85
			c3.666,0,14.041,0.078,14.041,5.538c0,1.716-0.858,2.886-2.418,3.667c-2.341,1.014-3.199,0.78-3.199,13.182V366.158z"/>
		<path stroke="#000000" stroke-miterlimit="10" d="M312.581,351.494c0-16.537,13.183-28.237,30.187-28.237
			c21.529,0,29.798,18.955,29.798,29.017c0,16.771-14.821,27.847-30.733,27.847C325.373,380.121,312.581,368.108,312.581,351.494z
			 M339.18,334.879c-4.367,0-6.552,4.524-6.552,8.347c0,6.63,4.681,25.273,13.104,25.273c4.758,0,6.786-4.134,6.786-8.346
			C352.519,353.054,348.307,334.879,339.18,334.879z"/>
		<path stroke="#000000" stroke-miterlimit="10" d="M384.575,336.205c0-5.85-7.254-3.276-7.254-8.19c0-3.12,3.432-3.822,5.851-3.822
			c1.949,0,3.821,0.156,5.771,0.156c11.311,0,18.175-1.092,21.451-1.092c10.608,0,20.826,6.162,20.826,17.862
			c0,11.623-9.828,17.863-20.671,17.863c-2.34,0-4.68-0.39-6.786-0.39c-0.936,0-1.248,0.39-1.248,1.248v4.524
			c0.234,9.75,5.929,5.694,5.929,10.218c0,5.07-11.232,5.304-14.742,5.304c-3.276,0-14.821-0.078-14.821-5.148
			c0-4.291,5.694-1.638,5.694-8.035V336.205z M405.48,332.461c-3.042,0-2.965,0.936-2.965,2.496v11.701
			c0,1.638-0.702,3.432,3.511,3.432c5.148,0,7.176-3.9,7.176-8.658C413.202,336.517,410.706,332.461,405.48,332.461z"/>
	</g>
</g>
<path fill-rule="evenodd" d="M229.468,501.334c23.951,42.529,66.256,74.218,118.158,82.804
	c71.157,11.771,139.233-23.373,172.649-82.804l0,0H229.468L229.468,501.334z"/>
<path fill-rule="evenodd" fill="none" stroke="#000000" stroke-width="13" stroke-miterlimit="10" d="M558.586,449.962
	c-16.783,101.465-112.643,170.113-214.104,153.33C243.023,586.507,174.377,490.65,191.158,389.189
	c16.783-101.463,112.639-170.104,214.098-153.322C506.717,252.649,575.369,348.501,558.586,449.962z"/>
<g id="XMLID_5_">
	<g>
		<path fill="#C1D11A" d="M463.417,331.604c-6.751,14.644-14.48,30.751-19.477,41.558c-6.113,13.22-17.275,7.872-9.814-5.617
			c7.176-12.982,13.224-28.046,19.092-41.606c0.395-0.906,0.312-2.254-0.173-3.135c-97.95-76.834-13.308-147.676-7.097-159.977
			c30.584-47.37,21.528-60.623,23.239-63.47c73.821,58.416,136.11,162.716,55.253,221.201c-9.763,10.688-39.34,17.201-49.954,19.466
			l-2.421-1.84c4.414-8.463,18.169-36.399,25.566-81.478c4.709-28.741-4.85-46.149-5.512-49.394
			c-0.204,0.023-0.397,0.056-0.602,0.079c0.028,0.43,0.046,0.87,0.106,1.292c1.544,10.093,1.688,20.187,0.717,30.289
			c-1.302,13.597-4.24,26.901-8.18,40.026c-4.456,14.839-10.194,29.272-16.599,43.505
			C466.245,325.427,464.849,328.482,463.417,331.604z"/>
		<path fill="#FFFFFF" d="M492.12,207.312c0.662,3.244,10.221,20.653,5.512,49.394c-7.397,45.078-21.152,73.014-25.566,81.478
			l-8.648-6.579c1.432-3.122,2.828-6.177,4.146-9.101c6.404-14.233,12.143-28.666,16.599-43.505
			c3.939-13.125,6.878-26.43,8.18-40.026c0.971-10.103,0.827-20.196-0.717-30.289c-0.061-0.421-0.078-0.861-0.106-1.292
			C491.723,207.368,491.916,207.334,492.12,207.312z"/>
		<path fill="#C1D11A" d="M472.065,338.183l2.421,1.84c-2.188,0.467-3.567,0.754-3.806,0.863
			C470.729,340.715,471.229,339.812,472.065,338.183z"/>
	</g>
	<g>
	</g>
</g>
<g>
	<path fill="#913B8E" d="M427.601,466.881l9.021-0.176c0.317-0.006,0.579,0.246,0.585,0.563c0.007,0.317-0.245,0.579-0.563,0.585
		c-0.014,0-0.026,0-0.04,0l-0.04-0.002l-8.989-0.47c-0.138-0.007-0.243-0.125-0.236-0.262c0.007-0.131,0.114-0.234,0.243-0.237
		H427.601z"/>
	<path fill="#913B8E" d="M445.676,466.811l9.014,0.287c0.587,0.019,1.049,0.51,1.029,1.098c-0.019,0.588-0.51,1.049-1.098,1.03
		c-0.018,0-0.036-0.002-0.054-0.003l-0.059-0.005l-8.972-0.771c-0.451-0.039-0.786-0.437-0.747-0.888
		c0.038-0.436,0.409-0.762,0.841-0.749L445.676,466.811z"/>
	<path fill="#913B8E" d="M463.85,467.686c0,0,0.561,0.061,1.4,0.152c0.839,0.103,1.957,0.241,3.075,0.378
		c0.284,0.04,0.548,0.055,0.847,0.119c0.291,0.054,0.578,0.108,0.855,0.16c0.557,0.105,1.075,0.204,1.521,0.288
		c0.892,0.171,1.486,0.286,1.486,0.286c0.81,0.156,1.34,0.938,1.185,1.748c-0.156,0.81-0.938,1.34-1.748,1.185
		c-0.016-0.003-0.03-0.006-0.045-0.009l-0.195-0.044c0,0-0.543-0.124-1.358-0.31c-0.408-0.093-0.884-0.202-1.394-0.318
		s-1.049-0.252-1.609-0.329c-2.223-0.363-4.443-0.726-4.443-0.726c-0.712-0.116-1.195-0.787-1.078-1.499
		c0.111-0.688,0.741-1.161,1.425-1.088L463.85,467.686z"/>
	<path fill="#913B8E" d="M472.961,478.836c0,0-0.543,0.147-1.357,0.368c-0.408,0.11-0.883,0.239-1.393,0.377
		c-0.254,0.068-0.518,0.14-0.785,0.212c-0.26,0.079-0.568,0.124-0.854,0.184c-2.331,0.453-4.663,0.906-4.663,0.906
		c-0.988,0.192-1.946-0.453-2.138-1.442c-0.192-0.989,0.453-1.946,1.441-2.138c0.015-0.002,0.029-0.005,0.043-0.008l0.129-0.021
		c0,0,2.207-0.364,4.413-0.728c0.554-0.076,1.101-0.21,1.614-0.329c0.515-0.118,0.994-0.228,1.405-0.322
		c0.823-0.188,1.371-0.313,1.371-0.313c0.899-0.206,1.796,0.356,2.003,1.256c0.2,0.877-0.329,1.751-1.189,1.986L472.961,478.836z"/>
	<path fill="#913B8E" d="M454.832,482.239l-8.936,1.061c-1.143,0.136-2.179-0.681-2.314-1.824c-0.136-1.143,0.681-2.179,1.823-2.314
		c0.017-0.002,0.034-0.004,0.051-0.006l0.059-0.005l8.96-0.802c1.074-0.096,2.022,0.697,2.119,1.771
		c0.094,1.055-0.668,1.988-1.713,2.113L454.832,482.239z"/>
	<path fill="#913B8E" d="M436.801,484.122l-8.976,0.662c-1.243,0.092-2.326-0.842-2.418-2.086c-0.092-1.244,0.843-2.327,2.086-2.418
		c0.01,0,0.02-0.001,0.029-0.002l0.044-0.002l8.984-0.499c1.2-0.066,2.228,0.852,2.294,2.052c0.065,1.186-0.831,2.203-2.011,2.291
		L436.801,484.122z"/>
	<path fill="#913B8E" d="M418.759,485.349c0,0-2.247,0.118-4.494,0.236c-2.248,0.094-4.496,0.188-4.496,0.188
		c-1.322,0.055-2.438-0.972-2.494-2.294s0.972-2.438,2.294-2.494l0.018-0.001h0.008l8.994-0.312
		c1.291-0.044,2.375,0.966,2.419,2.257c0.045,1.277-0.942,2.35-2.212,2.417L418.759,485.349z"/>
	<path fill="#913B8E" d="M400.707,486.075l-8.997,0.23c-1.358,0.035-2.488-1.038-2.522-2.396c-0.035-1.358,1.038-2.488,2.396-2.523
		h0.018l0.009,0l8.999-0.167c1.341-0.024,2.448,1.042,2.473,2.383c0.024,1.335-1.032,2.438-2.365,2.473L400.707,486.075z"/>
	<path fill="#913B8E" d="M382.648,486.472c0,0-2.25,0.032-4.5,0.023c-2.25,0.001-4.5,0.002-4.5,0.002h-0.011
		c-1.367,0-2.476-1.107-2.477-2.474c-0.001-1.361,1.099-2.466,2.458-2.476l8.999-0.062c1.377-0.01,2.501,1.099,2.511,2.476
		c0.009,1.371-1.089,2.49-2.457,2.51L382.648,486.472z"/>
	<path fill="#913B8E" d="M364.585,486.438l-9-0.123h-0.009c-1.331-0.019-2.396-1.112-2.377-2.444
		c0.018-1.326,1.103-2.386,2.426-2.378l9.001,0.059h0.009c1.35,0.009,2.436,1.11,2.427,2.459c-0.009,1.35-1.109,2.436-2.459,2.427
		H364.585z"/>
	<path fill="#913B8E" d="M346.519,486.12l-8.996-0.36l-0.033-0.001c-1.267-0.051-2.253-1.119-2.202-2.386
		c0.05-1.252,1.097-2.23,2.345-2.204l9,0.198l0.034,0.001c1.313,0.029,2.354,1.116,2.324,2.429
		c-0.029,1.313-1.116,2.354-2.429,2.325C346.551,486.121,346.528,486.121,346.519,486.12z"/>
	<path fill="#913B8E" d="M328.46,485.318l-9.006-0.529l-0.015-0.001c-1.177-0.069-2.074-1.079-2.006-2.255
		c0.068-1.163,1.059-2.054,2.217-2.007l8.991,0.366l0.038,0.001c1.223,0.05,2.174,1.081,2.124,2.304
		c-0.05,1.222-1.081,2.173-2.304,2.123C328.49,485.32,328.47,485.319,328.46,485.318z"/>
	<path fill="#913B8E" d="M310.39,484.079l-8.964-0.866l-0.046-0.004c-1.037-0.1-1.797-1.022-1.696-2.06
		c0.098-1.018,0.991-1.769,2.006-1.701l8.981,0.608l0.049,0.003c1.111,0.076,1.951,1.037,1.876,2.148s-1.037,1.951-2.148,1.876
		C310.432,484.083,310.406,484.08,310.39,484.079z"/>
	<path fill="#913B8E" d="M292.283,482.132l-8.885-1.482l-0.044-0.007c-0.862-0.144-1.445-0.96-1.301-1.822
		c0.14-0.841,0.923-1.416,1.762-1.311l8.931,1.137l0.049,0.006c0.963,0.123,1.645,1.003,1.522,1.966
		c-0.122,0.964-1.003,1.646-1.967,1.522C292.33,482.14,292.304,482.135,292.283,482.132z"/>
	<path fill="#913B8E" d="M273.874,477.904c0,0-0.122-0.07-0.335-0.193c-0.059-0.028-0.34-0.202-0.614-0.399
		c-0.136-0.093-0.28-0.201-0.445-0.363c-0.172-0.174-0.296-0.26-0.506-0.547c-0.102-0.14-0.199-0.29-0.289-0.446l-0.128-0.239
		c-0.047-0.114-0.089-0.234-0.125-0.358c-0.074-0.248-0.125-0.51-0.148-0.768c-0.005-0.269,0.023-0.557,0.083-0.836
		c0.029-0.135,0.067-0.288,0.11-0.399c0.043-0.1,0.09-0.199,0.141-0.298c0.102-0.198,0.22-0.392,0.35-0.573
		c0.197-0.228,0.441-0.48,0.656-0.655c0.189-0.14,0.387-0.279,0.59-0.409c0.174-0.09,0.352-0.182,0.529-0.275
		c0.349-0.166,0.673-0.29,0.996-0.407c0.634-0.22,1.239-0.387,1.797-0.522c0.558-0.137,1.07-0.242,1.506-0.327
		c0.873-0.168,1.448-0.261,1.448-0.261l0.04-0.007c0.648-0.105,1.259,0.335,1.364,0.983c0.1,0.62-0.302,1.206-0.903,1.348
		c0,0-0.544,0.127-1.36,0.318c-0.812,0.199-1.892,0.494-2.912,0.897c-0.251,0.104-0.502,0.214-0.733,0.336
		c-0.236,0.121-0.445,0.256-0.629,0.401c-0.084,0.074-0.148,0.153-0.224,0.224c-0.022,0.077-0.108,0.149-0.096,0.211
		c-0.052,0.12,0.033,0.239,0.116,0.367c0.108,0.118,0.227,0.24,0.355,0.316c0.125,0.083,0.226,0.159,0.345,0.214
		c0.218,0.114,0.343,0.18,0.343,0.18l0.035,0.019c0.688,0.361,0.954,1.212,0.593,1.901s-1.212,0.954-1.9,0.593
		C273.908,477.923,273.889,477.912,273.874,477.904z"/>
	<path fill="#913B8E" d="M288.625,468.603l8.996-0.536l0.038-0.002c0.389-0.023,0.723,0.273,0.746,0.662
		c0.022,0.376-0.256,0.701-0.625,0.743l-8.941,1.016l-0.051,0.006c-0.521,0.059-0.99-0.315-1.05-0.835
		c-0.059-0.52,0.315-0.99,0.836-1.049C288.59,468.605,288.608,468.604,288.625,468.603z"/>
	<path fill="#913B8E" d="M306.676,467.851l4.859-0.005h0.017c0.139,0,0.25,0.111,0.25,0.25c0.001,0.131-0.103,0.24-0.231,0.25
		l-4.835,0.35l-0.028,0.002c-0.233,0.017-0.437-0.158-0.453-0.392s0.158-0.437,0.392-0.453
		C306.655,467.851,306.666,467.851,306.676,467.851z"/>
</g>
<g>
	<rect x="260.584" y="518.119" fill="none" width="227.931" height="102.171"/>
	<path fill="#FFFFFF" d="M277.745,517.621c2.579,0,4.237,1.788,4.922,1.788c0.579,0,0.737-0.255,1.185-0.255
		c1.105,0,2.526,2.299,2.526,6.348c0,2.08-0.895,3.831-2.447,3.831c-2.712,0-2.027-6.458-6.712-6.458
		c-2.027,0-2.869,2.626-2.869,4.633c0,5.399,2.079,9.997,5.764,9.997c3.343,0,3.844-2.518,4.659-2.518
		c0.764,0,1.132,1.241,1.132,2.153c0,1.605-1.211,4.961-2.526,4.961c-0.896,0-2.738,2.116-5.844,2.116
		c-5.527,0-10.055-6.056-10.055-13.39C267.479,523.349,272.56,517.621,277.745,517.621z"/>
	<path fill="#FFFFFF" d="M287.375,530.828c0-7.734,4.448-13.207,10.187-13.207c7.265,0,10.055,8.866,10.055,13.572
		c0,7.844-5.001,13.025-10.371,13.025C291.691,544.218,287.375,538.599,287.375,530.828z M296.351,523.057
		c-1.474,0-2.211,2.116-2.211,3.904c0,3.101,1.579,11.821,4.422,11.821c1.605,0,2.29-1.934,2.29-3.904
		C300.852,531.558,299.43,523.057,296.351,523.057z"/>
	<path fill="#FFFFFF" d="M308.902,530.828c0-7.734,4.448-13.207,10.187-13.207c7.265,0,10.055,8.866,10.055,13.572
		c0,7.844-5.001,13.025-10.371,13.025C313.219,544.218,308.902,538.599,308.902,530.828z M317.878,523.057
		c-1.474,0-2.211,2.116-2.211,3.904c0,3.101,1.579,11.821,4.422,11.821c1.605,0,2.29-1.934,2.29-3.904
		C322.379,531.558,320.957,523.057,317.878,523.057z"/>
	<path fill="#FFFFFF" d="M332.614,523.677c0-2.736-2.448-1.532-2.448-3.831c0-1.459,1.158-1.788,1.975-1.788
		c0.658,0,1.29,0.073,1.947,0.073c3.817,0,6.133-0.511,7.238-0.511c3.58,0,7.028,2.882,7.028,8.355c0,5.436-3.316,8.354-6.976,8.354
		c-0.789,0-1.579-0.182-2.29-0.182c-0.315,0-0.421,0.182-0.421,0.583v2.116c0.079,4.561,2.001,2.663,2.001,4.779
		c0,2.372-3.791,2.481-4.976,2.481c-1.105,0-5.001-0.037-5.001-2.408c0-2.006,1.922-0.766,1.922-3.758V523.677z M339.668,521.926
		c-1.026,0-1,0.438-1,1.167v5.473c0,0.766-0.236,1.605,1.185,1.605c1.737,0,2.422-1.824,2.422-4.049
		C342.274,523.823,341.432,521.926,339.668,521.926z"/>
	<path fill="#FFFFFF" d="M359.959,518.132c3.527,0,4.027-0.729,4.448-0.729c1.5,0,2.132,3.575,2.132,5.181
		c0,1.204-0.342,2.627-1.368,2.627c-2.08,0-0.396-3.502-5.396-3.502c-2.921,0-2.632,0.729-2.632,4.925
		c0,2.116,0.079,2.189,1.685,2.189c2,0,0.5-4.05,2.369-4.05c1.526,0,1.632,4.123,1.632,5.545c0,1.496-0.185,5.874-1.764,5.874
		c-1.632,0,0-3.831-2.658-3.831c-1.105,0-1.079,1.387-1.079,2.554c0,5.327,0.263,5.071,3.026,5.071c5.396,0,3.869-5.145,6.028-5.145
		c0.842,0,1.263,1.313,1.263,2.335c0,2.481-1.421,6.932-2.474,6.932c-0.185,0-0.605-0.109-1.158-0.219
		c-0.579-0.073-1.316-0.183-2.211-0.183h-10.818c-1.737,0-1.764-1.095-1.764-1.569c0-2.006,1.79-0.401,1.975-4.269
		c0.315-6.64,0.342-5.983,0.078-12.587c-0.184-5.582-2.185-2.7-2.185-5.29c0-2.226,2.211-1.861,3.29-1.861H359.959z
		 M354.747,515.177c0-1.532,1.843-2.043,1.843-3.028c0-0.328-0.211-0.438-0.211-0.839c0-0.912,1.79-1.095,2.211-1.095
		c0.816,0,3.212,0.365,3.212,2.043c0,0.912-2.054,4.269-5.633,4.269C355.484,516.527,354.747,516.344,354.747,515.177z"/>
	<path fill="#FFFFFF" d="M370.194,525.721c0-5.655-2.001-3.32-2.001-5.582c0-2.007,2.054-2.262,3.106-2.262
		c0.553,0,1.079,0.073,1.632,0.109c0.526,0.073,1.079,0.146,1.605,0.146c0.843,0,1.685-0.073,2.553-0.146
		c0.843-0.036,1.711-0.109,2.554-0.109c2.975,0,6.423,1.824,6.423,6.677c0,2.189-0.764,4.305-2.238,5.29
		c-0.236,0.182-0.421,0.292-0.421,0.729c0,0.547,0.343,0.693,0.658,0.875c1.843,0.949,2.658,2.627,3.027,6.567
		c0.315,3.393,2.026,1.35,2.026,3.575c0,1.387-1.211,2.846-4.185,2.846c-4.212,0-4.738-3.356-5.555-8.172
		c-0.289-1.678-0.736-3.32-2.185-3.32c-0.579,0-0.789,0.109-0.789,2.408c0,1.058,0.053,2.518,0.184,3.539
		c0.211,1.678,1.554,1.167,1.554,2.919c0,1.313-0.658,2.298-4.923,2.298c-1.263,0-5.001,0-5.001-2.664
		c0-1.897,1.975-0.583,1.975-5.327V525.721z M376.301,527.326c-0.053,0.949-0.185,1.751,0.685,1.751
		c1.711,0,2.264-1.313,2.264-3.576c0-1.788-0.316-3.612-1.843-3.612c-0.974,0-0.947,0.839-1,1.97L376.301,527.326z"/>
	<path fill="#FFFFFF" d="M394.669,530.537c0.816-2.518,1.896-5.728,1.896-8.61c0-2.518,0.843-4.415,3.185-4.415
		c2.29,0,3.738,3.247,4.765,5.655c0.447,1.058,4.422,12.222,5.369,15.214c0.869,2.773,2.29,1.095,2.29,3.174
		c0,2.663-3.737,2.554-5.054,2.554c-3.764,0-6.027-0.037-6.027-2.298c0-1.751,1.605-1.095,1.605-2.372
		c0-1.642-0.658-1.788-4.896-1.788c-1.369,0-2.185,0.073-2.185,1.86c0,1.423,1.685,0.475,1.685,2.372
		c0,2.189-2.843,2.226-3.896,2.226c-3.765,0-4.106-0.985-4.106-2.152c0-1.715,1.421-1.204,2.185-2.518
		c0.579-0.985,1.132-2.736,1.526-3.904L394.669,530.537z M400.197,533.163c0.263,0,1.053,0.073,1.053-0.474
		s-0.764-2.444-0.975-2.955c-0.236-0.584-0.684-1.934-1.263-1.934c-0.632,0-1.079,2.189-1.185,2.59s-0.553,1.824-0.553,2.262
		c0,0.62,0.658,0.511,0.947,0.511H400.197z"/>
	<path fill="#FFFFFF" d="M423.198,518.132c1.132,0,1.658-0.146,2.053-0.255c0.368-0.146,0.579-0.255,1.079-0.255
		c1.026,0,3.158,2.809,3.158,6.75c0,1.824-0.684,3.028-2.026,3.028c-2.29,0-2.264-4.305-3.606-4.305
		c-1.026,0-0.921,1.97-0.921,2.262v11.201c0,4.342,2.422,2.262,2.422,4.816c0,1.131-0.5,2.736-5.423,2.736
		c-1.342,0-6.264,0.073-6.264-2.736c0-1.934,1.632-1.167,2.158-2.554c0.263-0.766,0.368-2.956,0.395-3.867l0.211-8.063
		c0.105-3.831-0.447-3.794-0.816-3.794c-1.185,0-1.764,4.305-3.896,4.305c-1.026,0-1.632-1.313-1.632-2.627
		c0-3.101,1.896-7.151,3.396-7.151c0.185,0,0.474,0.109,0.974,0.255c0.5,0.109,1.211,0.255,2.264,0.255H423.198z"/>
	<path fill="#FFFFFF" d="M432.038,529.113c0-4.633-0.263-5.691-0.553-6.202c-0.604-1.058-1.632-1.167-1.632-2.554
		c0-2.627,5.37-2.627,5.896-2.627c1.579,0,4.816,0.073,4.816,2.554c0,1.313-1,1.24-1.605,2.189c-0.5,0.803-0.526,4.086-0.526,6.64
		v3.612c0,6.494,0.315,6.348,0.843,6.786c0.657,0.547,1.289,0.73,1.289,1.861c0,1.095-0.236,2.736-6.001,2.736
		c-1.105,0-4.422-0.037-4.422-2.372c0-1.167,0.895-1.35,1.315-2.043c0.316-0.511,0.579-1.861,0.579-6.968V529.113z"/>
	<path fill="#FFFFFF" d="M454.015,540.934c-0.553,1.496-1.079,3.174-2.501,3.174c-1.526,0-1.921-1.204-2.5-2.919l-5.238-16.053
		c-0.79-2.372-1.026-2.809-2.053-3.028c-0.526-0.109-0.79-0.656-0.79-1.423c0-2.809,4.186-2.955,5.527-2.955
		c5.527,0,5.317,1.824,5.317,2.372c0,1.386-1.264,1.459-1.264,2.444c0,0.766,1.026,3.612,1.658,5.509
		c0.237,0.62,0.526,2.043,1.105,2.08c0.868,0.073,1.316-1.97,1.632-2.736c0.316-0.876,1.526-4.159,1.526-5.035
		c0-1.313-1.342-0.949-1.342-2.408c0-2.262,3.316-2.226,4.369-2.226c3.316,0,3.869,0.839,3.869,2.116
		c0,0.985-0.526,1.459-1.158,1.569c-1.132,0.182-1.237,0.073-2.237,2.882L454.015,540.934z"/>
	<path fill="#FFFFFF" d="M474.383,518.132c3.527,0,4.027-0.729,4.448-0.729c1.5,0,2.132,3.575,2.132,5.181
		c0,1.204-0.342,2.627-1.368,2.627c-2.08,0-0.396-3.502-5.396-3.502c-2.921,0-2.632,0.729-2.632,4.925
		c0,2.116,0.079,2.189,1.685,2.189c2,0,0.5-4.05,2.369-4.05c1.526,0,1.632,4.123,1.632,5.545c0,1.496-0.185,5.874-1.764,5.874
		c-1.632,0,0-3.831-2.658-3.831c-1.105,0-1.079,1.387-1.079,2.554c0,5.327,0.263,5.071,3.026,5.071c5.396,0,3.869-5.145,6.028-5.145
		c0.842,0,1.263,1.313,1.263,2.335c0,2.481-1.421,6.932-2.474,6.932c-0.185,0-0.605-0.109-1.158-0.219
		c-0.579-0.073-1.316-0.183-2.211-0.183h-10.818c-1.737,0-1.764-1.095-1.764-1.569c0-2.006,1.79-0.401,1.975-4.269
		c0.315-6.64,0.342-5.983,0.078-12.587c-0.184-5.582-2.185-2.7-2.185-5.29c0-2.226,2.211-1.861,3.29-1.861H474.383z"/>
</g>
<g>
	<g>
		<path fill="#FFFFFF" d="M368.871,563.631c4,0,8,0,12,0c3.225,0,3.225-5,0-5c-4,0-8,0-12,0
			C365.646,558.631,365.646,563.631,368.871,563.631L368.871,563.631z"/>
	</g>
</g>
<g>
</g>
<g>
</g>
<g>
</g>
<g>
</g>
<g>
</g>
<g>
</g>
</svg>
