<?xml version="1.0" encoding="UTF-8" standalone="no"?>
<!-- Generator: Adobe Illustrator 16.0.0, SVG Export Plug-In . SVG Version: 6.00 Build 0)  -->

<svg
   xmlns:dc="http://purl.org/dc/elements/1.1/"
   xmlns:cc="http://creativecommons.org/ns#"
   xmlns:rdf="http://www.w3.org/1999/02/22-rdf-syntax-ns#"
   xmlns:svg="http://www.w3.org/2000/svg"
   xmlns="http://www.w3.org/2000/svg"
   xmlns:sodipodi="http://sodipodi.sourceforge.net/DTD/sodipodi-0.dtd"
   xmlns:inkscape="http://www.inkscape.org/namespaces/inkscape"
   version="1.1"
   id="Calque_1"
   x="0px"
   y="0px"
   width="426.83569"
   height="550.43225"
   viewBox="0 0 426.83569 550.43225"
   xml:space="preserve"
   inkscape:version="0.91 r13725"
   sodipodi:docname="logo_hop_amenagement_durable.svg"><metadata
     id="metadata216"><rdf:RDF><cc:Work
         rdf:about=""><dc:format>image/svg+xml</dc:format><dc:type
           rdf:resource="http://purl.org/dc/dcmitype/StillImage" /><dc:title></dc:title></cc:Work></rdf:RDF></metadata><defs
     id="defs214" /><sodipodi:namedview
     pagecolor="#ffffff"
     bordercolor="#666666"
     borderopacity="1"
     objecttolerance="10"
     gridtolerance="10"
     guidetolerance="10"
     inkscape:pageopacity="0"
     inkscape:pageshadow="2"
     inkscape:window-width="1440"
     inkscape:window-height="851"
     id="namedview212"
     showgrid="false"
     inkscape:zoom="0.61458333"
     inkscape:cx="342.50104"
     inkscape:cy="74.609516"
     inkscape:window-x="0"
     inkscape:window-y="1"
     inkscape:window-maximized="1"
     inkscape:current-layer="Calque_1"
     fit-margin-top="0"
     fit-margin-left="0"
     fit-margin-right="0"
     fit-margin-bottom="0" /><path
     stroke-miterlimit="10"
     d="m 369.13087,394.716 c -37.489,95.768 -145.514,143.014 -241.277,105.527 -95.763,-37.488 -143.005,-145.512 -105.521,-241.277 37.488,-95.766 145.508,-143.006 241.271,-105.52 95.764,37.487 143.014,145.506 105.527,241.27 z"
     id="path133"
     style="clip-rule:evenodd;fill:#ffffff;fill-opacity:1;fill-rule:evenodd;stroke:#000000;stroke-width:19;stroke-miterlimit:10"
     inkscape:connector-curvature="0" /><g
     id="g99"
     transform="translate(-200.30713,-39.103)"><path
       d="m 422.016,428.665 c 4.408,-20.76 -8.852,-41.162 -29.611,-45.57 -20.768,-4.408 -41.175,8.848 -45.581,29.607 -4.409,20.764 8.852,41.172 29.619,45.58 20.76,4.406 41.165,-8.852 45.573,-29.617 z"
       id="path101"
       inkscape:connector-curvature="0"
       style="fill:#c1d11a" /></g><g
     id="g103"
     transform="translate(-200.30713,-39.103)"><path
       d="m 275.26,318.829 c 1.369,-5.969 -2.941,-3.845 -2.139,-7.625 0.568,-2.675 3.512,-2.476 5.234,-2.109 l 16.053,3.407 c 13.689,2.906 16.047,13.859 13.824,24.327 -2.295,10.816 -9.824,19.853 -22.281,17.208 -2.117,-0.449 -3.879,-0.884 -5.379,-1.323 -1.516,-0.382 -2.832,-0.723 -4.211,-1.016 -1.379,-0.292 -2.818,-0.537 -4.211,-0.772 -1.402,-0.177 -2.793,-0.411 -4.221,-0.715 -1.676,-0.355 -3.582,-1.793 -3.088,-4.117 0.889,-4.188 3.791,1.289 5.74,-7.169 l 4.679,-20.096 z m 7.301,23.793 c -0.631,2.966 -0.496,4.271 2.162,4.835 6.205,1.316 8.881,-5.955 10.115,-11.77 2.889,-13.608 -0.986,-16.679 -4.779,-17.484 -2.068,-0.438 -2.426,0.519 -2.895,2.729 l -4.603,21.69 z"
       id="path105"
       inkscape:connector-curvature="0" /><path
       d="m 343.934,333.955 c 1.32,-6.223 -3.422,-4.738 -2.705,-8.11 0.766,-3.605 6.453,-2.276 8.473,-1.849 1.871,0.398 7.287,1.548 6.57,4.921 -0.691,3.257 -3.965,0.495 -5.088,5.787 l -3.332,15.701 c -0.557,2.616 -3.471,16.584 -20.508,12.967 -19.4,-4.118 -13.48,-21.337 -13.332,-22.034 l 2.852,-13.434 c 0.973,-3.621 -2.375,-4.332 -1.807,-7.008 0.174,-0.814 0.322,-4.186 10.467,-2.032 8.025,1.704 9.279,3.793 8.797,6.062 -0.889,4.187 -3.654,-0.473 -5.406,6.57 l -2.271,10.699 c -1.469,6.92 -0.193,11.811 5.027,12.918 7.781,1.652 9.053,-6.039 9.189,-6.679 l 3.074,-14.479 z"
       id="path107"
       inkscape:connector-curvature="0"
       style="fill:#913b8e" /><path
       d="m 360.826,339.668 c 1.914,-9.014 -2.617,-6.086 -1.852,-9.691 0.68,-3.198 4.605,-2.79 6.574,-2.372 1.035,0.22 1.996,0.545 3.016,0.823 0.961,0.325 1.971,0.66 2.955,0.869 1.576,0.335 3.176,0.554 4.826,0.782 1.588,0.276 3.238,0.505 4.814,0.839 5.563,1.182 11.396,5.458 9.756,13.192 -0.742,3.489 -2.887,6.56 -5.977,7.544 -0.506,0.197 -0.887,0.298 -1.035,0.996 -0.186,0.872 0.406,1.24 0.934,1.656 3.127,2.244 4.086,5.243 3.441,11.67 -0.557,5.534 3.334,2.957 2.582,6.504 -0.469,2.211 -3.229,4.055 -8.793,2.873 -7.877,-1.672 -7.727,-7.23 -7.623,-15.23 0.025,-2.791 -0.256,-5.585 -2.965,-6.16 -1.082,-0.229 -1.514,-0.139 -2.291,3.524 -0.359,1.687 -0.754,4.033 -0.854,5.714 -0.174,2.759 2.51,2.478 1.918,5.27 -0.445,2.093 -2.008,3.402 -9.986,1.709 -2.363,-0.502 -9.355,-1.986 -8.453,-6.231 0.641,-3.024 3.889,-0.146 5.494,-7.706 l 3.519,-16.575 z m 10.883,4.984 c -0.42,1.491 -0.939,2.718 0.686,3.063 3.201,0.68 4.68,-1.194 5.445,-4.8 0.605,-2.85 0.631,-5.882 -2.225,-6.488 -1.822,-0.387 -2.057,0.961 -2.537,2.743 l -1.369,5.482 z"
       id="path109"
       inkscape:connector-curvature="0" /><path
       d="m 406.414,357.368 c 2.379,-3.688 5.482,-8.377 6.459,-12.972 0.852,-4.013 3.068,-6.702 7.451,-5.771 4.283,0.909 5.893,6.66 7,10.906 0.477,1.863 4.137,21.236 4.896,26.381 0.688,4.766 3.914,2.654 3.211,5.969 -0.902,4.245 -7.857,2.587 -10.32,2.064 -7.041,-1.495 -11.264,-2.452 -10.498,-6.058 0.594,-2.792 3.375,-1.107 3.807,-3.143 0.555,-2.617 -0.627,-3.11 -8.555,-4.794 -2.561,-0.543 -4.111,-0.751 -4.717,2.099 -0.48,2.268 2.99,1.425 2.35,4.448 -0.742,3.49 -6.07,2.419 -8.041,2.001 -7.041,-1.495 -7.348,-3.201 -6.953,-5.062 0.58,-2.733 3.066,-1.355 4.939,-3.146 1.416,-1.34 3.043,-3.912 4.178,-5.616 l 4.793,-7.306 z m 9.451,6.382 c 0.492,0.104 1.945,0.534 2.131,-0.338 0.184,-0.873 -0.602,-4.199 -0.822,-5.098 -0.246,-1.023 -0.625,-3.354 -1.709,-3.583 -1.182,-0.251 -2.762,3.061 -3.094,3.657 -0.332,0.599 -1.65,2.689 -1.799,3.387 -0.209,0.989 1.057,1.075 1.6,1.19 l 3.693,0.785 z"
       id="path111"
       inkscape:connector-curvature="0" /><path
       d="m 472.084,367.723 c -0.541,0.371 -1.059,0.627 -1.219,1.383 -0.16,0.756 0.332,1.104 0.762,1.498 1.822,1.359 4.664,5.184 3.627,10.068 -1.234,5.816 -6.053,12.268 -15.949,10.166 -1.674,-0.355 -3.189,-0.737 -4.643,-1.167 -1.465,-0.371 -2.93,-0.743 -4.455,-1.067 -1.674,-0.355 -3.41,-0.663 -5.098,-0.96 -1.699,-0.24 -3.385,-0.537 -5.107,-0.903 -1.527,-0.324 -3.029,-1.735 -2.596,-3.771 0.764,-3.604 3.188,0.738 5.533,-8.854 l 4.096,-16.633 c 2.16,-8.718 -2.926,-5.604 -2.074,-9.617 0.469,-2.209 2.709,-2.827 4.236,-2.503 1.822,0.387 3.619,0.89 5.428,1.335 1.799,0.503 3.596,1.006 5.418,1.393 1.182,0.25 2.338,0.375 3.496,0.499 1.145,0.183 2.352,0.317 3.482,0.558 9.012,1.912 10.252,7.463 9.303,11.941 -0.568,2.673 -2.109,5.324 -4.24,6.634 z m -16.797,8.59 c -1.432,6.745 -0.535,7.118 0.992,7.442 2.807,0.596 4.273,-1.464 4.914,-4.487 0.754,-3.547 0.533,-6.875 -2.912,-7.607 -1.527,-0.323 -2.068,0.533 -2.377,1.744 l -0.617,2.908 z m 3.012,-14.19 c -0.48,2.268 -0.814,3.352 0.711,3.676 2.955,0.627 4.162,-1.669 4.842,-4.867 0.555,-2.617 0.508,-6.03 -2.199,-6.605 -1.824,-0.387 -1.996,1.4 -2.354,3.086 l -1,4.71 z"
       id="path113"
       inkscape:connector-curvature="0"
       style="fill:#913b8e" /><path
       d="m 480.141,394.958 c -1.576,-0.335 -4.113,-0.751 -3.545,-3.427 0.766,-3.605 3.963,0.234 5.545,-6.48 1,-4.224 1.789,-7.945 2.518,-11.376 0.74,-3.49 1.186,-6.799 1.777,-10.076 0.939,-4.905 -3.936,-3.267 -3.232,-6.581 0.9,-4.245 8.682,-2.837 11.094,-2.325 9.848,2.091 9.92,4.173 9.5,6.15 -0.715,3.372 -4.063,-0.012 -5.223,5.454 l -3.926,18.492 c -0.889,4.188 -0.73,6.349 2.766,7.09 8.371,1.777 7.232,-6.912 10.383,-6.243 2.215,0.471 2.461,3.439 1.992,5.649 -0.963,4.536 -4.955,9.766 -7.221,9.285 -0.887,-0.188 -1.527,-0.567 -2.377,-0.93 -0.885,-0.431 -1.932,-0.836 -3.605,-1.191 l -16.446,-3.491 z"
       id="path115"
       inkscape:connector-curvature="0" /><path
       d="m 538.523,364.75 c 6.598,1.4 7.779,0.436 8.566,0.604 2.807,0.596 2.779,6.546 2.236,9.104 -0.408,1.919 -1.529,4.051 -3.449,3.644 -3.891,-0.826 0.447,-5.739 -8.908,-7.726 -5.467,-1.161 -5.172,0.117 -6.592,6.805 -0.717,3.373 -0.592,3.521 2.41,4.159 3.744,0.794 2.307,-6.257 5.803,-5.515 2.855,0.606 1.656,7.22 1.176,9.487 -0.506,2.385 -2.332,9.289 -5.287,8.662 -3.053,-0.648 1.297,-6.106 -3.678,-7.162 -2.068,-0.439 -2.486,1.781 -2.881,3.642 -1.803,8.491 -1.225,8.188 3.945,9.286 10.096,2.143 8.98,-6.663 13.018,-5.806 1.576,0.335 1.92,2.595 1.574,4.224 -0.84,3.954 -5.006,10.484 -6.975,10.066 -0.346,-0.073 -1.096,-0.416 -2.092,-0.81 -1.061,-0.346 -2.402,-0.813 -4.076,-1.169 l -20.238,-4.296 c -3.25,-0.69 -2.93,-2.445 -2.768,-3.201 0.678,-3.198 3.484,0.071 5.137,-6.021 2.838,-10.457 2.666,-9.4 4.408,-20.03 1.543,-8.971 -3.174,-5.171 -2.297,-9.3 0.752,-3.547 4.766,-2.088 6.783,-1.659 l 14.185,3.012 z"
       id="path117"
       inkscape:connector-curvature="0" /></g><g
     id="g119"
     transform="translate(-200.30713,-39.103)"><g
       id="g121"><rect
         x="271.01001"
         y="275.56699"
         transform="matrix(0.9782,0.2077,-0.2077,0.9782,78.5974,-85.2097)"
         width="348.271"
         height="112.364"
         id="rect123"
         style="fill:none" /><path
         d="m 337.305,295.656 c -0.504,2.373 -0.438,3.626 1.445,5.266 1.396,1.205 2.402,1.915 1.982,3.893 -0.402,1.897 -1.4,5.818 -16.979,2.511 -3.479,-0.739 -13.584,-2.966 -12.459,-8.265 0.975,-6.156 5.4,1.808 8.809,-14.246 0.906,-4.27 -0.076,-4.313 -4.029,-5.152 -11.072,-2.35 -10.111,-1.816 -11.621,5.302 -2.301,10.833 3.525,7.525 2.434,12.665 -1.176,5.535 -12.787,3.4 -16.584,2.595 -3.637,-0.771 -14.563,-3.422 -13.42,-8.799 0.352,-1.66 1.758,-2.437 3.234,-2.784 3.133,-0.74 4.111,-0.285 7.619,-16.813 4.465,-21.035 3.779,-19.362 1.189,-21.564 -1.051,-0.885 -2.324,-1.898 -1.988,-3.48 1.293,-6.088 14.633,-3.917 19.063,-2.977 3.32,0.704 12.41,3.047 11.402,7.791 -0.52,2.452 -2.049,3.036 -4.104,3.758 -2.211,0.687 -2.887,1.535 -4.381,8.573 -0.939,4.429 1.232,4.312 5.027,5.117 l 4.033,0.856 c 5.221,1.107 5.23,0.283 5.75,-2.168 1.83,-8.62 0.604,-9.458 -0.307,-10.23 -1.318,-1.188 -2.59,-2.203 -2.154,-4.259 0.32,-1.503 0.943,-5.997 16.68,-2.657 3.717,0.789 14.217,3.101 13.043,8.636 -0.369,1.74 -1.492,2.741 -3.24,3.197 -2.592,0.524 -3.41,0.103 -6.08,12.676 l -4.364,20.558 z"
         id="path125"
         inkscape:connector-curvature="0"
         style="fill:#913b8e" /><path
         stroke-miterlimit="10"
         d="m 350.902,283.006 c 3.559,-16.764 19.441,-25.789 36.68,-22.129 21.826,4.633 26.129,25.629 23.963,35.83 -3.609,17.002 -21.018,25.041 -37.15,21.616 -16.686,-3.542 -27.069,-18.473 -23.493,-35.317 z m 30.539,-11.118 c -4.428,-0.94 -7.615,3.176 -8.438,7.051 -1.426,6.722 -0.695,26.629 7.846,28.441 4.824,1.024 7.771,-2.73 8.678,-7.001 1.528,-7.195 1.168,-26.527 -8.086,-28.491 z"
         id="path127"
         inkscape:connector-curvature="0"
         style="stroke:#000000;stroke-miterlimit:10" /><path
         stroke-miterlimit="10"
         d="m 427.184,283.002 c 1.26,-5.931 -6.648,-4.882 -5.592,-9.864 0.672,-3.163 4.303,-3.136 6.754,-2.615 1.977,0.419 3.842,0.98 5.818,1.4 11.467,2.435 18.66,2.804 21.982,3.509 10.754,2.283 19.787,10.729 17.27,22.592 -2.502,11.782 -13.809,15.993 -24.801,13.66 -2.373,-0.504 -4.66,-1.402 -6.795,-1.855 -0.949,-0.202 -1.35,0.126 -1.535,0.996 l -0.973,4.586 c -1.861,9.936 4.785,7.049 3.811,11.636 -1.092,5.14 -12.529,2.96 -16.088,2.204 -3.32,-0.705 -15.008,-3.268 -13.916,-8.408 0.924,-4.35 6.125,-0.436 7.502,-6.92 l 6.563,-30.921 z m 21.998,0.703 c -3.082,-0.654 -3.205,0.312 -3.541,1.893 l -2.518,11.863 c -0.354,1.66 -1.451,3.327 2.818,4.234 5.221,1.107 8.115,-2.41 9.139,-7.234 1.059,-4.982 -0.6,-9.631 -5.898,-10.756 z"
         id="path129"
         inkscape:connector-curvature="0"
         style="stroke:#000000;stroke-miterlimit:10" /></g></g><path
     d="m 36.52087,376.622 c 14.598,46.574 49.398,86.359 98.387,105.537 67.162,26.291 141.051,6.049 186.081,-45.146 l 0,0 -284.468,-60.391 0,0 z"
     id="path131"
     inkscape:connector-curvature="0"
     style="clip-rule:evenodd;fill-rule:evenodd" /><g
     id="XMLID_17_"
     transform="translate(-200.30713,-39.103)"><g
       id="g136"><path
         d="m 502.503,292.536 c -10.012,14.654 -21.322,30.708 -28.724,41.519 -9.058,13.224 -18.731,5.043 -8.294,-8.197 10.041,-12.743 19.463,-28.002 28.36,-41.651 0.596,-0.912 0.828,-2.407 0.561,-3.474 -77.932,-104.581 21.354,-164.672 30.293,-176.869 40.943,-45.585 35.169,-61.996 37.505,-64.761 58.616,79.376 95.271,206.664 2.563,253.994 -12.038,9.691 -42.485,10.689 -53.396,10.968 l -1.939,-2.52 c 6.288,-8.363 26.245,-36.135 43.973,-84.021 11.296,-30.533 5.998,-51.605 6.106,-55.299 -0.205,-0.017 -0.402,-0.021 -0.607,-0.038 -0.072,0.478 -0.158,0.963 -0.196,1.438 -0.839,11.386 -3.049,22.482 -6.349,33.357 -4.438,14.637 -10.41,28.613 -17.318,42.186 -7.813,15.344 -16.784,29.977 -26.362,44.251 -1.971,2.932 -4.038,5.995 -6.176,9.117 z"
         id="path138"
         inkscape:connector-curvature="0"
         style="fill:#c1d11a" /><path
         d="m 559.511,162.225 c -0.108,3.694 5.189,24.766 -6.106,55.299 -17.728,47.886 -37.685,75.658 -43.973,84.021 l -6.929,-9.009 c 2.138,-3.123 4.205,-6.185 6.175,-9.117 9.578,-14.275 18.55,-28.907 26.362,-44.251 6.908,-13.572 12.881,-27.549 17.318,-42.186 3.3,-10.875 5.51,-21.971 6.349,-33.357 0.038,-0.475 0.124,-0.96 0.196,-1.438 0.205,0.017 0.403,0.021 0.608,0.038 z"
         id="path140"
         inkscape:connector-curvature="0"
         style="fill:#ffffff" /><path
         d="m 509.432,301.545 1.939,2.52 c -2.237,0.06 -3.664,0.086 -3.923,0.155 0.087,-0.176 0.787,-1.062 1.984,-2.675 z"
         id="path142"
         inkscape:connector-curvature="0"
         style="fill:#c1d11a" /></g></g><g
     id="g144"
     transform="translate(-200.30713,-39.103)"><path
       d="m 437.808,423.121 8.894,1.58 c 0.375,0.066 0.625,0.424 0.559,0.799 -0.066,0.375 -0.424,0.625 -0.799,0.558 -0.02,-0.003 -0.039,-0.008 -0.057,-0.013 l -0.057,-0.015 -8.694,-2.329 c -0.159,-0.043 -0.255,-0.207 -0.212,-0.367 0.041,-0.151 0.189,-0.244 0.341,-0.218 l 0.025,0.005 z"
       id="path146"
       inkscape:connector-curvature="0"
       style="fill:#913b8e" /><path
       d="m 455.587,426.536 c 0.001,0 2.206,0.485 4.397,1.017 2.191,0.526 4.385,1.053 4.385,1.053 0.7,0.168 1.131,0.872 0.963,1.572 -0.168,0.701 -0.871,1.132 -1.572,0.964 -0.023,-0.006 -0.047,-0.012 -0.07,-0.02 l -0.076,-0.023 -8.615,-2.621 c -0.535,-0.163 -0.837,-0.729 -0.674,-1.264 0.154,-0.508 0.673,-0.807 1.184,-0.696 l 0.078,0.018 z"
       id="path148"
       inkscape:connector-curvature="0"
       style="fill:#913b8e" /><path
       d="m 473.256,431.048 c 0,0 0.537,0.173 1.342,0.432 0.801,0.269 1.869,0.628 2.938,0.987 0.271,0.097 0.523,0.162 0.809,0.288 0.279,0.113 0.553,0.225 0.817,0.333 0.53,0.218 1.026,0.421 1.45,0.596 0.852,0.353 1.418,0.587 1.418,0.587 0.914,0.379 1.349,1.428 0.97,2.342 -0.38,0.914 -1.428,1.348 -2.342,0.969 -0.021,-0.009 -0.04,-0.018 -0.061,-0.026 l -0.227,-0.105 c 0,0 -0.505,-0.234 -1.263,-0.585 -0.379,-0.176 -0.82,-0.381 -1.294,-0.6 -0.474,-0.219 -0.972,-0.464 -1.505,-0.656 -2.098,-0.817 -4.195,-1.634 -4.195,-1.634 -0.809,-0.314 -1.208,-1.225 -0.894,-2.033 0.303,-0.777 1.156,-1.177 1.94,-0.926 l 0.097,0.031 z"
       id="path150"
       inkscape:connector-curvature="0"
       style="fill:#913b8e" /><path
       d="m 479.7,444.883 c 0,0 -0.562,0.036 -1.405,0.088 -0.42,0.027 -0.912,0.058 -1.439,0.091 -0.263,0.017 -0.535,0.034 -0.812,0.051 -0.27,0.025 -0.587,0.008 -0.88,0.009 -2.4,-0.029 -4.801,-0.059 -4.801,-0.059 -1.209,-0.015 -2.177,-1.006 -2.162,-2.215 0.016,-1.208 1.007,-2.176 2.215,-2.161 0.021,0 0.043,0 0.064,10e-4 l 0.166,0.008 c 0,0 2.232,0.103 4.463,0.206 0.557,0.04 1.119,0.023 1.646,0.014 0.527,-0.008 1.02,-0.016 1.441,-0.022 0.844,-0.013 1.406,-0.022 1.406,-0.022 1.107,-0.017 2.02,0.867 2.037,1.975 0.016,1.074 -0.814,1.964 -1.875,2.033 l -0.064,0.003 z"
       id="path152"
       inkscape:connector-curvature="0"
       style="fill:#913b8e" /><path
       d="m 461.162,444.549 -8.967,-0.77 c -1.376,-0.118 -2.396,-1.33 -2.277,-2.706 0.119,-1.376 1.33,-2.396 2.705,-2.278 0.025,0.002 0.051,0.005 0.076,0.008 l 0.082,0.01 8.93,1.08 c 1.285,0.155 2.201,1.323 2.046,2.608 -0.151,1.256 -1.272,2.16 -2.522,2.054 l -0.073,-0.006 z"
       id="path154"
       inkscape:connector-curvature="0"
       style="fill:#913b8e" /><path
       d="m 443.097,442.725 -8.922,-1.188 c -1.483,-0.197 -2.526,-1.56 -2.329,-3.044 0.197,-1.483 1.561,-2.526 3.045,-2.329 0.014,0.002 0.029,0.004 0.045,0.006 l 0.059,0.009 8.893,1.381 c 1.425,0.221 2.4,1.556 2.18,2.981 -0.219,1.405 -1.52,2.374 -2.922,2.188 l -0.049,-0.004 z"
       id="path156"
       inkscape:connector-curvature="0"
       style="fill:#913b8e" /><path
       d="m 425.166,440.232 c 0,0 -2.224,-0.344 -4.447,-0.688 -2.219,-0.372 -4.438,-0.745 -4.438,-0.745 -1.566,-0.263 -2.623,-1.746 -2.359,-3.312 0.262,-1.566 1.745,-2.623 3.312,-2.36 l 0.024,0.004 0.012,0.002 8.862,1.566 c 1.526,0.27 2.546,1.727 2.276,3.253 -0.267,1.506 -1.688,2.518 -3.19,2.286 l -0.052,-0.006 z"
       id="path158"
       inkscape:connector-curvature="0"
       style="fill:#913b8e" /><path
       d="m 407.339,437.221 -8.851,-1.633 c -1.604,-0.296 -2.664,-1.836 -2.369,-3.439 0.297,-1.604 1.836,-2.664 3.44,-2.368 l 0.024,0.004 0.014,0.002 8.836,1.709 c 1.58,0.306 2.613,1.834 2.309,3.415 -0.305,1.572 -1.818,2.602 -3.389,2.313 l -0.014,-0.003 z"
       id="path160"
       inkscape:connector-curvature="0"
       style="fill:#913b8e" /><path
       d="m 389.574,433.876 c 0,0 -2.208,-0.433 -4.406,-0.912 -2.201,-0.469 -4.401,-0.938 -4.401,-0.938 l -0.015,-0.003 c -1.605,-0.342 -2.629,-1.919 -2.287,-3.523 0.34,-1.597 1.905,-2.618 3.502,-2.291 l 8.815,1.807 c 1.618,0.332 2.661,1.913 2.33,3.531 -0.33,1.609 -1.896,2.65 -3.505,2.335 l -0.033,-0.006 z"
       id="path162"
       inkscape:connector-curvature="0"
       style="fill:#913b8e" /><path
       d="m 371.903,430.075 -8.776,-2 -0.012,-0.002 c -1.559,-0.355 -2.533,-1.906 -2.179,-3.463 0.353,-1.549 1.89,-2.522 3.438,-2.184 l 8.793,1.924 0.014,0.003 c 1.581,0.346 2.582,1.909 2.236,3.49 -0.346,1.581 -1.908,2.583 -3.49,2.237 l -0.024,-0.005 z"
       id="path164"
       inkscape:connector-curvature="0"
       style="fill:#913b8e" /><path
       d="m 354.287,425.989 -8.718,-2.25 -0.046,-0.012 c -1.474,-0.38 -2.359,-1.882 -1.98,-3.356 0.375,-1.453 1.846,-2.334 3.299,-1.994 l 8.764,2.06 0.048,0.012 c 1.534,0.36 2.485,1.896 2.124,3.43 -0.36,1.534 -1.896,2.485 -3.43,2.125 -0.016,-0.004 -0.045,-0.012 -0.061,-0.015 z"
       id="path166"
       inkscape:connector-curvature="0"
       style="fill:#913b8e" /><path
       d="m 336.79,421.394 -8.696,-2.417 -0.025,-0.007 c -1.362,-0.378 -2.16,-1.79 -1.781,-3.153 0.373,-1.344 1.754,-2.137 3.1,-1.795 l 8.719,2.222 0.053,0.013 c 1.422,0.363 2.282,1.81 1.92,3.232 -0.363,1.422 -1.811,2.282 -3.232,1.919 -0.017,-0.003 -0.043,-0.011 -0.058,-0.014 z"
       id="path168"
       inkscape:connector-curvature="0"
       style="fill:#913b8e" /><path
       d="m 319.369,416.353 -8.576,-2.755 -0.063,-0.021 c -1.191,-0.382 -1.846,-1.658 -1.464,-2.848 0.374,-1.164 1.606,-1.815 2.773,-1.485 l 8.661,2.457 0.068,0.019 c 1.285,0.365 2.033,1.703 1.668,2.989 -0.365,1.286 -1.703,2.033 -2.989,1.668 -0.022,-0.007 -0.055,-0.018 -0.078,-0.024 z"
       id="path170"
       inkscape:connector-curvature="0"
       style="fill:#913b8e" /><path
       d="m 302.051,410.583 -8.361,-3.357 -0.063,-0.025 c -0.973,-0.391 -1.445,-1.497 -1.055,-2.471 0.379,-0.945 1.438,-1.416 2.389,-1.086 l 8.502,2.963 0.068,0.024 c 1.102,0.384 1.683,1.587 1.299,2.688 -0.384,1.101 -1.588,1.682 -2.688,1.298 -0.029,-0.01 -0.064,-0.023 -0.091,-0.034 z"
       id="path172"
       inkscape:connector-curvature="0"
       style="fill:#913b8e" /><path
       d="m 284.813,402.41 c 0,0 -0.105,-0.095 -0.287,-0.261 -0.041,-0.033 -0.307,-0.284 -0.557,-0.56 -0.123,-0.131 -0.254,-0.28 -0.398,-0.494 -0.066,-0.102 -0.135,-0.206 -0.206,-0.313 -0.067,-0.11 -0.13,-0.199 -0.218,-0.404 -0.081,-0.18 -0.154,-0.37 -0.217,-0.565 l -0.085,-0.296 c -0.026,-0.139 -0.046,-0.286 -0.058,-0.434 -0.024,-0.297 -0.019,-0.606 0.018,-0.903 0.057,-0.304 0.158,-0.625 0.293,-0.926 0.066,-0.146 0.146,-0.309 0.223,-0.425 0.07,-0.102 0.146,-0.203 0.227,-0.301 0.16,-0.198 0.339,-0.387 0.528,-0.558 0.269,-0.206 0.595,-0.424 0.868,-0.564 0.234,-0.107 0.476,-0.209 0.721,-0.302 0.202,-0.055 0.406,-0.111 0.612,-0.168 0.397,-0.095 0.753,-0.15 1.106,-0.198 0.334,-0.034 0.688,-0.083 0.994,-0.093 0.314,-0.016 0.633,-0.042 0.917,-0.042 0.584,-0.016 1.113,-0.011 1.563,-0.001 0.897,0.021 1.483,0.053 1.483,0.053 l 0.057,0.003 c 0.795,0.042 1.404,0.721 1.362,1.516 -0.04,0.757 -0.663,1.346 -1.409,1.364 0,0 -0.558,0.012 -1.395,0.029 -0.834,0.026 -1.95,0.092 -3.026,0.273 -0.267,0.05 -0.532,0.105 -0.781,0.175 -0.253,0.068 -0.481,0.157 -0.685,0.257 -0.095,0.054 -0.17,0.114 -0.254,0.166 -0.031,0.063 -0.126,0.112 -0.121,0.165 -0.065,0.084 -0.014,0.196 0.037,0.331 0.077,0.129 0.163,0.269 0.271,0.367 0.102,0.104 0.182,0.197 0.287,0.276 0.189,0.157 0.299,0.247 0.299,0.247 l 0.045,0.038 c 0.719,0.595 0.818,1.661 0.224,2.379 -0.595,0.719 -1.661,0.819 -2.38,0.224 -0.017,-0.019 -0.041,-0.039 -0.058,-0.055 z"
       id="path174"
       inkscape:connector-curvature="0"
       style="fill:#913b8e" /><path
       d="m 301.529,395.597 c 0,0 2.227,0.347 4.45,0.731 2.224,0.375 4.448,0.75 4.448,0.75 l 0.061,0.01 c 0.469,0.079 0.785,0.523 0.706,0.993 -0.075,0.448 -0.487,0.756 -0.933,0.714 l -8.957,-0.86 -0.068,-0.006 c -0.646,-0.063 -1.12,-0.636 -1.059,-1.283 0.063,-0.646 0.637,-1.12 1.283,-1.058 0.022,0.002 0.048,0.006 0.069,0.009 z"
       id="path176"
       inkscape:connector-curvature="0"
       style="fill:#913b8e" /><path
       d="m 319.322,398.887 4.746,1.072 0.023,0.006 c 0.161,0.036 0.263,0.197 0.227,0.358 -0.035,0.152 -0.182,0.251 -0.334,0.231 l -4.803,-0.661 -0.041,-0.006 c -0.279,-0.038 -0.473,-0.295 -0.436,-0.573 0.039,-0.278 0.295,-0.473 0.574,-0.435 0.015,0.002 0.031,0.005 0.044,0.008 z"
       id="path178"
       inkscape:connector-curvature="0"
       style="fill:#913b8e" /></g><g
     id="g180"
     transform="translate(-200.30713,-39.103)"><rect
       x="255.948"
       y="461.52802"
       transform="matrix(0.9782,0.2077,-0.2077,0.9782,114.854,-64.8193)"
       width="220.44701"
       height="106.257"
       id="rect182"
       style="fill:none" /><path
       d="m 287.357,443.044 c 2.359,0.501 3.52,2.5 4.146,2.633 0.529,0.112 0.725,-0.097 1.133,-0.01 1.012,0.215 1.855,2.647 1.049,6.448 -0.416,1.952 -1.584,3.422 -3.004,3.121 -2.48,-0.527 -0.566,-6.455 -4.852,-7.365 -1.855,-0.393 -3.148,1.908 -3.549,3.791 -1.074,5.068 -0.09,9.787 3.281,10.503 3.059,0.649 4.018,-1.617 4.764,-1.459 0.697,0.148 0.787,1.385 0.605,2.24 -0.32,1.507 -2.096,4.422 -3.299,4.166 -0.818,-0.173 -2.928,1.455 -5.768,0.852 -5.055,-1.073 -7.99,-7.636 -6.529,-14.519 1.492,-7.019 7.279,-11.408 12.023,-10.401 z"
       id="path184"
       inkscape:connector-curvature="0"
       style="fill:#ffffff" /><path
       d="m 293.533,457.308 c 1.541,-7.259 6.699,-11.53 11.947,-10.416 6.646,1.41 7.432,10.272 6.494,14.69 -1.563,7.361 -7.17,11.252 -12.08,10.209 -5.08,-1.078 -7.908,-7.189 -6.361,-14.483 z m 9.758,-5.55 c -1.348,-0.287 -2.443,1.556 -2.799,3.234 -0.619,2.91 -0.912,11.4 1.688,11.953 1.471,0.312 2.482,-1.371 2.875,-3.219 0.66,-3.117 1.052,-11.371 -1.764,-11.968 z"
       id="path186"
       inkscape:connector-curvature="0"
       style="fill:#ffffff" /><path
       d="m 313.223,461.488 c 1.541,-7.259 6.701,-11.531 11.949,-10.417 6.645,1.411 7.432,10.272 6.492,14.69 -1.563,7.361 -7.17,11.252 -12.08,10.21 -5.08,-1.078 -7.908,-7.19 -6.361,-14.483 z m 9.757,-5.55 c -1.348,-0.286 -2.443,1.557 -2.799,3.235 -0.619,2.909 -0.912,11.4 1.689,11.952 1.469,0.312 2.48,-1.371 2.873,-3.219 0.661,-3.116 1.056,-11.371 -1.763,-11.968 z"
       id="path188"
       inkscape:connector-curvature="0"
       style="fill:#ffffff" /><path
       d="m 336.338,459.381 c 0.545,-2.567 -1.934,-1.914 -1.477,-4.07 0.291,-1.37 1.414,-1.453 2.16,-1.295 0.604,0.129 1.166,0.32 1.768,0.447 3.492,0.741 5.711,0.712 6.723,0.927 3.275,0.694 5.855,4.068 4.764,9.205 -1.082,5.103 -4.697,7.197 -8.045,6.486 -0.723,-0.153 -1.406,-0.478 -2.057,-0.615 -0.289,-0.062 -0.424,0.089 -0.502,0.466 l -0.422,1.985 c -0.836,4.296 1.299,2.889 0.877,4.875 -0.473,2.226 -3.959,1.592 -5.043,1.361 -1.012,-0.215 -4.568,-1.005 -4.096,-3.23 0.4,-1.884 1.91,-0.346 2.506,-3.153 l 2.844,-13.389 z m 6.799,-0.274 c -0.938,-0.199 -1.002,0.217 -1.146,0.901 l -1.092,5.136 c -0.152,0.72 -0.535,1.461 0.766,1.737 1.588,0.337 2.578,-1.242 3.021,-3.331 0.457,-2.156 0.064,-4.1 -1.549,-4.443 z"
       id="path190"
       inkscape:connector-curvature="0"
       style="fill:#ffffff" /><path
       d="m 362.453,459.486 c 3.225,0.686 3.828,0.098 4.213,0.179 1.373,0.292 1.238,3.77 0.918,5.275 -0.238,1.131 -0.836,2.399 -1.775,2.2 -1.902,-0.404 0.338,-3.363 -4.236,-4.335 -2.672,-0.567 -2.553,0.174 -3.389,4.111 -0.422,1.986 -0.365,2.07 1.104,2.382 1.83,0.389 1.266,-3.703 2.975,-3.341 1.396,0.297 0.672,4.186 0.387,5.521 -0.297,1.404 -1.338,5.477 -2.783,5.17 -1.492,-0.316 0.764,-3.595 -1.668,-4.11 -1.012,-0.215 -1.264,1.091 -1.496,2.187 -1.061,4.999 -0.77,4.811 1.76,5.348 4.934,1.048 4.563,-4.077 6.537,-3.658 0.77,0.164 0.893,1.478 0.689,2.437 -0.494,2.328 -2.68,6.229 -3.643,6.025 -0.168,-0.035 -0.533,-0.22 -1.018,-0.43 -0.514,-0.181 -1.166,-0.427 -1.986,-0.601 l -9.895,-2.101 c -1.59,-0.337 -1.395,-1.369 -1.301,-1.814 0.4,-1.884 1.719,-0.03 2.656,-3.623 1.613,-6.171 1.506,-5.549 2.58,-11.798 0.943,-5.274 -1.459,-2.959 -0.943,-5.389 0.443,-2.089 2.393,-1.317 3.379,-1.107 l 6.935,1.472 z m -4.178,-3.785 c 0.305,-1.438 2.092,-1.561 2.287,-2.484 0.066,-0.309 -0.105,-0.452 -0.025,-0.828 0.182,-0.856 1.855,-0.681 2.24,-0.6 0.746,0.159 2.865,0.967 2.531,2.543 -0.184,0.855 -2.729,3.606 -6.004,2.911 -0.624,-0.133 -1.261,-0.446 -1.029,-1.542 z"
       id="path192"
       inkscape:connector-curvature="0"
       style="fill:#ffffff" /><path
       d="m 370.301,468.596 c 1.127,-5.308 -1.168,-3.505 -0.717,-5.627 0.4,-1.883 2.328,-1.725 3.291,-1.52 0.506,0.107 0.975,0.277 1.471,0.418 0.467,0.172 0.959,0.348 1.439,0.45 0.771,0.163 1.557,0.258 2.365,0.358 0.779,0.129 1.586,0.229 2.357,0.393 2.721,0.578 5.512,2.96 4.545,7.514 -0.436,2.055 -1.557,3.893 -3.1,4.529 -0.254,0.127 -0.445,0.193 -0.533,0.604 -0.109,0.514 0.176,0.717 0.43,0.949 1.496,1.248 1.908,2.982 1.459,6.751 -0.387,3.247 1.584,1.661 1.141,3.75 -0.275,1.301 -1.674,2.436 -4.395,1.858 -3.852,-0.818 -3.666,-4.07 -3.451,-8.749 0.068,-1.631 -0.014,-3.259 -1.338,-3.54 -0.529,-0.112 -0.744,-0.05 -1.201,2.106 -0.211,0.993 -0.453,2.374 -0.535,3.358 -0.143,1.614 1.188,1.396 0.838,3.04 -0.262,1.232 -1.059,2.028 -4.959,1.201 -1.156,-0.245 -4.576,-0.972 -4.045,-3.471 0.377,-1.78 1.922,-0.165 2.867,-4.616 l 2.071,-9.756 z m 5.267,2.691 c -0.238,0.881 -0.518,1.608 0.275,1.777 1.566,0.332 2.332,-0.794 2.783,-2.916 0.355,-1.678 0.432,-3.452 -0.965,-3.748 -0.891,-0.189 -1.035,0.604 -1.309,1.655 l -0.784,3.232 z"
       id="path194"
       inkscape:connector-curvature="0"
       style="fill:#ffffff" /><path
       d="m 391.729,477.867 c 1.248,-2.204 2.875,-5.008 3.449,-7.713 0.502,-2.362 1.65,-3.979 3.793,-3.524 2.094,0.444 2.77,3.773 3.23,6.232 0.197,1.079 1.609,12.33 1.881,15.321 0.242,2.771 1.877,1.472 1.463,3.424 -0.531,2.5 -3.928,1.67 -5.133,1.415 -3.443,-0.731 -5.506,-1.205 -5.055,-3.327 0.348,-1.644 1.686,-0.716 1.939,-1.915 0.328,-1.54 -0.246,-1.805 -4.121,-2.628 -1.252,-0.266 -2.014,-0.355 -2.369,1.322 -0.283,1.336 1.447,0.772 1.068,2.553 -0.436,2.055 -3.043,1.536 -4.006,1.332 -3.443,-0.73 -3.561,-1.722 -3.328,-2.816 0.342,-1.609 1.541,-0.854 2.5,-1.939 0.727,-0.813 1.582,-2.348 2.176,-3.367 l 2.513,-4.37 z m 4.533,3.539 c 0.24,0.051 0.947,0.273 1.057,-0.24 0.11,-0.513 -0.211,-2.442 -0.303,-2.963 -0.1,-0.595 -0.24,-1.948 -0.77,-2.061 -0.578,-0.123 -1.424,1.846 -1.6,2.201 -0.176,0.356 -0.869,1.604 -0.955,2.016 -0.125,0.582 0.5,0.607 0.764,0.663 l 1.807,0.384 z"
       id="path196"
       inkscape:connector-curvature="0"
       style="fill:#ffffff" /><path
       d="m 420.293,471.766 c 1.035,0.22 1.547,0.185 1.93,0.159 0.365,-0.066 0.58,-0.128 1.037,-0.03 0.939,0.199 2.33,3.25 1.545,6.947 -0.363,1.712 -1.229,2.709 -2.457,2.448 -2.094,-0.444 -1.213,-4.479 -2.441,-4.74 -0.939,-0.2 -1.234,1.67 -1.293,1.944 l -2.232,10.512 c -0.863,4.074 1.766,2.593 1.258,4.99 -0.227,1.061 -1.004,2.47 -5.506,1.514 -1.227,-0.26 -5.744,-1.146 -5.184,-3.783 0.385,-1.815 1.725,-0.779 2.482,-1.979 0.393,-0.668 0.926,-2.701 1.131,-3.552 l 1.799,-7.526 c 0.859,-3.576 0.346,-3.648 0.01,-3.72 -1.082,-0.23 -2.471,3.698 -4.42,3.284 -0.939,-0.199 -1.232,-1.551 -0.971,-2.783 0.617,-2.91 3.158,-6.342 4.531,-6.051 0.168,0.035 0.412,0.193 0.84,0.429 0.436,0.199 1.057,0.475 2.02,0.679 l 5.921,1.258 z"
       id="path198"
       inkscape:connector-curvature="0"
       style="fill:#ffffff" /><path
       d="m 426.191,483.788 c 0.924,-4.349 0.895,-5.393 0.73,-5.929 -0.344,-1.109 -1.26,-1.412 -0.984,-2.713 0.523,-2.466 5.436,-1.424 5.916,-1.321 1.445,0.307 4.393,1.005 3.898,3.333 -0.262,1.232 -1.162,0.97 -1.906,1.742 -0.617,0.657 -1.295,3.732 -1.803,6.129 l -0.721,3.391 c -1.293,6.095 -0.975,6.02 -0.582,6.532 0.494,0.642 1.035,0.936 0.811,1.997 -0.219,1.027 -0.762,2.521 -6.035,1.402 -1.01,-0.215 -4.037,-0.894 -3.572,-3.085 0.232,-1.096 1.088,-1.093 1.609,-1.661 0.393,-0.418 0.902,-1.634 1.92,-6.428 l 0.719,-3.389 z"
       id="path200"
       inkscape:connector-curvature="0"
       style="fill:#ffffff" /><path
       d="m 434.563,487.247 c 1.541,-7.259 6.701,-11.531 11.949,-10.417 6.645,1.411 7.432,10.273 6.492,14.69 -1.563,7.361 -7.17,11.253 -12.08,10.21 -5.08,-1.078 -7.908,-7.19 -6.361,-14.483 z m 9.757,-5.551 c -1.348,-0.286 -2.443,1.557 -2.799,3.235 -0.619,2.909 -0.912,11.4 1.689,11.952 1.469,0.312 2.48,-1.37 2.873,-3.219 0.661,-3.115 1.056,-11.37 -1.763,-11.968 z"
       id="path202"
       inkscape:connector-curvature="0"
       style="fill:#ffffff" /><path
       d="m 467.672,490.446 c 0.215,0.403 0.773,1.561 1.209,1.652 0.602,0.128 0.922,-1.271 1.047,-1.853 0.182,-0.856 0.471,-2.334 0.445,-3.162 -0.031,-1.51 -1.418,-1.268 -1.025,-3.115 0.465,-2.191 2.9,-1.568 3.91,-1.354 1.061,0.225 3.721,0.611 3.219,2.973 -0.414,1.952 -1.537,0.963 -2.281,2.45 -0.576,1.167 -1.025,3.29 -1.303,4.591 l -1.883,8.869 c -0.326,1.54 -1.176,6.262 -2.789,5.919 -0.482,-0.103 -0.805,-0.6 -1.07,-1.122 l -5.426,-11.064 c -0.244,-0.515 -0.695,-1.471 -1.201,-1.578 -0.746,-0.158 -1.242,2.063 -1.395,2.782 -0.205,0.958 -0.449,2.23 -0.494,3.151 -0.104,2.268 1.348,1.717 0.99,3.395 -0.486,2.294 -3.01,1.973 -4.141,1.732 -1.107,-0.234 -3.545,-0.967 -3.072,-3.192 0.385,-1.814 1.629,-0.8 2.336,-2.939 0.48,-1.437 0.986,-3.583 1.314,-5.124 0.523,-2.465 1.053,-4.965 1.313,-7.486 0.34,-3.506 -1.676,-2.539 -1.24,-4.593 0.518,-2.432 3.736,-1.604 4.82,-1.375 1.494,0.317 1.729,0.511 2.521,2.109 l 4.196,8.334 z"
       id="path204"
       inkscape:connector-curvature="0"
       style="fill:#ffffff" /></g><g
     id="g206"
     transform="translate(-200.30713,-39.103)"><g
       id="g208"><path
         d="m 360.111,505.577 c 3.912,0.832 7.824,1.662 11.738,2.492 3.145,0.667 4.482,-4.152 1.328,-4.821 -3.912,-0.83 -7.825,-1.661 -11.738,-2.492 -3.144,-0.669 -4.482,4.151 -1.328,4.821 l 0,0 z"
         id="path210"
         inkscape:connector-curvature="0"
         style="fill:#ffffff" /></g></g></svg>