<?xml version="1.0" encoding="utf-8"?>
<!-- Generator: Adobe Illustrator 16.0.0, SVG Export Plug-In . SVG Version: 6.00 Build 0)  -->
<!DOCTYPE svg PUBLIC "-//W3C//DTD SVG 1.1 Basic//EN" "http://www.w3.org/Graphics/SVG/1.1/DTD/svg11-basic.dtd">
<svg version="1.1" baseProfile="basic" id="Calque_1"
	 xmlns="http://www.w3.org/2000/svg" xmlns:xlink="http://www.w3.org/1999/xlink" x="0px" y="0px" width="756.075px" height="768px"
	 viewBox="0 0 756.075 768" xml:space="preserve">
<g>
	<path d="M139.892,611.947c0-3.959-2.694-2.442-2.694-4.588c0-2.294,3.634-2.22,4.919-2.22c1.19,0,4.636,0,4.636,2.146
		c0,2.072-2.35,0.814-2.35,4.181v9.991c0,1.665,0.031,10.546-10.808,10.546c-12.342,0-10.964-11.249-10.964-11.693v-8.547
		c0.125-2.332-2.005-2.332-2.005-4.034c0-0.518-0.345-2.59,6.108-2.59c5.106,0,6.141,1.11,6.141,2.553
		c0,2.664-2.287,0.185-2.443,4.699v6.809c0,4.403,1.409,7.215,4.729,7.215c4.95,0,4.73-4.847,4.73-5.254V611.947z"/>
	<path d="M165.294,614.463c0.376,0.37,1.378,1.443,1.942,1.443c0.783,0,0.814-1.517,0.814-2.146c0-0.925-0.031-2.516-0.282-3.367
		c-0.438-1.554-2.099-0.999-2.099-2.998c0-2.368,3.195-2.257,4.511-2.257c1.379,0,4.793-0.185,4.793,2.368
		c0,2.109-1.66,1.332-2.192,3.034c-0.407,1.332-0.407,3.626-0.407,5.032v9.583c0,1.666,0.188,6.735-1.911,6.735
		c-0.627,0-1.159-0.444-1.629-0.925l-9.68-10.25c-0.439-0.481-1.254-1.369-1.911-1.369c-0.972,0-1.003,2.405-1.003,3.182
		c0,1.036,0.031,2.405,0.22,3.367c0.47,2.368,2.13,1.48,2.13,3.293c0,2.479-3.227,2.701-4.699,2.701
		c-1.44,0-4.667-0.222-4.667-2.627c0-1.961,1.816-1.184,2.13-3.552c0.22-1.591,0.282-3.922,0.282-5.587c0-2.664,0-5.365-0.345-8.029
		c-0.501-3.7-2.757-2.257-2.757-4.478c0-2.627,4.229-2.479,5.639-2.479c1.942,0,2.287,0.148,3.696,1.628L165.294,614.463z"/>
	<path d="M204.32,614.463c0.376,0.37,1.378,1.443,1.942,1.443c0.783,0,0.814-1.517,0.814-2.146c0-0.925-0.031-2.516-0.282-3.367
		c-0.438-1.554-2.099-0.999-2.099-2.998c0-2.368,3.195-2.257,4.511-2.257c1.379,0,4.793-0.185,4.793,2.368
		c0,2.109-1.66,1.332-2.192,3.034c-0.407,1.332-0.407,3.626-0.407,5.032v9.583c0,1.666,0.188,6.735-1.911,6.735
		c-0.627,0-1.159-0.444-1.629-0.925l-9.68-10.25c-0.439-0.481-1.254-1.369-1.911-1.369c-0.972,0-1.003,2.405-1.003,3.182
		c0,1.036,0.031,2.405,0.22,3.367c0.47,2.368,2.13,1.48,2.13,3.293c0,2.479-3.227,2.701-4.699,2.701
		c-1.44,0-4.667-0.222-4.667-2.627c0-1.961,1.816-1.184,2.13-3.552c0.22-1.591,0.282-3.922,0.282-5.587c0-2.664,0-5.365-0.345-8.029
		c-0.501-3.7-2.757-2.257-2.757-4.478c0-2.627,4.229-2.479,5.639-2.479c1.942,0,2.287,0.148,3.696,1.628L204.32,614.463z"/>
	<path d="M216.126,618.422c0-7.844,5.294-13.395,12.123-13.395c8.646,0,11.967,8.992,11.967,13.765
		c0,7.956-5.952,13.21-12.343,13.21C221.264,632.002,216.126,626.304,216.126,618.422z M226.809,610.541
		c-1.755,0-2.632,2.146-2.632,3.959c0,3.146,1.88,11.989,5.263,11.989c1.911,0,2.726-1.961,2.726-3.959
		C232.165,619.163,230.474,610.541,226.809,610.541z"/>
	<path d="M261.607,611.947c0-3.959-2.694-2.442-2.694-4.588c0-2.294,3.634-2.22,4.919-2.22c1.19,0,4.636,0,4.636,2.146
		c0,2.072-2.35,0.814-2.35,4.181v9.991c0,1.665,0.031,10.546-10.808,10.546c-12.342,0-10.964-11.249-10.964-11.693v-8.547
		c0.125-2.332-2.005-2.332-2.005-4.034c0-0.518-0.345-2.59,6.108-2.59c5.106,0,6.141,1.11,6.141,2.553
		c0,2.664-2.287,0.185-2.443,4.699v6.809c0,4.403,1.409,7.215,4.729,7.215c4.95,0,4.73-4.847,4.73-5.254V611.947z"/>
	<path d="M285.38,628.672c-0.658,1.517-1.284,3.219-2.977,3.219c-1.816,0-2.286-1.221-2.976-2.96l-6.234-16.281
		c-0.939-2.405-1.222-2.849-2.443-3.071c-0.626-0.111-0.939-0.666-0.939-1.443c0-2.849,4.98-2.997,6.578-2.997
		c6.579,0,6.328,1.85,6.328,2.405c0,1.406-1.504,1.48-1.504,2.479c0,0.777,1.222,3.663,1.974,5.587
		c0.282,0.629,0.627,2.072,1.316,2.109c1.033,0.074,1.566-1.998,1.941-2.775c0.376-0.888,1.817-4.218,1.817-5.106
		c0-1.332-1.598-0.962-1.598-2.442c0-2.294,3.947-2.257,5.2-2.257c3.947,0,4.604,0.851,4.604,2.146c0,0.999-0.626,1.48-1.378,1.591
		c-1.347,0.185-1.473,0.074-2.663,2.923L285.38,628.672z"/>
	<path d="M310.531,605.545c4.198,0,4.793-0.74,5.295-0.74c1.785,0,2.537,3.626,2.537,5.254c0,1.221-0.407,2.664-1.629,2.664
		c-2.475,0-0.47-3.552-6.422-3.552c-3.478,0-3.133,0.74-3.133,4.995c0,2.146,0.094,2.22,2.005,2.22c2.381,0,0.595-4.107,2.819-4.107
		c1.817,0,1.942,4.181,1.942,5.624c0,1.517-0.22,5.958-2.099,5.958c-1.942,0,0-3.885-3.164-3.885c-1.316,0-1.284,1.406-1.284,2.59
		c0,5.402,0.313,5.143,3.603,5.143c6.422,0,4.604-5.217,7.173-5.217c1.003,0,1.504,1.332,1.504,2.368
		c0,2.516-1.691,7.031-2.944,7.031c-0.22,0-0.721-0.111-1.379-0.222c-0.688-0.074-1.566-0.185-2.631-0.185H299.85
		c-2.067,0-2.1-1.11-2.1-1.591c0-2.035,2.131-0.407,2.35-4.329c0.376-6.734,0.407-6.068,0.095-12.766
		c-0.22-5.661-2.601-2.738-2.601-5.365c0-2.257,2.632-1.887,3.916-1.887H310.531z"/>
	<path d="M327.193,618.126c0.971-2.553,2.256-5.81,2.256-8.732c0-2.553,1.002-4.478,3.79-4.478c2.726,0,4.448,3.293,5.67,5.735
		c0.532,1.073,5.263,12.396,6.391,15.43c1.034,2.812,2.726,1.11,2.726,3.219c0,2.701-4.448,2.59-6.015,2.59
		c-4.479,0-7.174-0.037-7.174-2.332c0-1.776,1.911-1.11,1.911-2.405c0-1.666-0.783-1.813-5.827-1.813c-1.629,0-2.6,0.074-2.6,1.887
		c0,1.443,2.005,0.481,2.005,2.405c0,2.22-3.384,2.257-4.637,2.257c-4.479,0-4.887-1-4.887-2.183c0-1.739,1.691-1.221,2.6-2.553
		c0.689-1,1.348-2.775,1.817-3.959L327.193,618.126z M333.771,620.791c0.313,0,1.253,0.074,1.253-0.481s-0.908-2.479-1.158-2.997
		c-0.282-0.592-0.814-1.961-1.504-1.961c-0.752,0-1.284,2.22-1.41,2.627c-0.125,0.407-0.657,1.85-0.657,2.294
		c0,0.629,0.783,0.518,1.127,0.518H333.771z"/>
	<path d="M368.634,611.947c0-3.959-2.694-2.442-2.694-4.588c0-2.294,3.634-2.22,4.919-2.22c1.19,0,4.636,0,4.636,2.146
		c0,2.072-2.35,0.814-2.35,4.181v9.991c0,1.665,0.031,10.546-10.808,10.546c-12.342,0-10.964-11.249-10.964-11.693v-8.547
		c0.125-2.332-2.005-2.332-2.005-4.034c0-0.518-0.345-2.59,6.108-2.59c5.106,0,6.141,1.11,6.141,2.553
		c0,2.664-2.287,0.185-2.443,4.699v6.809c0,4.403,1.409,7.215,4.729,7.215c4.95,0,4.73-4.847,4.73-5.254V611.947z"/>
	<path d="M390.432,613.242c0-5.735-2.381-3.367-2.381-5.662c0-2.035,2.443-2.294,3.696-2.294c0.658,0,1.285,0.074,1.942,0.111
		c0.627,0.074,1.284,0.148,1.911,0.148c1.002,0,2.005-0.074,3.039-0.148c1.002-0.037,2.036-0.111,3.038-0.111
		c3.54,0,7.644,1.85,7.644,6.771c0,2.22-0.908,4.366-2.662,5.365c-0.282,0.185-0.502,0.296-0.502,0.74
		c0,0.555,0.407,0.703,0.783,0.888c2.193,0.962,3.164,2.665,3.603,6.661c0.376,3.441,2.412,1.369,2.412,3.626
		c0,1.406-1.44,2.886-4.98,2.886c-5.013,0-5.639-3.404-6.61-8.289c-0.345-1.702-0.877-3.367-2.6-3.367
		c-0.689,0-0.94,0.111-0.94,2.442c0,1.073,0.063,2.553,0.22,3.589c0.251,1.702,1.849,1.184,1.849,2.96
		c0,1.332-0.783,2.332-5.858,2.332c-1.504,0-5.952,0-5.952-2.701c0-1.924,2.35-0.592,2.35-5.403V613.242z M397.699,614.87
		c-0.063,0.962-0.219,1.776,0.814,1.776c2.036,0,2.694-1.332,2.694-3.626c0-1.813-0.376-3.663-2.193-3.663
		c-1.158,0-1.127,0.851-1.19,1.998L397.699,614.87z"/>
	<path d="M427.455,605.545c4.198,0,4.793-0.74,5.295-0.74c1.785,0,2.537,3.626,2.537,5.254c0,1.221-0.407,2.664-1.629,2.664
		c-2.475,0-0.47-3.552-6.422-3.552c-3.478,0-3.133,0.74-3.133,4.995c0,2.146,0.094,2.22,2.005,2.22c2.381,0,0.595-4.107,2.819-4.107
		c1.817,0,1.942,4.181,1.942,5.624c0,1.517-0.22,5.958-2.099,5.958c-1.942,0,0-3.885-3.164-3.885c-1.316,0-1.284,1.406-1.284,2.59
		c0,5.402,0.313,5.143,3.603,5.143c6.422,0,4.604-5.217,7.173-5.217c1.003,0,1.504,1.332,1.504,2.368
		c0,2.516-1.691,7.031-2.944,7.031c-0.22,0-0.721-0.111-1.379-0.222c-0.688-0.074-1.566-0.185-2.631-0.185h-12.875
		c-2.067,0-2.1-1.11-2.1-1.591c0-2.035,2.131-0.407,2.35-4.329c0.376-6.734,0.407-6.068,0.095-12.766
		c-0.22-5.661-2.601-2.738-2.601-5.365c0-2.257,2.632-1.887,3.916-1.887H427.455z"/>
	<path d="M452.355,626.6c1.097,0,1.911-0.962,1.911-2.294c0-3.071-3.289-0.074-3.289-3.478c0-2.701,4.73-2.886,6.328-2.886
		c5.89,0,6.233,1.961,6.233,3.034c0,0.962-0.688,1.628-1.44,1.776c-0.814,0.111-0.877,0.296-1.097,1.258
		c-1.222,5.402-5.639,7.993-10.087,7.993c-6.642,0-12.437-5.439-12.437-13.617c0-7.807,5.607-13.358,12.312-13.358
		c2.756,0,4.26,1,5.074,1c0.564,0,1.379-0.555,1.942-0.555c1.942,0,3.102,3.774,3.102,5.661c0,1.813-0.783,3.664-2.475,3.664
		c-3.102,0-3.102-5.144-7.362-5.144c-2.726,0-4.479,2.664-4.479,6.586C446.592,623.862,450.351,626.6,452.355,626.6z"/>
	<path d="M471.148,618.126c0.971-2.553,2.256-5.81,2.256-8.732c0-2.553,1.002-4.478,3.79-4.478c2.726,0,4.448,3.293,5.67,5.735
		c0.532,1.073,5.263,12.396,6.391,15.43c1.034,2.812,2.726,1.11,2.726,3.219c0,2.701-4.448,2.59-6.015,2.59
		c-4.479,0-7.174-0.037-7.174-2.332c0-1.776,1.911-1.11,1.911-2.405c0-1.666-0.783-1.813-5.827-1.813c-1.629,0-2.6,0.074-2.6,1.887
		c0,1.443,2.005,0.481,2.005,2.405c0,2.22-3.384,2.257-4.637,2.257c-4.479,0-4.887-1-4.887-2.183c0-1.739,1.691-1.221,2.6-2.553
		c0.689-1,1.348-2.775,1.817-3.959L471.148,618.126z M477.727,620.791c0.313,0,1.253,0.074,1.253-0.481s-0.908-2.479-1.158-2.997
		c-0.282-0.592-0.814-1.961-1.504-1.961c-0.752,0-1.284,2.22-1.41,2.627c-0.125,0.407-0.657,1.85-0.657,2.294
		c0,0.629,0.783,0.518,1.127,0.518H477.727z"/>
	<path d="M495.704,613.242c0-5.735-2.381-3.367-2.381-5.662c0-2.035,2.443-2.294,3.696-2.294c0.658,0,1.285,0.074,1.942,0.111
		c0.627,0.074,1.284,0.148,1.911,0.148c1.002,0,2.005-0.074,3.038-0.148c1.003-0.037,2.037-0.111,3.039-0.111
		c3.54,0,7.644,1.85,7.644,6.771c0,2.22-0.908,4.366-2.663,5.365c-0.281,0.185-0.501,0.296-0.501,0.74
		c0,0.555,0.407,0.703,0.783,0.888c2.193,0.962,3.164,2.665,3.603,6.661c0.376,3.441,2.412,1.369,2.412,3.626
		c0,1.406-1.44,2.886-4.98,2.886c-5.013,0-5.639-3.404-6.61-8.289c-0.345-1.702-0.877-3.367-2.6-3.367
		c-0.689,0-0.94,0.111-0.94,2.442c0,1.073,0.063,2.553,0.22,3.589c0.251,1.702,1.849,1.184,1.849,2.96
		c0,1.332-0.783,2.332-5.858,2.332c-1.504,0-5.952,0-5.952-2.701c0-1.924,2.35-0.592,2.35-5.403V613.242z M502.972,614.87
		c-0.063,0.962-0.219,1.776,0.814,1.776c2.036,0,2.694-1.332,2.694-3.626c0-1.813-0.376-3.663-2.193-3.663
		c-1.158,0-1.127,0.851-1.19,1.998L502.972,614.87z"/>
	<path d="M522.609,611.614c0.063-3.811-2.287-1.961-2.287-4.366c0-1.702,1.817-1.961,2.914-1.961h10.212
		c8.709,0,11.56,6.364,11.56,13.025c0,6.882-3.415,13.358-11.34,13.358c-1.348,0-2.475-0.037-3.446-0.111
		c-0.971-0.037-1.816-0.074-2.694-0.074c-0.877,0-1.785,0.037-2.662,0.074c-0.877,0.074-1.755,0.111-2.663,0.111
		c-1.065,0-2.412-0.629-2.412-2.109c0-2.664,2.475,0.296,2.568-5.106L522.609,611.614z M530.128,625.157
		c0,1.887,0.25,2.665,1.942,2.665c3.947,0,4.636-4.773,4.636-8.474c0-8.659-2.757-10.028-5.169-10.028
		c-1.315,0-1.409,0.629-1.409,2.035V625.157z"/>
	<path d="M558.69,613.649c0-3.848,3.133-8.622,9.21-8.622c2.005,0,4.261,1.036,4.73,1.036c0.438,0,0.877-0.518,1.535-0.518
		c1.064,0,3.445,2.85,3.445,5.958c0,1.258-0.688,2.516-1.848,2.516c-2.1,0-3.321-4.218-6.579-4.218c-0.971,0-2.005,0.518-2.005,1.85
		c0,2.923,4.292,2.146,7.926,4.996c1.942,1.517,2.913,3.367,2.913,6.142c0,4.33-3.007,9.214-10.306,9.214
		c-2.068,0-5.607-0.629-7.394-1.776c-1.504-0.999-2.224-4.921-2.224-6.808c0-0.999,0.376-1.999,1.315-1.999
		c2.224,0,1.849,5.884,7.612,5.884c0.689,0,2.412-0.407,2.412-1.813c0-2.664-4.292-1.998-7.769-5.291
		C559.943,618.57,558.69,616.313,558.69,613.649z"/>
	<path d="M599.286,611.947c0-3.959-2.694-2.442-2.694-4.588c0-2.294,3.634-2.22,4.919-2.22c1.19,0,4.636,0,4.636,2.146
		c0,2.072-2.35,0.814-2.35,4.181v9.991c0,1.665,0.031,10.546-10.808,10.546c-12.342,0-10.964-11.249-10.964-11.693v-8.547
		c0.125-2.332-2.005-2.332-2.005-4.034c0-0.518-0.345-2.59,6.108-2.59c5.106,0,6.141,1.11,6.141,2.553
		c0,2.664-2.287,0.185-2.443,4.699v6.809c0,4.403,1.409,7.215,4.729,7.215c4.95,0,4.73-4.847,4.73-5.254V611.947z"/>
	<path d="M610.31,613.242c0-5.735-2.381-3.367-2.381-5.662c0-2.035,2.443-2.294,3.696-2.294c0.658,0,1.285,0.074,1.942,0.111
		c0.627,0.074,1.284,0.148,1.911,0.148c1.002,0,2.005-0.074,3.038-0.148c1.003-0.037,2.037-0.111,3.039-0.111
		c3.54,0,7.644,1.85,7.644,6.771c0,2.22-0.908,4.366-2.663,5.365c-0.281,0.185-0.501,0.296-0.501,0.74
		c0,0.555,0.407,0.703,0.783,0.888c2.193,0.962,3.164,2.665,3.603,6.661c0.376,3.441,2.412,1.369,2.412,3.626
		c0,1.406-1.44,2.886-4.98,2.886c-5.013,0-5.639-3.404-6.61-8.289c-0.345-1.702-0.877-3.367-2.6-3.367
		c-0.689,0-0.94,0.111-0.94,2.442c0,1.073,0.063,2.553,0.22,3.589c0.251,1.702,1.849,1.184,1.849,2.96
		c0,1.332-0.783,2.332-5.858,2.332c-1.504,0-5.952,0-5.952-2.701c0-1.924,2.35-0.592,2.35-5.403V613.242z M617.577,614.87
		c-0.063,0.962-0.219,1.776,0.814,1.776c2.036,0,2.694-1.332,2.694-3.626c0-1.813-0.376-3.663-2.193-3.663
		c-1.158,0-1.127,0.851-1.19,1.998L617.577,614.87z"/>
	<path d="M16.31,674.484c-1.003,0-2.601,0.074-2.601-1.628c0-2.294,2.443-0.37,2.538-4.663c0.063-2.701,0.063-5.069,0.063-7.252
		c0-2.22-0.157-4.292-0.22-6.364c-0.063-3.108-2.819-1.48-2.819-3.589c0-2.701,4.918-2.849,6.453-2.849
		c6.266,0,6.579,1.258,6.579,2.516c0,2.146-2.476,0.518-2.476,3.996v11.767c0,2.664,0.376,3.959,2.601,3.959
		c5.325,0,3.509-5.143,5.514-5.143c1.409,0,1.942,1.776,1.942,3.182c0,2.886-1.755,6.586-3.195,6.586
		c-0.564,0-1.003-0.148-1.566-0.259c-0.596-0.148-1.285-0.259-2.35-0.259H16.31z"/>
	<path d="M37.515,657.315c0-1.369-2.412-1.591-2.412-4.958c0-2.479,1.504-4.33,3.603-4.33c2.255,0,3.728,2.368,3.728,4.885
		c0,4.329-3.445,10.064-5.576,10.064c-0.532,0-1.503-0.444-1.503-1.221C35.354,660.979,37.515,659.646,37.515,657.315z"/>
	<path d="M51.108,661.126c0.971-2.553,2.256-5.81,2.256-8.732c0-2.553,1.002-4.478,3.79-4.478c2.726,0,4.448,3.293,5.67,5.735
		c0.532,1.073,5.263,12.396,6.391,15.43c1.034,2.812,2.726,1.11,2.726,3.219c0,2.701-4.448,2.59-6.015,2.59
		c-4.479,0-7.174-0.037-7.174-2.332c0-1.776,1.911-1.11,1.911-2.405c0-1.666-0.783-1.813-5.827-1.813c-1.629,0-2.6,0.074-2.6,1.887
		c0,1.443,2.005,0.481,2.005,2.405c0,2.22-3.384,2.257-4.637,2.257c-4.479,0-4.887-1-4.887-2.183c0-1.739,1.691-1.221,2.6-2.553
		c0.689-1,1.348-2.775,1.817-3.959L51.108,661.126z M57.687,663.791c0.313,0,1.253,0.074,1.253-0.481s-0.908-2.479-1.158-2.997
		c-0.282-0.592-0.814-1.961-1.504-1.961c-0.752,0-1.284,2.22-1.41,2.627c-0.125,0.407-0.657,1.85-0.657,2.294
		c0,0.629,0.783,0.518,1.127,0.518H57.687z"/>
	<path d="M81.554,664.086c-0.188-0.481-0.533-1.591-1.097-1.591c-0.971,0-0.658,4.884-0.658,6.105c0,3.959,2.005,2.109,2.005,4.107
		c0,2.109-3.352,2.183-4.573,2.183c-1.097,0-3.947-0.111-3.947-2.035c0-2.109,1.88-0.37,2.13-3.404
		c0.251-3.108,0.533-6.55,0.533-11.915c0-2.22-0.126-3.367-0.47-4.218c-0.313-0.777-2.1-1.036-2.1-2.553
		c0-2.109,2.914-2.627,5.42-2.627c3.665,0,3.603,0.74,4.542,2.627c1.097,2.183,3.039,8.251,4.417,8.622
		c0.972,0.259,2.256-4.218,3.384-6.66c1.598-3.479,1.629-4.588,5.764-4.588c1.378,0,4.511,0.111,4.511,2.442
		c0,1.48-1.409,1.776-1.723,3.034c-0.251,1.036-0.47,5.402-0.47,7.068c0,0.555,0.188,4.625,0.313,8.066
		c0.094,2.701,1.973,2.109,1.973,3.774c0,2.479-4.291,2.368-5.67,2.368c-1.284,0-5.576,0.148-5.576-2.22
		c0-1.295,1.41-1.517,1.63-2.701c0.125-0.629,0.751-6.994-0.345-6.994c-0.972,0-1.974,3.256-2.726,5.144
		c-0.689,1.702-1.817,5.92-2.819,5.772c-0.501-0.074-0.752,0-2.632-4.995L81.554,664.086z"/>
	<path d="M116.227,648.545c4.198,0,4.793-0.74,5.295-0.74c1.785,0,2.537,3.626,2.537,5.254c0,1.221-0.407,2.664-1.629,2.664
		c-2.475,0-0.47-3.552-6.422-3.552c-3.478,0-3.133,0.74-3.133,4.995c0,2.146,0.094,2.22,2.005,2.22c2.381,0,0.595-4.107,2.819-4.107
		c1.817,0,1.942,4.181,1.942,5.624c0,1.517-0.22,5.958-2.099,5.958c-1.942,0,0-3.885-3.164-3.885c-1.316,0-1.284,1.406-1.284,2.59
		c0,5.402,0.313,5.143,3.603,5.143c6.422,0,4.604-5.217,7.173-5.217c1.003,0,1.504,1.332,1.504,2.368
		c0,2.516-1.691,7.031-2.944,7.031c-0.22,0-0.721-0.111-1.379-0.222c-0.688-0.074-1.566-0.185-2.631-0.185h-12.875
		c-2.067,0-2.1-1.11-2.1-1.591c0-2.035,2.131-0.407,2.35-4.329c0.376-6.734,0.407-6.068,0.095-12.766
		c-0.22-5.661-2.601-2.738-2.601-5.365c0-2.257,2.632-1.887,3.916-1.887H116.227z M110.024,645.548c0-1.554,2.192-2.072,2.192-3.071
		c0-0.333-0.25-0.444-0.25-0.851c0-0.925,2.13-1.11,2.631-1.11c0.972,0,3.822,0.37,3.822,2.072c0,0.925-2.443,4.329-6.704,4.329
		C110.901,646.917,110.024,646.732,110.024,645.548z"/>
	<path d="M143.696,657.463c0.376,0.37,1.378,1.443,1.942,1.443c0.783,0,0.814-1.517,0.814-2.146c0-0.925-0.031-2.516-0.282-3.367
		c-0.438-1.554-2.099-0.999-2.099-2.998c0-2.368,3.195-2.257,4.511-2.257c1.379,0,4.793-0.185,4.793,2.368
		c0,2.109-1.66,1.332-2.192,3.034c-0.407,1.332-0.407,3.626-0.407,5.032v9.583c0,1.666,0.188,6.735-1.911,6.735
		c-0.627,0-1.159-0.444-1.629-0.925l-9.68-10.25c-0.439-0.481-1.254-1.369-1.911-1.369c-0.972,0-1.003,2.405-1.003,3.182
		c0,1.036,0.031,2.405,0.22,3.367c0.47,2.368,2.13,1.48,2.13,3.293c0,2.479-3.227,2.701-4.699,2.701
		c-1.44,0-4.667-0.222-4.667-2.627c0-1.961,1.816-1.184,2.13-3.552c0.22-1.591,0.282-3.922,0.282-5.587c0-2.664,0-5.365-0.345-8.029
		c-0.501-3.7-2.757-2.257-2.757-4.478c0-2.627,4.229-2.479,5.639-2.479c1.942,0,2.287,0.148,3.696,1.628L143.696,657.463z"/>
	<path d="M161.141,661.126c0.971-2.553,2.256-5.81,2.256-8.732c0-2.553,1.002-4.478,3.79-4.478c2.726,0,4.448,3.293,5.67,5.735
		c0.532,1.073,5.263,12.396,6.391,15.43c1.034,2.812,2.726,1.11,2.726,3.219c0,2.701-4.448,2.59-6.015,2.59
		c-4.479,0-7.174-0.037-7.174-2.332c0-1.776,1.911-1.11,1.911-2.405c0-1.666-0.783-1.813-5.827-1.813c-1.629,0-2.6,0.074-2.6,1.887
		c0,1.443,2.005,0.481,2.005,2.405c0,2.22-3.384,2.257-4.637,2.257c-4.479,0-4.887-1-4.887-2.183c0-1.739,1.691-1.221,2.6-2.553
		c0.689-1,1.348-2.775,1.817-3.959L161.141,661.126z M167.719,663.791c0.313,0,1.253,0.074,1.253-0.481s-0.908-2.479-1.158-2.997
		c-0.282-0.592-0.814-1.961-1.504-1.961c-0.752,0-1.284,2.22-1.41,2.627c-0.125,0.407-0.657,1.85-0.657,2.294
		c0,0.629,0.783,0.518,1.127,0.518H167.719z"/>
	<path d="M197.506,669.6c1.097,0,1.911-0.962,1.911-2.294c0-3.071-3.289-0.074-3.289-3.478c0-2.701,4.73-2.886,6.328-2.886
		c5.89,0,6.233,1.961,6.233,3.034c0,0.962-0.688,1.628-1.44,1.776c-0.814,0.111-0.877,0.296-1.097,1.258
		c-1.222,5.402-5.639,7.993-10.087,7.993c-6.642,0-12.437-5.439-12.437-13.617c0-7.807,5.607-13.358,12.312-13.358
		c2.756,0,4.26,1,5.074,1c0.564,0,1.379-0.555,1.942-0.555c1.942,0,3.102,3.774,3.102,5.661c0,1.813-0.783,3.664-2.475,3.664
		c-3.102,0-3.102-5.144-7.362-5.144c-2.726,0-4.479,2.664-4.479,6.586C191.742,666.862,195.501,669.6,197.506,669.6z"/>
	<path d="M223.284,648.545c4.198,0,4.793-0.74,5.295-0.74c1.785,0,2.537,3.626,2.537,5.254c0,1.221-0.407,2.664-1.629,2.664
		c-2.475,0-0.47-3.552-6.422-3.552c-3.478,0-3.133,0.74-3.133,4.995c0,2.146,0.094,2.22,2.005,2.22c2.381,0,0.595-4.107,2.819-4.107
		c1.817,0,1.942,4.181,1.942,5.624c0,1.517-0.22,5.958-2.099,5.958c-1.942,0,0-3.885-3.164-3.885c-1.316,0-1.284,1.406-1.284,2.59
		c0,5.402,0.313,5.143,3.603,5.143c6.422,0,4.604-5.217,7.173-5.217c1.003,0,1.504,1.332,1.504,2.368
		c0,2.516-1.691,7.031-2.944,7.031c-0.22,0-0.721-0.111-1.379-0.222c-0.688-0.074-1.566-0.185-2.631-0.185h-12.875
		c-2.067,0-2.1-1.11-2.1-1.591c0-2.035,2.131-0.407,2.35-4.329c0.376-6.734,0.407-6.068,0.095-12.766
		c-0.22-5.661-2.601-2.738-2.601-5.365c0-2.257,2.632-1.887,3.916-1.887H223.284z"/>
	<path d="M242.265,664.086c-0.188-0.481-0.533-1.591-1.097-1.591c-0.971,0-0.658,4.884-0.658,6.105c0,3.959,2.005,2.109,2.005,4.107
		c0,2.109-3.352,2.183-4.573,2.183c-1.097,0-3.947-0.111-3.947-2.035c0-2.109,1.88-0.37,2.13-3.404
		c0.251-3.108,0.533-6.55,0.533-11.915c0-2.22-0.126-3.367-0.47-4.218c-0.313-0.777-2.1-1.036-2.1-2.553
		c0-2.109,2.914-2.627,5.42-2.627c3.665,0,3.603,0.74,4.542,2.627c1.097,2.183,3.039,8.251,4.417,8.622
		c0.972,0.259,2.256-4.218,3.384-6.66c1.598-3.479,1.629-4.588,5.764-4.588c1.378,0,4.511,0.111,4.511,2.442
		c0,1.48-1.409,1.776-1.723,3.034c-0.251,1.036-0.47,5.402-0.47,7.068c0,0.555,0.188,4.625,0.313,8.066
		c0.094,2.701,1.973,2.109,1.973,3.774c0,2.479-4.291,2.368-5.67,2.368c-1.284,0-5.576,0.148-5.576-2.22
		c0-1.295,1.41-1.517,1.63-2.701c0.125-0.629,0.751-6.994-0.345-6.994c-0.972,0-1.974,3.256-2.726,5.144
		c-0.689,1.702-1.817,5.92-2.819,5.772c-0.501-0.074-0.752,0-2.632-4.995L242.265,664.086z"/>
	<path d="M276.938,648.545c4.198,0,4.793-0.74,5.295-0.74c1.785,0,2.537,3.626,2.537,5.254c0,1.221-0.407,2.664-1.629,2.664
		c-2.475,0-0.47-3.552-6.422-3.552c-3.478,0-3.133,0.74-3.133,4.995c0,2.146,0.094,2.22,2.005,2.22c2.381,0,0.595-4.107,2.819-4.107
		c1.817,0,1.942,4.181,1.942,5.624c0,1.517-0.22,5.958-2.099,5.958c-1.942,0,0-3.885-3.164-3.885c-1.316,0-1.284,1.406-1.284,2.59
		c0,5.402,0.313,5.143,3.603,5.143c6.422,0,4.604-5.217,7.173-5.217c1.003,0,1.504,1.332,1.504,2.368
		c0,2.516-1.691,7.031-2.944,7.031c-0.22,0-0.721-0.111-1.379-0.222c-0.688-0.074-1.566-0.185-2.631-0.185h-12.875
		c-2.067,0-2.1-1.11-2.1-1.591c0-2.035,2.131-0.407,2.35-4.329c0.376-6.734,0.407-6.068,0.095-12.766
		c-0.22-5.661-2.601-2.738-2.601-5.365c0-2.257,2.632-1.887,3.916-1.887H276.938z"/>
	<path d="M304.408,657.463c0.376,0.37,1.378,1.443,1.942,1.443c0.783,0,0.814-1.517,0.814-2.146c0-0.925-0.031-2.516-0.282-3.367
		c-0.438-1.554-2.099-0.999-2.099-2.998c0-2.368,3.195-2.257,4.511-2.257c1.379,0,4.793-0.185,4.793,2.368
		c0,2.109-1.66,1.332-2.192,3.034c-0.407,1.332-0.407,3.626-0.407,5.032v9.583c0,1.666,0.188,6.735-1.911,6.735
		c-0.627,0-1.159-0.444-1.629-0.925l-9.68-10.25c-0.439-0.481-1.254-1.369-1.911-1.369c-0.972,0-1.003,2.405-1.003,3.182
		c0,1.036,0.031,2.405,0.22,3.367c0.47,2.368,2.13,1.48,2.13,3.293c0,2.479-3.227,2.701-4.699,2.701
		c-1.44,0-4.667-0.222-4.667-2.627c0-1.961,1.816-1.184,2.13-3.552c0.22-1.591,0.282-3.922,0.282-5.587c0-2.664,0-5.365-0.345-8.029
		c-0.501-3.7-2.757-2.257-2.757-4.478c0-2.627,4.229-2.479,5.639-2.479c1.942,0,2.287,0.148,3.696,1.628L304.408,657.463z"/>
	<path d="M331.063,648.545c1.347,0,1.974-0.148,2.443-0.259c0.438-0.148,0.689-0.259,1.284-0.259c1.222,0,3.76,2.85,3.76,6.846
		c0,1.85-0.814,3.071-2.412,3.071c-2.726,0-2.694-4.366-4.292-4.366c-1.222,0-1.097,1.998-1.097,2.294v11.36
		c0,4.403,2.882,2.294,2.882,4.884c0,1.147-0.595,2.775-6.453,2.775c-1.598,0-7.455,0.074-7.455-2.775
		c0-1.961,1.941-1.184,2.568-2.59c0.313-0.777,0.438-2.997,0.47-3.922l0.251-8.178c0.125-3.885-0.532-3.848-0.972-3.848
		c-1.409,0-2.099,4.366-4.636,4.366c-1.222,0-1.942-1.332-1.942-2.664c0-3.146,2.256-7.253,4.041-7.253
		c0.22,0,0.563,0.111,1.159,0.259c0.595,0.111,1.441,0.259,2.694,0.259H331.063z"/>
	<path d="M353.486,654.614c0.063-3.811-2.287-1.961-2.287-4.366c0-1.702,1.817-1.961,2.914-1.961h10.212
		c8.709,0,11.56,6.364,11.56,13.025c0,6.882-3.415,13.358-11.34,13.358c-1.348,0-2.475-0.037-3.446-0.111
		c-0.971-0.037-1.816-0.074-2.694-0.074c-0.877,0-1.785,0.037-2.662,0.074c-0.877,0.074-1.755,0.111-2.663,0.111
		c-1.065,0-2.412-0.629-2.412-2.109c0-2.664,2.475,0.296,2.568-5.106L353.486,654.614z M361.005,668.157
		c0,1.887,0.25,2.665,1.942,2.665c3.947,0,4.636-4.773,4.636-8.474c0-8.659-2.757-10.028-5.169-10.028
		c-1.315,0-1.409,0.629-1.409,2.035V668.157z"/>
	<path d="M390.917,648.545c4.198,0,4.793-0.74,5.295-0.74c1.785,0,2.537,3.626,2.537,5.254c0,1.221-0.407,2.664-1.629,2.664
		c-2.475,0-0.47-3.552-6.422-3.552c-3.478,0-3.133,0.74-3.133,4.995c0,2.146,0.094,2.22,2.005,2.22c2.381,0,0.595-4.107,2.819-4.107
		c1.817,0,1.942,4.181,1.942,5.624c0,1.517-0.22,5.958-2.099,5.958c-1.942,0,0-3.885-3.164-3.885c-1.316,0-1.284,1.406-1.284,2.59
		c0,5.402,0.313,5.143,3.603,5.143c6.422,0,4.604-5.217,7.173-5.217c1.003,0,1.504,1.332,1.504,2.368
		c0,2.516-1.691,7.031-2.944,7.031c-0.22,0-0.721-0.111-1.379-0.222c-0.688-0.074-1.566-0.185-2.631-0.185h-12.875
		c-2.067,0-2.1-1.11-2.1-1.591c0-2.035,2.131-0.407,2.35-4.329c0.376-6.734,0.407-6.068,0.095-12.766
		c-0.22-5.661-2.601-2.738-2.601-5.365c0-2.257,2.632-1.887,3.916-1.887H390.917z"/>
	<path d="M429.162,657.463c0.376,0.37,1.378,1.443,1.942,1.443c0.783,0,0.814-1.517,0.814-2.146c0-0.925-0.031-2.516-0.282-3.367
		c-0.438-1.554-2.099-0.999-2.099-2.998c0-2.368,3.195-2.257,4.511-2.257c1.379,0,4.793-0.185,4.793,2.368
		c0,2.109-1.66,1.332-2.192,3.034c-0.407,1.332-0.407,3.626-0.407,5.032v9.583c0,1.666,0.188,6.735-1.911,6.735
		c-0.627,0-1.159-0.444-1.629-0.925l-9.68-10.25c-0.439-0.481-1.254-1.369-1.911-1.369c-0.972,0-1.003,2.405-1.003,3.182
		c0,1.036,0.031,2.405,0.22,3.367c0.47,2.368,2.13,1.48,2.13,3.293c0,2.479-3.227,2.701-4.699,2.701
		c-1.44,0-4.667-0.222-4.667-2.627c0-1.961,1.816-1.184,2.13-3.552c0.22-1.591,0.282-3.922,0.282-5.587c0-2.664,0-5.365-0.345-8.029
		c-0.501-3.7-2.757-2.257-2.757-4.478c0-2.627,4.229-2.479,5.639-2.479c1.942,0,2.287,0.148,3.696,1.628L429.162,657.463z"/>
	<path d="M440.968,661.422c0-7.844,5.294-13.395,12.123-13.395c8.646,0,11.967,8.992,11.967,13.765
		c0,7.956-5.952,13.21-12.343,13.21C446.105,675.002,440.968,669.304,440.968,661.422z M451.65,653.541
		c-1.755,0-2.632,2.146-2.632,3.959c0,3.146,1.88,11.989,5.263,11.989c1.911,0,2.726-1.961,2.726-3.959
		C457.007,662.163,455.315,653.541,451.65,653.541z"/>
	<path d="M467.998,656.649c0-3.848,3.133-8.622,9.21-8.622c2.005,0,4.261,1.036,4.73,1.036c0.438,0,0.877-0.518,1.535-0.518
		c1.064,0,3.445,2.85,3.445,5.958c0,1.258-0.688,2.516-1.848,2.516c-2.1,0-3.321-4.218-6.579-4.218c-0.971,0-2.005,0.518-2.005,1.85
		c0,2.923,4.292,2.146,7.926,4.996c1.942,1.517,2.913,3.367,2.913,6.142c0,4.33-3.007,9.214-10.306,9.214
		c-2.068,0-5.607-0.629-7.394-1.776c-1.504-0.999-2.224-4.921-2.224-6.808c0-0.999,0.376-1.999,1.315-1.999
		c2.224,0,1.849,5.884,7.612,5.884c0.689,0,2.412-0.407,2.412-1.813c0-2.664-4.292-1.998-7.769-5.291
		C469.251,661.57,467.998,659.313,467.998,656.649z"/>
	<path d="M515.265,648.545c1.347,0,1.974-0.148,2.443-0.259c0.438-0.148,0.689-0.259,1.284-0.259c1.222,0,3.76,2.85,3.76,6.846
		c0,1.85-0.814,3.071-2.412,3.071c-2.726,0-2.694-4.366-4.292-4.366c-1.222,0-1.097,1.998-1.097,2.294v11.36
		c0,4.403,2.882,2.294,2.882,4.884c0,1.147-0.595,2.775-6.453,2.775c-1.598,0-7.455,0.074-7.455-2.775
		c0-1.961,1.941-1.184,2.568-2.59c0.313-0.777,0.438-2.997,0.47-3.922l0.251-8.178c0.125-3.885-0.533-3.848-0.972-3.848
		c-1.409,0-2.099,4.366-4.636,4.366c-1.222,0-1.942-1.332-1.942-2.664c0-3.146,2.256-7.253,4.041-7.253
		c0.22,0,0.563,0.111,1.159,0.259c0.595,0.111,1.441,0.259,2.694,0.259H515.265z"/>
	<path d="M537.032,648.545c4.198,0,4.793-0.74,5.295-0.74c1.785,0,2.537,3.626,2.537,5.254c0,1.221-0.407,2.664-1.629,2.664
		c-2.475,0-0.47-3.552-6.422-3.552c-3.478,0-3.133,0.74-3.133,4.995c0,2.146,0.094,2.22,2.005,2.22c2.381,0,0.595-4.107,2.819-4.107
		c1.817,0,1.942,4.181,1.942,5.624c0,1.517-0.22,5.958-2.099,5.958c-1.942,0,0-3.885-3.164-3.885c-1.316,0-1.284,1.406-1.284,2.59
		c0,5.402,0.313,5.143,3.603,5.143c6.422,0,4.604-5.217,7.173-5.217c1.003,0,1.504,1.332,1.504,2.368
		c0,2.516-1.691,7.031-2.944,7.031c-0.22,0-0.721-0.111-1.379-0.222c-0.688-0.074-1.566-0.185-2.631-0.185h-12.875
		c-2.067,0-2.1-1.11-2.1-1.591c0-2.035,2.131-0.407,2.35-4.329c0.376-6.734,0.407-6.068,0.095-12.766
		c-0.22-5.661-2.601-2.738-2.601-5.365c0-2.257,2.632-1.887,3.916-1.887H537.032z"/>
	<path d="M550.124,656.242c0-5.735-2.381-3.367-2.381-5.662c0-2.035,2.443-2.294,3.696-2.294c0.658,0,1.285,0.074,1.942,0.111
		c0.627,0.074,1.284,0.148,1.911,0.148c1.002,0,2.005-0.074,3.038-0.148c1.003-0.037,2.037-0.111,3.039-0.111
		c3.54,0,7.644,1.85,7.644,6.771c0,2.22-0.908,4.366-2.663,5.365c-0.281,0.185-0.501,0.296-0.501,0.74
		c0,0.555,0.407,0.703,0.783,0.888c2.193,0.962,3.164,2.665,3.603,6.661c0.376,3.441,2.412,1.369,2.412,3.626
		c0,1.406-1.44,2.886-4.98,2.886c-5.013,0-5.639-3.404-6.61-8.289c-0.345-1.702-0.877-3.367-2.6-3.367
		c-0.689,0-0.94,0.111-0.94,2.442c0,1.073,0.063,2.553,0.22,3.589c0.251,1.702,1.849,1.184,1.849,2.96
		c0,1.332-0.783,2.332-5.858,2.332c-1.504,0-5.952,0-5.952-2.701c0-1.924,2.35-0.592,2.35-5.403V656.242z M557.392,657.87
		c-0.063,0.962-0.219,1.776,0.814,1.776c2.036,0,2.694-1.332,2.694-3.626c0-1.813-0.376-3.663-2.193-3.663
		c-1.158,0-1.127,0.851-1.19,1.998L557.392,657.87z"/>
	<path d="M576.591,656.242c0-5.735-2.381-3.367-2.381-5.662c0-2.035,2.443-2.294,3.696-2.294c0.658,0,1.285,0.074,1.942,0.111
		c0.627,0.074,1.284,0.148,1.911,0.148c1.002,0,2.005-0.074,3.038-0.148c1.003-0.037,2.037-0.111,3.039-0.111
		c3.54,0,7.644,1.85,7.644,6.771c0,2.22-0.908,4.366-2.663,5.365c-0.281,0.185-0.501,0.296-0.501,0.74
		c0,0.555,0.407,0.703,0.783,0.888c2.193,0.962,3.164,2.665,3.603,6.661c0.376,3.441,2.412,1.369,2.412,3.626
		c0,1.406-1.44,2.886-4.98,2.886c-5.013,0-5.639-3.404-6.61-8.289c-0.345-1.702-0.877-3.367-2.6-3.367
		c-0.689,0-0.94,0.111-0.94,2.442c0,1.073,0.063,2.553,0.22,3.589c0.251,1.702,1.849,1.184,1.849,2.96
		c0,1.332-0.783,2.332-5.858,2.332c-1.504,0-5.952,0-5.952-2.701c0-1.924,2.35-0.592,2.35-5.403V656.242z M583.858,657.87
		c-0.063,0.962-0.219,1.776,0.814,1.776c2.036,0,2.694-1.332,2.694-3.626c0-1.813-0.376-3.663-2.193-3.663
		c-1.158,0-1.127,0.851-1.19,1.998L583.858,657.87z"/>
	<path d="M603.277,659.683c0-4.699-0.313-5.772-0.658-6.29c-0.721-1.073-1.942-1.184-1.942-2.59c0-2.664,6.391-2.664,7.018-2.664
		c1.879,0,5.732,0.074,5.732,2.59c0,1.333-1.19,1.258-1.911,2.22c-0.595,0.814-0.626,4.145-0.626,6.734v3.664
		c0,6.586,0.375,6.438,1.002,6.882c0.783,0.555,1.535,0.74,1.535,1.887c0,1.11-0.282,2.775-7.143,2.775
		c-1.315,0-5.263-0.037-5.263-2.405c0-1.184,1.065-1.369,1.566-2.072c0.376-0.518,0.689-1.887,0.689-7.067V659.683z"/>
	<path d="M630.372,648.545c1.347,0,1.974-0.148,2.443-0.259c0.438-0.148,0.689-0.259,1.284-0.259c1.222,0,3.76,2.85,3.76,6.846
		c0,1.85-0.814,3.071-2.412,3.071c-2.726,0-2.694-4.366-4.292-4.366c-1.222,0-1.097,1.998-1.097,2.294v11.36
		c0,4.403,2.882,2.294,2.882,4.884c0,1.147-0.595,2.775-6.453,2.775c-1.598,0-7.455,0.074-7.455-2.775
		c0-1.961,1.941-1.184,2.568-2.59c0.313-0.777,0.438-2.997,0.47-3.922l0.251-8.178c0.125-3.885-0.533-3.848-0.972-3.848
		c-1.409,0-2.099,4.366-4.636,4.366c-1.222,0-1.942-1.332-1.942-2.664c0-3.146,2.256-7.253,4.041-7.253
		c0.22,0,0.563,0.111,1.159,0.259c0.595,0.111,1.441,0.259,2.694,0.259H630.372z"/>
	<path d="M639.517,661.422c0-7.844,5.294-13.395,12.123-13.395c8.646,0,11.967,8.992,11.967,13.765
		c0,7.956-5.952,13.21-12.343,13.21C644.654,675.002,639.517,669.304,639.517,661.422z M650.199,653.541
		c-1.755,0-2.632,2.146-2.632,3.959c0,3.146,1.88,11.989,5.263,11.989c1.911,0,2.726-1.961,2.726-3.959
		C655.556,662.163,653.864,653.541,650.199,653.541z"/>
	<path d="M668.333,659.683c0-4.699-0.313-5.772-0.658-6.29c-0.721-1.073-1.942-1.184-1.942-2.59c0-2.664,6.391-2.664,7.018-2.664
		c1.879,0,5.732,0.074,5.732,2.59c0,1.333-1.19,1.258-1.911,2.22c-0.595,0.814-0.626,4.145-0.626,6.734v3.664
		c0,6.586,0.376,6.438,1.002,6.882c0.783,0.555,1.535,0.74,1.535,1.887c0,1.11-0.282,2.775-7.143,2.775
		c-1.315,0-5.263-0.037-5.263-2.405c0-1.184,1.065-1.369,1.566-2.072c0.376-0.518,0.689-1.887,0.689-7.067V659.683z"/>
	<path d="M682.646,656.242c0-5.735-2.381-3.367-2.381-5.662c0-2.035,2.443-2.294,3.696-2.294c0.658,0,1.285,0.074,1.942,0.111
		c0.627,0.074,1.284,0.148,1.911,0.148c1.002,0,2.005-0.074,3.039-0.148c1.002-0.037,2.036-0.111,3.038-0.111
		c3.54,0,7.644,1.85,7.644,6.771c0,2.22-0.908,4.366-2.662,5.365c-0.282,0.185-0.502,0.296-0.502,0.74
		c0,0.555,0.407,0.703,0.783,0.888c2.193,0.962,3.164,2.665,3.603,6.661c0.376,3.441,2.412,1.369,2.412,3.626
		c0,1.406-1.44,2.886-4.98,2.886c-5.013,0-5.639-3.404-6.61-8.289c-0.345-1.702-0.877-3.367-2.6-3.367
		c-0.689,0-0.94,0.111-0.94,2.442c0,1.073,0.063,2.553,0.22,3.589c0.251,1.702,1.849,1.184,1.849,2.96
		c0,1.332-0.783,2.332-5.858,2.332c-1.504,0-5.952,0-5.952-2.701c0-1.924,2.35-0.592,2.35-5.403V656.242z M689.914,657.87
		c-0.063,0.962-0.219,1.776,0.814,1.776c2.036,0,2.694-1.332,2.694-3.626c0-1.813-0.376-3.663-2.193-3.663
		c-1.158,0-1.127,0.851-1.19,1.998L689.914,657.87z"/>
	<path d="M719.67,648.545c4.198,0,4.793-0.74,5.295-0.74c1.785,0,2.537,3.626,2.537,5.254c0,1.221-0.407,2.664-1.629,2.664
		c-2.475,0-0.47-3.552-6.422-3.552c-3.478,0-3.133,0.74-3.133,4.995c0,2.146,0.094,2.22,2.005,2.22c2.381,0,0.595-4.107,2.819-4.107
		c1.817,0,1.942,4.181,1.942,5.624c0,1.517-0.22,5.958-2.099,5.958c-1.942,0,0-3.885-3.164-3.885c-1.316,0-1.284,1.406-1.284,2.59
		c0,5.402,0.313,5.143,3.603,5.143c6.422,0,4.604-5.217,7.173-5.217c1.003,0,1.504,1.332,1.504,2.368
		c0,2.516-1.691,7.031-2.944,7.031c-0.22,0-0.721-0.111-1.379-0.222c-0.688-0.074-1.566-0.185-2.631-0.185h-12.875
		c-2.067,0-2.1-1.11-2.1-1.591c0-2.035,2.131-0.407,2.35-4.329c0.376-6.734,0.407-6.068,0.095-12.766
		c-0.22-5.661-2.601-2.738-2.601-5.365c0-2.257,2.632-1.887,3.916-1.887H719.67z"/>
	<path d="M731.195,656.649c0-3.848,3.133-8.622,9.21-8.622c2.005,0,4.261,1.036,4.73,1.036c0.438,0,0.877-0.518,1.535-0.518
		c1.064,0,3.445,2.85,3.445,5.958c0,1.258-0.688,2.516-1.848,2.516c-2.1,0-3.321-4.218-6.579-4.218c-0.971,0-2.005,0.518-2.005,1.85
		c0,2.923,4.292,2.146,7.926,4.996c1.942,1.517,2.913,3.367,2.913,6.142c0,4.33-3.007,9.214-10.306,9.214
		c-2.068,0-5.607-0.629-7.394-1.776c-1.504-0.999-2.224-4.921-2.224-6.808c0-0.999,0.376-1.999,1.315-1.999
		c2.224,0,1.849,5.884,7.612,5.884c0.689,0,2.412-0.407,2.412-1.813c0-2.664-4.292-1.998-7.769-5.291
		C732.448,661.57,731.195,659.313,731.195,656.649z"/>
</g>
<g>
	<path fill="#C1D11A" d="M422.016,428.665c4.408-20.76-8.852-41.162-29.611-45.57c-20.768-4.408-41.175,8.848-45.581,29.607
		c-4.409,20.764,8.852,41.172,29.619,45.58C397.203,462.688,417.608,449.43,422.016,428.665z"/>
</g>
<g>
	<path d="M275.26,318.829c1.369-5.969-2.941-3.845-2.139-7.625c0.568-2.675,3.512-2.476,5.234-2.109l16.053,3.407
		c13.689,2.906,16.047,13.859,13.824,24.327c-2.295,10.816-9.824,19.853-22.281,17.208c-2.117-0.449-3.879-0.884-5.379-1.323
		c-1.516-0.382-2.832-0.723-4.211-1.016c-1.379-0.292-2.818-0.537-4.211-0.772c-1.402-0.177-2.793-0.411-4.221-0.715
		c-1.676-0.355-3.582-1.793-3.088-4.117c0.889-4.188,3.791,1.289,5.74-7.169L275.26,318.829z M282.561,342.622
		c-0.631,2.966-0.496,4.271,2.162,4.835c6.205,1.316,8.881-5.955,10.115-11.77c2.889-13.608-0.986-16.679-4.779-17.484
		c-2.068-0.438-2.426,0.519-2.895,2.729L282.561,342.622z"/>
	<path fill="#913B8E" d="M343.934,333.955c1.32-6.223-3.422-4.738-2.705-8.11c0.766-3.605,6.453-2.276,8.473-1.849
		c1.871,0.398,7.287,1.548,6.57,4.921c-0.691,3.257-3.965,0.495-5.088,5.787l-3.332,15.701c-0.557,2.616-3.471,16.584-20.508,12.967
		c-19.4-4.118-13.48-21.337-13.332-22.034l2.852-13.434c0.973-3.621-2.375-4.332-1.807-7.008c0.174-0.814,0.322-4.186,10.467-2.032
		c8.025,1.704,9.279,3.793,8.797,6.062c-0.889,4.187-3.654-0.473-5.406,6.57l-2.271,10.699c-1.469,6.92-0.193,11.811,5.027,12.918
		c7.781,1.652,9.053-6.039,9.189-6.679L343.934,333.955z"/>
	<path d="M360.826,339.668c1.914-9.014-2.617-6.086-1.852-9.691c0.68-3.198,4.605-2.79,6.574-2.372
		c1.035,0.22,1.996,0.545,3.016,0.823c0.961,0.325,1.971,0.66,2.955,0.869c1.576,0.335,3.176,0.554,4.826,0.782
		c1.588,0.276,3.238,0.505,4.814,0.839c5.563,1.182,11.396,5.458,9.756,13.192c-0.742,3.489-2.887,6.56-5.977,7.544
		c-0.506,0.197-0.887,0.298-1.035,0.996c-0.186,0.872,0.406,1.24,0.934,1.656c3.127,2.244,4.086,5.243,3.441,11.67
		c-0.557,5.534,3.334,2.957,2.582,6.504c-0.469,2.211-3.229,4.055-8.793,2.873c-7.877-1.672-7.727-7.23-7.623-15.23
		c0.025-2.791-0.256-5.585-2.965-6.16c-1.082-0.229-1.514-0.139-2.291,3.524c-0.359,1.687-0.754,4.033-0.854,5.714
		c-0.174,2.759,2.51,2.478,1.918,5.27c-0.445,2.093-2.008,3.402-9.986,1.709c-2.363-0.502-9.355-1.986-8.453-6.231
		c0.641-3.024,3.889-0.146,5.494-7.706L360.826,339.668z M371.709,344.652c-0.42,1.491-0.939,2.718,0.686,3.063
		c3.201,0.68,4.68-1.194,5.445-4.8c0.605-2.85,0.631-5.882-2.225-6.488c-1.822-0.387-2.057,0.961-2.537,2.743L371.709,344.652z"/>
	<path d="M406.414,357.368c2.379-3.688,5.482-8.377,6.459-12.972c0.852-4.013,3.068-6.702,7.451-5.771
		c4.283,0.909,5.893,6.66,7,10.906c0.477,1.863,4.137,21.236,4.896,26.381c0.688,4.766,3.914,2.654,3.211,5.969
		c-0.902,4.245-7.857,2.587-10.32,2.064c-7.041-1.495-11.264-2.452-10.498-6.058c0.594-2.792,3.375-1.107,3.807-3.143
		c0.555-2.617-0.627-3.11-8.555-4.794c-2.561-0.543-4.111-0.751-4.717,2.099c-0.48,2.268,2.99,1.425,2.35,4.448
		c-0.742,3.49-6.07,2.419-8.041,2.001c-7.041-1.495-7.348-3.201-6.953-5.062c0.58-2.733,3.066-1.355,4.939-3.146
		c1.416-1.34,3.043-3.912,4.178-5.616L406.414,357.368z M415.865,363.75c0.492,0.104,1.945,0.534,2.131-0.338
		c0.184-0.873-0.602-4.199-0.822-5.098c-0.246-1.023-0.625-3.354-1.709-3.583c-1.182-0.251-2.762,3.061-3.094,3.657
		c-0.332,0.599-1.65,2.689-1.799,3.387c-0.209,0.989,1.057,1.075,1.6,1.19L415.865,363.75z"/>
	<path fill="#913B8E" d="M472.084,367.723c-0.541,0.371-1.059,0.627-1.219,1.383s0.332,1.104,0.762,1.498
		c1.822,1.359,4.664,5.184,3.627,10.068c-1.234,5.816-6.053,12.268-15.949,10.166c-1.674-0.355-3.189-0.737-4.643-1.167
		c-1.465-0.371-2.93-0.743-4.455-1.067c-1.674-0.355-3.41-0.663-5.098-0.96c-1.699-0.24-3.385-0.537-5.107-0.903
		c-1.527-0.324-3.029-1.735-2.596-3.771c0.764-3.604,3.188,0.738,5.533-8.854l4.096-16.633c2.16-8.718-2.926-5.604-2.074-9.617
		c0.469-2.209,2.709-2.827,4.236-2.503c1.822,0.387,3.619,0.89,5.428,1.335c1.799,0.503,3.596,1.006,5.418,1.393
		c1.182,0.25,2.338,0.375,3.496,0.499c1.145,0.183,2.352,0.317,3.482,0.558c9.012,1.912,10.252,7.463,9.303,11.941
		C475.756,363.762,474.215,366.413,472.084,367.723z M455.287,376.313c-1.432,6.745-0.535,7.118,0.992,7.442
		c2.807,0.596,4.273-1.464,4.914-4.487c0.754-3.547,0.533-6.875-2.912-7.607c-1.527-0.323-2.068,0.533-2.377,1.744L455.287,376.313z
		 M458.299,362.123c-0.48,2.268-0.814,3.352,0.711,3.676c2.955,0.627,4.162-1.669,4.842-4.867c0.555-2.617,0.508-6.03-2.199-6.605
		c-1.824-0.387-1.996,1.4-2.354,3.086L458.299,362.123z"/>
	<path d="M480.141,394.958c-1.576-0.335-4.113-0.751-3.545-3.427c0.766-3.605,3.963,0.234,5.545-6.48
		c1-4.224,1.789-7.945,2.518-11.376c0.74-3.49,1.186-6.799,1.777-10.076c0.939-4.905-3.936-3.267-3.232-6.581
		c0.9-4.245,8.682-2.837,11.094-2.325c9.848,2.091,9.92,4.173,9.5,6.15c-0.715,3.372-4.063-0.012-5.223,5.454l-3.926,18.492
		c-0.889,4.188-0.73,6.349,2.766,7.09c8.371,1.777,7.232-6.912,10.383-6.243c2.215,0.471,2.461,3.439,1.992,5.649
		c-0.963,4.536-4.955,9.766-7.221,9.285c-0.887-0.188-1.527-0.567-2.377-0.93c-0.885-0.431-1.932-0.836-3.605-1.191L480.141,394.958
		z"/>
	<path d="M538.523,364.75c6.598,1.4,7.779,0.436,8.566,0.604c2.807,0.596,2.779,6.546,2.236,9.104
		c-0.408,1.919-1.529,4.051-3.449,3.644c-3.891-0.826,0.447-5.739-8.908-7.726c-5.467-1.161-5.172,0.117-6.592,6.805
		c-0.717,3.373-0.592,3.521,2.41,4.159c3.744,0.794,2.307-6.257,5.803-5.515c2.855,0.606,1.656,7.22,1.176,9.487
		c-0.506,2.385-2.332,9.289-5.287,8.662c-3.053-0.648,1.297-6.106-3.678-7.162c-2.068-0.439-2.486,1.781-2.881,3.642
		c-1.803,8.491-1.225,8.188,3.945,9.286c10.096,2.143,8.98-6.663,13.018-5.806c1.576,0.335,1.92,2.595,1.574,4.224
		c-0.84,3.954-5.006,10.484-6.975,10.066c-0.346-0.073-1.096-0.416-2.092-0.81c-1.061-0.346-2.402-0.813-4.076-1.169l-20.238-4.296
		c-3.25-0.69-2.93-2.445-2.768-3.201c0.678-3.198,3.484,0.071,5.137-6.021c2.838-10.457,2.666-9.4,4.408-20.03
		c1.543-8.971-3.174-5.171-2.297-9.3c0.752-3.547,4.766-2.088,6.783-1.659L538.523,364.75z"/>
</g>
<g>
	<g>
		
			<rect x="271.01" y="275.567" transform="matrix(0.9782 0.2077 -0.2077 0.9782 78.5974 -85.2097)" fill="none" width="348.271" height="112.364"/>
		<path fill="#913B8E" d="M337.305,295.656c-0.504,2.373-0.438,3.626,1.445,5.266c1.396,1.205,2.402,1.915,1.982,3.893
			c-0.402,1.897-1.4,5.818-16.979,2.511c-3.479-0.739-13.584-2.966-12.459-8.265c0.975-6.156,5.4,1.808,8.809-14.246
			c0.906-4.27-0.076-4.313-4.029-5.152c-11.072-2.35-10.111-1.816-11.621,5.302c-2.301,10.833,3.525,7.525,2.434,12.665
			c-1.176,5.535-12.787,3.4-16.584,2.595c-3.637-0.771-14.563-3.422-13.42-8.799c0.352-1.66,1.758-2.437,3.234-2.784
			c3.133-0.74,4.111-0.285,7.619-16.813c4.465-21.035,3.779-19.362,1.189-21.564c-1.051-0.885-2.324-1.898-1.988-3.48
			c1.293-6.088,14.633-3.917,19.063-2.977c3.32,0.704,12.41,3.047,11.402,7.791c-0.52,2.452-2.049,3.036-4.104,3.758
			c-2.211,0.687-2.887,1.535-4.381,8.573c-0.939,4.429,1.232,4.312,5.027,5.117l4.033,0.856c5.221,1.107,5.23,0.283,5.75-2.168
			c1.83-8.62,0.604-9.458-0.307-10.23c-1.318-1.188-2.59-2.203-2.154-4.259c0.32-1.503,0.943-5.997,16.68-2.657
			c3.717,0.789,14.217,3.101,13.043,8.636c-0.369,1.74-1.492,2.741-3.24,3.197c-2.592,0.524-3.41,0.103-6.08,12.676L337.305,295.656
			z"/>
		<path stroke="#000000" stroke-miterlimit="10" d="M350.902,283.006c3.559-16.764,19.441-25.789,36.68-22.129
			c21.826,4.633,26.129,25.629,23.963,35.83c-3.609,17.002-21.018,25.041-37.15,21.616
			C357.709,314.781,347.326,299.85,350.902,283.006z M381.441,271.888c-4.428-0.94-7.615,3.176-8.438,7.051
			c-1.426,6.722-0.695,26.629,7.846,28.441c4.824,1.024,7.771-2.73,8.678-7.001C391.055,293.184,390.695,273.852,381.441,271.888z"
			/>
		<path stroke="#000000" stroke-miterlimit="10" d="M427.184,283.002c1.26-5.931-6.648-4.882-5.592-9.864
			c0.672-3.163,4.303-3.136,6.754-2.615c1.977,0.419,3.842,0.98,5.818,1.4c11.467,2.435,18.66,2.804,21.982,3.509
			c10.754,2.283,19.787,10.729,17.27,22.592c-2.502,11.782-13.809,15.993-24.801,13.66c-2.373-0.504-4.66-1.402-6.795-1.855
			c-0.949-0.202-1.35,0.126-1.535,0.996l-0.973,4.586c-1.861,9.936,4.785,7.049,3.811,11.636c-1.092,5.14-12.529,2.96-16.088,2.204
			c-3.32-0.705-15.008-3.268-13.916-8.408c0.924-4.35,6.125-0.436,7.502-6.92L427.184,283.002z M449.182,283.705
			c-3.082-0.654-3.205,0.312-3.541,1.893l-2.518,11.863c-0.354,1.66-1.451,3.327,2.818,4.234c5.221,1.107,8.115-2.41,9.139-7.234
			C456.139,289.479,454.48,284.83,449.182,283.705z"/>
	</g>
</g>
<path fill-rule="evenodd" clip-rule="evenodd" d="M236.828,415.725c14.598,46.574,49.398,86.359,98.387,105.537
	c67.162,26.291,141.051,6.049,186.081-45.146l0,0L236.828,415.725L236.828,415.725z"/>
<path fill-rule="evenodd" clip-rule="evenodd" fill="none" stroke="#000000" stroke-width="19" stroke-miterlimit="10" d="
	M569.438,433.819c-37.489,95.768-145.514,143.014-241.277,105.527c-95.763-37.488-143.005-145.512-105.521-241.277
	c37.488-95.766,145.508-143.006,241.271-105.52C559.675,230.036,606.925,338.055,569.438,433.819z"/>
<g id="XMLID_17_">
	<g>
		<path fill="#C1D11A" d="M502.503,292.536c-10.012,14.654-21.322,30.708-28.724,41.519c-9.058,13.224-18.731,5.043-8.294-8.197
			c10.041-12.743,19.463-28.002,28.36-41.651c0.596-0.912,0.828-2.407,0.561-3.474c-77.932-104.581,21.354-164.672,30.293-176.869
			c40.943-45.585,35.169-61.996,37.505-64.761c58.616,79.376,95.271,206.664,2.563,253.994
			c-12.038,9.691-42.485,10.689-53.396,10.968l-1.939-2.52c6.288-8.363,26.245-36.135,43.973-84.021
			c11.296-30.533,5.998-51.605,6.106-55.299c-0.205-0.017-0.402-0.021-0.607-0.038c-0.072,0.478-0.158,0.963-0.196,1.438
			c-0.839,11.386-3.049,22.482-6.349,33.357c-4.438,14.637-10.41,28.613-17.318,42.186c-7.813,15.344-16.784,29.977-26.362,44.251
			C506.708,286.351,504.641,289.414,502.503,292.536z"/>
		<path fill="#FFFFFF" d="M559.511,162.225c-0.108,3.694,5.189,24.766-6.106,55.299c-17.728,47.886-37.685,75.658-43.973,84.021
			l-6.929-9.009c2.138-3.123,4.205-6.185,6.175-9.117c9.578-14.275,18.55-28.907,26.362-44.251
			c6.908-13.572,12.881-27.549,17.318-42.186c3.3-10.875,5.51-21.971,6.349-33.357c0.038-0.475,0.124-0.96,0.196-1.438
			C559.108,162.204,559.306,162.208,559.511,162.225z"/>
		<path fill="#C1D11A" d="M509.432,301.545l1.939,2.52c-2.237,0.06-3.664,0.086-3.923,0.155
			C507.535,304.044,508.235,303.158,509.432,301.545z"/>
	</g>
</g>
<g>
	<path fill="#913B8E" d="M437.808,423.121l8.894,1.58c0.375,0.066,0.625,0.424,0.559,0.799c-0.066,0.375-0.424,0.625-0.799,0.558
		c-0.02-0.003-0.039-0.008-0.057-0.013l-0.057-0.015l-8.694-2.329c-0.159-0.043-0.255-0.207-0.212-0.367
		c0.041-0.151,0.189-0.244,0.341-0.218L437.808,423.121z"/>
	<path fill="#913B8E" d="M455.587,426.536c0.001,0,2.206,0.485,4.397,1.017c2.191,0.526,4.385,1.053,4.385,1.053
		c0.7,0.168,1.131,0.872,0.963,1.572c-0.168,0.701-0.871,1.132-1.572,0.964c-0.023-0.006-0.047-0.012-0.07-0.02l-0.076-0.023
		l-8.615-2.621c-0.535-0.163-0.837-0.729-0.674-1.264c0.154-0.508,0.673-0.807,1.184-0.696L455.587,426.536z"/>
	<path fill="#913B8E" d="M473.256,431.048c0,0,0.537,0.173,1.342,0.432c0.801,0.269,1.869,0.628,2.938,0.987
		c0.271,0.097,0.523,0.162,0.809,0.288c0.279,0.113,0.553,0.225,0.817,0.333c0.53,0.218,1.026,0.421,1.45,0.596
		c0.852,0.353,1.418,0.587,1.418,0.587c0.914,0.379,1.349,1.428,0.97,2.342c-0.38,0.914-1.428,1.348-2.342,0.969
		c-0.021-0.009-0.04-0.018-0.061-0.026l-0.227-0.105c0,0-0.505-0.234-1.263-0.585c-0.379-0.176-0.82-0.381-1.294-0.6
		s-0.972-0.464-1.505-0.656c-2.098-0.817-4.195-1.634-4.195-1.634c-0.809-0.314-1.208-1.225-0.894-2.033
		c0.303-0.777,1.156-1.177,1.94-0.926L473.256,431.048z"/>
	<path fill="#913B8E" d="M479.7,444.883c0,0-0.562,0.036-1.405,0.088c-0.42,0.027-0.912,0.058-1.439,0.091
		c-0.263,0.017-0.535,0.034-0.812,0.051c-0.27,0.025-0.587,0.008-0.88,0.009c-2.4-0.029-4.801-0.059-4.801-0.059
		c-1.209-0.015-2.177-1.006-2.162-2.215c0.016-1.208,1.007-2.176,2.215-2.161c0.021,0,0.043,0,0.064,0.001l0.166,0.008
		c0,0,2.232,0.103,4.463,0.206c0.557,0.04,1.119,0.023,1.646,0.014c0.527-0.008,1.02-0.016,1.441-0.022
		c0.844-0.013,1.406-0.022,1.406-0.022c1.107-0.017,2.02,0.867,2.037,1.975c0.016,1.074-0.814,1.964-1.875,2.033L479.7,444.883z"/>
	<path fill="#913B8E" d="M461.162,444.549l-8.967-0.77c-1.376-0.118-2.396-1.33-2.277-2.706s1.33-2.396,2.705-2.278
		c0.025,0.002,0.051,0.005,0.076,0.008l0.082,0.01l8.93,1.08c1.285,0.155,2.201,1.323,2.046,2.608
		c-0.151,1.256-1.272,2.16-2.522,2.054L461.162,444.549z"/>
	<path fill="#913B8E" d="M443.097,442.725l-8.922-1.188c-1.483-0.197-2.526-1.56-2.329-3.044c0.197-1.483,1.561-2.526,3.045-2.329
		c0.014,0.002,0.029,0.004,0.045,0.006l0.059,0.009l8.893,1.381c1.425,0.221,2.4,1.556,2.18,2.981
		c-0.219,1.405-1.52,2.374-2.922,2.188L443.097,442.725z"/>
	<path fill="#913B8E" d="M425.166,440.232c0,0-2.224-0.344-4.447-0.688c-2.219-0.372-4.438-0.745-4.438-0.745
		c-1.566-0.263-2.623-1.746-2.359-3.312c0.262-1.566,1.745-2.623,3.312-2.36l0.024,0.004l0.012,0.002l8.862,1.566
		c1.526,0.27,2.546,1.727,2.276,3.253c-0.267,1.506-1.688,2.518-3.19,2.286L425.166,440.232z"/>
	<path fill="#913B8E" d="M407.339,437.221l-8.851-1.633c-1.604-0.296-2.664-1.836-2.369-3.439c0.297-1.604,1.836-2.664,3.44-2.368
		l0.024,0.004l0.014,0.002l8.836,1.709c1.58,0.306,2.613,1.834,2.309,3.415c-0.305,1.572-1.818,2.602-3.389,2.313L407.339,437.221z"
		/>
	<path fill="#913B8E" d="M389.574,433.876c0,0-2.208-0.433-4.406-0.912c-2.201-0.469-4.401-0.938-4.401-0.938l-0.015-0.003
		c-1.605-0.342-2.629-1.919-2.287-3.523c0.34-1.597,1.905-2.618,3.502-2.291l8.815,1.807c1.618,0.332,2.661,1.913,2.33,3.531
		c-0.33,1.609-1.896,2.65-3.505,2.335L389.574,433.876z"/>
	<path fill="#913B8E" d="M371.903,430.075l-8.776-2l-0.012-0.002c-1.559-0.355-2.533-1.906-2.179-3.463
		c0.353-1.549,1.89-2.522,3.438-2.184l8.793,1.924l0.014,0.003c1.581,0.346,2.582,1.909,2.236,3.49s-1.908,2.583-3.49,2.237
		L371.903,430.075z"/>
	<path fill="#913B8E" d="M354.287,425.989l-8.718-2.25l-0.046-0.012c-1.474-0.38-2.359-1.882-1.98-3.356
		c0.375-1.453,1.846-2.334,3.299-1.994l8.764,2.06l0.048,0.012c1.534,0.36,2.485,1.896,2.124,3.43
		c-0.36,1.534-1.896,2.485-3.43,2.125C354.332,426,354.303,425.992,354.287,425.989z"/>
	<path fill="#913B8E" d="M336.79,421.394l-8.696-2.417l-0.025-0.007c-1.362-0.378-2.16-1.79-1.781-3.153
		c0.373-1.344,1.754-2.137,3.1-1.795l8.719,2.222l0.053,0.013c1.422,0.363,2.282,1.81,1.92,3.232
		c-0.363,1.422-1.811,2.282-3.232,1.919C336.831,421.405,336.805,421.397,336.79,421.394z"/>
	<path fill="#913B8E" d="M319.369,416.353l-8.576-2.755l-0.063-0.021c-1.191-0.382-1.846-1.658-1.464-2.848
		c0.374-1.164,1.606-1.815,2.773-1.485l8.661,2.457l0.068,0.019c1.285,0.365,2.033,1.703,1.668,2.989s-1.703,2.033-2.989,1.668
		C319.425,416.37,319.392,416.359,319.369,416.353z"/>
	<path fill="#913B8E" d="M302.051,410.583l-8.361-3.357l-0.063-0.025c-0.973-0.391-1.445-1.497-1.055-2.471
		c0.379-0.945,1.438-1.416,2.389-1.086l8.502,2.963l0.068,0.024c1.102,0.384,1.683,1.587,1.299,2.688s-1.588,1.682-2.688,1.298
		C302.113,410.607,302.078,410.594,302.051,410.583z"/>
	<path fill="#913B8E" d="M284.813,402.41c0,0-0.105-0.095-0.287-0.261c-0.041-0.033-0.307-0.284-0.557-0.56
		c-0.123-0.131-0.254-0.28-0.398-0.494c-0.066-0.102-0.135-0.206-0.206-0.313c-0.067-0.11-0.13-0.199-0.218-0.404
		c-0.081-0.18-0.154-0.37-0.217-0.565l-0.085-0.296c-0.026-0.139-0.046-0.286-0.058-0.434c-0.024-0.297-0.019-0.606,0.018-0.903
		c0.057-0.304,0.158-0.625,0.293-0.926c0.066-0.146,0.146-0.309,0.223-0.425c0.07-0.102,0.146-0.203,0.227-0.301
		c0.16-0.198,0.339-0.387,0.528-0.558c0.269-0.206,0.595-0.424,0.868-0.564c0.234-0.107,0.476-0.209,0.721-0.302
		c0.202-0.055,0.406-0.111,0.612-0.168c0.397-0.095,0.753-0.15,1.106-0.198c0.334-0.034,0.688-0.083,0.994-0.093
		c0.314-0.016,0.633-0.042,0.917-0.042c0.584-0.016,1.113-0.011,1.563-0.001c0.897,0.021,1.483,0.053,1.483,0.053l0.057,0.003
		c0.795,0.042,1.404,0.721,1.362,1.516c-0.04,0.757-0.663,1.346-1.409,1.364c0,0-0.558,0.012-1.395,0.029
		c-0.834,0.026-1.95,0.092-3.026,0.273c-0.267,0.05-0.532,0.105-0.781,0.175c-0.253,0.068-0.481,0.157-0.685,0.257
		c-0.095,0.054-0.17,0.114-0.254,0.166c-0.031,0.063-0.126,0.112-0.121,0.165c-0.065,0.084-0.014,0.196,0.037,0.331
		c0.077,0.129,0.163,0.269,0.271,0.367c0.102,0.104,0.182,0.197,0.287,0.276c0.189,0.157,0.299,0.247,0.299,0.247l0.045,0.038
		c0.719,0.595,0.818,1.661,0.224,2.379c-0.595,0.719-1.661,0.819-2.38,0.224C284.854,402.446,284.83,402.426,284.813,402.41z"/>
	<path fill="#913B8E" d="M301.529,395.597c0,0,2.227,0.347,4.45,0.731c2.224,0.375,4.448,0.75,4.448,0.75l0.061,0.01
		c0.469,0.079,0.785,0.523,0.706,0.993c-0.075,0.448-0.487,0.756-0.933,0.714l-8.957-0.86l-0.068-0.006
		c-0.646-0.063-1.12-0.636-1.059-1.283c0.063-0.646,0.637-1.12,1.283-1.058C301.482,395.59,301.508,395.594,301.529,395.597z"/>
	<path fill="#913B8E" d="M319.322,398.887l4.746,1.072l0.023,0.006c0.161,0.036,0.263,0.197,0.227,0.358
		c-0.035,0.152-0.182,0.251-0.334,0.231l-4.803-0.661l-0.041-0.006c-0.279-0.038-0.473-0.295-0.436-0.573
		c0.039-0.278,0.295-0.473,0.574-0.435C319.293,398.881,319.309,398.884,319.322,398.887z"/>
</g>
<g>
	
		<rect x="255.948" y="461.528" transform="matrix(0.9782 0.2077 -0.2077 0.9782 114.854 -64.8193)" fill="none" width="220.447" height="106.257"/>
	<path fill="#FFFFFF" d="M287.357,443.044c2.359,0.501,3.52,2.5,4.146,2.633c0.529,0.112,0.725-0.097,1.133-0.01
		c1.012,0.215,1.855,2.647,1.049,6.448c-0.416,1.952-1.584,3.422-3.004,3.121c-2.48-0.527-0.566-6.455-4.852-7.365
		c-1.855-0.393-3.148,1.908-3.549,3.791c-1.074,5.068-0.09,9.787,3.281,10.503c3.059,0.649,4.018-1.617,4.764-1.459
		c0.697,0.148,0.787,1.385,0.605,2.24c-0.32,1.507-2.096,4.422-3.299,4.166c-0.818-0.173-2.928,1.455-5.768,0.852
		c-5.055-1.073-7.99-7.636-6.529-14.519C276.826,446.426,282.613,442.037,287.357,443.044z"/>
	<path fill="#FFFFFF" d="M293.533,457.308c1.541-7.259,6.699-11.53,11.947-10.416c6.646,1.41,7.432,10.272,6.494,14.69
		c-1.563,7.361-7.17,11.252-12.08,10.209C294.814,470.713,291.986,464.602,293.533,457.308z M303.291,451.758
		c-1.348-0.287-2.443,1.556-2.799,3.234c-0.619,2.91-0.912,11.4,1.688,11.953c1.471,0.312,2.482-1.371,2.875-3.219
		C305.715,460.609,306.107,452.355,303.291,451.758z"/>
	<path fill="#FFFFFF" d="M313.223,461.488c1.541-7.259,6.701-11.531,11.949-10.417c6.645,1.411,7.432,10.272,6.492,14.69
		c-1.563,7.361-7.17,11.252-12.08,10.21C314.504,474.893,311.676,468.781,313.223,461.488z M322.98,455.938
		c-1.348-0.286-2.443,1.557-2.799,3.235c-0.619,2.909-0.912,11.4,1.689,11.952c1.469,0.312,2.48-1.371,2.873-3.219
		C325.404,464.79,325.799,456.535,322.98,455.938z"/>
	<path fill="#FFFFFF" d="M336.338,459.381c0.545-2.567-1.934-1.914-1.477-4.07c0.291-1.37,1.414-1.453,2.16-1.295
		c0.604,0.129,1.166,0.32,1.768,0.447c3.492,0.741,5.711,0.712,6.723,0.927c3.275,0.694,5.855,4.068,4.764,9.205
		c-1.082,5.103-4.697,7.197-8.045,6.486c-0.723-0.153-1.406-0.478-2.057-0.615c-0.289-0.062-0.424,0.089-0.502,0.466l-0.422,1.985
		c-0.836,4.296,1.299,2.889,0.877,4.875c-0.473,2.226-3.959,1.592-5.043,1.361c-1.012-0.215-4.568-1.005-4.096-3.23
		c0.4-1.884,1.91-0.346,2.506-3.153L336.338,459.381z M343.137,459.107c-0.938-0.199-1.002,0.217-1.146,0.901l-1.092,5.136
		c-0.152,0.72-0.535,1.461,0.766,1.737c1.588,0.337,2.578-1.242,3.021-3.331C345.143,461.394,344.75,459.45,343.137,459.107z"/>
	<path fill="#FFFFFF" d="M362.453,459.486c3.225,0.686,3.828,0.098,4.213,0.179c1.373,0.292,1.238,3.77,0.918,5.275
		c-0.238,1.131-0.836,2.399-1.775,2.2c-1.902-0.404,0.338-3.363-4.236-4.335c-2.672-0.567-2.553,0.174-3.389,4.111
		c-0.422,1.986-0.365,2.07,1.104,2.382c1.83,0.389,1.266-3.703,2.975-3.341c1.396,0.297,0.672,4.186,0.387,5.521
		c-0.297,1.404-1.338,5.477-2.783,5.17c-1.492-0.316,0.764-3.595-1.668-4.11c-1.012-0.215-1.264,1.091-1.496,2.187
		c-1.061,4.999-0.77,4.811,1.76,5.348c4.934,1.048,4.563-4.077,6.537-3.658c0.77,0.164,0.893,1.478,0.689,2.437
		c-0.494,2.328-2.68,6.229-3.643,6.025c-0.168-0.035-0.533-0.22-1.018-0.43c-0.514-0.181-1.166-0.427-1.986-0.601l-9.895-2.101
		c-1.59-0.337-1.395-1.369-1.301-1.814c0.4-1.884,1.719-0.03,2.656-3.623c1.613-6.171,1.506-5.549,2.58-11.798
		c0.943-5.274-1.459-2.959-0.943-5.389c0.443-2.089,2.393-1.317,3.379-1.107L362.453,459.486z M358.275,455.701
		c0.305-1.438,2.092-1.561,2.287-2.484c0.066-0.309-0.105-0.452-0.025-0.828c0.182-0.856,1.855-0.681,2.24-0.6
		c0.746,0.159,2.865,0.967,2.531,2.543c-0.184,0.855-2.729,3.606-6.004,2.911C358.68,457.11,358.043,456.797,358.275,455.701z"/>
	<path fill="#FFFFFF" d="M370.301,468.596c1.127-5.308-1.168-3.505-0.717-5.627c0.4-1.883,2.328-1.725,3.291-1.52
		c0.506,0.107,0.975,0.277,1.471,0.418c0.467,0.172,0.959,0.348,1.439,0.45c0.771,0.163,1.557,0.258,2.365,0.358
		c0.779,0.129,1.586,0.229,2.357,0.393c2.721,0.578,5.512,2.96,4.545,7.514c-0.436,2.055-1.557,3.893-3.1,4.529
		c-0.254,0.127-0.445,0.193-0.533,0.604c-0.109,0.514,0.176,0.717,0.43,0.949c1.496,1.248,1.908,2.982,1.459,6.751
		c-0.387,3.247,1.584,1.661,1.141,3.75c-0.275,1.301-1.674,2.436-4.395,1.858c-3.852-0.818-3.666-4.07-3.451-8.749
		c0.068-1.631-0.014-3.259-1.338-3.54c-0.529-0.112-0.744-0.05-1.201,2.106c-0.211,0.993-0.453,2.374-0.535,3.358
		c-0.143,1.614,1.188,1.396,0.838,3.04c-0.262,1.232-1.059,2.028-4.959,1.201c-1.156-0.245-4.576-0.972-4.045-3.471
		c0.377-1.78,1.922-0.165,2.867-4.616L370.301,468.596z M375.568,471.287c-0.238,0.881-0.518,1.608,0.275,1.777
		c1.566,0.332,2.332-0.794,2.783-2.916c0.355-1.678,0.432-3.452-0.965-3.748c-0.891-0.189-1.035,0.604-1.309,1.655L375.568,471.287z
		"/>
	<path fill="#FFFFFF" d="M391.729,477.867c1.248-2.204,2.875-5.008,3.449-7.713c0.502-2.362,1.65-3.979,3.793-3.524
		c2.094,0.444,2.77,3.773,3.23,6.232c0.197,1.079,1.609,12.33,1.881,15.321c0.242,2.771,1.877,1.472,1.463,3.424
		c-0.531,2.5-3.928,1.67-5.133,1.415c-3.443-0.731-5.506-1.205-5.055-3.327c0.348-1.644,1.686-0.716,1.939-1.915
		c0.328-1.54-0.246-1.805-4.121-2.628c-1.252-0.266-2.014-0.355-2.369,1.322c-0.283,1.336,1.447,0.772,1.068,2.553
		c-0.436,2.055-3.043,1.536-4.006,1.332c-3.443-0.73-3.561-1.722-3.328-2.816c0.342-1.609,1.541-0.854,2.5-1.939
		c0.727-0.813,1.582-2.348,2.176-3.367L391.729,477.867z M396.262,481.406c0.24,0.051,0.947,0.273,1.057-0.24
		s-0.211-2.442-0.303-2.963c-0.1-0.595-0.24-1.948-0.77-2.061c-0.578-0.123-1.424,1.846-1.6,2.201
		c-0.176,0.356-0.869,1.604-0.955,2.016c-0.125,0.582,0.5,0.607,0.764,0.663L396.262,481.406z"/>
	<path fill="#FFFFFF" d="M420.293,471.766c1.035,0.22,1.547,0.185,1.93,0.159c0.365-0.066,0.58-0.128,1.037-0.03
		c0.939,0.199,2.33,3.25,1.545,6.947c-0.363,1.712-1.229,2.709-2.457,2.448c-2.094-0.444-1.213-4.479-2.441-4.74
		c-0.939-0.2-1.234,1.67-1.293,1.944l-2.232,10.512c-0.863,4.074,1.766,2.593,1.258,4.99c-0.227,1.061-1.004,2.47-5.506,1.514
		c-1.227-0.26-5.744-1.146-5.184-3.783c0.385-1.815,1.725-0.779,2.482-1.979c0.393-0.668,0.926-2.701,1.131-3.552l1.799-7.526
		c0.859-3.576,0.346-3.648,0.01-3.72c-1.082-0.23-2.471,3.698-4.42,3.284c-0.939-0.199-1.232-1.551-0.971-2.783
		c0.617-2.91,3.158-6.342,4.531-6.051c0.168,0.035,0.412,0.193,0.84,0.429c0.436,0.199,1.057,0.475,2.02,0.679L420.293,471.766z"/>
	<path fill="#FFFFFF" d="M426.191,483.788c0.924-4.349,0.895-5.393,0.73-5.929c-0.344-1.109-1.26-1.412-0.984-2.713
		c0.523-2.466,5.436-1.424,5.916-1.321c1.445,0.307,4.393,1.005,3.898,3.333c-0.262,1.232-1.162,0.97-1.906,1.742
		c-0.617,0.657-1.295,3.732-1.803,6.129l-0.721,3.391c-1.293,6.095-0.975,6.02-0.582,6.532c0.494,0.642,1.035,0.936,0.811,1.997
		c-0.219,1.027-0.762,2.521-6.035,1.402c-1.01-0.215-4.037-0.894-3.572-3.085c0.232-1.096,1.088-1.093,1.609-1.661
		c0.393-0.418,0.902-1.634,1.92-6.428L426.191,483.788z"/>
	<path fill="#FFFFFF" d="M434.563,487.247c1.541-7.259,6.701-11.531,11.949-10.417c6.645,1.411,7.432,10.273,6.492,14.69
		c-1.563,7.361-7.17,11.253-12.08,10.21C435.844,500.652,433.016,494.54,434.563,487.247z M444.32,481.696
		c-1.348-0.286-2.443,1.557-2.799,3.235c-0.619,2.909-0.912,11.4,1.689,11.952c1.469,0.312,2.48-1.37,2.873-3.219
		C446.744,490.549,447.139,482.294,444.32,481.696z"/>
	<path fill="#FFFFFF" d="M467.672,490.446c0.215,0.403,0.773,1.561,1.209,1.652c0.602,0.128,0.922-1.271,1.047-1.853
		c0.182-0.856,0.471-2.334,0.445-3.162c-0.031-1.51-1.418-1.268-1.025-3.115c0.465-2.191,2.9-1.568,3.91-1.354
		c1.061,0.225,3.721,0.611,3.219,2.973c-0.414,1.952-1.537,0.963-2.281,2.45c-0.576,1.167-1.025,3.29-1.303,4.591l-1.883,8.869
		c-0.326,1.54-1.176,6.262-2.789,5.919c-0.482-0.103-0.805-0.6-1.07-1.122l-5.426-11.064c-0.244-0.515-0.695-1.471-1.201-1.578
		c-0.746-0.158-1.242,2.063-1.395,2.782c-0.205,0.958-0.449,2.23-0.494,3.151c-0.104,2.268,1.348,1.717,0.99,3.395
		c-0.486,2.294-3.01,1.973-4.141,1.732c-1.107-0.234-3.545-0.967-3.072-3.192c0.385-1.814,1.629-0.8,2.336-2.939
		c0.48-1.437,0.986-3.583,1.314-5.124c0.523-2.465,1.053-4.965,1.313-7.486c0.34-3.506-1.676-2.539-1.24-4.593
		c0.518-2.432,3.736-1.604,4.82-1.375c1.494,0.317,1.729,0.511,2.521,2.109L467.672,490.446z"/>
</g>
<g>
	<g>
		<path fill="#FFFFFF" d="M360.111,505.577c3.912,0.832,7.824,1.662,11.738,2.492c3.145,0.667,4.482-4.152,1.328-4.821
			c-3.912-0.83-7.825-1.661-11.738-2.492C358.295,500.087,356.957,504.907,360.111,505.577L360.111,505.577z"/>
	</g>
</g>
</svg>
