<?xml version="1.0" encoding="utf-8"?>
<!-- Generator: Adobe Illustrator 16.0.0, SVG Export Plug-In . SVG Version: 6.00 Build 0)  -->
<svg version="1.2" baseProfile="tiny" id="Calque_1"
	 xmlns="http://www.w3.org/2000/svg" xmlns:xlink="http://www.w3.org/1999/xlink" x="0px" y="0px" width="704px" height="768px"
	 viewBox="0 0 704 768" xml:space="preserve">
<g>
	<path d="M187.607,632.037c0.063-3.811-2.287-1.961-2.287-4.366c0-1.702,1.816-1.961,2.914-1.961h10.211
		c8.709,0,11.561,6.364,11.561,13.025c0,6.882-3.416,13.358-11.34,13.358c-1.348,0-2.475-0.037-3.447-0.111
		c-0.971-0.037-1.816-0.074-2.693-0.074s-1.785,0.037-2.662,0.074c-0.877,0.074-1.756,0.111-2.664,0.111
		c-1.064,0-2.412-0.629-2.412-2.109c0-2.664,2.475,0.296,2.568-5.106L187.607,632.037z M195.125,645.58
		c0,1.887,0.25,2.665,1.943,2.665c3.947,0,4.635-4.773,4.635-8.474c0-8.659-2.756-10.028-5.168-10.028
		c-1.316,0-1.41,0.629-1.41,2.035V645.58z"/>
	<path d="M215.232,634.738c0-1.369-2.412-1.591-2.412-4.958c0-2.479,1.504-4.33,3.604-4.33c2.254,0,3.727,2.368,3.727,4.885
		c0,4.329-3.445,10.064-5.576,10.064c-0.531,0-1.502-0.444-1.502-1.221C213.072,638.401,215.232,637.069,215.232,634.738z"/>
	<path d="M228.826,638.549c0.971-2.553,2.256-5.81,2.256-8.732c0-2.553,1.002-4.478,3.791-4.478c2.725,0,4.447,3.293,5.67,5.735
		c0.531,1.073,5.262,12.396,6.391,15.43c1.033,2.812,2.725,1.11,2.725,3.219c0,2.701-4.447,2.59-6.014,2.59
		c-4.48,0-7.174-0.037-7.174-2.332c0-1.776,1.91-1.11,1.91-2.405c0-1.666-0.783-1.813-5.826-1.813c-1.629,0-2.6,0.074-2.6,1.887
		c0,1.443,2.004,0.481,2.004,2.405c0,2.22-3.383,2.257-4.637,2.257c-4.479,0-4.887-1-4.887-2.183c0-1.739,1.691-1.221,2.6-2.553
		c0.689-1,1.348-2.775,1.818-3.959L228.826,638.549z M235.404,641.213c0.314,0,1.254,0.074,1.254-0.481s-0.908-2.479-1.158-2.997
		c-0.283-0.592-0.814-1.961-1.504-1.961c-0.752,0-1.285,2.22-1.41,2.627c-0.125,0.407-0.658,1.85-0.658,2.294
		c0,0.629,0.783,0.518,1.127,0.518H235.404z"/>
	<path d="M270.143,636.366c-0.283,0.296-0.564,0.518-0.564,0.999s0.344,0.629,0.658,0.814c1.283,0.592,3.508,2.553,3.508,5.662
		c0,3.7-2.098,8.251-8.395,8.251c-1.066,0-2.037-0.037-2.977-0.111c-0.939-0.037-1.879-0.074-2.852-0.074
		c-1.064,0-2.16,0.037-3.227,0.074c-1.064,0.074-2.129,0.111-3.227,0.111c-0.971,0-2.066-0.666-2.066-1.961
		c0-2.294,2.035,0.037,2.225-6.105l0.344-10.657c0.188-5.587-2.506-3.034-2.506-5.587c0-1.406,1.283-2.072,2.256-2.072
		c1.158,0,2.318,0.074,3.477,0.111c1.158,0.074,2.318,0.148,3.477,0.148c0.752,0,1.473-0.074,2.193-0.148
		c0.721-0.037,1.473-0.111,2.193-0.111c5.732,0,7.205,3.219,7.205,6.068C271.865,633.48,271.27,635.293,270.143,636.366z
		 M261.025,634.738c0,1.443-0.063,2.146,0.908,2.146c1.881,0,2.318-1.554,2.318-3.589c0-1.665-0.469-3.737-2.191-3.737
		c-1.16,0-1.035,1.11-1.035,2.183V634.738z M261.025,643.767c0,4.292,0.596,4.403,1.566,4.403c1.785,0,2.412-1.443,2.412-3.367
		c0-2.257-0.563-4.255-2.756-4.255c-0.971,0-1.191,0.592-1.223,1.369V643.767z"/>
	<path d="M275.84,638.845c0-7.844,5.293-13.395,12.123-13.395c8.646,0,11.967,8.992,11.967,13.765c0,7.956-5.953,13.21-12.344,13.21
		C280.977,652.425,275.84,646.727,275.84,638.845z M286.521,630.964c-1.754,0-2.631,2.146-2.631,3.959
		c0,3.146,1.879,11.989,5.262,11.989c1.912,0,2.727-1.961,2.727-3.959C291.879,639.585,290.188,630.964,286.521,630.964z"/>
	<path d="M304.436,633.665c0-5.735-2.381-3.367-2.381-5.662c0-2.035,2.443-2.294,3.697-2.294c0.658,0,1.285,0.074,1.941,0.111
		c0.627,0.074,1.285,0.148,1.912,0.148c1.002,0,2.004-0.074,3.037-0.148c1.004-0.037,2.037-0.111,3.039-0.111
		c3.541,0,7.645,1.85,7.645,6.771c0,2.22-0.908,4.366-2.664,5.365c-0.281,0.185-0.5,0.296-0.5,0.74c0,0.555,0.406,0.703,0.783,0.888
		c2.193,0.962,3.164,2.665,3.602,6.661c0.377,3.441,2.412,1.369,2.412,3.626c0,1.406-1.439,2.886-4.98,2.886
		c-5.012,0-5.639-3.404-6.609-8.289c-0.346-1.702-0.877-3.367-2.6-3.367c-0.689,0-0.941,0.111-0.941,2.442
		c0,1.073,0.064,2.553,0.221,3.589c0.25,1.702,1.848,1.184,1.848,2.96c0,1.332-0.783,2.332-5.857,2.332
		c-1.504,0-5.953,0-5.953-2.701c0-1.924,2.35-0.592,2.35-5.403V633.665z M311.703,635.293c-0.063,0.962-0.219,1.776,0.814,1.776
		c2.037,0,2.695-1.332,2.695-3.626c0-1.813-0.377-3.663-2.193-3.663c-1.158,0-1.127,0.851-1.191,1.998L311.703,635.293z"/>
	<path d="M331.342,632.037c0.063-3.811-2.287-1.961-2.287-4.366c0-1.702,1.818-1.961,2.914-1.961h10.213
		c8.709,0,11.559,6.364,11.559,13.025c0,6.882-3.414,13.358-11.34,13.358c-1.348,0-2.475-0.037-3.445-0.111
		c-0.971-0.037-1.816-0.074-2.695-0.074c-0.877,0-1.785,0.037-2.662,0.074c-0.877,0.074-1.754,0.111-2.662,0.111
		c-1.066,0-2.412-0.629-2.412-2.109c0-2.664,2.475,0.296,2.568-5.106L331.342,632.037z M338.861,645.58
		c0,1.887,0.25,2.665,1.941,2.665c3.947,0,4.637-4.773,4.637-8.474c0-8.659-2.758-10.028-5.17-10.028
		c-1.314,0-1.408,0.629-1.408,2.035V645.58z"/>
	<path d="M366.922,638.845c0-7.844,5.295-13.395,12.123-13.395c8.646,0,11.967,8.992,11.967,13.765
		c0,7.956-5.951,13.21-12.342,13.21C372.061,652.425,366.922,646.727,366.922,638.845z M377.605,630.964
		c-1.756,0-2.633,2.146-2.633,3.959c0,3.146,1.881,11.989,5.264,11.989c1.91,0,2.725-1.961,2.725-3.959
		C382.961,639.585,381.27,630.964,377.605,630.964z"/>
	<path d="M409.898,634.886c0.375,0.37,1.377,1.443,1.941,1.443c0.783,0,0.814-1.517,0.814-2.146c0-0.925-0.031-2.516-0.281-3.367
		c-0.439-1.554-2.1-0.999-2.1-2.998c0-2.368,3.195-2.257,4.512-2.257c1.379,0,4.793-0.185,4.793,2.368
		c0,2.109-1.66,1.332-2.193,3.034c-0.406,1.332-0.406,3.626-0.406,5.032v9.583c0,1.666,0.188,6.735-1.912,6.735
		c-0.627,0-1.158-0.444-1.629-0.925l-9.68-10.25c-0.439-0.481-1.254-1.369-1.91-1.369c-0.973,0-1.004,2.405-1.004,3.182
		c0,1.036,0.031,2.405,0.221,3.367c0.469,2.368,2.129,1.48,2.129,3.293c0,2.479-3.227,2.701-4.699,2.701
		c-1.439,0-4.666-0.222-4.666-2.627c0-1.961,1.816-1.184,2.129-3.552c0.221-1.591,0.283-3.922,0.283-5.587
		c0-2.664,0-5.365-0.346-8.029c-0.5-3.7-2.756-2.257-2.756-4.478c0-2.627,4.229-2.479,5.639-2.479c1.941,0,2.287,0.148,3.695,1.628
		L409.898,634.886z"/>
	<path d="M434.922,636.773c0.031-1.517,0.063-3.885-0.094-5.328c-0.377-3.182-2.412-1.813-2.412-3.848
		c0-1.406,1.377-1.998,2.381-1.998c0.814,0,6.453,0.37,9.053,0.37c0.627,0,6.922-0.37,7.361-0.37c1.223,0,2.506,3.034,2.506,5.55
		c0,1.258-0.5,2.553-1.691,2.553c-2.162,0-1.033-3.812-7.049-3.812c-1.91,0-2.725-0.185-2.725,5.181
		c0,0.666,0.031,1.295,1.848,1.295c2.412,0,0.877-3.404,3.07-3.404c1.785,0,1.91,4.033,1.91,5.477c0,1.739-0.156,6.216-2.285,6.216
		c-2.006,0,0.063-4.181-3.291-4.181c-1.377,0-1.189,0.296-1.221,4.107c-0.125,5.477,3.039,2.442,3.039,5.254
		c0,0.851,0.281,2.479-7.33,2.479c-5.014,0-5.828-0.851-5.828-2.442c0-2.072,1.691-1.11,2.35-3.071
		c0.314-1.036,0.408-3.663,0.408-4.884V636.773z"/>
	<path d="M457.975,638.549c0.971-2.553,2.256-5.81,2.256-8.732c0-2.553,1.002-4.478,3.791-4.478c2.725,0,4.447,3.293,5.67,5.735
		c0.531,1.073,5.262,12.396,6.391,15.43c1.033,2.812,2.725,1.11,2.725,3.219c0,2.701-4.447,2.59-6.014,2.59
		c-4.48,0-7.174-0.037-7.174-2.332c0-1.776,1.91-1.11,1.91-2.405c0-1.666-0.783-1.813-5.826-1.813c-1.629,0-2.6,0.074-2.6,1.887
		c0,1.443,2.004,0.481,2.004,2.405c0,2.22-3.383,2.257-4.637,2.257c-4.479,0-4.887-1-4.887-2.183c0-1.739,1.691-1.221,2.6-2.553
		c0.689-1,1.348-2.775,1.818-3.959L457.975,638.549z M464.553,641.213c0.314,0,1.254,0.074,1.254-0.481s-0.908-2.479-1.158-2.997
		c-0.283-0.592-0.814-1.961-1.504-1.961c-0.752,0-1.285,2.22-1.41,2.627c-0.125,0.407-0.658,1.85-0.658,2.294
		c0,0.629,0.783,0.518,1.127,0.518H464.553z"/>
	<path d="M482.75,637.106c0-4.699-0.313-5.772-0.658-6.29c-0.721-1.073-1.941-1.184-1.941-2.59c0-2.664,6.391-2.664,7.018-2.664
		c1.879,0,5.732,0.074,5.732,2.59c0,1.333-1.191,1.258-1.912,2.22c-0.594,0.814-0.625,4.145-0.625,6.734v3.664
		c0,6.586,0.375,6.438,1.002,6.882c0.783,0.555,1.535,0.74,1.535,1.887c0,1.11-0.283,2.775-7.143,2.775
		c-1.316,0-5.264-0.037-5.264-2.405c0-1.184,1.066-1.369,1.566-2.072c0.377-0.518,0.689-1.887,0.689-7.067V637.106z"/>
	<path d="M509.846,625.968c1.346,0,1.973-0.148,2.443-0.259c0.438-0.148,0.689-0.259,1.283-0.259c1.223,0,3.76,2.85,3.76,6.846
		c0,1.85-0.814,3.071-2.412,3.071c-2.725,0-2.693-4.366-4.291-4.366c-1.223,0-1.098,1.998-1.098,2.294v11.36
		c0,4.403,2.883,2.294,2.883,4.884c0,1.147-0.596,2.775-6.453,2.775c-1.598,0-7.455,0.074-7.455-2.775
		c0-1.961,1.941-1.184,2.568-2.59c0.313-0.777,0.438-2.997,0.469-3.922l0.252-8.178c0.125-3.885-0.533-3.848-0.973-3.848
		c-1.408,0-2.098,4.366-4.635,4.366c-1.223,0-1.943-1.332-1.943-2.664c0-3.146,2.256-7.253,4.041-7.253
		c0.221,0,0.564,0.111,1.16,0.259c0.594,0.111,1.441,0.259,2.693,0.259H509.846z"/>
	<path d="M518.77,657.31c0-0.629,1.566-2.849,1.566-4.329c0-1.591-3.445-0.814-3.445-5.292c0-2.368,1.629-4.478,3.666-4.478
		c2.85,0,4.166,3.256,4.166,6.217c0,3.293-1.912,9.325-4.387,9.325C519.678,658.753,518.77,658.161,518.77,657.31z"/>
	<path d="M11.391,681.549c0.971-2.553,2.256-5.81,2.256-8.732c0-2.553,1.002-4.478,3.79-4.478c2.726,0,4.448,3.293,5.67,5.735
		c0.532,1.073,5.263,12.396,6.391,15.43c1.034,2.812,2.726,1.11,2.726,3.219c0,2.701-4.448,2.59-6.015,2.59
		c-4.479,0-7.174-0.037-7.174-2.332c0-1.776,1.911-1.11,1.911-2.405c0-1.666-0.783-1.813-5.827-1.813c-1.629,0-2.6,0.074-2.6,1.887
		c0,1.443,2.005,0.481,2.005,2.405c0,2.22-3.384,2.257-4.637,2.257c-4.479,0-4.887-1-4.887-2.183c0-1.739,1.691-1.221,2.6-2.553
		c0.689-1,1.348-2.775,1.817-3.959L11.391,681.549z M17.969,684.213c0.313,0,1.253,0.074,1.253-0.481s-0.908-2.479-1.158-2.997
		c-0.282-0.592-0.814-1.961-1.504-1.961c-0.752,0-1.284,2.22-1.41,2.627c-0.125,0.407-0.657,1.85-0.657,2.294
		c0,0.629,0.783,0.518,1.127,0.518H17.969z"/>
	<path d="M36.479,674.593c0-2.775-2.913-1.554-2.913-3.885c0-1.48,1.379-1.813,2.35-1.813c0.783,0,1.535,0.074,2.318,0.074
		c4.542,0,7.299-0.518,8.614-0.518c4.261,0,8.364,2.923,8.364,8.474c0,5.514-3.947,8.474-8.302,8.474
		c-0.939,0-1.879-0.185-2.725-0.185c-0.376,0-0.502,0.185-0.502,0.592v2.146c0.095,4.625,2.381,2.701,2.381,4.847
		c0,2.405-4.511,2.517-5.92,2.517c-1.316,0-5.952-0.037-5.952-2.442c0-2.035,2.286-0.777,2.286-3.811V674.593z M44.875,672.817
		c-1.222,0-1.19,0.444-1.19,1.184v5.55c0,0.777-0.281,1.628,1.41,1.628c2.067,0,2.882-1.85,2.882-4.107
		C47.976,674.741,46.974,672.817,44.875,672.817z"/>
	<path d="M59.375,676.665c0-5.735-2.381-3.367-2.381-5.662c0-2.035,2.443-2.294,3.696-2.294c0.658,0,1.285,0.074,1.942,0.111
		c0.627,0.074,1.284,0.148,1.911,0.148c1.002,0,2.005-0.074,3.038-0.148c1.003-0.037,2.037-0.111,3.039-0.111
		c3.54,0,7.644,1.85,7.644,6.771c0,2.22-0.908,4.366-2.663,5.365c-0.281,0.185-0.501,0.296-0.501,0.74
		c0,0.555,0.407,0.703,0.783,0.888c2.193,0.962,3.164,2.665,3.603,6.661c0.376,3.441,2.412,1.369,2.412,3.626
		c0,1.406-1.44,2.886-4.98,2.886c-5.013,0-5.639-3.404-6.61-8.289c-0.345-1.702-0.877-3.367-2.6-3.367
		c-0.689,0-0.94,0.111-0.94,2.442c0,1.073,0.063,2.553,0.22,3.589c0.251,1.702,1.849,1.184,1.849,2.96
		c0,1.332-0.783,2.332-5.858,2.332c-1.504,0-5.952,0-5.952-2.701c0-1.924,2.35-0.592,2.35-5.403V676.665z M66.643,678.293
		c-0.063,0.962-0.219,1.776,0.814,1.776c2.036,0,2.694-1.332,2.694-3.626c0-1.813-0.376-3.663-2.193-3.663
		c-1.158,0-1.127,0.851-1.19,1.998L66.643,678.293z"/>
	<path d="M96.399,668.968c4.198,0,4.792-0.74,5.294-0.74c1.785,0,2.537,3.626,2.537,5.254c0,1.221-0.406,2.664-1.629,2.664
		c-2.474,0-0.469-3.552-6.421-3.552c-3.478,0-3.133,0.74-3.133,4.995c0,2.146,0.094,2.22,2.005,2.22
		c2.381,0,0.595-4.107,2.819-4.107c1.817,0,1.942,4.181,1.942,5.624c0,1.517-0.22,5.958-2.099,5.958c-1.942,0,0-3.885-3.164-3.885
		c-1.316,0-1.284,1.406-1.284,2.59c0,5.402,0.313,5.143,3.603,5.143c6.421,0,4.605-5.217,7.173-5.217
		c1.002,0,1.504,1.332,1.504,2.368c0,2.516-1.691,7.031-2.945,7.031c-0.219,0-0.721-0.111-1.379-0.222
		c-0.688-0.074-1.566-0.185-2.63-0.185H85.717c-2.067,0-2.1-1.11-2.1-1.591c0-2.035,2.131-0.407,2.35-4.329
		c0.376-6.734,0.407-6.068,0.095-12.766c-0.22-5.661-2.601-2.738-2.601-5.365c0-2.257,2.632-1.887,3.916-1.887H96.399z
		 M90.197,663.011c0-1.702,2.851-2.072,3.821-2.072c0.502,0,2.632,0.185,2.632,1.11c0,0.407-0.251,0.518-0.251,0.851
		c0,0.999,2.193,1.517,2.193,3.071c0,1.184-0.877,1.369-1.691,1.369C92.64,667.34,90.197,663.936,90.197,663.011z"/>
	<path d="M107.924,677.072c0-3.848,3.133-8.622,9.209-8.622c2.006,0,4.262,1.036,4.73,1.036c0.439,0,0.877-0.518,1.535-0.518
		c1.064,0,3.445,2.85,3.445,5.958c0,1.258-0.688,2.516-1.848,2.516c-2.1,0-3.32-4.218-6.578-4.218c-0.971,0-2.006,0.518-2.006,1.85
		c0,2.923,4.293,2.146,7.926,4.996c1.943,1.517,2.914,3.367,2.914,6.142c0,4.33-3.008,9.214-10.307,9.214
		c-2.068,0-5.607-0.629-7.393-1.776c-1.504-0.999-2.225-4.921-2.225-6.808c0-0.999,0.377-1.999,1.316-1.999
		c2.223,0,1.848,5.884,7.611,5.884c0.689,0,2.412-0.407,2.412-1.813c0-2.664-4.291-1.998-7.768-5.291
		C109.176,681.993,107.924,679.736,107.924,677.072z"/>
	<path d="M140.342,681.845c0-7.844,5.293-13.395,12.123-13.395c8.646,0,11.967,8.992,11.967,13.765
		c0,7.956-5.953,13.21-12.344,13.21C145.479,695.425,140.342,689.727,140.342,681.845z M151.023,673.964
		c-1.754,0-2.631,2.146-2.631,3.959c0,3.146,1.879,11.989,5.262,11.989c1.912,0,2.727-1.961,2.727-3.959
		C156.381,682.585,154.689,673.964,151.023,673.964z"/>
	<path d="M183.316,677.886c0.377,0.37,1.379,1.443,1.943,1.443c0.783,0,0.814-1.517,0.814-2.146c0-0.925-0.031-2.516-0.283-3.367
		c-0.438-1.554-2.098-0.999-2.098-2.998c0-2.368,3.195-2.257,4.51-2.257c1.379,0,4.793-0.185,4.793,2.368
		c0,2.109-1.66,1.332-2.191,3.034c-0.408,1.332-0.408,3.626-0.408,5.032v9.583c0,1.666,0.188,6.735-1.91,6.735
		c-0.627,0-1.16-0.444-1.629-0.925l-9.68-10.25c-0.439-0.481-1.254-1.369-1.912-1.369c-0.971,0-1.002,2.405-1.002,3.182
		c0,1.036,0.031,2.405,0.219,3.367c0.471,2.368,2.131,1.48,2.131,3.293c0,2.479-3.227,2.701-4.699,2.701
		c-1.441,0-4.668-0.222-4.668-2.627c0-1.961,1.816-1.184,2.131-3.552c0.219-1.591,0.281-3.922,0.281-5.587
		c0-2.664,0-5.365-0.344-8.029c-0.502-3.7-2.758-2.257-2.758-4.478c0-2.627,4.23-2.479,5.639-2.479c1.943,0,2.287,0.148,3.697,1.628
		L183.316,677.886z"/>
	<path d="M220.715,692.095c-0.658,1.517-1.285,3.219-2.977,3.219c-1.816,0-2.287-1.221-2.977-2.96l-6.234-16.281
		c-0.939-2.405-1.221-2.849-2.443-3.071c-0.625-0.111-0.939-0.666-0.939-1.443c0-2.849,4.98-2.997,6.578-2.997
		c6.58,0,6.328,1.85,6.328,2.405c0,1.406-1.504,1.48-1.504,2.479c0,0.777,1.223,3.663,1.975,5.587
		c0.281,0.629,0.627,2.072,1.316,2.109c1.033,0.074,1.566-1.998,1.941-2.775c0.375-0.888,1.816-4.218,1.816-5.106
		c0-1.332-1.598-0.962-1.598-2.442c0-2.294,3.947-2.257,5.201-2.257c3.947,0,4.604,0.851,4.604,2.146
		c0,0.999-0.625,1.48-1.377,1.591c-1.348,0.185-1.473,0.074-2.664,2.923L220.715,692.095z"/>
	<path d="M233.242,681.845c0-7.844,5.293-13.395,12.123-13.395c8.646,0,11.967,8.992,11.967,13.765
		c0,7.956-5.953,13.21-12.344,13.21C238.379,695.425,233.242,689.727,233.242,681.845z M243.924,673.964
		c-1.754,0-2.631,2.146-2.631,3.959c0,3.146,1.879,11.989,5.262,11.989c1.912,0,2.727-1.961,2.727-3.959
		C249.281,682.585,247.59,673.964,243.924,673.964z"/>
	<path d="M278.723,675.37c0-3.959-2.693-2.442-2.693-4.588c0-2.294,3.633-2.22,4.918-2.22c1.191,0,4.637,0,4.637,2.146
		c0,2.072-2.35,0.814-2.35,4.181v9.991c0,1.665,0.031,10.546-10.809,10.546c-12.342,0-10.963-11.249-10.963-11.693v-8.547
		c0.125-2.332-2.006-2.332-2.006-4.034c0-0.518-0.344-2.59,6.109-2.59c5.105,0,6.141,1.11,6.141,2.553
		c0,2.664-2.287,0.185-2.443,4.699v6.809c0,4.403,1.408,7.215,4.729,7.215c4.951,0,4.73-4.847,4.73-5.254V675.37z"/>
	<path d="M288.18,677.072c0-3.848,3.133-8.622,9.209-8.622c2.006,0,4.262,1.036,4.73,1.036c0.439,0,0.877-0.518,1.535-0.518
		c1.064,0,3.445,2.85,3.445,5.958c0,1.258-0.688,2.516-1.848,2.516c-2.1,0-3.32-4.218-6.578-4.218c-0.971,0-2.006,0.518-2.006,1.85
		c0,2.923,4.293,2.146,7.926,4.996c1.943,1.517,2.914,3.367,2.914,6.142c0,4.33-3.008,9.214-10.307,9.214
		c-2.068,0-5.607-0.629-7.393-1.776c-1.504-0.999-2.225-4.921-2.225-6.808c0-0.999,0.377-1.999,1.316-1.999
		c2.223,0,1.848,5.884,7.611,5.884c0.689,0,2.412-0.407,2.412-1.813c0-2.664-4.291-1.998-7.768-5.291
		C289.432,681.993,288.18,679.736,288.18,677.072z"/>
	<path d="M323.104,675.037c0.063-3.811-2.287-1.961-2.287-4.366c0-1.702,1.816-1.961,2.914-1.961h10.211
		c8.709,0,11.561,6.364,11.561,13.025c0,6.882-3.416,13.358-11.34,13.358c-1.348,0-2.475-0.037-3.447-0.111
		c-0.971-0.037-1.816-0.074-2.693-0.074s-1.785,0.037-2.662,0.074c-0.877,0.074-1.756,0.111-2.664,0.111
		c-1.064,0-2.412-0.629-2.412-2.109c0-2.664,2.475,0.296,2.568-5.106L323.104,675.037z M330.621,688.58
		c0,1.887,0.25,2.665,1.943,2.665c3.947,0,4.635-4.773,4.635-8.474c0-8.659-2.756-10.028-5.168-10.028
		c-1.316,0-1.41,0.629-1.41,2.035V688.58z"/>
	<path d="M347.91,681.845c0-7.844,5.293-13.395,12.123-13.395c8.646,0,11.967,8.992,11.967,13.765c0,7.956-5.953,13.21-12.344,13.21
		C353.047,695.425,347.91,689.727,347.91,681.845z M358.592,673.964c-1.754,0-2.631,2.146-2.631,3.959
		c0,3.146,1.879,11.989,5.262,11.989c1.912,0,2.727-1.961,2.727-3.959C363.949,682.585,362.258,673.964,358.592,673.964z"/>
	<path d="M390.885,677.886c0.377,0.37,1.379,1.443,1.943,1.443c0.783,0,0.814-1.517,0.814-2.146c0-0.925-0.031-2.516-0.283-3.367
		c-0.438-1.554-2.098-0.999-2.098-2.998c0-2.368,3.195-2.257,4.51-2.257c1.379,0,4.793-0.185,4.793,2.368
		c0,2.109-1.66,1.332-2.191,3.034c-0.408,1.332-0.408,3.626-0.408,5.032v9.583c0,1.666,0.188,6.735-1.91,6.735
		c-0.627,0-1.16-0.444-1.629-0.925l-9.68-10.25c-0.439-0.481-1.254-1.369-1.912-1.369c-0.971,0-1.002,2.405-1.002,3.182
		c0,1.036,0.031,2.405,0.219,3.367c0.471,2.368,2.131,1.48,2.131,3.293c0,2.479-3.227,2.701-4.699,2.701
		c-1.441,0-4.668-0.222-4.668-2.627c0-1.961,1.816-1.184,2.131-3.552c0.219-1.591,0.281-3.922,0.281-5.587
		c0-2.664,0-5.365-0.344-8.029c-0.502-3.7-2.758-2.257-2.758-4.478c0-2.627,4.23-2.479,5.639-2.479c1.943,0,2.287,0.148,3.697,1.628
		L390.885,677.886z"/>
	<path d="M419.137,677.886c0.377,0.37,1.379,1.443,1.943,1.443c0.783,0,0.814-1.517,0.814-2.146c0-0.925-0.031-2.516-0.283-3.367
		c-0.438-1.554-2.098-0.999-2.098-2.998c0-2.368,3.195-2.257,4.51-2.257c1.379,0,4.793-0.185,4.793,2.368
		c0,2.109-1.66,1.332-2.191,3.034c-0.408,1.332-0.408,3.626-0.408,5.032v9.583c0,1.666,0.188,6.735-1.91,6.735
		c-0.627,0-1.16-0.444-1.629-0.925l-9.68-10.25c-0.439-0.481-1.254-1.369-1.912-1.369c-0.971,0-1.002,2.405-1.002,3.182
		c0,1.036,0.031,2.405,0.219,3.367c0.471,2.368,2.131,1.48,2.131,3.293c0,2.479-3.227,2.701-4.699,2.701
		c-1.441,0-4.668-0.222-4.668-2.627c0-1.961,1.816-1.184,2.131-3.552c0.219-1.591,0.281-3.922,0.281-5.587
		c0-2.664,0-5.365-0.344-8.029c-0.502-3.7-2.758-2.257-2.758-4.478c0-2.627,4.23-2.479,5.639-2.479c1.943,0,2.287,0.148,3.697,1.628
		L419.137,677.886z"/>
	<path d="M443.566,668.968c4.199,0,4.793-0.74,5.295-0.74c1.785,0,2.537,3.626,2.537,5.254c0,1.221-0.406,2.664-1.629,2.664
		c-2.475,0-0.469-3.552-6.422-3.552c-3.477,0-3.133,0.74-3.133,4.995c0,2.146,0.094,2.22,2.006,2.22
		c2.381,0,0.594-4.107,2.818-4.107c1.818,0,1.943,4.181,1.943,5.624c0,1.517-0.221,5.958-2.1,5.958c-1.941,0,0-3.885-3.164-3.885
		c-1.316,0-1.283,1.406-1.283,2.59c0,5.402,0.313,5.143,3.602,5.143c6.422,0,4.605-5.217,7.174-5.217
		c1.002,0,1.504,1.332,1.504,2.368c0,2.516-1.691,7.031-2.945,7.031c-0.219,0-0.721-0.111-1.379-0.222
		c-0.688-0.074-1.566-0.185-2.631-0.185h-12.875c-2.066,0-2.1-1.11-2.1-1.591c0-2.035,2.131-0.407,2.35-4.329
		c0.377-6.734,0.408-6.068,0.096-12.766c-0.221-5.661-2.602-2.738-2.602-5.365c0-2.257,2.633-1.887,3.916-1.887H443.566z"/>
	<path d="M468.092,694.907c-1.004,0-2.602,0.074-2.602-1.628c0-2.294,2.443-0.37,2.539-4.663c0.063-2.701,0.063-5.069,0.063-7.252
		c0-2.22-0.158-4.292-0.221-6.364c-0.063-3.108-2.818-1.48-2.818-3.589c0-2.701,4.918-2.849,6.453-2.849
		c6.266,0,6.578,1.258,6.578,2.516c0,2.146-2.475,0.518-2.475,3.996v11.767c0,2.664,0.375,3.959,2.6,3.959
		c5.326,0,3.51-5.143,5.514-5.143c1.41,0,1.941,1.776,1.941,3.182c0,2.886-1.754,6.586-3.193,6.586
		c-0.564,0-1.004-0.148-1.566-0.259c-0.596-0.148-1.285-0.259-2.35-0.259H468.092z"/>
	<path d="M492.742,681.549c0.971-2.553,2.256-5.81,2.256-8.732c0-2.553,1.002-4.478,3.789-4.478c2.727,0,4.449,3.293,5.67,5.735
		c0.533,1.073,5.264,12.396,6.391,15.43c1.035,2.812,2.727,1.11,2.727,3.219c0,2.701-4.449,2.59-6.016,2.59
		c-4.479,0-7.174-0.037-7.174-2.332c0-1.776,1.912-1.11,1.912-2.405c0-1.666-0.783-1.813-5.828-1.813c-1.629,0-2.6,0.074-2.6,1.887
		c0,1.443,2.006,0.481,2.006,2.405c0,2.22-3.385,2.257-4.637,2.257c-4.48,0-4.887-1-4.887-2.183c0-1.739,1.691-1.221,2.6-2.553
		c0.689-1,1.348-2.775,1.816-3.959L492.742,681.549z M499.32,684.213c0.313,0,1.252,0.074,1.252-0.481s-0.908-2.479-1.158-2.997
		c-0.281-0.592-0.814-1.961-1.504-1.961c-0.752,0-1.283,2.22-1.41,2.627c-0.125,0.407-0.656,1.85-0.656,2.294
		c0,0.629,0.783,0.518,1.127,0.518H499.32z"/>
	<path d="M528.07,676.665c0-5.735-2.381-3.367-2.381-5.662c0-2.035,2.443-2.294,3.697-2.294c0.658,0,1.285,0.074,1.941,0.111
		c0.627,0.074,1.285,0.148,1.912,0.148c1.002,0,2.004-0.074,3.037-0.148c1.004-0.037,2.037-0.111,3.039-0.111
		c3.541,0,7.645,1.85,7.645,6.771c0,2.22-0.908,4.366-2.664,5.365c-0.281,0.185-0.5,0.296-0.5,0.74c0,0.555,0.406,0.703,0.783,0.888
		c2.193,0.962,3.164,2.665,3.602,6.661c0.377,3.441,2.412,1.369,2.412,3.626c0,1.406-1.439,2.886-4.98,2.886
		c-5.012,0-5.639-3.404-6.609-8.289c-0.346-1.702-0.877-3.367-2.6-3.367c-0.689,0-0.941,0.111-0.941,2.442
		c0,1.073,0.064,2.553,0.221,3.589c0.25,1.702,1.848,1.184,1.848,2.96c0,1.332-0.783,2.332-5.857,2.332
		c-1.504,0-5.953,0-5.953-2.701c0-1.924,2.35-0.592,2.35-5.403V676.665z M535.338,678.293c-0.063,0.962-0.219,1.776,0.814,1.776
		c2.037,0,2.695-1.332,2.695-3.626c0-1.813-0.377-3.663-2.193-3.663c-1.158,0-1.127,0.851-1.191,1.998L535.338,678.293z"/>
	<path d="M565.096,668.968c4.197,0,4.793-0.74,5.295-0.74c1.785,0,2.537,3.626,2.537,5.254c0,1.221-0.408,2.664-1.629,2.664
		c-2.475,0-0.471-3.552-6.422-3.552c-3.479,0-3.133,0.74-3.133,4.995c0,2.146,0.094,2.22,2.004,2.22c2.381,0,0.596-4.107,2.82-4.107
		c1.816,0,1.941,4.181,1.941,5.624c0,1.517-0.219,5.958-2.098,5.958c-1.943,0,0-3.885-3.164-3.885c-1.316,0-1.285,1.406-1.285,2.59
		c0,5.402,0.313,5.143,3.604,5.143c6.422,0,4.604-5.217,7.172-5.217c1.004,0,1.504,1.332,1.504,2.368
		c0,2.516-1.691,7.031-2.943,7.031c-0.221,0-0.721-0.111-1.379-0.222c-0.689-0.074-1.566-0.185-2.631-0.185h-12.875
		c-2.068,0-2.1-1.11-2.1-1.591c0-2.035,2.131-0.407,2.35-4.329c0.375-6.734,0.406-6.068,0.094-12.766
		c-0.219-5.661-2.6-2.738-2.6-5.365c0-2.257,2.631-1.887,3.916-1.887H565.096z"/>
	<path d="M588.336,668.45c3.07,0,5.043,1.813,5.857,1.813c0.689,0,0.877-0.259,1.41-0.259c1.316,0,3.008,2.331,3.008,6.438
		c0,2.109-1.066,3.885-2.914,3.885c-3.227,0-2.412-6.549-7.988-6.549c-2.412,0-3.414,2.664-3.414,4.699
		c0,5.477,2.475,10.139,6.859,10.139c3.979,0,4.574-2.553,5.545-2.553c0.908,0,1.348,1.258,1.348,2.183
		c0,1.628-1.441,5.033-3.008,5.033c-1.064,0-3.258,2.146-6.953,2.146c-6.58,0-11.967-6.143-11.967-13.58
		C576.119,674.26,582.164,668.45,588.336,668.45z"/>
	<path d="M613.33,668.968c4.199,0,4.793-0.74,5.295-0.74c1.785,0,2.537,3.626,2.537,5.254c0,1.221-0.406,2.664-1.629,2.664
		c-2.475,0-0.469-3.552-6.422-3.552c-3.477,0-3.133,0.74-3.133,4.995c0,2.146,0.094,2.22,2.006,2.22
		c2.381,0,0.594-4.107,2.818-4.107c1.818,0,1.943,4.181,1.943,5.624c0,1.517-0.221,5.958-2.1,5.958c-1.941,0,0-3.885-3.164-3.885
		c-1.316,0-1.283,1.406-1.283,2.59c0,5.402,0.313,5.143,3.602,5.143c6.422,0,4.605-5.217,7.174-5.217
		c1.002,0,1.504,1.332,1.504,2.368c0,2.516-1.691,7.031-2.945,7.031c-0.219,0-0.721-0.111-1.379-0.222
		c-0.688-0.074-1.566-0.185-2.631-0.185h-12.875c-2.066,0-2.1-1.11-2.1-1.591c0-2.035,2.131-0.407,2.35-4.329
		c0.377-6.734,0.408-6.068,0.096-12.766c-0.221-5.661-2.602-2.738-2.602-5.365c0-2.257,2.633-1.887,3.916-1.887H613.33z"/>
	<path d="M639.203,668.968c1.346,0,1.973-0.148,2.443-0.259c0.438-0.148,0.689-0.259,1.283-0.259c1.223,0,3.76,2.85,3.76,6.846
		c0,1.85-0.814,3.071-2.412,3.071c-2.725,0-2.693-4.366-4.291-4.366c-1.223,0-1.098,1.998-1.098,2.294v11.36
		c0,4.403,2.883,2.294,2.883,4.884c0,1.147-0.596,2.775-6.453,2.775c-1.598,0-7.455,0.074-7.455-2.775
		c0-1.961,1.941-1.184,2.568-2.59c0.313-0.777,0.438-2.997,0.469-3.922l0.252-8.178c0.125-3.885-0.533-3.848-0.973-3.848
		c-1.408,0-2.098,4.366-4.635,4.366c-1.223,0-1.943-1.332-1.943-2.664c0-3.146,2.256-7.253,4.041-7.253
		c0.221,0,0.564,0.111,1.16,0.259c0.594,0.111,1.441,0.259,2.693,0.259H639.203z"/>
	<path d="M663.195,668.968c1.348,0,1.975-0.148,2.443-0.259c0.439-0.148,0.689-0.259,1.285-0.259c1.221,0,3.76,2.85,3.76,6.846
		c0,1.85-0.814,3.071-2.412,3.071c-2.727,0-2.695-4.366-4.293-4.366c-1.221,0-1.096,1.998-1.096,2.294v11.36
		c0,4.403,2.881,2.294,2.881,4.884c0,1.147-0.594,2.775-6.453,2.775c-1.598,0-7.455,0.074-7.455-2.775
		c0-1.961,1.941-1.184,2.568-2.59c0.314-0.777,0.439-2.997,0.471-3.922l0.25-8.178c0.125-3.885-0.533-3.848-0.971-3.848
		c-1.41,0-2.1,4.366-4.637,4.366c-1.221,0-1.941-1.332-1.941-2.664c0-3.146,2.256-7.253,4.041-7.253
		c0.219,0,0.563,0.111,1.158,0.259c0.596,0.111,1.441,0.259,2.695,0.259H663.195z"/>
	<path d="M684.963,668.968c4.199,0,4.793-0.74,5.295-0.74c1.785,0,2.537,3.626,2.537,5.254c0,1.221-0.406,2.664-1.629,2.664
		c-2.475,0-0.469-3.552-6.422-3.552c-3.477,0-3.133,0.74-3.133,4.995c0,2.146,0.094,2.22,2.006,2.22
		c2.381,0,0.594-4.107,2.818-4.107c1.818,0,1.943,4.181,1.943,5.624c0,1.517-0.221,5.958-2.1,5.958c-1.941,0,0-3.885-3.164-3.885
		c-1.316,0-1.283,1.406-1.283,2.59c0,5.402,0.313,5.143,3.602,5.143c6.422,0,4.605-5.217,7.174-5.217
		c1.002,0,1.504,1.332,1.504,2.368c0,2.516-1.691,7.031-2.945,7.031c-0.219,0-0.721-0.111-1.379-0.222
		c-0.688-0.074-1.566-0.185-2.631-0.185h-12.875c-2.066,0-2.1-1.11-2.1-1.591c0-2.035,2.131-0.407,2.35-4.329
		c0.377-6.734,0.408-6.068,0.096-12.766c-0.221-5.661-2.602-2.738-2.602-5.365c0-2.257,2.633-1.887,3.916-1.887H684.963z"/>
	<path d="M700.154,695.425c-2.1,0-3.791-1.998-3.791-4.478c0-2.479,1.691-4.477,3.791-4.477c2.098,0,3.791,1.998,3.791,4.477
		C703.945,693.427,702.252,695.425,700.154,695.425z"/>
</g>
<circle fill-rule="evenodd" fill="none" stroke="#000000" stroke-width="5" stroke-miterlimit="10" cx="355.506" cy="411.657" r="166.794"/>
<g>
	<path fill-rule="evenodd" fill="none" d="M172.773,500.147c-49.115-100.934-7.111-222.563,93.805-271.672
		c100.926-49.112,222.553-7.111,271.66,93.811c49.115,100.928,7.111,222.555-93.814,271.668
		C343.508,643.063,221.877,601.067,172.773,500.147z"/>
	<path d="M221.355,241.695l-0.46-0.556c-0.156-0.188-0.226-0.356-0.211-0.506c0.016-0.15,0.091-0.282,0.229-0.396
		c0.137-0.112,0.28-0.163,0.431-0.15s0.304,0.113,0.459,0.3l1.816,2.189c0.162,0.194,0.234,0.366,0.219,0.516
		c-0.015,0.151-0.092,0.282-0.229,0.396c-0.122,0.102-0.256,0.149-0.4,0.143c-0.146-0.006-0.296-0.089-0.451-0.245
		c-0.472-0.496-1.187-0.69-2.144-0.584c-1.298,0.136-2.48,0.646-3.546,1.53c-0.699,0.58-1.246,1.261-1.642,2.044
		c-0.3,0.577-0.47,1.12-0.51,1.629c-0.069,0.883,0.001,1.738,0.214,2.565c0.162,0.607,0.473,1.186,0.93,1.735l1.146,1.381
		c0.977,1.179,2.314,1.794,4.014,1.849s3.197-0.456,4.493-1.531c0.778-0.646,1.353-1.371,1.724-2.177
		c0.372-0.805,0.6-1.744,0.682-2.816c0.014-0.233,0.096-0.413,0.246-0.539c0.13-0.106,0.263-0.159,0.399-0.156
		s0.249,0.058,0.337,0.164c0.12,0.146,0.147,0.492,0.082,1.044c-0.113,1.065-0.417,2.051-0.914,2.955
		c-0.497,0.902-1.123,1.67-1.879,2.297c-0.655,0.544-1.413,0.986-2.271,1.329c-0.659,0.261-1.251,0.419-1.776,0.475
		c-0.526,0.056-1.257,0.021-2.195-0.106c-0.938-0.125-1.685-0.34-2.241-0.646c-0.557-0.304-1.062-0.729-1.514-1.273l-1.333-1.607
		c-0.645-0.776-1.063-1.769-1.258-2.978c-0.194-1.208-0.056-2.375,0.415-3.5c0.471-1.126,1.192-2.092,2.164-2.898
		C217.879,242.326,219.537,241.702,221.355,241.695z"/>
	<path d="M238.846,236.063c0.795,1.112,1.273,2.328,1.436,3.648c0.161,1.32-0.023,2.57-0.555,3.749
		c-0.531,1.182-1.318,2.144-2.361,2.89c-1.546,1.104-3.314,1.507-5.308,1.205c-1.992-0.301-3.628-1.346-4.905-3.132
		c-1.283-1.794-1.743-3.682-1.381-5.661s1.316-3.521,2.861-4.627c1.043-0.745,2.207-1.177,3.491-1.295
		c1.285-0.118,2.526,0.108,3.726,0.684C237.047,234.098,238.047,234.943,238.846,236.063z M237.875,236.756
		c-0.971-1.357-2.294-2.251-3.971-2.682c-1.678-0.432-3.236-0.134-4.675,0.895c-1.348,0.963-2.132,2.301-2.351,4.014
		c-0.22,1.713,0.191,3.298,1.232,4.754c1.107,1.549,2.514,2.458,4.217,2.725c1.704,0.268,3.185-0.047,4.441-0.945
		c1.438-1.029,2.227-2.404,2.363-4.128C239.27,239.663,238.851,238.12,237.875,236.756z"/>
	<path d="M251.734,228.153c0.713,1.166,1.103,2.414,1.169,3.742c0.065,1.328-0.208,2.562-0.823,3.7
		c-0.614,1.139-1.469,2.043-2.563,2.712c-1.62,0.991-3.413,1.265-5.379,0.821c-1.967-0.443-3.522-1.603-4.669-3.477
		c-1.15-1.883-1.474-3.797-0.971-5.745c0.504-1.949,1.565-3.419,3.187-4.41c1.094-0.668,2.285-1.016,3.575-1.042
		c1.29-0.023,2.513,0.292,3.666,0.951C250.081,226.064,251.017,226.979,251.734,228.153z M250.716,228.775
		c-0.87-1.423-2.126-2.409-3.769-2.961c-1.642-0.551-3.218-0.365-4.727,0.559c-1.414,0.864-2.291,2.142-2.633,3.835
		c-0.342,1.691-0.046,3.301,0.889,4.829c0.993,1.625,2.33,2.632,4.01,3.021c1.681,0.389,3.18,0.182,4.497-0.624
		c1.509-0.924,2.394-2.239,2.654-3.949C251.897,231.776,251.591,230.207,250.716,228.775z"/>
	<path d="M257.004,226.801l2.223,4.293l3.59-1.859c0.25-0.129,0.449-0.18,0.601-0.153c0.151,0.028,0.263,0.11,0.333,0.247
		c0.067,0.131,0.069,0.267,0.007,0.409c-0.063,0.142-0.22,0.279-0.469,0.408l-6.046,3.131c-0.249,0.129-0.451,0.178-0.604,0.146
		c-0.153-0.03-0.263-0.11-0.33-0.241c-0.071-0.137-0.074-0.275-0.01-0.414c0.065-0.14,0.223-0.272,0.472-0.402l1.409-0.729
		l-5.625-10.861l-1.408,0.729c-0.25,0.129-0.45,0.18-0.602,0.154c-0.15-0.028-0.262-0.109-0.333-0.248
		c-0.071-0.138-0.074-0.276-0.009-0.415s0.222-0.272,0.471-0.402l6.084-3.15c1.438-0.744,2.803-0.983,4.094-0.717
		c1.292,0.266,2.194,0.895,2.707,1.884c0.303,0.586,0.429,1.188,0.377,1.811c-0.053,0.623-0.217,1.176-0.494,1.658
		c-0.413,0.728-0.903,1.357-1.471,1.891c-0.411,0.387-0.974,0.765-1.688,1.135L257.004,226.801z M256.531,225.891l3.342-1.73
		c0.772-0.4,1.42-0.925,1.942-1.576c0.521-0.65,0.826-1.273,0.913-1.868s0.015-1.115-0.217-1.564
		c-0.371-0.716-1.058-1.175-2.059-1.381c-1.003-0.206-2.044-0.027-3.124,0.532l-3.728,1.93L256.531,225.891z"/>
	<path d="M268.878,219.775l2.325,5.391l8.327-3.593l-1.199-2.779c-0.097-0.225-0.117-0.406-0.061-0.546
		c0.058-0.141,0.168-0.245,0.331-0.315c0.163-0.071,0.314-0.079,0.455-0.024c0.142,0.055,0.26,0.194,0.357,0.419l1.605,3.721
		l-11.949,5.155c-0.258,0.111-0.461,0.146-0.611,0.104c-0.15-0.04-0.255-0.129-0.313-0.263c-0.061-0.144-0.054-0.28,0.021-0.415
		c0.074-0.134,0.24-0.257,0.498-0.368l1.457-0.629l-4.846-11.229l-1.457,0.628c-0.258,0.111-0.461,0.148-0.609,0.11
		c-0.149-0.037-0.254-0.128-0.315-0.27s-0.054-0.28,0.021-0.414s0.24-0.257,0.498-0.368l11.381-4.91l1.398,3.239
		c0.096,0.224,0.116,0.405,0.059,0.545c-0.057,0.14-0.166,0.245-0.329,0.314c-0.163,0.071-0.315,0.079-0.457,0.024
		c-0.141-0.054-0.259-0.194-0.355-0.418l-0.991-2.298l-7.76,3.349l2.114,4.898l3.879-1.674l-0.459-1.064
		c-0.097-0.225-0.114-0.407-0.054-0.55c0.062-0.142,0.174-0.248,0.337-0.318c0.154-0.066,0.305-0.073,0.449-0.021
		c0.146,0.053,0.267,0.19,0.362,0.415l1.326,3.071c0.096,0.224,0.114,0.407,0.053,0.549c-0.061,0.141-0.169,0.245-0.324,0.312
		c-0.163,0.07-0.316,0.079-0.462,0.027c-0.146-0.054-0.266-0.19-0.362-0.415l-0.46-1.065L268.878,219.775z M269.736,206.813
		l-2.068,3.604c-0.124,0.231-0.256,0.377-0.393,0.437c-0.146,0.062-0.293,0.07-0.441,0.022c-0.146-0.046-0.25-0.138-0.308-0.271
		c-0.032-0.074-0.042-0.15-0.029-0.226c0.013-0.078,0.063-0.2,0.153-0.373l2.055-3.599c0.133-0.234,0.269-0.382,0.406-0.441
		c0.146-0.063,0.293-0.07,0.44-0.023c0.148,0.048,0.251,0.138,0.309,0.271c0.032,0.075,0.043,0.152,0.031,0.232
		C269.881,206.527,269.829,206.65,269.736,206.813z"/>
	<path d="M282.994,214.541l1.763,5.048l2.054-0.718c0.274-0.095,0.484-0.119,0.629-0.071c0.146,0.048,0.245,0.146,0.296,0.292
		c0.049,0.139,0.031,0.273-0.052,0.405c-0.082,0.132-0.261,0.246-0.534,0.343l-4.665,1.629c-0.266,0.094-0.472,0.113-0.619,0.062
		c-0.146-0.053-0.244-0.147-0.293-0.286c-0.051-0.146-0.034-0.283,0.05-0.412c0.084-0.128,0.259-0.238,0.523-0.331l1.498-0.523
		l-4.034-11.547l-1.498,0.524c-0.264,0.092-0.47,0.114-0.615,0.065c-0.146-0.049-0.244-0.145-0.296-0.291
		c-0.05-0.147-0.034-0.284,0.05-0.412s0.259-0.239,0.524-0.331l6.731-2.353c1.387-0.484,2.689-0.51,3.906-0.077
		s1.993,1.129,2.328,2.089c0.241,0.69,0.176,1.445-0.199,2.261c-0.374,0.816-1.179,1.669-2.415,2.558
		c0.962,0.198,1.83,0.499,2.604,0.9c0.775,0.402,2.11,1.314,4.006,2.738l0.848-0.296c0.266-0.093,0.471-0.114,0.616-0.066
		s0.244,0.145,0.295,0.291c0.048,0.138,0.031,0.273-0.052,0.406c-0.082,0.132-0.256,0.244-0.521,0.337l-1.484,0.519
		c-2.127-1.662-3.695-2.727-4.706-3.192c-1.011-0.465-2.076-0.729-3.2-0.796L282.994,214.541z M282.655,213.574l3.034-1.062
		c0.973-0.34,1.8-0.801,2.483-1.385c0.683-0.582,1.132-1.146,1.345-1.685c0.213-0.54,0.244-1.024,0.094-1.455
		c-0.226-0.645-0.814-1.13-1.764-1.453c-0.951-0.322-1.961-0.297-3.03,0.076l-4.095,1.431L282.655,213.574z"/>
	<path d="M305.158,209.356l-7.48,2.022l-0.553,4.031l2.182-0.59c0.271-0.073,0.478-0.08,0.619-0.021
		c0.143,0.059,0.233,0.163,0.273,0.312c0.038,0.142,0.012,0.274-0.08,0.401c-0.092,0.125-0.273,0.226-0.545,0.3l-4.254,1.15
		c-0.271,0.072-0.479,0.078-0.621,0.016c-0.144-0.063-0.233-0.164-0.272-0.306c-0.04-0.148-0.014-0.285,0.079-0.407
		c0.093-0.121,0.275-0.22,0.546-0.293l0.881-0.238l1.834-13.166l-3.36,0.908c-0.271,0.073-0.479,0.08-0.619,0.022
		c-0.143-0.06-0.234-0.162-0.274-0.313c-0.04-0.148-0.014-0.284,0.079-0.407c0.093-0.121,0.275-0.22,0.547-0.292l5.731-1.552
		l9.018,11.294l0.88-0.237c0.271-0.074,0.479-0.08,0.62-0.022c0.142,0.059,0.232,0.162,0.273,0.313
		c0.038,0.141,0.011,0.273-0.081,0.4c-0.092,0.126-0.273,0.225-0.544,0.3l-4.242,1.146c-0.279,0.075-0.491,0.082-0.634,0.02
		c-0.143-0.062-0.234-0.164-0.271-0.306c-0.041-0.148-0.015-0.285,0.078-0.406c0.093-0.122,0.279-0.223,0.56-0.297l2.169-0.587
		L305.158,209.356z M304.456,208.482l-5.091-6.348l-0.42,0.112l-1.102,8.024L304.456,208.482z"/>
	<path d="M314.91,198.555l2.333,12.007l3.004-0.585c0.276-0.052,0.481-0.045,0.62,0.023c0.137,0.069,0.221,0.18,0.25,0.33
		c0.027,0.145-0.009,0.276-0.109,0.395c-0.102,0.119-0.289,0.206-0.565,0.26l-7.179,1.395c-0.276,0.053-0.482,0.045-0.621-0.028
		c-0.138-0.072-0.221-0.182-0.249-0.325c-0.029-0.151,0.007-0.285,0.108-0.4s0.291-0.198,0.565-0.253l3.005-0.582l-2.334-12.009
		l-4.74,0.922l0.678,3.487c0.049,0.248,0.029,0.434-0.056,0.558c-0.086,0.124-0.216,0.203-0.39,0.237
		c-0.166,0.032-0.314,0.008-0.444-0.076c-0.13-0.081-0.22-0.247-0.269-0.495l-0.872-4.492l12.968-2.521l0.873,4.494
		c0.047,0.247,0.029,0.434-0.057,0.558c-0.086,0.125-0.216,0.203-0.391,0.237c-0.174,0.033-0.324,0.01-0.45-0.074
		c-0.126-0.083-0.212-0.248-0.261-0.496l-0.678-3.487L314.91,198.555z"/>
	<path d="M330.271,196.185l1.459,12.145l4.015-0.483c0.279-0.032,0.483-0.011,0.616,0.068c0.132,0.079,0.207,0.194,0.226,0.348
		c0.018,0.146-0.028,0.273-0.138,0.386c-0.109,0.111-0.303,0.185-0.582,0.218l-9.199,1.105c-0.278,0.033-0.484,0.009-0.616-0.073
		c-0.133-0.083-0.207-0.197-0.225-0.343c-0.019-0.152,0.026-0.283,0.137-0.391c0.109-0.107,0.304-0.179,0.582-0.212l4.015-0.483
		l-1.461-12.143l-4.014,0.482c-0.278,0.033-0.484,0.011-0.615-0.067c-0.133-0.079-0.207-0.194-0.226-0.348s0.026-0.284,0.136-0.393
		c0.11-0.106,0.305-0.177,0.583-0.211l9.198-1.106c0.279-0.033,0.484-0.011,0.617,0.067c0.132,0.079,0.207,0.195,0.226,0.35
		c0.018,0.152-0.027,0.283-0.137,0.391c-0.11,0.108-0.304,0.179-0.583,0.212L330.271,196.185z"/>
	<path d="M346.664,208.161l-1.641,0.078l-6.559-12.961l-0.912,0.042c-0.215,0.011-0.37,0-0.465-0.033
		c-0.096-0.031-0.176-0.09-0.24-0.172c-0.065-0.082-0.1-0.172-0.104-0.27s0.021-0.191,0.078-0.278
		c0.057-0.088,0.131-0.153,0.223-0.193c0.092-0.041,0.245-0.067,0.46-0.078l4.389-0.208c0.225-0.01,0.382,0,0.473,0.033
		c0.091,0.032,0.168,0.09,0.233,0.173c0.065,0.082,0.099,0.172,0.104,0.27c0.004,0.098-0.024,0.19-0.086,0.279
		c-0.061,0.088-0.135,0.153-0.223,0.194c-0.087,0.04-0.238,0.065-0.453,0.075l-2.258,0.107l6.049,11.959l0.084-0.004l4.818-12.474
		l-2.243,0.105c-0.224,0.011-0.384,0-0.479-0.032c-0.095-0.032-0.175-0.09-0.24-0.172c-0.064-0.083-0.099-0.172-0.104-0.271
		c-0.004-0.097,0.023-0.189,0.085-0.279c0.062-0.088,0.136-0.151,0.223-0.193c0.087-0.04,0.243-0.065,0.468-0.077l4.375-0.207
		c0.225-0.011,0.384,0,0.479,0.031c0.096,0.033,0.176,0.09,0.24,0.173c0.064,0.082,0.1,0.173,0.104,0.271s-0.024,0.189-0.086,0.278
		c-0.062,0.088-0.135,0.154-0.222,0.194c-0.088,0.041-0.243,0.067-0.467,0.077l-0.898,0.042L346.664,208.161z"/>
	<path d="M356.687,201.047l-0.146,5.87l9.066,0.225l0.074-3.027c0.007-0.243,0.064-0.417,0.175-0.52
		c0.11-0.104,0.254-0.153,0.433-0.148c0.177,0.004,0.318,0.061,0.424,0.169c0.104,0.108,0.154,0.285,0.148,0.528l-0.101,4.052
		l-13.009-0.321c-0.281-0.007-0.48-0.061-0.6-0.161s-0.178-0.225-0.174-0.371c0.004-0.153,0.068-0.276,0.191-0.367
		c0.124-0.09,0.326-0.133,0.607-0.125l1.586,0.039l0.301-12.228l-1.585-0.039c-0.281-0.007-0.481-0.059-0.601-0.156
		c-0.119-0.096-0.177-0.222-0.173-0.376c0.003-0.155,0.067-0.277,0.191-0.368s0.326-0.132,0.606-0.125l12.393,0.305l-0.088,3.528
		c-0.006,0.244-0.063,0.416-0.174,0.521c-0.11,0.104-0.254,0.151-0.432,0.147s-0.319-0.061-0.424-0.169
		c-0.105-0.108-0.155-0.284-0.148-0.528l0.061-2.502l-8.447-0.208l-0.132,5.332l4.224,0.105l0.029-1.16
		c0.006-0.245,0.066-0.418,0.181-0.521c0.116-0.103,0.262-0.151,0.439-0.148c0.169,0.005,0.308,0.062,0.417,0.17
		s0.161,0.284,0.155,0.528l-0.083,3.344c-0.006,0.243-0.066,0.417-0.181,0.521c-0.115,0.103-0.257,0.152-0.425,0.148
		c-0.178-0.004-0.321-0.061-0.432-0.17c-0.109-0.109-0.161-0.284-0.154-0.529l0.027-1.158L356.687,201.047z"/>
</g>
<g>
	<path fill="#C5CE17" d="M393.94,467.614c0-21.223-17.208-38.428-38.431-38.428c-21.23,0-38.439,17.205-38.439,38.428
		c0,21.227,17.209,38.436,38.439,38.436C376.732,506.049,393.94,488.842,393.94,467.614z"/>
</g>
<g>
	<path d="M229.355,393.256c0.097-5.908-3.545-3.04-3.545-6.768c0-2.639,2.816-3.04,4.516-3.04h15.828
		c13.498,0,17.917,9.866,17.917,20.19c0,10.668-5.293,20.706-17.577,20.706c-2.087,0-3.835-0.057-5.341-0.172
		c-1.505-0.058-2.815-0.115-4.175-0.115c-1.36,0-2.768,0.057-4.128,0.115c-1.359,0.115-2.719,0.172-4.127,0.172
		c-1.65,0-3.738-0.975-3.738-3.269c0-4.13,3.836,0.458,3.981-7.916L229.355,393.256z M241.008,414.249
		c0,2.925,0.389,4.13,3.011,4.13c6.117,0,7.186-7.399,7.186-13.135c0-13.421-4.272-15.544-8.011-15.544
		c-2.04,0-2.186,0.975-2.186,3.155V414.249z"/>
	<path fill="#913B8E" d="M297.189,393.772c0-6.138-4.176-3.786-4.176-7.113c0-3.556,5.633-3.441,7.623-3.441
		c1.845,0,7.187,0,7.187,3.327c0,3.212-3.642,1.262-3.642,6.481v15.487c0,2.581,0.048,16.347-16.751,16.347
		c-19.131,0-16.994-17.437-16.994-18.125v-13.25c0.194-3.613-3.107-3.613-3.107-6.252c0-0.803-0.534-4.015,9.468-4.015
		c7.914,0,9.517,1.721,9.517,3.958c0,4.129-3.544,0.287-3.787,7.284v10.554c0,6.826,2.185,11.185,7.332,11.185
		c7.671,0,7.331-7.514,7.331-8.145V393.772z"/>
	<path d="M314.287,395.78c0-8.891-3.69-5.22-3.69-8.776c0-3.155,3.787-3.556,5.729-3.556c1.02,0,1.99,0.115,3.01,0.172
		c0.972,0.114,1.991,0.229,2.962,0.229c1.554,0,3.107-0.115,4.71-0.229c1.554-0.058,3.156-0.172,4.71-0.172
		c5.486,0,11.847,2.868,11.847,10.497c0,3.441-1.408,6.768-4.127,8.317c-0.437,0.287-0.776,0.459-0.776,1.147
		c0,0.86,0.631,1.09,1.213,1.377c3.399,1.491,4.904,4.129,5.584,10.324c0.583,5.334,3.738,2.122,3.738,5.621
		c0,2.18-2.233,4.474-7.72,4.474c-7.769,0-8.739-5.277-10.244-12.848c-0.534-2.638-1.36-5.219-4.03-5.219
		c-1.068,0-1.457,0.172-1.457,3.786c0,1.663,0.098,3.958,0.34,5.563c0.389,2.639,2.865,1.835,2.865,4.589
		c0,2.065-1.214,3.613-9.08,3.613c-2.33,0-9.225,0-9.225-4.187c0-2.982,3.642-0.918,3.642-8.374V395.78z M325.551,398.304
		c-0.097,1.491-0.34,2.753,1.263,2.753c3.156,0,4.176-2.065,4.176-5.621c0-2.811-0.583-5.678-3.398-5.678
		c-1.797,0-1.748,1.319-1.846,3.097L325.551,398.304z"/>
	<path d="M360.856,403.351c1.505-3.958,3.495-9.005,3.495-13.537c0-3.958,1.554-6.94,5.875-6.94c4.225,0,6.895,5.105,8.788,8.891
		c0.826,1.664,8.157,19.215,9.905,23.918c1.603,4.359,4.225,1.721,4.225,4.99c0,4.188-6.895,4.015-9.322,4.015
		c-6.943,0-11.119-0.057-11.119-3.613c0-2.753,2.962-1.721,2.962-3.729c0-2.581-1.214-2.811-9.031-2.811
		c-2.524,0-4.029,0.115-4.029,2.925c0,2.237,3.107,0.746,3.107,3.729c0,3.441-5.244,3.499-7.187,3.499
		c-6.943,0-7.574-1.548-7.574-3.384c0-2.696,2.622-1.893,4.03-3.958c1.067-1.548,2.088-4.302,2.815-6.137L360.856,403.351z
		 M371.053,407.481c0.485,0,1.941,0.114,1.941-0.746s-1.408-3.843-1.796-4.646c-0.438-0.917-1.263-3.04-2.331-3.04
		c-1.165,0-1.99,3.441-2.185,4.072s-1.02,2.868-1.02,3.556c0,0.975,1.214,0.803,1.748,0.803H371.053z"/>
	<path fill="#913B8E" d="M424.903,399.967c-0.437,0.459-0.874,0.803-0.874,1.549s0.534,0.975,1.02,1.262
		c1.991,0.918,5.438,3.958,5.438,8.776c0,5.736-3.253,12.791-13.013,12.791c-1.65,0-3.155-0.057-4.612-0.172
		c-1.457-0.058-2.913-0.115-4.418-0.115c-1.651,0-3.351,0.057-5.001,0.115c-1.651,0.115-3.302,0.172-5.001,0.172
		c-1.506,0-3.205-1.032-3.205-3.04c0-3.556,3.156,0.058,3.447-9.464l0.534-16.519c0.291-8.661-3.884-4.703-3.884-8.661
		c0-2.179,1.99-3.212,3.495-3.212c1.797,0,3.593,0.115,5.39,0.172c1.797,0.114,3.593,0.229,5.39,0.229
		c1.165,0,2.282-0.115,3.398-0.229c1.117-0.058,2.282-0.172,3.398-0.172c8.886,0,11.168,4.99,11.168,9.407
		C427.574,395.493,426.651,398.304,424.903,399.967z M410.774,397.443c0,2.237-0.097,3.327,1.408,3.327
		c2.913,0,3.593-2.409,3.593-5.564c0-2.581-0.729-5.793-3.398-5.793c-1.797,0-1.603,1.721-1.603,3.384V397.443z M410.774,411.438
		c0,6.653,0.923,6.826,2.428,6.826c2.768,0,3.738-2.237,3.738-5.22c0-3.499-0.874-6.596-4.272-6.596
		c-1.505,0-1.845,0.918-1.894,2.122V411.438z"/>
	<path d="M437.97,424.057c-1.554,0-4.03,0.115-4.03-2.524c0-3.556,3.787-0.573,3.933-7.227c0.098-4.187,0.098-7.858,0.098-11.242
		c0-3.441-0.243-6.653-0.34-9.865c-0.098-4.818-4.37-2.294-4.37-5.564c0-4.187,7.623-4.417,10.002-4.417
		c9.711,0,10.196,1.95,10.196,3.9c0,3.327-3.836,0.803-3.836,6.195v18.24c0,4.13,0.583,6.137,4.03,6.137
		c8.254,0,5.438-7.973,8.545-7.973c2.186,0,3.011,2.753,3.011,4.933c0,4.474-2.719,10.21-4.952,10.21
		c-0.874,0-1.554-0.229-2.428-0.402c-0.923-0.229-1.991-0.401-3.642-0.401H437.97z"/>
	<path d="M487.014,383.849c6.506,0,7.429-1.147,8.205-1.147c2.768,0,3.934,5.621,3.934,8.145c0,1.893-0.632,4.129-2.525,4.129
		c-3.836,0-0.729-5.506-9.953-5.506c-5.39,0-4.855,1.147-4.855,7.744c0,3.327,0.146,3.441,3.107,3.441
		c3.69,0,0.923-6.367,4.37-6.367c2.815,0,3.01,6.481,3.01,8.718c0,2.352-0.34,9.234-3.253,9.234c-3.01,0,0-6.022-4.903-6.022
		c-2.04,0-1.991,2.18-1.991,4.015c0,8.374,0.485,7.973,5.584,7.973c9.953,0,7.137-8.087,11.118-8.087
		c1.554,0,2.331,2.065,2.331,3.671c0,3.9-2.622,10.898-4.564,10.898c-0.34,0-1.116-0.172-2.136-0.344
		c-1.068-0.115-2.428-0.287-4.079-0.287h-19.955c-3.205,0-3.253-1.721-3.253-2.466c0-3.155,3.302-0.631,3.642-6.711
		c0.582-10.439,0.631-9.407,0.146-19.789c-0.34-8.775-4.03-4.244-4.03-8.317c0-3.499,4.078-2.925,6.069-2.925H487.014z"/>
</g>
<g>
	<g>
		<rect x="224.306" y="316.43" fill="none" width="338.271" height="109.139"/>
		<path fill="#913B8E" d="M283.275,358.237c0,2.34,0.313,3.51,2.418,4.68c1.561,0.858,2.652,1.326,2.652,3.276
			c0,1.872-0.156,5.772-15.522,5.772c-3.432,0-13.416-0.078-13.416-5.304c-0.313-6.006,5.46,0.624,5.46-15.21
			c0-4.212-0.936-4.056-4.836-4.056c-10.921,0-9.906,0.312-9.906,7.332c0,10.687,4.836,6.396,4.836,11.467
			c0,5.46-11.389,5.772-15.133,5.772c-3.588,0-14.431-0.312-14.431-5.616c0-1.638,1.171-2.652,2.496-3.276
			c2.809-1.326,3.822-1.092,3.822-17.395c0-20.749-0.312-19.033-3.198-20.593c-1.17-0.624-2.574-1.326-2.574-2.886
			c0-6.006,13.027-6.63,17.395-6.63c3.276,0,12.325,0.39,12.325,5.07c0,2.418-1.326,3.276-3.12,4.368
			c-1.95,1.092-2.418,2.028-2.418,8.97c0,4.368,2.027,3.822,5.771,3.822h3.979c5.148,0,4.992-0.78,4.992-3.198
			c0-8.502-1.326-9.048-2.34-9.594c-1.482-0.858-2.887-1.56-2.887-3.588c0-1.482-0.312-5.85,15.211-5.85
			c3.666,0,14.041,0.078,14.041,5.538c0,1.716-0.858,2.886-2.418,3.666c-2.341,1.014-3.199,0.78-3.199,13.183V358.237z"/>
		<path stroke="#000000" stroke-miterlimit="10" d="M293.569,343.572c0-16.537,13.183-28.237,30.187-28.237
			c21.529,0,29.798,18.955,29.798,29.017c0,16.771-14.821,27.847-30.733,27.847C306.361,372.199,293.569,360.187,293.569,343.572z
			 M320.168,326.958c-4.367,0-6.552,4.524-6.552,8.346c0,6.63,4.681,25.273,13.104,25.273c4.758,0,6.786-4.134,6.786-8.347
			C333.507,345.132,329.295,326.958,320.168,326.958z"/>
		<path stroke="#000000" stroke-miterlimit="10" d="M365.563,328.284c0-5.85-7.254-3.276-7.254-8.19c0-3.12,3.432-3.822,5.851-3.822
			c1.949,0,3.821,0.156,5.771,0.156c11.311,0,18.175-1.092,21.451-1.092c10.608,0,20.826,6.162,20.826,17.863
			c0,11.622-9.828,17.862-20.671,17.862c-2.34,0-4.68-0.39-6.786-0.39c-0.936,0-1.248,0.39-1.248,1.248v4.524
			c0.234,9.75,5.929,5.694,5.929,10.218c0,5.07-11.232,5.304-14.742,5.304c-3.276,0-14.821-0.078-14.821-5.148
			c0-4.29,5.694-1.638,5.694-8.034V328.284z M386.469,324.54c-3.042,0-2.965,0.936-2.965,2.496v11.701
			c0,1.638-0.702,3.432,3.511,3.432c5.148,0,7.176-3.9,7.176-8.659C394.19,328.596,391.694,324.54,386.469,324.54z"/>
	</g>
</g>
<path fill-rule="evenodd" d="M210.102,493.413c23.951,42.529,66.256,74.219,118.158,82.805
	c71.157,11.771,139.233-23.373,172.649-82.805l0,0H210.102L210.102,493.413z"/>
<path fill-rule="evenodd" fill="none" stroke="#000000" stroke-width="12" stroke-miterlimit="10" d="M539.219,442.042
	c-16.783,101.465-112.643,170.114-214.104,153.33C223.656,578.586,155.01,482.729,171.791,381.268
	c16.783-101.463,112.639-170.106,214.098-153.322C487.35,244.727,556.002,340.581,539.219,442.042z"/>
<g id="XMLID_1_">
	<g>
		<path fill="#C1D11A" d="M444.403,317.739c-6.75,16.414-14.48,34.467-19.476,46.579c-6.114,14.817-17.275,8.823-9.815-6.296
			c7.177-14.55,13.224-31.434,19.093-46.633c0.395-1.015,0.311-2.526-0.173-3.515c-97.95-86.117-13.309-165.517-7.097-179.304
			c30.584-53.093,21.528-67.947,23.239-71.138c73.821,65.474,136.11,182.374,55.253,247.925
			c-9.764,11.979-39.34,19.279-49.955,21.818l-2.42-2.063c4.414-9.486,18.169-40.797,25.565-91.321
			c4.709-32.213-4.85-51.726-5.511-55.361c-0.204,0.026-0.397,0.063-0.602,0.089c0.028,0.482,0.045,0.975,0.106,1.448
			c1.544,11.312,1.687,22.625,0.717,33.948c-1.302,15.239-4.241,30.151-8.18,44.862c-4.457,16.632-10.194,32.809-16.6,48.762
			C447.232,310.816,445.846,314.241,444.403,317.739z"/>
		<path fill="#FFFFFF" d="M473.107,178.43c0.661,3.636,10.22,23.148,5.511,55.361c-7.396,50.524-21.151,81.835-25.565,91.321
			l-8.649-7.374c1.442-3.498,2.829-6.923,4.146-10.2c6.405-15.953,12.143-32.129,16.6-48.762c3.938-14.711,6.878-29.623,8.18-44.862
			c0.97-11.322,0.827-22.636-0.717-33.948c-0.062-0.473-0.078-0.965-0.106-1.448C472.71,178.493,472.903,178.456,473.107,178.43z"/>
		<path fill="#C1D11A" d="M453.053,325.113l2.42,2.063c-2.177,0.523-3.566,0.845-3.806,0.967
			C451.716,327.951,452.217,326.938,453.053,325.113z"/>
	</g>
</g>
<g>
	<path fill="#913B8E" d="M408.234,458.959l9.021-0.176c0.317-0.006,0.579,0.246,0.586,0.563c0.006,0.316-0.246,0.58-0.563,0.586
		c-0.014,0-0.026,0-0.04-0.002l-0.04-0.002l-8.989-0.469c-0.138-0.008-0.243-0.125-0.236-0.264c0.007-0.131,0.114-0.232,0.243-0.236
		H408.234z"/>
	<path fill="#913B8E" d="M426.31,458.889l9.014,0.287c0.587,0.02,1.048,0.51,1.029,1.098s-0.51,1.049-1.098,1.031
		c-0.018-0.002-0.036-0.002-0.054-0.004l-0.059-0.006l-8.972-0.771c-0.451-0.037-0.786-0.436-0.747-0.887
		c0.037-0.436,0.409-0.762,0.841-0.75L426.31,458.889z"/>
	<path fill="#913B8E" d="M444.483,459.764c0,0,0.56,0.061,1.4,0.152c0.839,0.104,1.957,0.24,3.075,0.377
		c0.284,0.041,0.548,0.055,0.847,0.119c0.291,0.055,0.578,0.109,0.855,0.16c0.557,0.105,1.075,0.203,1.521,0.289
		c0.892,0.17,1.486,0.285,1.486,0.285c0.81,0.154,1.34,0.938,1.185,1.748c-0.156,0.809-0.938,1.34-1.749,1.184
		c-0.015-0.002-0.029-0.006-0.044-0.008l-0.194-0.045c0,0-0.544-0.125-1.359-0.311c-0.408-0.094-0.884-0.201-1.394-0.318
		c-0.51-0.115-1.05-0.252-1.609-0.328c-2.222-0.363-4.444-0.727-4.444-0.727c-0.711-0.115-1.194-0.787-1.078-1.498
		c0.112-0.688,0.742-1.162,1.426-1.088L444.483,459.764z"/>
	<path fill="#913B8E" d="M453.595,470.915c0,0-0.543,0.146-1.357,0.367c-0.407,0.111-0.883,0.24-1.392,0.377
		c-0.255,0.07-0.519,0.141-0.785,0.213c-0.261,0.078-0.568,0.125-0.854,0.186c-2.331,0.453-4.663,0.906-4.663,0.906
		c-0.988,0.191-1.945-0.455-2.138-1.443s0.453-1.945,1.442-2.137c0.014-0.004,0.028-0.006,0.042-0.008l0.129-0.021
		c0,0,2.207-0.365,4.413-0.729c0.554-0.076,1.101-0.211,1.615-0.328c0.514-0.117,0.993-0.229,1.404-0.322
		c0.822-0.188,1.371-0.314,1.371-0.314c0.9-0.205,1.797,0.357,2.003,1.258c0.2,0.877-0.329,1.75-1.189,1.984L453.595,470.915z"/>
	<path fill="#913B8E" d="M435.466,474.317l-8.936,1.061c-1.143,0.137-2.179-0.68-2.314-1.822c-0.136-1.145,0.681-2.18,1.823-2.316
		c0.017-0.002,0.034-0.004,0.051-0.004l0.059-0.006l8.959-0.803c1.075-0.096,2.023,0.697,2.12,1.771
		c0.094,1.055-0.668,1.988-1.712,2.113L435.466,474.317z"/>
	<path fill="#913B8E" d="M417.435,476.2l-8.976,0.662c-1.243,0.092-2.326-0.842-2.418-2.086s0.842-2.326,2.086-2.418
		c0.01,0,0.02-0.002,0.029-0.002l0.044-0.002l8.984-0.5c1.2-0.066,2.228,0.854,2.294,2.053c0.066,1.188-0.831,2.203-2.011,2.291
		L417.435,476.2z"/>
	<path fill="#913B8E" d="M399.393,477.426c0,0-2.247,0.119-4.494,0.236c-2.248,0.096-4.496,0.189-4.496,0.189
		c-1.322,0.055-2.438-0.973-2.494-2.295s0.972-2.439,2.294-2.494h0.018l0.009-0.002l8.993-0.311
		c1.291-0.045,2.375,0.967,2.419,2.258c0.045,1.275-0.942,2.35-2.213,2.416L399.393,477.426z"/>
	<path fill="#913B8E" d="M381.341,478.153l-8.997,0.232c-1.358,0.033-2.488-1.039-2.522-2.398c-0.035-1.357,1.038-2.488,2.396-2.521
		l0.018-0.002h0.009l8.999-0.166c1.341-0.025,2.448,1.043,2.473,2.383c0.024,1.336-1.032,2.439-2.364,2.473H381.341z"/>
	<path fill="#913B8E" d="M363.281,478.551c0,0-2.249,0.031-4.499,0.023c-2.25,0-4.5,0.002-4.5,0.002h-0.011
		c-1.367,0-2.476-1.107-2.477-2.475c0-1.361,1.099-2.467,2.458-2.477l8.999-0.061c1.377-0.01,2.501,1.1,2.511,2.477
		c0.009,1.369-1.089,2.49-2.457,2.51H363.281z"/>
	<path fill="#913B8E" d="M345.219,478.518l-9-0.125h-0.009c-1.331-0.018-2.396-1.111-2.377-2.443
		c0.018-1.324,1.103-2.387,2.426-2.377l9.001,0.059h0.009c1.35,0.01,2.436,1.109,2.427,2.459s-1.109,2.436-2.459,2.428H345.219z"/>
	<path fill="#913B8E" d="M327.152,478.2l-8.996-0.361l-0.033-0.002c-1.267-0.051-2.253-1.119-2.202-2.385
		c0.05-1.254,1.097-2.23,2.345-2.203l9,0.197h0.034c1.313,0.029,2.354,1.117,2.324,2.43s-1.116,2.354-2.429,2.324
		C327.185,478.2,327.162,478.2,327.152,478.2z"/>
	<path fill="#913B8E" d="M309.094,477.397l-9.006-0.529h-0.016c-1.176-0.07-2.074-1.08-2.005-2.256
		c0.068-1.162,1.058-2.053,2.217-2.008l8.991,0.367l0.039,0.002c1.222,0.049,2.173,1.08,2.123,2.303s-1.081,2.172-2.304,2.123
		C309.124,477.399,309.104,477.397,309.094,477.397z"/>
	<path fill="#913B8E" d="M291.023,476.157l-8.964-0.865l-0.046-0.004c-1.037-0.102-1.797-1.023-1.696-2.061
		c0.098-1.018,0.991-1.768,2.005-1.701l8.982,0.609l0.049,0.002c1.111,0.076,1.951,1.037,1.876,2.148s-1.037,1.951-2.148,1.877
		C291.064,476.161,291.039,476.159,291.023,476.157z"/>
	<path fill="#913B8E" d="M272.917,474.211l-8.885-1.482l-0.044-0.008c-0.862-0.145-1.445-0.959-1.301-1.822
		c0.14-0.842,0.923-1.416,1.762-1.311l8.931,1.137l0.049,0.006c0.964,0.123,1.646,1.004,1.522,1.967s-1.003,1.645-1.967,1.523
		C272.965,474.217,272.938,474.213,272.917,474.211z"/>
	<path fill="#913B8E" d="M254.508,469.983c0,0-0.122-0.07-0.335-0.193c-0.059-0.029-0.34-0.201-0.614-0.398
		c-0.135-0.094-0.28-0.201-0.445-0.363c-0.172-0.174-0.296-0.26-0.506-0.547c-0.102-0.141-0.199-0.291-0.289-0.447l-0.128-0.238
		c-0.046-0.113-0.089-0.234-0.125-0.357c-0.074-0.248-0.125-0.51-0.148-0.768c-0.005-0.268,0.024-0.557,0.083-0.836
		c0.029-0.135,0.067-0.287,0.11-0.398c0.043-0.1,0.09-0.199,0.141-0.299c0.102-0.197,0.22-0.393,0.35-0.572
		c0.197-0.229,0.44-0.48,0.656-0.656c0.189-0.141,0.387-0.277,0.589-0.408c0.175-0.092,0.353-0.184,0.53-0.275
		c0.349-0.166,0.673-0.291,0.996-0.408c0.634-0.219,1.239-0.387,1.797-0.521c0.558-0.137,1.069-0.242,1.506-0.328
		c0.873-0.168,1.448-0.26,1.448-0.26l0.04-0.008c0.648-0.104,1.259,0.336,1.364,0.984c0.1,0.619-0.302,1.205-0.903,1.348
		c0,0-0.544,0.127-1.36,0.318c-0.813,0.199-1.892,0.494-2.912,0.896c-0.252,0.105-0.502,0.215-0.733,0.336
		c-0.236,0.121-0.445,0.256-0.629,0.4c-0.084,0.074-0.148,0.154-0.224,0.225c-0.022,0.076-0.107,0.148-0.096,0.211
		c-0.052,0.121,0.033,0.24,0.116,0.369c0.108,0.117,0.226,0.24,0.355,0.314c0.125,0.084,0.226,0.16,0.345,0.215
		c0.218,0.115,0.343,0.18,0.343,0.18l0.035,0.02c0.688,0.361,0.954,1.211,0.593,1.9c-0.361,0.688-1.212,0.953-1.9,0.592
		C254.542,470,254.522,469.991,254.508,469.983z"/>
	<path fill="#913B8E" d="M269.258,460.68l8.997-0.535l0.038-0.002c0.389-0.023,0.723,0.273,0.746,0.662
		c0.022,0.375-0.256,0.701-0.625,0.742l-8.941,1.018l-0.051,0.006c-0.521,0.059-0.99-0.316-1.05-0.836
		c-0.059-0.521,0.315-0.99,0.836-1.049C269.224,460.684,269.242,460.682,269.258,460.68z"/>
	<path fill="#913B8E" d="M287.31,459.928l4.859-0.004h0.017c0.139,0,0.25,0.111,0.25,0.25c0,0.131-0.103,0.238-0.231,0.248
		l-4.835,0.352l-0.028,0.002c-0.233,0.016-0.437-0.16-0.453-0.393c-0.017-0.234,0.158-0.436,0.392-0.453
		C287.289,459.93,287.3,459.928,287.31,459.928z"/>
</g>
<g>
	<rect x="243.615" y="510.199" fill="none" width="223.779" height="102.17"/>
	<path fill="#FFFFFF" d="M256.818,509.705c2.531,0,4.16,1.788,4.83,1.788c0.568,0,0.725-0.255,1.164-0.255
		c1.084,0,2.479,2.299,2.479,6.348c0,2.08-0.877,3.831-2.402,3.831c-2.66,0-1.988-6.458-6.586-6.458
		c-1.99,0-2.816,2.626-2.816,4.633c0,5.399,2.041,9.997,5.656,9.997c3.281,0,3.773-2.518,4.574-2.518
		c0.748,0,1.109,1.241,1.109,2.153c0,1.605-1.188,4.961-2.479,4.961c-0.879,0-2.688,2.116-5.736,2.116
		c-5.424,0-9.867-6.056-9.867-13.39C246.744,515.433,251.729,509.705,256.818,509.705z"/>
	<path fill="#FFFFFF" d="M266.277,522.912c0-7.734,4.365-13.207,9.996-13.207c7.131,0,9.869,8.866,9.869,13.572
		c0,7.844-4.908,13.025-10.178,13.025C270.514,536.301,266.277,530.683,266.277,522.912z M275.086,515.141
		c-1.447,0-2.17,2.116-2.17,3.904c0,3.101,1.551,11.821,4.34,11.821c1.576,0,2.248-1.934,2.248-3.904
		C279.504,523.642,278.107,515.141,275.086,515.141z"/>
	<path fill="#FFFFFF" d="M300.975,519.008c0.309,0.365,1.137,1.423,1.602,1.423c0.645,0,0.672-1.496,0.672-2.116
		c0-0.912-0.027-2.481-0.232-3.32c-0.363-1.532-1.732-0.985-1.732-2.955c0-2.335,2.635-2.226,3.721-2.226
		c1.137,0,3.953-0.182,3.953,2.335c0,2.08-1.369,1.313-1.809,2.992c-0.336,1.313-0.336,3.576-0.336,4.962v9.449
		c0,1.642,0.154,6.64-1.576,6.64c-0.518,0-0.955-0.438-1.344-0.912l-7.982-10.106c-0.361-0.475-1.033-1.35-1.576-1.35
		c-0.801,0-0.826,2.372-0.826,3.138c0,1.021,0.025,2.372,0.182,3.32c0.387,2.335,1.756,1.459,1.756,3.247
		c0,2.445-2.66,2.664-3.875,2.664c-1.188,0-3.85-0.219-3.85-2.59c0-1.934,1.5-1.167,1.758-3.502c0.18-1.569,0.232-3.867,0.232-5.509
		c0-2.626,0-5.29-0.285-7.917c-0.412-3.648-2.273-2.225-2.273-4.415c0-2.59,3.488-2.444,4.65-2.444c1.602,0,1.887,0.146,3.049,1.605
		L300.975,519.008z"/>
	<path fill="#FFFFFF" d="M320.043,509.705c2.531,0,4.158,1.788,4.83,1.788c0.568,0,0.723-0.255,1.162-0.255
		c1.086,0,2.48,2.299,2.48,6.348c0,2.08-0.879,3.831-2.402,3.831c-2.662,0-1.99-6.458-6.588-6.458c-1.988,0-2.816,2.626-2.816,4.633
		c0,5.399,2.041,9.997,5.658,9.997c3.281,0,3.771-2.518,4.572-2.518c0.75,0,1.111,1.241,1.111,2.153c0,1.605-1.189,4.961-2.48,4.961
		c-0.879,0-2.688,2.116-5.734,2.116c-5.426,0-9.869-6.056-9.869-13.39C309.967,515.433,314.953,509.705,320.043,509.705z"/>
	<path fill="#FFFFFF" d="M339.91,510.215c3.463,0,3.953-0.729,4.367-0.729c1.473,0,2.092,3.575,2.092,5.181
		c0,1.204-0.336,2.627-1.344,2.627c-2.041,0-0.387-3.502-5.295-3.502c-2.867,0-2.584,0.729-2.584,4.925
		c0,2.116,0.078,2.189,1.654,2.189c1.963,0,0.49-4.05,2.324-4.05c1.498,0,1.602,4.123,1.602,5.545c0,1.496-0.18,5.874-1.73,5.874
		c-1.602,0,0-3.831-2.609-3.831c-1.084,0-1.059,1.387-1.059,2.554c0,5.327,0.258,5.071,2.971,5.071c5.295,0,3.797-5.145,5.916-5.145
		c0.826,0,1.24,1.313,1.24,2.335c0,2.481-1.396,6.932-2.43,6.932c-0.18,0-0.594-0.109-1.137-0.219
		c-0.568-0.073-1.291-0.183-2.17-0.183h-10.617c-1.705,0-1.73-1.095-1.73-1.569c0-2.006,1.756-0.401,1.938-4.269
		c0.311-6.64,0.336-5.983,0.078-12.587c-0.182-5.582-2.145-2.7-2.145-5.29c0-2.226,2.17-1.861,3.229-1.861H339.91z"/>
	<path fill="#FFFFFF" d="M350.402,515.761c0-2.736-2.402-1.532-2.402-3.831c0-1.459,1.137-1.788,1.938-1.788
		c0.646,0,1.266,0.073,1.912,0.073c3.746,0,6.018-0.511,7.104-0.511c3.514,0,6.896,2.882,6.896,8.355
		c0,5.436-3.254,8.354-6.846,8.354c-0.773,0-1.549-0.182-2.246-0.182c-0.311,0-0.414,0.182-0.414,0.583v2.116
		c0.078,4.561,1.963,2.663,1.963,4.779c0,2.372-3.719,2.481-4.881,2.481c-1.086,0-4.91-0.037-4.91-2.408
		c0-2.006,1.887-0.766,1.887-3.758V515.761z M357.326,514.01c-1.008,0-0.982,0.438-0.982,1.167v5.473
		c0,0.766-0.232,1.605,1.162,1.605c1.705,0,2.377-1.824,2.377-4.049C359.883,515.907,359.057,514.01,357.326,514.01z"/>
	<path fill="#FFFFFF" d="M379.08,510.215c1.111,0,1.627-0.146,2.016-0.255c0.361-0.146,0.568-0.255,1.059-0.255
		c1.008,0,3.1,2.809,3.1,6.75c0,1.824-0.672,3.028-1.988,3.028c-2.248,0-2.223-4.305-3.539-4.305c-1.008,0-0.904,1.97-0.904,2.262
		v11.201c0,4.342,2.377,2.262,2.377,4.816c0,1.131-0.492,2.736-5.322,2.736c-1.318,0-6.148,0.073-6.148-2.736
		c0-1.934,1.602-1.167,2.119-2.554c0.258-0.766,0.361-2.956,0.387-3.868l0.207-8.063c0.104-3.831-0.439-3.794-0.801-3.794
		c-1.162,0-1.73,4.305-3.824,4.305c-1.008,0-1.602-1.313-1.602-2.627c0-3.101,1.861-7.151,3.332-7.151
		c0.182,0,0.467,0.109,0.957,0.255c0.49,0.109,1.188,0.255,2.221,0.255H379.08z"/>
	<path fill="#FFFFFF" d="M396.287,510.215c3.463,0,3.953-0.729,4.367-0.729c1.473,0,2.092,3.575,2.092,5.181
		c0,1.204-0.336,2.627-1.344,2.627c-2.041,0-0.387-3.502-5.295-3.502c-2.867,0-2.584,0.729-2.584,4.925
		c0,2.116,0.078,2.189,1.654,2.189c1.963,0,0.49-4.05,2.324-4.05c1.498,0,1.602,4.123,1.602,5.545c0,1.496-0.18,5.874-1.73,5.874
		c-1.602,0,0-3.831-2.609-3.831c-1.084,0-1.059,1.387-1.059,2.554c0,5.327,0.258,5.071,2.971,5.071c5.295,0,3.797-5.145,5.916-5.145
		c0.826,0,1.24,1.313,1.24,2.335c0,2.481-1.396,6.932-2.43,6.932c-0.18,0-0.594-0.109-1.137-0.219
		c-0.568-0.073-1.291-0.183-2.17-0.183h-10.617c-1.705,0-1.73-1.095-1.73-1.569c0-2.006,1.756-0.401,1.938-4.269
		c0.311-6.64,0.336-5.983,0.078-12.587c-0.182-5.582-2.145-2.7-2.145-5.29c0-2.226,2.17-1.861,3.229-1.861H396.287z"/>
	<path fill="#FFFFFF" d="M420.264,516.527c0-3.904-2.221-2.408-2.221-4.524c0-2.262,2.996-2.189,4.055-2.189
		c0.982,0,3.824,0,3.824,2.116c0,2.043-1.938,0.803-1.938,4.123v9.851c0,1.642,0.025,10.398-8.912,10.398
		c-10.18,0-9.043-11.091-9.043-11.529v-8.428c0.104-2.298-1.652-2.298-1.652-3.977c0-0.511-0.285-2.554,5.037-2.554
		c4.211,0,5.064,1.095,5.064,2.518c0,2.627-1.887,0.182-2.016,4.633v6.713c0,4.342,1.162,7.115,3.9,7.115
		c4.082,0,3.9-4.78,3.9-5.181V516.527z"/>
	<path fill="#FFFFFF" d="M428.613,517.804c0-5.655-1.965-3.32-1.965-5.582c0-2.007,2.016-2.262,3.049-2.262
		c0.543,0,1.059,0.073,1.602,0.109c0.518,0.073,1.059,0.146,1.576,0.146c0.826,0,1.654-0.073,2.506-0.146
		c0.826-0.036,1.68-0.109,2.506-0.109c2.92,0,6.303,1.824,6.303,6.677c0,2.189-0.748,4.305-2.195,5.29
		c-0.232,0.182-0.414,0.292-0.414,0.729c0,0.547,0.336,0.693,0.646,0.876c1.809,0.948,2.609,2.626,2.971,6.567
		c0.311,3.393,1.99,1.35,1.99,3.575c0,1.387-1.189,2.846-4.107,2.846c-4.135,0-4.65-3.356-5.451-8.172
		c-0.285-1.678-0.725-3.32-2.145-3.32c-0.568,0-0.775,0.109-0.775,2.408c0,1.058,0.053,2.518,0.182,3.539
		c0.207,1.678,1.523,1.167,1.523,2.919c0,1.313-0.646,2.298-4.83,2.298c-1.24,0-4.908,0-4.908-2.664
		c0-1.897,1.938-0.583,1.938-5.326V517.804z M434.605,519.409c-0.051,0.949-0.18,1.751,0.672,1.751c1.68,0,2.223-1.313,2.223-3.576
		c0-1.788-0.311-3.612-1.809-3.612c-0.957,0-0.93,0.839-0.982,1.97L434.605,519.409z"/>
	<path fill="#FFFFFF" d="M448.404,518.206c0-3.794,2.582-8.501,7.594-8.501c1.654,0,3.514,1.021,3.902,1.021
		c0.361,0,0.723-0.511,1.266-0.511c0.877,0,2.842,2.809,2.842,5.874c0,1.24-0.568,2.481-1.525,2.481
		c-1.73,0-2.738-4.159-5.424-4.159c-0.801,0-1.654,0.511-1.654,1.824c0,2.882,3.539,2.116,6.537,4.925
		c1.602,1.496,2.402,3.32,2.402,6.056c0,4.269-2.48,9.084-8.5,9.084c-1.705,0-4.623-0.62-6.096-1.751
		c-1.24-0.985-1.834-4.853-1.834-6.713c0-0.985,0.309-1.97,1.084-1.97c1.834,0,1.523,5.801,6.277,5.801
		c0.568,0,1.99-0.401,1.99-1.788c0-2.627-3.541-1.97-6.408-5.217C449.438,523.058,448.404,520.832,448.404,518.206z"/>
</g>
<g>
	<g>
		<path fill="#FFFFFF" d="M349.506,555.709c4,0,8,0,12,0c3.225,0,3.225-5,0-5c-4,0-8,0-12,0
			C346.281,550.709,346.281,555.709,349.506,555.709L349.506,555.709z"/>
	</g>
</g>
</svg>
