<?xml version="1.0" encoding="utf-8"?>
<!-- Generator: Adobe Illustrator 16.0.0, SVG Export Plug-In . SVG Version: 6.00 Build 0)  -->
<!DOCTYPE svg PUBLIC "-//W3C//DTD SVG 1.1 Basic//EN" "http://www.w3.org/Graphics/SVG/1.1/DTD/svg11-basic.dtd">
<svg version="1.1" baseProfile="basic" id="Calque_1"
	 xmlns="http://www.w3.org/2000/svg" xmlns:xlink="http://www.w3.org/1999/xlink" x="0px" y="0px" width="756.075px" height="768px"
	 viewBox="0 0 756.075 768" xml:space="preserve">
<g>
	<path fill="#C1D11A" d="M399.291,550.814c5.469-27.891-12.713-54.932-40.605-60.401c-27.901-5.468-54.951,12.71-60.416,40.601
		c-5.471,27.896,12.715,54.946,40.617,60.415C366.777,596.894,393.826,578.713,399.291,550.814z"/>
</g>
<g>
	<path d="M200.476,406.809c1.709-8.022-4.018-5.087-3.022-10.166c0.704-3.594,4.648-3.389,6.964-2.936l21.566,4.227
		c18.392,3.604,21.777,18.224,19.021,32.288c-2.849,14.532-12.739,26.793-29.477,23.513c-2.845-0.558-5.21-1.103-7.23-1.661
		c-2.035-0.48-3.808-0.909-5.659-1.271c-1.853-0.363-3.786-0.661-5.653-0.946c-1.883-0.207-3.751-0.492-5.669-0.868
		c-2.25-0.441-4.834-2.327-4.222-5.452c1.103-5.626,5.104,1.649,7.538-9.719L200.476,406.809z M210.749,438.518
		c-0.781,3.985-0.574,5.729,2.999,6.43c8.335,1.634,11.766-8.16,13.297-15.975c3.583-18.282-1.672-22.314-6.766-23.313
		c-2.778-0.544-3.237,0.745-3.818,3.714L210.749,438.518z"/>
	<path fill="#913B8E" d="M292.75,425.625c1.639-8.36-4.68-6.272-3.792-10.804c0.949-4.845,8.594-3.184,11.306-2.652
		c2.514,0.492,9.79,1.919,8.901,6.45c-0.857,4.376-5.297,0.747-6.69,7.857l-4.135,21.096c-0.689,3.516-4.298,22.281-27.188,17.795
		c-26.065-5.108-18.499-28.291-18.315-29.229l3.537-18.048c1.23-4.871-3.27-5.752-2.565-9.347c0.215-1.094,0.345-5.611,13.974-2.94
		c10.783,2.113,12.507,4.885,11.909,7.933c-1.103,5.625-4.906-0.557-7.104,8.912l-2.818,14.376
		c-1.822,9.298-0.008,15.819,7.004,17.193c10.453,2.049,11.996-8.277,12.164-9.137L292.75,425.625z"/>
	<path d="M315.494,432.922c2.373-12.111-3.635-8.096-2.686-12.939c0.843-4.298,6.109-3.833,8.756-3.315
		c1.39,0.272,2.682,0.688,4.056,1.038c1.293,0.416,2.65,0.845,3.975,1.104c2.117,0.415,4.265,0.674,6.478,0.945
		c2.133,0.337,4.347,0.608,6.463,1.023c7.477,1.465,15.377,7.07,13.341,17.462c-0.919,4.688-3.727,8.844-7.845,10.228
		c-0.671,0.274-1.18,0.418-1.364,1.355c-0.229,1.172,0.568,1.653,1.286,2.199c4.232,2.939,5.579,6.935,4.853,15.555
		c-0.632,7.422,4.525,3.889,3.592,8.655c-0.582,2.97-4.236,5.499-11.713,4.033c-10.585-2.074-10.498-9.522-10.528-20.237
		c-0.023-3.737-0.459-7.473-4.098-8.187c-1.456-0.285-2.03-0.154-2.995,4.768c-0.443,2.266-0.925,5.417-1.022,7.67
		c-0.175,3.698,3.413,3.266,2.679,7.016c-0.552,2.813-2.619,4.599-13.336,2.498c-3.175-0.623-12.569-2.464-11.451-8.167
		c0.796-4.063,5.207-0.278,7.197-10.436L315.494,432.922z M330.168,439.368c-0.53,2.006-1.198,3.66,0.984,4.088
		c4.301,0.843,6.242-1.698,7.191-6.542c0.75-3.829,0.721-7.891-3.116-8.644c-2.447-0.479-2.733,1.331-3.34,3.727L330.168,439.368z"
		/>
	<path d="M376.907,455.668c3.107-4.989,7.168-11.333,8.378-17.506c1.057-5.392,3.97-9.039,9.856-7.886
		c5.756,1.128,8.031,8.795,9.602,14.458c0.681,2.486,5.984,28.353,7.109,35.227c1.02,6.366,5.296,3.472,4.424,7.926
		c-1.118,5.704-10.466,3.628-13.774,2.979c-9.459-1.854-15.133-3.047-14.184-7.892c0.735-3.75,4.494-1.553,5.03-4.287
		c0.689-3.517-0.904-4.153-11.555-6.24c-3.44-0.675-5.521-0.92-6.271,2.908c-0.598,3.047,4.034,1.846,3.237,5.908
		c-0.918,4.688-8.078,3.366-10.724,2.848c-9.461-1.854-9.907-4.132-9.417-6.633c0.72-3.672,4.078-1.878,6.548-4.314
		c1.868-1.825,3.993-5.303,5.475-7.608L376.907,455.668z M389.697,464.017c0.662,0.13,2.616,0.675,2.846-0.498
		c0.229-1.172-0.893-5.611-1.207-6.808c-0.351-1.367-0.909-4.479-2.364-4.764c-1.588-0.312-3.632,4.157-4.064,4.964
		c-0.433,0.808-2.154,3.634-2.338,4.572c-0.261,1.329,1.438,1.418,2.167,1.561L389.697,464.017z"/>
	<path fill="#913B8E" d="M465.063,468.16c-0.718,0.508-1.405,0.86-1.604,1.875c-0.199,1.017,0.467,1.472,1.053,1.992
		c2.468,1.782,6.353,6.843,5.066,13.406c-1.531,7.813-7.848,16.555-21.145,13.949c-2.249-0.441-4.284-0.921-6.238-1.466
		c-1.969-0.467-3.939-0.934-5.99-1.336c-2.249-0.44-4.579-0.816-6.844-1.179c-2.279-0.285-4.544-0.647-6.86-1.102
		c-2.05-0.401-4.091-2.262-3.555-4.997c0.949-4.844,4.284,0.921,7.224-11.971l5.138-22.36c2.709-11.721-4.037-7.444-2.98-12.835
		c0.582-2.969,3.57-3.844,5.621-3.442c2.448,0.479,4.865,1.116,7.297,1.674c2.418,0.636,4.835,1.271,7.282,1.751
		c1.588,0.311,3.141,0.453,4.692,0.595c1.537,0.22,3.154,0.375,4.677,0.673c12.106,2.373,13.883,9.78,12.704,15.796
		C469.895,462.778,467.889,466.36,465.063,468.16z M442.748,480.013c-1.776,9.063-0.564,9.544,1.486,9.946
		c3.771,0.739,5.691-2.049,6.487-6.112c0.935-4.767,0.57-9.219-4.061-10.126c-2.051-0.402-2.76,0.757-3.147,2.385L442.748,480.013z
		 M446.484,460.948c-0.597,3.047-1.02,4.506,1.031,4.908c3.97,0.778,5.539-2.322,6.382-6.619c0.688-3.517,0.553-8.086-3.086-8.8
		c-2.447-0.479-2.643,1.916-3.087,4.182L446.484,460.948z"/>
	<path d="M476.421,504.462c-2.117-0.415-5.521-0.919-4.816-4.514c0.95-4.844,5.313,0.23,7.287-8.795
		c1.251-5.677,2.23-10.678,3.135-15.288c0.918-4.688,1.444-9.128,2.171-13.529c1.153-6.589-5.342-4.292-4.469-8.746
		c1.117-5.704,11.564-3.98,14.807-3.345c13.23,2.593,13.371,5.379,12.851,8.036c-0.889,4.531-5.44,0.07-6.88,7.415l-4.869,24.846
		c-1.103,5.626-0.845,8.516,3.853,9.437c11.246,2.204,9.538-9.408,13.771-8.579c2.977,0.583,3.367,4.554,2.785,7.523
		c-1.194,6.095-6.431,13.182-9.474,12.585c-1.191-0.233-2.056-0.728-3.201-1.195c-1.195-0.559-2.605-1.078-4.854-1.52
		L476.421,504.462z"/>
	<path d="M553.966,462.785c8.865,1.737,10.429,0.421,11.487,0.629c3.771,0.739,3.857,8.707,3.184,12.145
		c-0.505,2.578-1.962,5.457-4.542,4.951c-5.227-1.024,0.478-7.695-12.092-10.158c-7.343-1.439-6.922,0.267-8.683,9.252
		c-0.888,4.531-0.721,4.727,3.314,5.518c5.027,0.985,2.958-8.427,7.654-7.506c3.838,0.752,2.372,9.633,1.774,12.68
		c-0.628,3.204-2.928,12.489-6.897,11.711c-4.102-0.804,1.607-8.204-5.074-9.513c-2.779-0.544-3.295,2.437-3.785,4.938
		c-2.235,11.407-1.466,10.99,5.48,12.351c13.561,2.658,11.883-9.111,17.309-8.047c2.116,0.415,2.623,3.435,2.194,5.623
		c-1.041,5.313-6.481,14.145-9.127,13.626c-0.464-0.091-1.477-0.532-2.819-1.039c-1.426-0.441-3.231-1.039-5.48-1.479l-27.19-5.329
		c-4.365-0.855-3.972-3.213-3.772-4.229c0.842-4.297,4.666,0.022,6.752-8.169c3.581-14.065,3.371-12.646,5.481-26.918
		c1.88-12.045-4.358-6.857-3.271-12.405c0.934-4.766,6.339-2.896,9.05-2.364L553.966,462.785z"/>
</g>
<g>
	<g>
		
			<rect x="195.026" y="345.31" transform="matrix(0.9813 0.1923 -0.1923 0.9813 88.8838 -74.5139)" fill="none" width="466.42" height="150.482"/>
		<path fill="#913B8E" d="M283.019,374.551c-0.625,3.188-0.513,4.865,2.044,7.021c1.896,1.585,3.258,2.514,2.737,5.171
			c-0.5,2.55-1.753,7.821-22.686,3.719c-4.675-0.917-18.255-3.688-16.859-10.808c1.179-8.265,7.271,2.308,11.498-19.262
			c1.125-5.738-0.192-5.775-5.504-6.816c-14.876-2.916-13.577-2.22-15.452,7.343c-2.853,14.557,4.88,10.004,3.526,16.911
			c-1.458,7.438-17.054,4.822-22.154,3.822c-4.888-0.958-19.574-4.277-18.158-11.503c0.438-2.231,2.302-3.3,4.275-3.796
			c4.179-1.057,5.497-0.467,9.85-22.674c5.539-28.264,4.657-26.01,1.141-28.905c-1.427-1.163-3.152-2.494-2.736-4.619
			c1.604-8.182,19.516-5.554,25.467-4.388c4.462,0.875,16.684,3.821,15.435,10.197c-0.646,3.293-2.682,4.108-5.416,5.117
			c-2.949,0.967-3.835,2.116-5.688,11.573c-1.167,5.95,1.741,5.748,6.842,6.748l5.419,1.062c7.013,1.375,7.008,0.271,7.653-3.023
			c2.27-11.582,0.61-12.68-0.625-13.694c-1.791-1.565-3.517-2.896-2.975-5.659c0.396-2.019,1.137-8.052,22.281-3.908
			c4.994,0.979,19.105,3.855,17.647,11.292c-0.458,2.338-1.938,3.703-4.272,4.348c-3.458,0.757-4.563,0.209-7.875,17.104
			L283.019,374.551z"/>
		<path stroke="#000000" stroke-miterlimit="10" d="M300.953,357.323c4.415-22.526,25.495-34.945,48.659-30.405
			c29.325,5.748,35.528,33.775,32.842,47.482c-4.477,22.845-27.622,33.976-49.299,29.728
			C310.735,399.733,296.518,379.955,300.953,357.323z M341.621,341.792c-5.95-1.166-10.133,4.414-11.153,9.62
			c-1.77,9.032-0.372,35.676,11.104,37.926c6.481,1.27,10.348-3.82,11.473-9.558C354.938,370.11,354.054,344.229,341.621,341.792z"
			/>
		<path stroke="#000000" stroke-miterlimit="10" d="M403.102,355.717c1.563-7.969-9.007-6.399-7.695-13.093
			c0.833-4.25,5.696-4.29,8.989-3.645c2.657,0.521,5.166,1.232,7.822,1.753c15.406,3.02,25.049,3.365,29.511,4.24
			c14.45,2.832,26.725,13.954,23.602,29.893c-3.103,15.832-18.156,21.708-32.926,18.813c-3.188-0.625-6.271-1.78-9.141-2.343
			c-1.275-0.25-1.804,0.198-2.033,1.367l-1.208,6.162c-2.284,13.345,6.556,9.34,5.348,15.502c-1.354,6.907-16.717,4.227-21.498,3.29
			c-4.463-0.875-20.168-4.063-18.814-10.97c1.146-5.844,8.194-0.711,9.902-9.424L403.102,355.717z M432.577,356.198
			c-4.144-0.812-4.287,0.484-4.703,2.609l-3.124,15.938c-0.438,2.231-1.872,4.488,3.865,5.612
			c7.013,1.375,10.816-3.397,12.087-9.878C442.014,363.785,439.697,357.593,432.577,356.198z"/>
	</g>
</g>
<path fill-rule="evenodd" clip-rule="evenodd" d="M151.039,537.367c20.525,62.06,67.959,114.606,133.959,139.26
	c90.486,33.798,189.007,5.145,248.232-64.352l0,0L151.039,537.367L151.039,537.367z"/>
<path fill-rule="evenodd" clip-rule="evenodd" fill="none" stroke="#000000" stroke-width="24" stroke-miterlimit="10" d="
	M596.811,554.628c-48.193,129.026-191.855,194.555-320.875,146.363C146.913,652.797,81.389,509.137,129.576,380.114
	C177.77,251.09,321.426,185.569,450.445,233.76C579.466,281.951,645.002,425.607,596.811,554.628z"/>
<g id="XMLID_17_">
	<g>
		<path fill="#C1D11A" d="M513.688,378.765c8.241-11.316,34.383-48.924,57.121-113.433c14.486-41.123,6.95-69.229,7.018-74.178
			c-0.275-0.019-0.539-0.02-0.813-0.038c-0.088,0.641-0.191,1.293-0.233,1.93c-0.884,15.265-3.61,30.17-7.802,44.801
			c-5.636,19.693-13.34,38.534-22.306,56.853c-10.142,20.71-21.849,40.492-34.375,59.809c-2.576,3.968-5.295,8.109-8.077,12.338
			l-0.003,0.014c-13.11,19.815-27.906,41.554-37.591,56.185c-11.852,17.898-24.977,7.146-11.277-10.803
			c13.179-17.274,25.476-37.906,37.104-56.369c0.779-1.233,1.06-3.24,0.678-4.664c-106.549-138.41,25.144-220.957,36.858-237.477
			c53.87-61.899,45.794-83.754,48.864-87.506c80.155,105.063,131.907,274.744,8.757,340.066
			c-15.917,13.229-56.668,15.204-71.272,15.806L513.688,378.765z"/>
		<path fill="#C1D11A" d="M513.688,378.765l2.649,3.334c-3.01,0.124-4.905,0.192-5.251,0.29
			C511.2,382.15,512.123,380.936,513.688,378.765z"/>
		<path fill="#FFFFFF" d="M570.81,265.332c-22.738,64.509-48.88,102.117-57.121,113.433l-9.471-11.905l0.003-0.014
			c2.782-4.229,5.501-8.37,8.077-12.338c12.526-19.316,24.233-39.098,34.375-59.809c8.966-18.319,16.67-37.16,22.306-56.853
			c4.191-14.631,6.918-29.536,7.802-44.801c0.042-0.637,0.146-1.289,0.233-1.93c0.274,0.018,0.538,0.02,0.813,0.038
			C577.76,196.103,585.296,224.209,570.81,265.332z"/>
	</g>
</g>
<g>
	<path fill="#913B8E" d="M420.297,543.158l8.873,1.612c0.32,0.058,0.533,0.366,0.475,0.687c-0.058,0.321-0.365,0.534-0.686,0.475
		c-0.012-0.002-0.023-0.004-0.035-0.007l-0.037-0.009l-8.734-2.175c-0.16-0.04-0.258-0.203-0.219-0.363
		c0.039-0.154,0.189-0.25,0.344-0.223L420.297,543.158z"/>
	<path fill="#913B8E" d="M438.037,546.53l8.811,1.899c0.591,0.127,0.967,0.708,0.839,1.299s-0.709,0.965-1.299,0.838
		c-0.019-0.004-0.036-0.008-0.054-0.013l-0.057-0.016l-8.686-2.365c-0.453-0.124-0.721-0.591-0.598-1.044
		c0.119-0.438,0.56-0.702,0.998-0.608L438.037,546.53z"/>
	<path fill="#913B8E" d="M455.688,550.557l8.712,2.314c0.801,0.212,1.277,1.035,1.064,1.835c-0.213,0.801-1.035,1.278-1.836,1.065
		c-0.02-0.005-0.039-0.011-0.059-0.017l-0.068-0.021l-8.591-2.697c-0.685-0.215-1.065-0.944-0.851-1.628
		c0.209-0.665,0.903-1.043,1.57-0.867L455.688,550.557z"/>
	<path fill="#913B8E" d="M473.22,555.626c0,0,0.528,0.194,1.322,0.484c0.397,0.146,0.86,0.316,1.356,0.498
		c0.523,0.213,1.082,0.441,1.64,0.668c0.56,0.218,1.114,0.471,1.634,0.719c0.525,0.254,0.998,0.443,1.432,0.692
		c0.859,0.478,1.432,0.796,1.432,0.796c0.887,0.494,1.207,1.615,0.713,2.502c-0.495,0.888-1.615,1.207-2.504,0.713
		c-0.012-0.007-0.025-0.015-0.038-0.022l-0.196-0.117c0,0-0.475-0.282-1.186-0.705c-0.35-0.22-0.801-0.417-1.262-0.66
		c-0.463-0.24-0.962-0.488-1.476-0.707c-1.011-0.466-2.04-0.907-2.83-1.215c-0.782-0.318-1.304-0.53-1.304-0.53
		c-0.86-0.35-1.273-1.332-0.924-2.192c0.342-0.841,1.287-1.255,2.133-0.947L473.22,555.626z"/>
	<path fill="#913B8E" d="M477.199,570.062c0,0-0.561,0.046-1.401,0.115c-0.421,0.034-0.911,0.074-1.437,0.118
		c-0.53,0.04-1.071,0.103-1.684,0.104c-2.383,0.064-4.778,0.081-4.778,0.081c-1.185,0.008-2.151-0.945-2.159-2.129
		s0.945-2.151,2.13-2.159c0.009,0,0.019,0,0.027,0l0.131,0.001c0,0,2.234,0.025,4.468,0.05c0.558,0.021,1.121-0.023,1.648-0.044
		c0.525-0.024,1.018-0.047,1.439-0.067c0.842-0.039,1.404-0.065,1.404-0.065c1.104-0.051,2.039,0.802,2.091,1.905
		c0.05,1.079-0.764,1.998-1.831,2.086L477.199,570.062z"/>
	<path fill="#913B8E" d="M458.691,570.207l-8.981-0.542c-1.312-0.079-2.31-1.206-2.23-2.517c0.079-1.311,1.206-2.309,2.517-2.23
		c0.018,0.001,0.033,0.002,0.051,0.003l0.061,0.005l8.963,0.774c1.244,0.107,2.165,1.203,2.058,2.447
		c-0.106,1.223-1.167,2.135-2.386,2.062L458.691,570.207z"/>
	<path fill="#913B8E" d="M440.586,568.926c0,0-2.238-0.219-4.479-0.438c-2.237-0.235-4.475-0.471-4.475-0.471
		c-1.42-0.149-2.449-1.42-2.299-2.839c0.148-1.419,1.42-2.448,2.838-2.299c0.01,0.001,0.02,0.002,0.029,0.003l0.045,0.005
		l8.934,1.086c1.367,0.166,2.34,1.409,2.174,2.776c-0.163,1.347-1.371,2.312-2.715,2.181L440.586,568.926z"/>
	<path fill="#913B8E" d="M422.596,566.961l-8.929-1.128c-1.495-0.189-2.555-1.555-2.366-3.05c0.189-1.495,1.555-2.555,3.051-2.366
		c0.01,0.001,0.02,0.002,0.029,0.004l0.049,0.007l8.909,1.273c1.452,0.208,2.461,1.553,2.254,3.005
		c-0.206,1.437-1.525,2.44-2.96,2.26L422.596,566.961z"/>
	<path fill="#913B8E" d="M404.675,564.623c0,0-2.228-0.316-4.456-0.632c-2.229-0.307-4.451-0.655-4.451-0.655
		c-1.563-0.242-2.633-1.706-2.391-3.269c0.242-1.563,1.707-2.633,3.27-2.391l0.009,0.001l8.888,1.409
		c1.529,0.242,2.571,1.678,2.329,3.206c-0.239,1.513-1.647,2.55-3.159,2.336L404.675,564.623z"/>
	<path fill="#913B8E" d="M386.814,561.916l-8.878-1.462c-1.592-0.262-2.67-1.766-2.407-3.357c0.262-1.592,1.766-2.67,3.357-2.408
		l0.018,0.003l0.01,0.001l8.869,1.52c1.574,0.27,2.632,1.765,2.361,3.339c-0.268,1.568-1.752,2.624-3.319,2.366L386.814,561.916z"/>
	<path fill="#913B8E" d="M369.007,558.93l-8.864-1.561c-1.619-0.286-2.702-1.831-2.416-3.451c0.285-1.621,1.83-2.703,3.45-2.417
		l0.019,0.003l0.01,0.002l8.854,1.618c1.604,0.293,2.664,1.83,2.371,3.433c-0.291,1.596-1.816,2.656-3.412,2.375L369.007,558.93z"/>
	<path fill="#913B8E" d="M351.237,555.726l-8.83-1.741l-0.01-0.002c-1.605-0.316-2.65-1.875-2.334-3.48
		c0.315-1.599,1.862-2.642,3.462-2.338l8.84,1.684l0.01,0.002c1.624,0.309,2.689,1.875,2.38,3.499
		c-0.31,1.623-1.876,2.688-3.499,2.379L351.237,555.726z"/>
	<path fill="#913B8E" d="M333.531,552.188l-8.813-1.834l-0.009-0.002c-1.571-0.327-2.58-1.866-2.253-3.437
		c0.326-1.564,1.854-2.571,3.418-2.256l8.824,1.777l0.01,0.002c1.588,0.32,2.617,1.868,2.297,3.457s-1.867,2.617-3.457,2.297
		L333.531,552.188z"/>
	<path fill="#913B8E" d="M315.859,548.46c0,0-2.197-0.483-4.396-0.966c-2.2-0.474-4.392-0.989-4.392-0.989l-0.048-0.011
		c-1.525-0.358-2.472-1.885-2.113-3.41c0.354-1.505,1.849-2.445,3.353-2.126l8.805,1.876l0.009,0.002
		c1.554,0.331,2.546,1.859,2.214,3.414c-0.331,1.554-1.859,2.545-3.414,2.214L315.859,548.46z"/>
	<path fill="#913B8E" d="M298.25,544.42l-8.747-2.127l-0.034-0.008c-1.444-0.352-2.33-1.807-1.979-3.251
		c0.348-1.43,1.779-2.312,3.209-1.989l8.779,1.986l0.035,0.008c1.488,0.337,2.423,1.817,2.086,3.306
		c-0.337,1.489-1.816,2.423-3.307,2.086C298.283,544.428,298.26,544.422,298.25,544.42z"/>
	<path fill="#913B8E" d="M280.713,540.089l-8.734-2.262l-0.023-0.006c-1.361-0.353-2.18-1.742-1.826-3.104
		c0.349-1.347,1.715-2.162,3.063-1.836l8.749,2.115l0.044,0.011c1.406,0.34,2.271,1.755,1.931,3.162
		c-0.34,1.406-1.755,2.27-3.161,1.93C280.744,540.097,280.723,540.091,280.713,540.089z"/>
	<path fill="#913B8E" d="M263.224,535.4l-8.646-2.514l-0.049-0.014c-1.23-0.358-1.938-1.645-1.581-2.875
		c0.353-1.21,1.606-1.914,2.818-1.596l8.704,2.29l0.053,0.014c1.302,0.342,2.079,1.675,1.736,2.977
		c-0.342,1.301-1.674,2.079-2.976,1.736C263.268,535.412,263.24,535.404,263.224,535.4z"/>
	<path fill="#913B8E" d="M245.836,530.215l-8.557-2.808l-0.045-0.014c-1.093-0.359-1.688-1.536-1.329-2.629
		c0.353-1.075,1.499-1.667,2.575-1.347l8.627,2.577l0.047,0.014c1.168,0.349,1.83,1.577,1.482,2.744
		c-0.349,1.167-1.577,1.831-2.744,1.482C245.877,530.228,245.852,530.22,245.836,530.215z"/>
	<path fill="#913B8E" d="M228.6,524.198c0,0-2.079-0.864-4.158-1.728c-0.509-0.198-1.073-0.485-1.574-0.713
		c-0.508-0.238-0.981-0.459-1.388-0.65c-0.81-0.381-1.35-0.635-1.35-0.635c-0.884-0.415-1.263-1.468-0.847-2.351
		c0.406-0.864,1.422-1.246,2.293-0.874l0.057,0.025c0,0,0.514,0.22,1.283,0.55c0.385,0.165,0.834,0.358,1.314,0.564
		c0.484,0.201,0.985,0.442,1.519,0.628c2.107,0.79,4.214,1.58,4.214,1.58l0.053,0.019c0.996,0.374,1.5,1.484,1.127,2.48
		c-0.373,0.997-1.484,1.501-2.48,1.128C228.645,524.215,228.617,524.205,228.6,524.198z"/>
	<path fill="#913B8E" d="M216.756,509.498c0,0,0.551-0.12,1.376-0.299c0.211-0.044,0.526-0.073,0.812-0.111
		c0.296-0.034,0.608-0.07,0.932-0.107c0.311-0.029,0.682-0.084,0.966-0.087c0.294-0.009,0.593-0.018,0.892-0.026
		c0.597-0.014,1.199-0.042,1.75-0.041c0.545,0.011,1.055,0.021,1.492,0.03c0.871,0.019,1.453,0.031,1.453,0.031
		c0.778,0.014,1.398,0.656,1.384,1.435c-0.014,0.757-0.629,1.364-1.378,1.384c0,0-0.56,0.013-1.398,0.031
		c-0.42,0.01-0.91,0.021-1.434,0.032c-0.523,0.021-1.078,0.072-1.635,0.107c-0.559,0.037-1.116,0.071-1.615,0.158
		c-0.506,0.077-0.977,0.126-1.383,0.206c-0.816,0.215-1.359,0.358-1.359,0.358l-0.102,0.027c-0.859,0.227-1.74-0.286-1.967-1.146
		s0.286-1.74,1.146-1.967C216.708,509.509,216.734,509.502,216.756,509.498z"/>
	<path fill="#913B8E" d="M235.549,509.565c0,0,0.572,0.06,1.429,0.148c0.839,0.102,1.956,0.236,3.074,0.372
		c2.235,0.285,4.47,0.57,4.47,0.57l0.051,0.006c0.54,0.069,0.922,0.563,0.854,1.103c-0.066,0.521-0.533,0.896-1.051,0.858
		c0,0-2.244-0.166-4.487-0.331c-1.122-0.083-2.243-0.166-3.085-0.228c-0.839-0.05-1.398-0.084-1.398-0.084l-0.053-0.003
		c-0.668-0.041-1.176-0.614-1.136-1.281s0.614-1.176,1.281-1.136C235.514,509.562,235.533,509.564,235.549,509.565z"/>
	<path fill="#913B8E" d="M253.488,511.996c0,0,2.221,0.372,4.439,0.774c2.219,0.395,4.438,0.79,4.438,0.79l0.027,0.005
		c0.254,0.045,0.423,0.287,0.377,0.541c-0.043,0.243-0.269,0.408-0.51,0.382l-8.941-1.007l-0.037-0.004
		c-0.41-0.046-0.705-0.417-0.659-0.826c0.046-0.41,0.416-0.706,0.826-0.659C253.461,511.992,253.476,511.994,253.488,511.996z"/>
</g>
<g>
	<polygon fill="none" points="457.494,765.349 167.77,708.566 195.137,568.918 484.859,625.7 	"/>
	<path fill="#FFFFFF" d="M219.21,572.964c3.17,0.621,4.765,3.274,5.606,3.439c0.711,0.14,0.969-0.145,1.519-0.037
		c1.358,0.266,2.537,3.506,1.537,8.613c-0.515,2.622-2.048,4.614-3.956,4.24c-3.332-0.653-0.895-8.629-6.652-9.758
		c-2.489-0.488-4.173,2.621-4.669,5.151c-1.334,6.808,0.084,13.104,4.612,13.992c4.107,0.805,5.344-2.249,6.347-2.052
		c0.938,0.184,1.085,1.836,0.859,2.986c-0.396,2.023-2.714,5.964-4.331,5.647c-1.101-0.216-3.887,2.008-7.702,1.261
		c-6.793-1.332-10.86-10.058-9.048-19.304C205.18,577.714,212.839,571.715,219.21,572.964z"/>
	<path fill="#FFFFFF" d="M227.781,591.936c1.911-9.752,8.729-15.581,15.78-14.199c8.927,1.75,10.164,13.6,9.002,19.534
		c-1.938,9.89-9.364,15.217-15.962,13.924C229.777,609.857,225.86,601.734,227.781,591.936z M240.73,584.299
		c-1.812-0.354-3.239,2.136-3.682,4.39c-0.766,3.91-0.98,15.284,2.513,15.969c1.974,0.387,3.292-1.887,3.778-4.37
		C244.16,596.101,244.514,585.042,240.73,584.299z"/>
	<path fill="#FFFFFF" d="M254.235,597.121c1.911-9.752,8.729-15.581,15.78-14.199c8.927,1.75,10.164,13.599,9.001,19.534
		c-1.938,9.89-9.363,15.217-15.962,13.924C256.23,615.042,252.315,606.918,254.235,597.121z M267.185,589.484
		c-1.812-0.355-3.239,2.135-3.682,4.389c-0.766,3.91-0.98,15.284,2.513,15.969c1.973,0.387,3.292-1.886,3.778-4.37
		C270.614,601.286,270.968,590.226,267.185,589.484z"/>
	<path fill="#FFFFFF" d="M285.14,593.815c0.677-3.449-2.629-2.521-2.061-5.419c0.36-1.84,1.864-1.976,2.867-1.779
		c0.808,0.159,1.565,0.403,2.375,0.561c4.689,0.919,7.663,0.833,9.021,1.1c4.399,0.862,7.923,5.326,6.571,12.227
		c-1.344,6.854-6.141,9.735-10.636,8.854c-0.971-0.19-1.896-0.61-2.769-0.782c-0.389-0.076-0.563,0.129-0.662,0.635l-0.522,2.668
		c-1.03,5.769,1.8,3.84,1.276,6.508c-0.586,2.99-5.271,2.215-6.726,1.93c-1.357-0.266-6.137-1.25-5.551-4.24
		c0.496-2.53,2.551-0.503,3.29-4.275L285.14,593.815z M294.24,593.306c-1.261-0.247-1.336,0.312-1.517,1.231l-1.353,6.9
		c-0.189,0.966-0.688,1.967,1.06,2.309c2.134,0.418,3.426-1.717,3.976-4.523C296.974,596.326,296.407,593.731,294.24,593.306z"/>
	<path fill="#FFFFFF" d="M320.111,593.409c4.335,0.85,5.13,0.05,5.647,0.152c1.844,0.361,1.736,5.021,1.34,7.045
		c-0.297,1.518-1.07,3.229-2.332,2.982c-2.555-0.501,0.382-4.511-5.764-5.716c-3.59-0.703-3.415,0.286-4.452,5.576
		c-0.522,2.668-0.443,2.779,1.529,3.166c2.458,0.481,1.614-4.985,3.912-4.535c1.875,0.367,0.986,5.591,0.635,7.385
		c-0.369,1.886-1.678,7.361-3.618,6.981c-2.006-0.394,0.946-4.83-2.321-5.471c-1.358-0.266-1.669,1.488-1.957,2.96
		c-1.316,6.716-0.929,6.458,2.468,7.123c6.63,1.3,6.024-5.554,8.676-5.034c1.035,0.203,1.229,1.96,0.977,3.248
		c-0.613,3.128-3.459,8.398-4.754,8.145c-0.225-0.044-0.716-0.284-1.368-0.556c-0.694-0.231-1.572-0.547-2.672-0.762l-13.294-2.605
		c-2.134-0.418-1.896-1.804-1.779-2.403c0.496-2.529,2.299-0.075,3.48-4.906c2.029-8.296,1.899-7.461,3.208-15.851
		c1.153-7.082-2.019-3.93-1.378-7.196c0.55-2.806,3.178-1.813,4.503-1.554L320.111,593.409z M314.438,588.428
		c0.379-1.932,2.769-2.133,3.012-3.374c0.082-0.414-0.15-0.604-0.051-1.109c0.225-1.149,2.47-0.948,2.987-0.847
		c1.002,0.197,3.855,1.233,3.441,3.349c-0.226,1.15-3.578,4.888-7.977,4.025C315.011,590.308,314.15,589.9,314.438,588.428z"/>
	<path fill="#FFFFFF" d="M330.814,605.442c1.397-7.13-1.637-4.667-1.077-7.52c0.495-2.529,3.081-2.357,4.375-2.104
		c0.679,0.133,1.309,0.352,1.978,0.531c0.63,0.219,1.29,0.444,1.937,0.571c1.035,0.203,2.089,0.313,3.174,0.431
		c1.045,0.157,2.13,0.274,3.165,0.477c3.654,0.716,7.44,3.847,6.242,9.964c-0.541,2.761-2.003,5.245-4.057,6.131
		c-0.337,0.173-0.59,0.267-0.698,0.819c-0.135,0.69,0.25,0.956,0.593,1.263c2.029,1.64,2.617,3.952,2.097,9.009
		c-0.45,4.354,2.157,2.19,1.607,4.996c-0.343,1.748-2.192,3.296-5.848,2.58c-5.175-1.014-4.99-5.373-4.805-11.641
		c0.06-2.186-0.085-4.363-1.863-4.712c-0.712-0.14-0.997-0.052-1.565,2.846c-0.262,1.334-0.558,3.187-0.647,4.506
		c-0.156,2.167,1.619,1.846,1.187,4.054c-0.324,1.656-1.376,2.74-6.616,1.713c-1.553-0.304-6.146-1.205-5.488-4.563
		c0.469-2.392,2.57-0.26,3.742-6.24L330.814,605.442z M337.922,608.937c-0.299,1.183-0.659,2.164,0.409,2.373
		c2.103,0.412,3.104-1.111,3.664-3.963c0.441-2.254,0.506-4.63-1.371-4.998c-1.196-0.234-1.372,0.83-1.716,2.243L337.922,608.937z"
		/>
	<path fill="#FFFFFF" d="M359.701,617.409c1.625-2.978,3.744-6.765,4.456-10.399c0.622-3.174,2.126-5.363,5.005-4.799
		c2.813,0.552,3.79,4.994,4.456,8.277c0.289,1.441,2.414,16.475,2.84,20.476c0.381,3.705,2.543,1.931,2.029,4.553
		c-0.658,3.358-5.225,2.32-6.842,2.003c-4.625-0.907-7.397-1.498-6.839-4.35c0.433-2.208,2.244-0.993,2.56-2.603
		c0.406-2.07-0.367-2.413-5.574-3.433c-1.682-0.33-2.702-0.435-3.144,1.819c-0.352,1.795,1.952,1.004,1.483,3.396
		c-0.541,2.76-4.043,2.121-5.338,1.868c-4.623-0.907-4.801-2.231-4.513-3.703c0.424-2.162,2.045-1.176,3.306-2.648
		c0.956-1.103,2.068-3.177,2.842-4.554L359.701,617.409z M365.845,622.052c0.323,0.063,1.275,0.346,1.411-0.344
		c0.136-0.69-0.335-3.266-0.467-3.96c-0.147-0.794-0.364-2.603-1.075-2.742c-0.776-0.152-1.867,2.5-2.095,2.98
		c-0.229,0.48-1.131,2.167-1.239,2.719c-0.153,0.782,0.683,0.802,1.038,0.872L365.845,622.052z"/>
	<path fill="#FFFFFF" d="M397.823,608.64c1.391,0.272,2.073,0.215,2.586,0.172c0.488-0.095,0.774-0.182,1.39-0.062
		c1.262,0.247,3.188,4.303,2.214,9.271c-0.451,2.3-1.59,3.653-3.239,3.33c-2.813-0.551-1.719-5.973-3.368-6.296
		c-1.261-0.247-1.618,2.262-1.689,2.63l-2.769,14.122c-1.072,5.474,2.417,3.435,1.786,6.655c-0.279,1.426-1.291,3.33-7.34,2.145
		c-1.65-0.323-7.716-1.417-7.021-4.959c0.478-2.438,2.293-1.079,3.284-2.7c0.512-0.902,1.183-3.637,1.44-4.781l2.251-10.114
		c1.076-4.805,0.388-4.893-0.064-4.981c-1.456-0.285-3.231,5.003-5.852,4.49c-1.261-0.248-1.681-2.049-1.356-3.705
		c0.767-3.91,4.097-8.56,5.94-8.198c0.226,0.045,0.554,0.252,1.132,0.557c0.588,0.259,1.425,0.614,2.719,0.867L397.823,608.64z"/>
	<path fill="#FFFFFF" d="M405.976,624.615c1.145-5.842,1.082-7.239,0.853-7.953c-0.482-1.48-1.716-1.865-1.374-3.613
		c0.649-3.313,7.246-2.02,7.895-1.893c1.939,0.381,5.9,1.253,5.287,4.381c-0.325,1.655-1.536,1.323-2.514,2.373
		c-0.813,0.892-1.657,5.025-2.288,8.245l-0.893,4.554c-1.604,8.188-1.181,8.08-0.642,8.759c0.673,0.849,1.404,1.231,1.125,2.657
		c-0.271,1.38-0.967,3.393-8.051,2.005c-1.357-0.267-5.424-1.111-4.847-4.056c0.288-1.472,1.432-1.486,2.121-2.259
		c0.515-0.568,1.172-2.207,2.435-8.646L405.976,624.615z"/>
	<path fill="#FFFFFF" d="M417.257,629.072c1.911-9.752,8.73-15.581,15.781-14.199c8.927,1.75,10.164,13.599,9.002,19.534
		c-1.938,9.89-9.364,15.217-15.963,13.924C419.253,646.993,415.337,638.87,417.257,629.072z M430.207,621.436
		c-1.812-0.355-3.239,2.135-3.682,4.389c-0.766,3.91-0.98,15.284,2.513,15.969c1.972,0.387,3.292-1.886,3.778-4.37
		C433.637,633.237,433.991,622.177,430.207,621.436z"/>
	<path fill="#FFFFFF" d="M461.656,632.663c0.298,0.536,1.072,2.073,1.653,2.187c0.809,0.159,1.211-1.721,1.364-2.503
		c0.226-1.149,0.58-3.134,0.528-4.243c-0.074-2.021-1.923-1.667-1.436-4.15c0.577-2.944,3.848-2.16,5.207-1.894
		c1.423,0.279,4.994,0.74,4.372,3.914c-0.514,2.622-2.039,1.32-3.004,3.328c-0.745,1.574-1.305,4.426-1.646,6.174l-2.335,11.914
		c-0.406,2.07-1.447,8.41-3.613,7.985c-0.648-0.127-1.089-0.787-1.458-1.48l-7.496-14.7c-0.336-0.687-0.96-1.956-1.64-2.089
		c-1.002-0.196-1.621,2.788-1.811,3.753c-0.252,1.288-0.553,2.997-0.594,4.23c-0.092,3.04,1.839,2.271,1.396,4.525
		c-0.604,3.082-3.988,2.705-5.508,2.407c-1.488-0.292-4.766-1.221-4.18-4.21c0.478-2.438,2.163-1.105,3.064-3.985
		c0.613-1.934,1.247-4.819,1.652-6.889c0.649-3.313,1.308-6.671,1.6-10.053c0.385-4.701-2.296-3.363-1.756-6.124
		c0.641-3.266,4.972-2.226,6.428-1.941c2.005,0.393,2.324,0.646,3.42,2.772L461.656,632.663z"/>
</g>
<g>
	<g>
		<path fill="#FFFFFF" d="M322,657.525c5.256,1.032,10.512,2.062,15.77,3.092c3.148,0.617,4.491-4.202,1.328-4.821
			c-5.256-1.03-10.513-2.06-15.77-3.092C320.18,652.085,318.838,656.904,322,657.525L322,657.525z"/>
	</g>
</g>
</svg>
