<?xml version="1.0" encoding="utf-8"?>
<!-- Generator: Adobe Illustrator 16.0.0, SVG Export Plug-In . SVG Version: 6.00 Build 0)  -->
<!DOCTYPE svg PUBLIC "-//W3C//DTD SVG 1.1 Basic//EN" "http://www.w3.org/Graphics/SVG/1.1/DTD/svg11-basic.dtd">
<svg version="1.1" baseProfile="basic" id="Calque_1"
	 xmlns="http://www.w3.org/2000/svg" xmlns:xlink="http://www.w3.org/1999/xlink" x="0px" y="0px" width="961.037px" height="768px"
	 viewBox="0 0 961.037 768" xml:space="preserve">
<g>
	<path fill="#C1D11A" d="M486.186,496.459c5.126-24.137-10.291-47.857-34.428-52.982c-24.146-5.125-47.873,10.287-52.996,34.423
		c-5.127,24.142,10.291,47.87,34.438,52.995C457.338,536.017,481.063,520.603,486.186,496.459z"/>
</g>
<g>
	<path d="M315.557,368.755c1.592-6.94-3.418-4.471-2.485-8.866c0.66-3.11,4.081-2.879,6.084-2.454l18.661,3.961
		c15.913,3.378,18.653,16.113,16.069,28.285c-2.67,12.576-11.421,23.084-25.903,20.01c-2.461-0.522-4.508-1.028-6.253-1.54
		c-1.761-0.444-3.293-0.84-4.895-1.18c-1.603-0.34-3.277-0.625-4.895-0.898c-1.631-0.205-3.248-0.477-4.908-0.83
		c-1.946-0.413-4.163-2.086-3.589-4.79c1.033-4.868,4.406,1.501,6.675-8.334L315.557,368.755z M324.041,396.418
		c-0.732,3.448-0.575,4.966,2.516,5.622c7.212,1.531,10.323-6.923,11.758-13.685c3.359-15.822-1.146-19.394-5.554-20.329
		c-2.404-0.51-2.82,0.603-3.366,3.172L324.041,396.418z"/>
	<path fill="#913B8E" d="M395.395,386.339c1.536-7.235-3.975-5.508-3.142-9.43c0.89-4.191,7.501-2.646,9.848-2.148
		c2.175,0.462,8.472,1.799,7.639,5.72c-0.804,3.787-4.608,0.576-5.915,6.729l-3.875,18.257c-0.646,3.042-4.033,19.282-23.839,15.077
		c-22.555-4.788-15.672-24.808-15.5-25.62l3.316-15.619c1.134-4.21-2.759-5.037-2.099-8.147c0.201-0.947,0.375-4.867,12.167-2.363
		c9.33,1.98,10.788,4.409,10.229,7.046c-1.034,4.868-4.251-0.549-6.288,7.639l-2.642,12.441c-1.708,8.046-0.223,13.732,5.845,15.02
		c9.044,1.92,10.524-7.023,10.682-7.767L395.395,386.339z"/>
	<path d="M415.043,392.983c2.225-10.48-3.044-7.076-2.153-11.269c0.789-3.719,5.354-3.244,7.645-2.758
		c1.201,0.255,2.317,0.633,3.506,0.956c1.114,0.378,2.289,0.769,3.434,1.012c1.832,0.389,3.691,0.643,5.609,0.907
		c1.847,0.322,3.764,0.588,5.596,0.977c6.469,1.373,13.25,6.346,11.341,15.339c-0.861,4.057-3.354,7.626-6.947,8.771
		c-0.587,0.229-1.03,0.347-1.202,1.159c-0.216,1.014,0.472,1.443,1.086,1.926c3.634,2.609,4.748,6.096,3.999,13.568
		c-0.648,6.435,3.877,3.438,3.001,7.562c-0.546,2.57-3.753,4.715-10.222,3.342c-9.158-1.944-8.982-8.408-8.861-17.71
		c0.03-3.244-0.297-6.493-3.445-7.162c-1.26-0.267-1.761-0.162-2.665,4.098c-0.416,1.961-0.876,4.69-0.991,6.644
		c-0.203,3.208,2.917,2.88,2.229,6.126c-0.517,2.434-2.335,3.956-11.608,1.987c-2.747-0.583-10.876-2.309-9.828-7.245
		c0.746-3.516,4.522-0.17,6.389-8.96L415.043,392.983z M427.691,398.777c-0.487,1.734-1.089,3.161,0.8,3.562
		c3.721,0.79,5.439-1.389,6.329-5.581c0.703-3.313,0.734-6.839-2.585-7.544c-2.119-0.45-2.392,1.117-2.951,3.189L427.691,398.777z"
		/>
	<path d="M468.045,413.563c2.765-4.289,6.374-9.741,7.508-15.083c0.991-4.666,3.569-7.792,8.664-6.711
		c4.979,1.058,6.851,7.743,8.136,12.68c0.557,2.167,4.809,24.693,5.691,30.675c0.798,5.54,4.549,3.085,3.731,6.939
		c-1.048,4.936-9.133,3.007-11.995,2.4c-8.186-1.738-13.095-2.85-12.204-7.042c0.688-3.246,3.922-1.288,4.424-3.654
		c0.646-3.042-0.728-3.616-9.943-5.573c-2.977-0.632-4.779-0.874-5.482,2.439c-0.56,2.637,3.477,1.657,2.729,5.173
		c-0.861,4.057-7.057,2.812-9.347,2.326c-8.186-1.738-8.542-3.721-8.083-5.885c0.675-3.178,3.565-1.575,5.742-3.657
		c1.646-1.558,3.538-4.548,4.855-6.529L468.045,413.563z M479.031,420.982c0.572,0.121,2.262,0.622,2.477-0.393
		c0.216-1.014-0.698-4.883-0.955-5.927c-0.286-1.19-0.729-3.899-1.987-4.167c-1.373-0.291-3.208,3.559-3.595,4.254
		c-0.387,0.695-1.921,3.125-2.093,3.937c-0.244,1.149,1.23,1.25,1.86,1.384L479.031,420.982z"/>
	<path fill="#913B8E" d="M544.395,425.602c-0.63,0.432-1.231,0.728-1.418,1.607s0.386,1.283,0.887,1.743
		c2.116,1.58,5.42,6.026,4.215,11.706c-1.436,6.762-7.037,14.264-18.542,11.822c-1.946-0.413-3.706-0.858-5.395-1.357
		c-1.703-0.432-3.407-0.865-5.181-1.241c-1.947-0.414-3.964-0.771-5.925-1.116c-1.975-0.278-3.936-0.624-5.938-1.048
		c-1.775-0.377-3.52-2.019-3.018-4.386c0.89-4.192,3.706,0.857,6.432-10.294l4.764-19.34c2.512-10.137-3.401-6.517-2.411-11.183
		c0.545-2.568,3.151-3.288,4.925-2.911c2.118,0.45,4.208,1.035,6.311,1.552c2.09,0.585,4.18,1.17,6.297,1.62
		c1.374,0.291,2.719,0.436,4.064,0.579c1.332,0.212,2.733,0.369,4.05,0.648c10.476,2.224,11.917,8.678,10.812,13.884
		C548.662,420.996,546.871,424.078,544.395,425.602z M524.866,435.588c-1.665,7.844-0.621,8.277,1.154,8.654
		c3.263,0.692,4.967-1.702,5.714-5.217c0.875-4.125,0.62-7.995-3.387-8.845c-1.775-0.377-2.404,0.62-2.764,2.028L524.866,435.588z
		 M528.369,419.09c-0.561,2.638-0.947,3.897,0.827,4.274c3.435,0.729,4.838-1.94,5.628-5.659c0.646-3.043,0.591-7.012-2.558-7.681
		c-2.118-0.449-2.319,1.628-2.735,3.589L528.369,419.09z"/>
	<path d="M553.764,457.269c-1.831-0.389-4.778-0.873-4.118-3.983c0.89-4.192,4.608,0.272,6.444-7.535
		c1.162-4.912,2.081-9.239,2.928-13.229c0.861-4.057,1.38-7.903,2.069-11.715c1.091-5.704-4.578-3.798-3.76-7.652
		c1.048-4.936,10.093-3.298,12.897-2.702c11.448,2.43,11.532,4.851,11.044,7.149c-0.832,3.921-4.723-0.014-6.071,6.342
		l-4.564,21.502c-1.034,4.868-0.85,7.381,3.214,8.244c9.731,2.066,8.406-8.038,12.07-7.26c2.576,0.547,2.861,3.999,2.315,6.568
		c-1.119,5.274-5.761,11.355-8.395,10.796c-1.03-0.218-1.774-0.658-2.762-1.081c-1.03-0.501-2.246-0.972-4.193-1.385
		L553.764,457.269z"/>
	<path d="M621.642,422.145c7.67,1.628,9.045,0.506,9.96,0.7c3.264,0.693,3.23,7.611,2.6,10.586
		c-0.474,2.231-1.777,4.711-4.011,4.237c-4.521-0.96,0.52-6.673-10.356-8.982c-6.354-1.349-6.011,0.137-7.662,7.914
		c-0.832,3.921-0.689,4.093,2.802,4.834c4.351,0.923,2.682-7.274,6.746-6.412c3.319,0.705,1.927,8.394,1.367,11.031
		c-0.589,2.772-2.712,10.801-6.147,10.072c-3.549-0.754,1.508-7.1-4.273-8.327c-2.403-0.51-2.893,2.071-3.352,4.234
		c-2.096,9.873-1.422,9.521,4.587,10.797c11.735,2.491,10.438-7.748,15.133-6.751c1.832,0.389,2.231,3.018,1.829,4.911
		c-0.976,4.599-5.818,12.19-8.108,11.705c-0.399-0.085-1.273-0.482-2.432-0.94c-1.231-0.402-2.791-0.946-4.737-1.359l-23.526-4.994
		c-3.778-0.802-3.404-2.842-3.218-3.721c0.79-3.719,4.05,0.083,5.973-7c3.299-12.16,3.099-10.931,5.123-23.291
		c1.796-10.431-3.688-6.013-2.668-10.813c0.875-4.125,5.539-2.427,7.886-1.929L621.642,422.145z"/>
</g>
<g>
	<g>
		
			<rect x="310.615" y="318.456" transform="matrix(0.9782 0.2077 -0.2077 0.9782 90.8834 -98.1831)" fill="none" width="404.925" height="130.642"/>
		<path fill="#913B8E" d="M387.643,341.875c-0.586,2.758-0.512,4.215,1.68,6.122c1.624,1.402,2.793,2.227,2.305,4.525
			c-0.468,2.207-1.628,6.765-19.741,2.92c-4.045-0.858-15.794-3.449-14.486-9.609c1.134-7.158,6.279,2.102,10.242-16.563
			c1.054-4.965-0.089-5.015-4.686-5.991c-12.873-2.732-11.756-2.111-13.513,6.164c-2.674,12.597,4.1,8.749,2.831,14.726
			c-1.366,6.437-14.867,3.955-19.281,3.018c-4.229-0.898-16.933-3.979-15.605-10.231c0.41-1.931,2.044-2.833,3.763-3.237
			c3.643-0.86,4.779-0.331,8.859-19.548c5.191-24.457,4.395-22.513,1.383-25.074c-1.224-1.028-2.703-2.208-2.313-4.046
			c1.503-7.079,17.014-4.555,22.163-3.462c3.861,0.819,14.43,3.543,13.259,9.06c-0.605,2.851-2.384,3.53-4.771,4.368
			c-2.572,0.8-3.358,1.786-5.096,9.969c-1.093,5.148,1.435,5.012,5.848,5.949l4.689,0.995c6.069,1.288,6.079,0.33,6.685-2.521
			c2.128-10.021,0.701-10.997-0.356-11.895c-1.533-1.382-3.014-2.562-2.506-4.952c0.371-1.747,1.097-6.974,19.394-3.089
			c4.322,0.917,16.531,3.604,15.165,10.041c-0.43,2.022-1.734,3.188-3.769,3.717c-3.011,0.609-3.964,0.119-7.067,14.738
			L387.643,341.875z"/>
		<path stroke="#000000" stroke-miterlimit="10" d="M403.451,327.166c4.138-19.493,22.604-29.986,42.648-25.73
			c25.377,5.387,30.379,29.799,27.861,41.659c-4.197,19.769-24.438,29.116-43.194,25.135
			C411.366,364.111,399.293,346.75,403.451,327.166z M438.961,314.237c-5.148-1.094-8.855,3.693-9.813,8.198
			c-1.659,7.815-0.807,30.961,9.123,33.069c5.608,1.19,9.034-3.175,10.088-8.14C450.136,338.999,449.72,316.521,438.961,314.237z"/>
		<path stroke="#000000" stroke-miterlimit="10" d="M492.142,327.16c1.464-6.896-7.731-5.677-6.502-11.469
			c0.78-3.678,5.003-3.647,7.853-3.042c2.299,0.488,4.467,1.141,6.766,1.629c13.331,2.83,21.696,3.26,25.558,4.08
			c12.504,2.655,23.007,12.475,20.079,26.267c-2.908,13.7-16.054,18.597-28.835,15.883c-2.758-0.585-5.419-1.631-7.901-2.158
			c-1.104-0.234-1.569,0.147-1.784,1.158l-1.132,5.333c-2.164,11.552,5.563,8.195,4.431,13.528
			c-1.269,5.977-14.567,3.441-18.704,2.563c-3.862-0.82-17.45-3.801-16.182-9.777c1.074-5.057,7.122-0.506,8.723-8.046
			L492.142,327.16z M517.72,327.978c-3.586-0.761-3.729,0.362-4.119,2.201l-2.928,13.791c-0.41,1.932-1.687,3.87,3.278,4.924
			c6.069,1.289,9.437-2.801,10.627-8.409C525.808,334.691,523.88,329.286,517.72,327.978z"/>
	</g>
</g>
<path fill-rule="evenodd" clip-rule="evenodd" d="M270.873,481.415c16.973,54.151,57.435,100.408,114.393,122.705
	c78.088,30.567,163.996,7.033,216.352-52.49l0,0L270.873,481.415L270.873,481.415z"/>
<path fill-rule="evenodd" clip-rule="evenodd" fill="none" stroke="#000000" stroke-width="19" stroke-miterlimit="10" d="
	M657.592,502.452C614.004,613.798,488.406,668.73,377.064,625.146c-111.342-43.587-166.269-169.182-122.687-280.526
	c43.587-111.344,169.179-166.27,280.521-122.685C646.239,265.519,701.176,391.11,657.592,502.452z"/>
<g id="XMLID_17_">
	<g>
		<path fill="#C1D11A" d="M579.767,338.186c-11.641,17.038-24.791,35.704-33.396,48.273c-10.531,15.375-21.778,5.863-9.644-9.531
			c11.675-14.815,22.63-32.558,32.974-48.427c0.693-1.06,0.964-2.798,0.652-4.039c-90.609-121.593,24.827-191.46,35.221-205.641
			c47.604-53,40.891-72.081,43.606-75.296c68.151,92.289,110.769,240.283,2.98,295.313c-13.996,11.267-49.397,12.428-62.083,12.752
			l-2.255-2.93c7.311-9.723,30.515-42.013,51.126-97.689c13.134-35.5,6.974-60,7.1-64.295c-0.238-0.02-0.468-0.024-0.706-0.044
			c-0.084,0.555-0.184,1.12-0.229,1.672c-0.975,13.239-3.544,26.14-7.381,38.783c-5.16,17.018-12.104,33.268-20.136,49.048
			c-9.084,17.84-19.516,34.853-30.651,51.45C584.655,330.995,582.251,334.555,579.767,338.186z"/>
		<path fill="#FFFFFF" d="M646.048,186.676c-0.126,4.295,6.034,28.795-7.1,64.295c-20.611,55.676-43.815,87.966-51.126,97.689
			l-8.056-10.475c2.484-3.63,4.889-7.191,7.179-10.6c11.136-16.598,21.567-33.61,30.651-51.45
			c8.032-15.78,14.976-32.03,20.136-49.048c3.837-12.643,6.406-25.544,7.381-38.783c0.045-0.552,0.145-1.117,0.229-1.672
			C645.58,186.651,645.81,186.656,646.048,186.676z"/>
		<path fill="#C1D11A" d="M587.822,348.66l2.255,2.93c-2.602,0.07-4.26,0.101-4.562,0.181
			C585.617,351.565,586.432,350.535,587.822,348.66z"/>
	</g>
</g>
<g>
	<path fill="#913B8E" d="M504.533,490.061l8.869,1.674c0.344,0.065,0.57,0.397,0.506,0.741c-0.065,0.345-0.397,0.571-0.742,0.506
		c-0.015-0.002-0.029-0.006-0.044-0.01l-0.045-0.012l-8.696-2.319c-0.16-0.042-0.256-0.207-0.213-0.367
		c0.041-0.152,0.191-0.246,0.344-0.217L504.533,490.061z"/>
	<path fill="#913B8E" d="M522.26,493.604c0,0,2.197,0.504,4.395,1.008c2.201,0.495,4.389,1.032,4.389,1.032
		c0.639,0.157,1.029,0.802,0.872,1.44s-0.802,1.029-1.44,0.872c-0.017-0.004-0.033-0.008-0.049-0.013l-0.055-0.016l-8.633-2.55
		c-0.489-0.145-0.769-0.658-0.624-1.147c0.139-0.47,0.618-0.746,1.089-0.639L522.26,493.604z"/>
	<path fill="#913B8E" d="M539.889,497.979c0,0,2.158,0.649,4.316,1.299c2.16,0.642,4.31,1.314,4.311,1.314
		c0.866,0.271,1.35,1.194,1.078,2.061s-1.193,1.35-2.061,1.079c-0.02-0.006-0.039-0.013-0.057-0.019l-0.074-0.026l-8.475-3.033
		c-0.739-0.264-1.123-1.077-0.859-1.815c0.256-0.714,1.024-1.097,1.742-0.883L539.889,497.979z"/>
	<path fill="#913B8E" d="M557.48,504.358c0,0,0.121,0.072,0.332,0.198c0.115,0.071,0.213,0.121,0.404,0.246
		c0.207,0.145,0.441,0.307,0.697,0.485c0.262,0.208,0.516,0.404,0.828,0.701c0.165,0.167,0.331,0.343,0.496,0.528
		c0.182,0.218,0.397,0.543,0.572,0.837c0.082,0.115,0.211,0.437,0.293,0.663c0.088,0.265,0.166,0.478,0.215,0.799
		c0.088,0.724,0.053,1.472-0.249,2.169c-0.31,0.783-0.651,1.134-1.052,1.557c-0.229,0.233-0.333,0.284-0.504,0.417
		c-0.156,0.113-0.318,0.222-0.482,0.324c-0.537,0.302-1.048,0.514-1.432,0.635c-0.439,0.159-0.766,0.227-1.123,0.32
		c-0.351,0.088-0.638,0.132-0.939,0.193c-0.302,0.062-0.549,0.087-0.797,0.127c-0.494,0.078-0.875,0.111-1.15,0.143
		c-0.274,0.03-0.432,0.047-0.432,0.047c-1.104,0.121-2.098-0.677-2.219-1.782c-0.121-1.104,0.678-2.098,1.782-2.219
		c0.039-0.004,0.078-0.007,0.117-0.009l0.082-0.004c0,0,0.558-0.026,1.38-0.116c0.413-0.041,0.89-0.109,1.389-0.206
		c0.494-0.102,1.021-0.242,1.447-0.467c0.191-0.12,0.374-0.256,0.404-0.382c0.071-0.112,0.021-0.259-0.059-0.438
		c-0.102-0.178-0.244-0.347-0.396-0.504c-0.156-0.154-0.325-0.292-0.473-0.421c-0.314-0.237-0.587-0.435-0.803-0.567
		c-0.207-0.134-0.324-0.211-0.324-0.211c-0.846-0.55-1.085-1.682-0.535-2.527c0.537-0.824,1.625-1.072,2.462-0.576L557.48,504.358z"
		/>
	<path fill="#913B8E" d="M543.687,514.926c0,0-0.562-0.023-1.405-0.057c-0.422-0.017-0.914-0.037-1.44-0.058
		c-0.264-0.011-0.536-0.022-0.813-0.033c-0.303-0.017-0.61-0.035-0.917-0.052c-2.247-0.135-4.493-0.271-4.493-0.271
		c-1.271-0.077-2.238-1.168-2.161-2.438c0.076-1.271,1.168-2.238,2.438-2.162c0.02,0.001,0.039,0.002,0.059,0.004l0.068,0.006
		c0,0,2.24,0.202,4.48,0.404c0.563,0.055,1.105,0.09,1.639,0.127c0.525,0.037,1.018,0.072,1.438,0.101
		c0.842,0.059,1.402,0.099,1.402,0.099c1.195,0.084,2.096,1.121,2.012,2.316c-0.082,1.172-1.082,2.062-2.248,2.016L543.687,514.926z
		"/>
	<path fill="#913B8E" d="M525.471,513.699c0,0-2.239-0.228-4.479-0.456c-2.239-0.218-4.474-0.482-4.474-0.482
		c-1.403-0.166-2.407-1.438-2.24-2.842c0.166-1.403,1.438-2.407,2.842-2.241c0.007,0.001,0.014,0.002,0.021,0.003l0.037,0.004
		l8.92,1.179c1.335,0.176,2.273,1.401,2.098,2.736c-0.173,1.309-1.354,2.237-2.659,2.106L525.471,513.699z"/>
	<path fill="#913B8E" d="M507.474,511.605l-8.915-1.24c-1.492-0.207-2.533-1.585-2.326-3.077c0.208-1.492,1.586-2.533,3.078-2.326
		c0.012,0.002,0.024,0.004,0.037,0.005l0.053,0.009l8.889,1.406c1.441,0.228,2.426,1.582,2.197,3.023
		c-0.225,1.424-1.549,2.402-2.971,2.206L507.474,511.605z"/>
	<path fill="#913B8E" d="M489.572,509.028c0,0-2.223-0.349-4.445-0.697c-2.219-0.373-4.438-0.746-4.438-0.746
		c-1.564-0.263-2.619-1.744-2.357-3.308c0.264-1.564,1.744-2.619,3.309-2.356l0.021,0.004l0.013,0.002l8.862,1.562
		c1.529,0.27,2.551,1.728,2.281,3.257c-0.266,1.511-1.692,2.526-3.201,2.29L489.572,509.028z"/>
	<path fill="#913B8E" d="M471.752,506.012l-8.852-1.621c-1.596-0.292-2.653-1.823-2.361-3.419c0.292-1.596,1.823-2.653,3.42-2.361
		l0.021,0.004l0.01,0.002l8.84,1.686c1.576,0.3,2.611,1.822,2.311,3.397c-0.3,1.569-1.809,2.6-3.376,2.313L471.752,506.012z"/>
	<path fill="#913B8E" d="M453.992,502.702c0,0-2.208-0.433-4.416-0.866c-2.209-0.426-4.412-0.88-4.412-0.88l-0.016-0.003
		c-1.621-0.334-2.664-1.918-2.33-3.538s1.91-2.665,3.53-2.331l8.819,1.792c1.608,0.327,2.647,1.896,2.32,3.503
		c-0.325,1.602-1.881,2.638-3.482,2.325L453.992,502.702z"/>
	<path fill="#913B8E" d="M436.299,499.06l-8.789-1.937l-0.011-0.002c-1.58-0.348-2.579-1.911-2.23-3.491
		c0.347-1.572,1.897-2.568,3.47-2.235l8.803,1.872l0.012,0.002c1.6,0.34,2.621,1.914,2.281,3.514s-1.913,2.622-3.514,2.281
		L436.299,499.06z"/>
	<path fill="#913B8E" d="M418.667,495.119l-8.766-2.046l-0.011-0.002c-1.539-0.36-2.496-1.899-2.137-3.439
		c0.357-1.533,1.887-2.487,3.418-2.142l8.781,1.982l0.01,0.002c1.561,0.352,2.54,1.902,2.188,3.463
		c-0.352,1.56-1.902,2.539-3.463,2.187L418.667,495.119z"/>
	<path fill="#913B8E" d="M401.098,490.872l-8.713-2.268l-0.039-0.01c-1.446-0.376-2.313-1.854-1.938-3.301
		c0.373-1.429,1.822-2.292,3.252-1.95l8.752,2.105l0.041,0.01c1.498,0.36,2.421,1.867,2.061,3.365
		c-0.36,1.499-1.867,2.421-3.365,2.061C401.136,490.882,401.109,490.875,401.098,490.872z"/>
	<path fill="#913B8E" d="M383.625,486.25l-8.695-2.42l-0.027-0.008c-1.351-0.376-2.141-1.776-1.766-3.126
		c0.372-1.335,1.746-2.122,3.082-1.778l8.715,2.252l0.051,0.013c1.403,0.363,2.246,1.793,1.884,3.196
		c-0.362,1.403-1.793,2.246-3.196,1.883C383.661,486.26,383.637,486.254,383.625,486.25z"/>
	<path fill="#913B8E" d="M366.213,481.205l-8.586-2.717l-0.055-0.018c-1.197-0.379-1.86-1.656-1.481-2.853
		c0.372-1.174,1.612-1.834,2.788-1.501l8.66,2.46l0.059,0.017c1.278,0.363,2.021,1.695,1.657,2.974
		c-0.364,1.279-1.694,2.021-2.974,1.658C366.262,481.22,366.232,481.211,366.213,481.205z"/>
	<path fill="#913B8E" d="M348.912,475.56c0,0-2.117-0.764-4.219-1.574c-2.104-0.8-4.209-1.6-4.209-1.6l-0.063-0.023
		c-1.018-0.387-1.529-1.525-1.142-2.543c0.376-0.992,1.471-1.501,2.468-1.169l8.536,2.855l0.034,0.011
		c1.121,0.375,1.725,1.588,1.351,2.709c-0.375,1.121-1.588,1.726-2.71,1.351C348.947,475.572,348.925,475.564,348.912,475.56z"/>
	<path fill="#913B8E" d="M331.891,468.581c0,0-0.512-0.27-1.277-0.676c-0.418-0.223-0.896-0.495-1.397-0.796
		c-0.507-0.306-1.058-0.662-1.619-1.067c-0.298-0.235-0.566-0.423-0.879-0.71c-0.155-0.143-0.296-0.263-0.454-0.426
		c-0.162-0.181-0.32-0.359-0.478-0.534c-0.175-0.225-0.351-0.493-0.5-0.741c-0.177-0.34-0.337-0.713-0.438-1.139
		c-0.088-0.546-0.148-1.032-0.003-1.603c0.063-0.276,0.152-0.543,0.257-0.788c0.105-0.21,0.222-0.389,0.348-0.569
		c0.122-0.171,0.269-0.355,0.389-0.477c0.107-0.099,0.216-0.194,0.324-0.282c0.211-0.173,0.454-0.351,0.588-0.414
		c0.305-0.166,0.624-0.331,0.789-0.379c0.381-0.131,0.599-0.207,0.599-0.207c0.837-0.289,1.751,0.156,2.04,0.994
		c0.282,0.819-0.137,1.711-0.939,2.02l-0.113,0.043c0,0-0.121,0.046-0.332,0.127c-0.112,0.033-0.213,0.106-0.345,0.172
		c-0.073,0.03-0.115,0.081-0.173,0.125c-0.063,0.043-0.115,0.093-0.141,0.146c-0.099,0.101-0.08,0.201-0.073,0.34
		c0.025,0.074,0.063,0.156,0.101,0.24c0.061,0.086,0.123,0.174,0.188,0.263c0.158,0.173,0.329,0.351,0.536,0.515
		c0.192,0.173,0.425,0.322,0.639,0.484c0.905,0.609,1.894,1.134,2.64,1.499c0.746,0.37,1.264,0.605,1.264,0.605l0.043,0.02
		c0.9,0.41,1.297,1.473,0.887,2.373c-0.41,0.9-1.473,1.297-2.372,0.887C331.955,468.613,331.92,468.596,331.891,468.581z"/>
	<path fill="#913B8E" d="M338.085,457.487c0,0,2.24,0.237,4.481,0.475c1.119,0.119,2.24,0.237,3.08,0.326
		c0.871,0.111,1.451,0.185,1.451,0.185l0.051,0.007c0.628,0.08,1.072,0.654,0.992,1.282c-0.078,0.609-0.623,1.044-1.228,0.998
		c0,0-0.557-0.044-1.392-0.109c-0.843-0.046-1.967-0.107-3.09-0.169c-2.246-0.123-4.492-0.245-4.492-0.245l-0.074-0.004
		c-0.76-0.042-1.342-0.691-1.301-1.451s0.691-1.342,1.451-1.301C338.037,457.482,338.063,457.484,338.085,457.487z"/>
	<path fill="#913B8E" d="M356.068,459.897c0,0,2.217,0.408,4.434,0.815c2.215,0.429,4.43,0.859,4.43,0.859l0.038,0.008
		c0.312,0.061,0.517,0.362,0.456,0.674c-0.059,0.298-0.338,0.497-0.635,0.461l-8.935-1.082l-0.052-0.006
		c-0.479-0.058-0.821-0.494-0.764-0.974c0.059-0.48,0.494-0.822,0.975-0.764C356.033,459.891,356.052,459.894,356.068,459.897z"/>
</g>
<g>
	
		<rect x="293.103" y="534.668" transform="matrix(0.9782 0.2077 -0.2077 0.9782 133.0387 -74.4761)" fill="none" width="256.308" height="123.541"/>
	<path fill="#FFFFFF" d="M329.564,513.241c2.742,0.582,4.092,2.907,4.818,3.062c0.617,0.13,0.844-0.112,1.318-0.011
		c1.176,0.25,2.154,3.078,1.217,7.497c-0.482,2.27-1.838,3.979-3.49,3.628c-2.883-0.612-0.658-7.504-5.641-8.561
		c-2.156-0.458-3.658,2.218-4.123,4.408c-1.25,5.892-0.105,11.377,3.813,12.209c3.555,0.754,4.67-1.88,5.537-1.695
		c0.811,0.172,0.916,1.609,0.705,2.604c-0.373,1.751-2.438,5.14-3.836,4.843c-0.951-0.202-3.4,1.691-6.703,0.99
		c-5.877-1.248-9.287-8.878-7.59-16.879C317.322,517.174,324.051,512.071,329.564,513.241z"/>
	<path fill="#FFFFFF" d="M336.748,529.826c1.791-8.439,7.789-13.406,13.891-12.111c7.723,1.64,8.637,11.943,7.545,17.078
		c-1.816,8.559-8.334,13.083-14.043,11.871C338.236,545.41,334.947,538.305,336.748,529.826z M348.09,523.373
		c-1.566-0.333-2.84,1.809-3.254,3.76c-0.719,3.384-1.061,13.255,1.963,13.896c1.707,0.362,2.883-1.593,3.34-3.743
		C350.908,533.664,351.365,524.068,348.09,523.373z"/>
	<path fill="#FFFFFF" d="M359.639,534.686c1.791-8.439,7.789-13.407,13.891-12.111c7.725,1.64,8.637,11.943,7.547,17.078
		c-1.816,8.559-8.334,13.083-14.043,11.871C361.129,550.27,357.84,543.165,359.639,534.686z M370.982,528.232
		c-1.566-0.333-2.842,1.81-3.256,3.76c-0.717,3.384-1.059,13.255,1.965,13.896c1.707,0.363,2.883-1.593,3.338-3.743
		C373.799,538.524,374.258,528.928,370.982,528.232z"/>
	<path fill="#FFFFFF" d="M386.512,532.236c0.633-2.986-2.25-2.225-1.717-4.732c0.338-1.593,1.646-1.689,2.514-1.505
		c0.699,0.148,1.354,0.371,2.053,0.519c4.059,0.861,6.641,0.828,7.816,1.077c3.807,0.808,6.805,4.731,5.537,10.702
		c-1.26,5.932-5.461,8.368-9.352,7.542c-0.84-0.179-1.637-0.556-2.393-0.716c-0.336-0.071-0.49,0.104-0.584,0.541l-0.49,2.309
		c-0.973,4.994,1.512,3.357,1.021,5.667c-0.549,2.588-4.605,1.852-5.865,1.585c-1.176-0.25-5.309-1.17-4.76-3.757
		c0.465-2.189,2.221-0.402,2.914-3.666L386.512,532.236z M394.416,531.918c-1.09-0.232-1.164,0.251-1.334,1.048l-1.268,5.971
		c-0.176,0.836-0.623,1.698,0.889,2.02c1.848,0.392,2.998-1.444,3.514-3.872C396.748,534.576,396.291,532.315,394.416,531.918z"/>
	<path fill="#FFFFFF" d="M416.873,532.358c3.75,0.796,4.451,0.112,4.898,0.208c1.596,0.338,1.439,4.382,1.068,6.134
		c-0.279,1.313-0.973,2.789-2.064,2.558c-2.211-0.47,0.391-3.911-4.926-5.04c-3.107-0.659-2.969,0.202-3.939,4.78
		c-0.49,2.309-0.424,2.406,1.283,2.769c2.127,0.452,1.471-4.306,3.457-3.884c1.623,0.344,0.781,4.866,0.451,6.419
		c-0.348,1.632-1.557,6.367-3.236,6.011c-1.734-0.368,0.887-4.18-1.939-4.779c-1.176-0.25-1.469,1.269-1.738,2.542
		c-1.234,5.812-0.895,5.593,2.043,6.217c5.738,1.218,5.307-4.74,7.602-4.252c0.895,0.19,1.037,1.719,0.801,2.833
		c-0.574,2.707-3.117,7.243-4.234,7.005c-0.197-0.042-0.619-0.256-1.182-0.501c-0.6-0.21-1.357-0.496-2.309-0.698l-11.502-2.441
		c-1.848-0.393-1.621-1.593-1.512-2.11c0.465-2.189,1.996-0.034,3.088-4.212c1.873-7.174,1.75-6.451,2.998-13.716
		c1.098-6.132-1.697-3.439-1.098-6.266c0.516-2.428,2.783-1.531,3.93-1.288L416.873,532.358z M412.016,527.957
		c0.355-1.671,2.434-1.813,2.662-2.888c0.074-0.358-0.125-0.525-0.031-0.963c0.211-0.996,2.158-0.791,2.605-0.696
		c0.867,0.184,3.33,1.124,2.941,2.955c-0.211,0.995-3.172,4.194-6.979,3.386C412.486,529.597,411.746,529.231,412.016,527.957z"/>
	<path fill="#FFFFFF" d="M426.002,542.949c1.311-6.17-1.357-4.074-0.834-6.542c0.465-2.189,2.707-2.004,3.826-1.767
		c0.588,0.125,1.131,0.322,1.711,0.487c0.543,0.198,1.111,0.403,1.672,0.521c0.895,0.19,1.809,0.301,2.748,0.417
		c0.904,0.15,1.846,0.268,2.74,0.457c3.164,0.672,6.406,3.44,5.283,8.735c-0.508,2.388-1.811,4.525-3.605,5.267
		c-0.293,0.146-0.516,0.224-0.615,0.702c-0.127,0.597,0.203,0.833,0.496,1.104c1.74,1.451,2.219,3.466,1.697,7.848
		c-0.451,3.773,1.842,1.931,1.326,4.359c-0.32,1.513-1.945,2.832-5.109,2.161c-4.477-0.951-4.26-4.732-4.012-10.171
		c0.082-1.896-0.014-3.789-1.553-4.115c-0.617-0.131-0.865-0.059-1.398,2.449c-0.244,1.154-0.527,2.758-0.623,3.903
		c-0.166,1.879,1.381,1.625,0.975,3.535c-0.305,1.434-1.232,2.36-5.766,1.397c-1.344-0.285-5.318-1.129-4.701-4.035
		c0.439-2.07,2.234-0.191,3.334-5.366L426.002,542.949z M432.123,546.079c-0.275,1.023-0.602,1.869,0.32,2.065
		c1.82,0.386,2.713-0.922,3.236-3.391c0.414-1.95,0.5-4.012-1.123-4.356c-1.035-0.22-1.201,0.701-1.52,1.924L432.123,546.079z"/>
	<path fill="#FFFFFF" d="M450.914,553.729c1.449-2.563,3.342-5.822,4.008-8.967c0.584-2.747,1.92-4.627,4.41-4.098
		c2.436,0.517,3.221,4.386,3.756,7.245c0.23,1.256,1.869,14.334,2.186,17.813c0.281,3.222,2.18,1.711,1.699,3.98
		c-0.617,2.906-4.566,1.943-5.965,1.646c-4.002-0.85-6.4-1.401-5.877-3.869c0.406-1.91,1.961-0.832,2.256-2.225
		c0.381-1.792-0.285-2.1-4.791-3.056c-1.455-0.31-2.34-0.414-2.754,1.536c-0.33,1.554,1.682,0.898,1.242,2.968
		c-0.508,2.388-3.539,1.787-4.658,1.549c-4.002-0.85-4.137-2.001-3.867-3.276c0.396-1.871,1.791-0.993,2.906-2.253
		c0.844-0.944,1.838-2.73,2.527-3.915L450.914,553.729z M456.182,557.844c0.281,0.06,1.104,0.316,1.23-0.28
		c0.125-0.598-0.246-2.84-0.352-3.445c-0.117-0.69-0.279-2.264-0.895-2.395c-0.674-0.143-1.656,2.145-1.861,2.559
		c-0.203,0.414-1.01,1.866-1.111,2.343c-0.143,0.677,0.582,0.706,0.891,0.771L456.182,557.844z"/>
	<path fill="#FFFFFF" d="M484.123,546.635c1.203,0.255,1.799,0.215,2.242,0.185c0.426-0.077,0.676-0.148,1.207-0.036
		c1.092,0.232,2.707,3.779,1.795,8.078c-0.422,1.991-1.43,3.15-2.857,2.847c-2.434-0.517-1.41-5.208-2.836-5.511
		c-1.092-0.231-1.436,1.941-1.504,2.26l-2.594,12.222c-1.006,4.737,2.051,3.015,1.459,5.801c-0.262,1.234-1.164,2.873-6.398,1.762
		c-1.428-0.303-6.678-1.335-6.027-4.4c0.447-2.11,2.006-0.905,2.887-2.299c0.457-0.777,1.076-3.141,1.314-4.13l2.092-8.75
		c1-4.156,0.402-4.241,0.012-4.324c-1.26-0.268-2.873,4.299-5.141,3.817c-1.09-0.231-1.43-1.801-1.125-3.234
		c0.719-3.384,3.672-7.374,5.266-7.036c0.197,0.042,0.48,0.226,0.977,0.499c0.508,0.232,1.229,0.552,2.348,0.789L484.123,546.635z"
		/>
	<path fill="#FFFFFF" d="M490.984,560.613c1.072-5.056,1.039-6.27,0.85-6.892c-0.4-1.291-1.467-1.643-1.145-3.155
		c0.607-2.866,6.318-1.654,6.877-1.535c1.68,0.356,5.104,1.167,4.529,3.874c-0.305,1.434-1.35,1.128-2.213,2.026
		c-0.719,0.763-1.508,4.339-2.098,7.126l-0.838,3.941c-1.504,7.086-1.135,6.998-0.676,7.594c0.574,0.746,1.201,1.088,0.939,2.322
		c-0.254,1.193-0.885,2.932-7.014,1.631c-1.176-0.249-4.693-1.039-4.152-3.586c0.27-1.274,1.264-1.271,1.871-1.933
		c0.455-0.485,1.047-1.898,2.23-7.472L490.984,560.613z"/>
	<path fill="#FFFFFF" d="M500.717,564.635c1.791-8.439,7.789-13.407,13.891-12.112c7.725,1.64,8.637,11.943,7.547,17.078
		c-1.816,8.559-8.334,13.083-14.043,11.871C502.205,580.219,498.918,573.114,500.717,564.635z M512.061,558.182
		c-1.566-0.333-2.842,1.81-3.256,3.76c-0.717,3.384-1.059,13.255,1.965,13.897c1.707,0.362,2.883-1.593,3.338-3.743
		C514.877,568.473,515.336,558.877,512.061,558.182z"/>
	<path fill="#FFFFFF" d="M539.207,568.354c0.252,0.469,0.9,1.813,1.404,1.92c0.701,0.148,1.074-1.477,1.219-2.154
		c0.211-0.995,0.547-2.713,0.518-3.677c-0.037-1.755-1.646-1.472-1.189-3.622c0.541-2.547,3.369-1.822,4.545-1.573
		c1.23,0.262,4.324,0.711,3.74,3.457c-0.482,2.27-1.787,1.118-2.652,2.849c-0.668,1.355-1.191,3.824-1.514,5.337l-2.188,10.31
		c-0.381,1.792-1.371,7.281-3.246,6.883c-0.559-0.119-0.934-0.698-1.244-1.304l-6.307-12.863c-0.281-0.601-0.807-1.711-1.395-1.835
		c-0.867-0.185-1.445,2.397-1.623,3.233c-0.236,1.114-0.521,2.593-0.572,3.664c-0.121,2.637,1.564,1.996,1.15,3.947
		c-0.566,2.667-3.498,2.294-4.814,2.015c-1.287-0.273-4.119-1.124-3.57-3.712c0.449-2.109,1.895-0.929,2.715-3.417
		c0.559-1.67,1.148-4.166,1.529-5.958c0.607-2.866,1.225-5.771,1.525-8.703c0.396-4.077-1.947-2.952-1.441-5.34
		c0.6-2.826,4.346-1.865,5.605-1.598c1.734,0.369,2.008,0.593,2.93,2.453L539.207,568.354z"/>
</g>
<g>
	<g>
		<path fill="#FFFFFF" d="M414.32,585.491c4.548,0.967,9.098,1.933,13.646,2.897c3.145,0.667,4.482-4.152,1.328-4.821
			c-4.549-0.965-9.098-1.931-13.646-2.897C412.504,580.001,411.166,584.82,414.32,585.491L414.32,585.491z"/>
	</g>
</g>
</svg>
