<?xml version="1.0" encoding="utf-8"?>
<!-- Generator: Adobe Illustrator 16.0.0, SVG Export Plug-In . SVG Version: 6.00 Build 0)  -->
<!DOCTYPE svg PUBLIC "-//W3C//DTD SVG 1.1//EN" "http://www.w3.org/Graphics/SVG/1.1/DTD/svg11.dtd">
<svg version="1.1" id="Calque_1" xmlns="http://www.w3.org/2000/svg" xmlns:xlink="http://www.w3.org/1999/xlink" x="0px" y="0px"
	 width="520.421px" height="480px" viewBox="0 0 520.421 480" enable-background="new 0 0 520.421 480" xml:space="preserve">
<path fill-rule="evenodd" clip-rule="evenodd" d="M219.629,287.029c14.649-17.628,46.852-21.295,42.163-53.958
	c-57.345-34.721-73.655-61.503-61.991-100.868C209.873,98.211,240.596,75.806,275.488,77c34.169,1.168,64.551,25.247,71.607,56.751
	c9.456,42.233-8.858,71.892-61.597,97.186c-9.116,34.564,27.011,37.246,41.385,57.499c22.08-18.232,46.258-30.452,73.885-23.298
	c14.618,3.787,29.612,12.168,40.636,22.522c24.602,23.105,27.118,64.327,8.541,92.771c-19.5,29.857-55.13,42.161-88.268,30.482
	c-39.262-13.839-54.624-44.672-49.103-101.359c-12.017-9.558-25.047-19.924-37.547-29.862
	c-27.845,13.501-44.668,29.902-41.157,64.034c3.264,31.76-23.425,61.492-54.118,69.474c-31.167,8.108-64.723-4.835-83.327-32.144
	c-18.171-26.671-16.582-62.991,3.869-88.508c21.194-26.439,54.594-36.433,85.15-24.306
	C196.305,272.549,206.119,279.491,219.629,287.029z M376.338,332.404c-17.194,8.119-36.071,16.593-25.096,43.107
	c24.811,0,48.651,0,72.981,0c5.167-26.91-10.732-36.105-29.665-43.64c1.816-6.576,4.031-11.961,4.633-17.521
	c0.612-5.649-0.369-11.47-0.643-16.983C370.031,293.042,369.276,294.242,376.338,332.404z"/>
<path fill-rule="evenodd" clip-rule="evenodd" fill="#FFFFFF" d="M376.338,332.404c-7.062-38.163-6.307-39.362,22.211-35.036
	c0.273,5.513,1.255,11.334,0.643,16.983c-0.602,5.559-2.816,10.944-4.633,17.521c18.933,7.535,34.832,16.729,29.665,43.64
	c-24.33,0-48.171,0-72.981,0C340.267,348.998,359.144,340.523,376.338,332.404z"/>
<path fill-rule="evenodd" clip-rule="evenodd" fill="#FFFFFF" d="M262.051,145.342c-7.062-38.162-5.076-37.803,22.21-35.034
	c0.272,5.512,1.255,11.333,0.642,16.982c-0.601,5.559-2.815,10.944-4.632,17.521c18.932,7.535,34.832,16.729,29.664,43.639
	c-24.328,0-48.17,0-72.98,0C225.979,161.936,244.855,153.461,262.051,145.342z"/>
<path fill-rule="evenodd" clip-rule="evenodd" fill="#FFFFFF" d="M150.56,335.927c-7.063-38.162-5.075-37.804,22.209-35.036
	c0.273,5.514,1.256,11.334,0.643,16.983c-0.602,5.561-2.815,10.945-4.633,17.521c18.933,7.535,34.833,16.729,29.665,43.64
	c-24.328,0-48.17,0-72.981,0C114.487,352.52,133.365,344.046,150.56,335.927z"/>
</svg>
