<?xml version="1.0" encoding="utf-8"?>
<!-- Generator: Adobe Illustrator 16.0.0, SVG Export Plug-In . SVG Version: 6.00 Build 0)  -->
<!DOCTYPE svg PUBLIC "-//W3C//DTD SVG 1.1//EN" "http://www.w3.org/Graphics/SVG/1.1/DTD/svg11.dtd">
<svg version="1.1" id="Calque_1" xmlns="http://www.w3.org/2000/svg" xmlns:xlink="http://www.w3.org/1999/xlink" x="0px" y="0px"
	 width="520.421px" height="480px" viewBox="0 0 520.421 480" enable-background="new 0 0 520.421 480" xml:space="preserve">
<path fill-rule="evenodd" clip-rule="evenodd" d="M352.62,118.558c-8.408,7.465-14.888,13.222-20.447,18.16
	c-90.731-23.05-149.055-4.644-182.901,56.394c-29.339,52.91-20.121,118.92,22.563,161.542
	c43.553,43.494,110.452,51.884,164.057,20.571c58.532-34.189,77.147-94.41,52.865-182.448c4.552-4.388,11.33-10.927,18.517-17.858
	c42.082,53.131,35.428,156.399-34.575,213.589c-63.18,51.616-159.737,49.469-220.148-7.658
	c-63.556-60.102-70.254-155.523-15.939-226.157C178.785,99.846,273.306,66.426,352.62,118.558z"/>
<path fill-rule="evenodd" clip-rule="evenodd" d="M330.758,220.023c6.347-5.748,11.97-10.836,22.516-20.383
	c5.835,16.937,12.726,29.792,14.493,43.32c6.971,53.38-18.021,94.904-65.973,112.733c-43.86,16.312-94.515-0.366-119.992-39.505
	c-27.265-41.881-22.995-92.57,10.642-128.096c33.873-35.773,92.614-42.809,129.896-13.487c-5.212,7.059-10.505,14.225-15.023,20.342
	c-57.127-11.322-85.563-2.173-103.07,31.58c-15.114,29.136-9.569,61.134,14.544,83.929c23.158,21.891,56.862,25.53,84.803,9.16
	C334.989,301.223,343.407,272.108,330.758,220.023z"/>
<path fill-rule="evenodd" clip-rule="evenodd" d="M257.151,258.656c8.881-9.674,18.154-19.023,26.567-29.086
	c20.774-24.853,47.457-42.622,58.733-78.157c8.282-26.095,39.271-44.985,59.36-66.259c13.47,13.21,24.768,24.297,38.399,37.667
	c-27.322,21.366-44.529,56.282-86.527,69.844c-25.362,8.189-43.4,38.6-65.197,58.507c-7.068,6.454-15.632,11.27-23.513,16.835
	C262.367,264.889,259.758,261.771,257.151,258.656z"/>
<path fill-rule="evenodd" clip-rule="evenodd" d="M274.732,222.813c-10.336,13.925-17.796,23.977-25.035,33.729
	c14.644,25.405,14.644,25.405,48.324-0.918c3.708,20.897-5.692,35.732-24.725,39.01c-19.08,3.289-37.78-9.587-42.07-28.964
	C226.627,244.887,240.853,228.951,274.732,222.813z"/>
</svg>
