<?xml version="1.0" encoding="utf-8"?>
<!-- Generator: Adobe Illustrator 16.0.0, SVG Export Plug-In . SVG Version: 6.00 Build 0)  -->
<!DOCTYPE svg PUBLIC "-//W3C//DTD SVG 1.1//EN" "http://www.w3.org/Graphics/SVG/1.1/DTD/svg11.dtd">
<svg version="1.1" id="Calque_1" xmlns="http://www.w3.org/2000/svg" xmlns:xlink="http://www.w3.org/1999/xlink" x="0px" y="0px"
	 width="520.421px" height="480px" viewBox="0 0 520.421 480" enable-background="new 0 0 520.421 480" xml:space="preserve">
<path fill-rule="evenodd" clip-rule="evenodd" d="M216.568,420.197c0-24.559,3.148-48.74-1.167-71.508
	c-2.641-13.935-15.771-26.526-25.855-38.293c-49.448-57.693-36.403-140.313,28.156-175.154
	c44.826-24.192,102.353-14.585,135.699,22.658c34.547,38.583,38.592,94.047,9.981,137.114c-2.19,3.295-3.858,7.396-6.876,9.619
	c-40.596,29.915-31.669,73.269-31.371,114.956C290.146,450.073,254.342,450.87,216.568,420.197z M284.465,350.196
	c18.854-24.776,34.971-45.667,50.78-66.788c26.362-35.227,22.466-81.063-9.146-110.098c-31.995-29.382-78.707-29.374-110.373,0.018
	c-32.274,29.955-36.053,74.476-9.296,109.917c16.469,21.815,32.982,43.596,50.654,66.951
	C265.369,350.196,276.229,350.196,284.465,350.196z"/>
<path fill-rule="evenodd" clip-rule="evenodd" d="M83.183,230.435c19.666-18.852,40.145-11.904,64.352-8.085
	c-2.959,7.157-4.096,16.198-7.538,17.186C121.497,244.845,102.278,249.056,83.183,230.435z"/>
<path fill-rule="evenodd" clip-rule="evenodd" d="M131.124,112.183c25.846-20.656,32.629,0.872,43.18,9.166
	c10.11,7.944,15.33,17.93-1.211,32.434C159.408,140.218,146.194,127.119,131.124,112.183z"/>
<path fill-rule="evenodd" clip-rule="evenodd" d="M370.725,154.599c-21.662-18.275-9.134-27.822,0.484-36.941
	c9.7-9.194,18.502-26.003,40.777-1.56C398.194,128.968,384.654,141.6,370.725,154.599z"/>
<path fill-rule="evenodd" clip-rule="evenodd" d="M456.945,228.165c-12.081,22.394-31.196,14.728-47.152,13.894
	c-5.546-0.288-10.675-8.523-19.997-16.596C417.139,217.017,436.774,213.056,456.945,228.165z"/>
<path fill-rule="evenodd" clip-rule="evenodd" d="M410.494,348.348c-23.246,20.816-30.677,2.028-40.282-6.326
	c-9.452-8.227-20.669-17.506-1.183-34.279C382.305,320.741,395.494,333.659,410.494,348.348z"/>
<path fill-rule="evenodd" clip-rule="evenodd" d="M263.482,112.407c-6.098-25.82-9.972-45.017,3.725-64.403
	c26.354,11.7,14.117,32.882,15.129,49.237C282.579,101.184,272.048,105.795,263.482,112.407z"/>
<path fill-rule="evenodd" clip-rule="evenodd" d="M128.186,345.405c16.37-12.278,30.807-23.106,46.302-34.727
	c16.509,9.535,10.524,19.961-0.328,29.089C163.44,348.778,155.159,370.062,128.186,345.405z"/>
<path fill-rule="evenodd" clip-rule="evenodd" d="M213.167,240.138c-13.871-19.802-8.443-38.473,2.329-50.295
	c22.622-24.827,17.151-17.152,46.804-19.237C238.728,188.994,217.021,207.604,213.167,240.138z"/>
</svg>
