<?xml version="1.0" encoding="utf-8"?>
<!-- Generator: Adobe Illustrator 16.0.0, SVG Export Plug-In . SVG Version: 6.00 Build 0)  -->
<!DOCTYPE svg PUBLIC "-//W3C//DTD SVG 1.1//EN" "http://www.w3.org/Graphics/SVG/1.1/DTD/svg11.dtd">
<svg version="1.1" id="Calque_1" xmlns="http://www.w3.org/2000/svg" xmlns:xlink="http://www.w3.org/1999/xlink" x="0px" y="0px"
	 width="824px" height="760px" viewBox="0 0 824 760" enable-background="new 0 0 824 760" xml:space="preserve">
<path fill-rule="evenodd" clip-rule="evenodd" d="M347.155,442.178c20.32-24.452,64.987-29.538,58.484-74.846
	c-79.542-48.161-102.167-85.31-85.987-139.913c13.971-47.148,56.586-78.227,104.985-76.57c47.396,1.621,89.538,35.021,99.325,78.72
	c13.116,58.581-12.287,99.72-85.439,134.805c-12.646,47.944,37.467,51.664,57.404,79.756c30.627-25.29,64.163-42.24,102.484-32.316
	c20.276,5.253,41.075,16.878,56.365,31.24c34.125,32.049,37.615,89.228,11.848,128.682c-27.049,41.414-76.471,58.48-122.436,42.281
	c-54.459-19.196-75.769-61.964-68.109-140.594C459.412,460.164,441.338,445.786,424,432c-38.624,18.728-61.959,41.478-57.09,88.82
	c4.527,44.054-32.492,85.294-75.066,96.367c-43.231,11.247-89.775-6.707-115.582-44.585c-25.205-36.996-23-87.374,5.367-122.77
	c29.398-36.673,75.727-50.535,118.11-33.714C314.803,422.092,328.416,431.722,347.155,442.178z M564.525,505.117
	c-23.851,11.262-50.035,23.016-34.811,59.794c34.414,0,67.484,0,101.232,0c7.166-37.327-14.888-50.081-41.148-60.532
	c2.52-9.122,5.592-16.591,6.426-24.302c0.85-7.836-0.512-15.91-0.891-23.557C555.777,450.518,554.729,452.182,564.525,505.117z"/>
<path fill-rule="evenodd" clip-rule="evenodd" fill="#FFFFFF" d="M564.525,505.117c-9.796-52.935-8.748-54.599,30.809-48.597
	c0.379,7.646,1.74,15.721,0.891,23.557c-0.834,7.711-3.906,15.181-6.426,24.302c26.261,10.452,48.314,23.206,41.148,60.532
	c-33.748,0-66.818,0-101.232,0C514.49,528.133,540.675,516.378,564.525,505.117z"/>
<path fill-rule="evenodd" clip-rule="evenodd" fill="#FFFFFF" d="M405.998,245.645c-9.795-52.934-7.04-52.437,30.808-48.596
	c0.378,7.646,1.741,15.72,0.89,23.556c-0.833,7.711-3.904,15.18-6.425,24.302c26.261,10.452,48.315,23.206,41.147,60.532
	c-33.746,0-66.816,0-101.23,0C355.963,268.661,382.146,256.907,405.998,245.645z"/>
<path fill-rule="evenodd" clip-rule="evenodd" fill="#FFFFFF" d="M251.35,510.003c-9.797-52.935-7.039-52.438,30.807-48.598
	c0.379,7.647,1.742,15.721,0.892,23.557c-0.835,7.713-3.906,15.181-6.427,24.303c26.262,10.452,48.316,23.206,41.148,60.532
	c-33.746,0-66.816,0-101.232,0C201.314,533.019,227.5,521.265,251.35,510.003z"/>
</svg>
