<?xml version="1.0" encoding="utf-8"?>
<!-- Generator: Adobe Illustrator 16.0.0, SVG Export Plug-In . SVG Version: 6.00 Build 0)  -->
<!DOCTYPE svg PUBLIC "-//W3C//DTD SVG 1.1//EN" "http://www.w3.org/Graphics/SVG/1.1/DTD/svg11.dtd">
<svg version="1.1" id="Calque_1" xmlns="http://www.w3.org/2000/svg" xmlns:xlink="http://www.w3.org/1999/xlink" x="0px" y="0px"
	 width="824px" height="760px" viewBox="0 0 824 760" enable-background="new 0 0 824 760" xml:space="preserve">
<path fill-rule="evenodd" clip-rule="evenodd" d="M515.732,193.875c-11.662,10.354-20.65,18.34-28.361,25.188
	c-125.854-31.973-206.752-6.441-253.7,78.224c-40.696,73.39-27.91,164.952,31.296,224.074
	c60.411,60.33,153.206,71.967,227.561,28.534c81.189-47.424,107.011-130.956,73.329-253.072c6.313-6.086,15.716-15.156,25.685-24.77
	c58.371,73.698,49.141,216.939-47.959,296.267c-87.636,71.597-221.57,68.618-305.365-10.622
	c-88.158-83.367-97.449-215.725-22.109-313.701C274.608,167.92,405.717,121.564,515.732,193.875z"/>
<path fill-rule="evenodd" clip-rule="evenodd" d="M485.408,334.618c8.803-7.973,16.603-15.032,31.23-28.273
	c8.094,23.492,17.652,41.325,20.104,60.089c9.669,74.043-24.996,131.641-91.51,156.371c-60.839,22.625-131.101-0.508-166.439-54.796
	c-37.818-58.093-31.896-128.404,14.761-177.681c46.984-49.621,128.464-59.38,180.177-18.708c-7.23,9.791-14.572,19.731-20.84,28.216
	c-79.24-15.704-118.682-3.015-142.968,43.804c-20.965,40.414-13.273,84.798,20.175,116.417
	c32.122,30.364,78.873,35.412,117.629,12.706C491.277,447.249,502.954,406.863,485.408,334.618z"/>
<path fill-rule="evenodd" clip-rule="evenodd" d="M383.31,388.205c12.318-13.419,25.182-26.387,36.851-40.345
	c28.816-34.473,65.828-59.121,81.469-108.411c11.488-36.197,54.473-62.398,82.338-91.908c18.684,18.324,34.355,33.702,53.264,52.247
	c-37.898,29.636-61.766,78.067-120.021,96.879c-35.18,11.359-60.199,53.542-90.434,81.154c-9.805,8.953-21.683,15.632-32.615,23.352
	C390.544,396.851,386.925,392.525,383.31,388.205z"/>
<path fill-rule="evenodd" clip-rule="evenodd" d="M407.695,338.487c-14.337,19.316-24.685,33.259-34.726,46.786
	c20.312,35.239,20.312,35.239,67.03-1.273c5.143,28.987-7.896,49.564-34.295,54.111c-26.467,4.563-52.405-13.298-58.355-40.176
	C340.969,369.106,360.701,347.001,407.695,338.487z"/>
</svg>
