<svg xmlns="http://www.w3.org/2000/svg" width="100" height="80" viewBox="0 0 100 80">
    <g id="hd-leaf">
      <path d="M30.815 64.284c.428-8.791 3.905-16.701 9.234-23.504 5.232-6.678 11.54-12.517 17.617-18.981-10.489 5.374-18.572 12.982-24.592 22.993-2.22-7.24 2.102-16.968 10.012-22.245 6.715-4.481 14.335-6.266 22.29-6.836 2.175-.156 3.911.23 3.805 2.992-.352 9.14-1.621 18.054-6.864 25.875-4.747 7.08-11.566 9.7-19.929 9.349-7.769-.325-7.772-.149-9.358 7.378-.233 1.102-.532 2.189-.801 3.284l-1.415-.305z" />
    </g>
    <g id="hd-water">
        <path d="M90.681 51.408c.704 3.19 1.539 6.364 2.054 9.581.292 1.826-.169 3.682-2.755 3.245-2.077-.349-3.885-1.163-3.112-3.881.841-2.951 1.615-5.923 2.417-8.887l1.396-.058z"/><path d="M3.41 14.739c2.405 1.572 3.699 4.741 6.702 2.634l.3.6-1.839 2.783c5.543 7.556 8.009 18.118 17.018 22.914.76-2.259.76-2.259-2.293-4.116v-7.554c4.265.645 8.659 1.123 12.966 2.074 1.343.296 2.634 1.696 3.623 2.916 1.114 1.377 1.331 2.865-.9 3.536-.556.168-.932 1.06-1.391 1.618.644.51 1.243 1.316 1.943 1.444.64.118 1.477-.361 2.076-.821 3.388-2.588 8.339-1.572 10.509 2.223 2.122 3.713.732 9.652-3.001 11.414-1.409.665-3.537.686-4.924-.007-7.159-3.572-14.348-2.699-21.628-.852-1.662.422-3.367.755-5.067.854-3.64.216-6.301-1.86-6.728-5.039-.654-4.874 1.32-8.893 4.888-9.928.568-.166 1.154-.265 1.874-.424-3.066-9.665-11.85-15.488-14.125-26.27l-.003.001zm10.779 34.569c.004 1.593 2.3 4.066 3.602 3.375 1.425-.754 2.85-2.292 3.471-3.87.602-1.532-1.622-3.434-3.566-3.446-2.051-.015-3.512 1.629-3.507 3.942v-.001zm31.928-3.803c-1.379 1.362-3.161 2.796-3.031 3.05.762 1.501 1.969 2.726 3.024 4.047 1.033-1.253 2.347-2.372 2.922-3.841.181-.457-1.633-1.868-2.915-3.256z"/><path d="M46.114 45.506c1.282 1.387 3.096 2.798 2.915 3.256-.575 1.469-1.889 2.588-2.922 3.841-1.056-1.32-2.262-2.546-3.024-4.047-.13-.254 1.652-1.688 3.031-3.05z" fill="none"/><path opacity=".5" d="M89.205 13.96c-.272 2.164-1.449 2.863-3.086 2.766-2.283-.13-4.55-.493-6.834-.676-1.349-.105-3.014-.445-3.433 1.371-.35 1.505-.626 3.098 1.647 3.816 2.105.663 2.187 2.575 1.969 4.649 1.035.162 2.118.164 3.074.508 2.277.816 4.707 1.484 6.694 2.773 3.92 2.542 4.336 4.642 2.265 9.743l4.157-.854c.243.716.525 1.444.738 2.191.469 1.645.171 2.68-1.871 3.049-3.052.552-6.025 1.505-9.064 2.128-2.485.508-3.148-.332-2.713-2.911.234-1.385.335-2.8.387-4.204.01-.306-.439-.628-.819-1.129-5.199 3.851-10.704 2.454-16.227.995-4.124-1.087-8.224-1.499-12.62 1.005-.249-2.223-.616-4.145-.643-6.074-.04-2.72.246-5.445.241-8.169-.003-1.572.634-1.925 2.103-1.694 4.385.691 5.138 1.454 5.49 5.808.04.501.171.995.785 1.482v-4.099l3.051-.355c.686-1.742.869-3.854 1.998-4.605 1.135-.758 3.211-.166 5.185-.166-.832-2.267-4.669-1.998-2.56-5.644l-7.818.909c-2.3.271-4.635.651-6.021-2.525 11.405-3.035 22.568-2.879 33.924-.088h.001z"/><path opacity=".5" d="M26.432 61.323l.272 1.631.842-2.08 4.706.346.54 1.95.774-2.859 3.293 1.616.463-1.117 2.515.497.353 1.57.824-1.9 4.773-.261.447 2.41c.451-1.238.689-1.885.968-2.645.732.279 1.398 2.514 2.181-.265l.661 2.819.806-2.256 4.884.613c.26 1.683.579 3.765.947 6.164-16.483 1.786-32.883.254-49.808.783.506-2.745.945-5.144 1.386-7.543l.495.036.715 2.248.862-2.837c.366.455.655 1.123 1.08 1.251.376.115.902-.367 1.379-.594l.256.93 5.63-1.146.182.812 3.48-1.029.711 2.695.663-2.441 2.721.6-.001.002z"/>
    </g>
    <g id="hd-foot">
        <g>
            <path d="M60.625 46.355c.005 6.992-5.22 12.19-12.225 12.16-6.792-.028-12.129-5.357-12.159-12.143-.029-6.781 5.517-12.264 12.341-12.201 6.872.063 12.039 5.292 12.043 12.183zm-5.036.056c.011-4.432-2.922-7.63-7.026-7.66-4.161-.03-7.336 3.309-7.303 7.68.032 4.315 3.121 7.537 7.225 7.533 4.181-.002 7.092-3.096 7.103-7.553z" />
            <path d="M34.456 40.016c-3.953-1.939-7.592-1.939-10.261 2.079-1.897 2.855-1.511 7.035.727 9.59 2.273 2.595 4.81 2.825 9.535.864 1.23 3.512-.016 5.637-3.591 5.911-4.98.384-8.834-1.683-11.266-5.959-2.503-4.398-2.353-8.964.564-13.135 2.813-4.02 6.795-5.774 11.738-4.942 2.414.405 3.141 1.988 2.553 5.591z" />
            <path d="M71.166 55.313h5.38c.333 1.881-.103 2.804-1.978 2.767-3.005-.058-6.012-.016-9.579-.016.687-.989 1.028-1.58 1.464-2.09 1.787-2.097 3.667-4.117 5.376-6.273.771-.973 1.425-2.14 1.762-3.325.425-1.495-.112-2.862-1.728-3.395-1.552-.512-2.975-.131-3.892 1.291-.93 1.444-.642 2.834.575 4.002.428.408.971.697 1.451 1.033-.769 2.138-1.465 2.377-3.113 1.108-2.208-1.699-2.785-4.959-1.319-7.459 1.462-2.495 4.651-3.487 7.608-2.363 2.579.979 4.05 3.647 3.174 6.365-.5 1.552-1.464 2.991-2.407 4.351-.864 1.247-1.979 2.322-2.985 3.473l.209.531z" />
        </g>
        <g opacity=".5">
            <path d="M48.102 13.287c6.669.148 12.589 1.205 18.253 3.304 8.332 3.087 10.365 11.699 4.369 18.337-4.908 5.436-11.117 8.73-18.291 10.037-4.414.806-8.887 1.318-13.35 1.83-7.496.858-12.584 4.945-15.877 11.543l-.056.122c-.395 1.145-.923 2.38-.022 3.425.95 1.101 2.23.554 3.37.211.764-.23 1.571-.464 2.219-.904 4.03-2.732 9.119.973 9.643 4.833.388 2.861-.041 5.579-1.428 8.146-1.301 2.408-3.582 3.524-5.902 4.569-3.579 1.612-7.303 2.089-11.055.755-5.145-1.83-7.793-6.961-6.82-12.757.485-2.894 1.684-5.508 3.471-7.727 5.553-6.891 7.577-15.109 9.211-23.504.399-2.053.76-4.115 1.149-6.172 1.704-9.008 8.191-14.101 16.666-15.628 1.655-.299 3.36-.322 4.449-.419zm1.634 4.669c-3.509-.146-6.811.667-9.971 2.115-2.822 1.295-4.81 3.288-5.452 6.458-.935 4.624 2.412 7.954 6.946 6.634 2.715-.792 5.353-1.937 7.904-3.172 2.11-1.022 4.233-1.436 6.46-.908 1.542.366 2.993 1.108 4.514 1.592 1.215.385 2.465.837 3.717.902 2.8.144 4.814-2.345 4.32-5.105-.441-2.454-1.833-4.196-3.978-5.389-4.506-2.505-9.457-2.947-14.461-3.128z" />
            <path d="M82.511 5.173c2.49.209 4.773 2.329 4.512 4.733-.487 4.497-2.209 8.448-6.175 11.022-2.589 1.682-4.918 1.677-6.696.193-2.274-1.898-3.256-4.972-2.214-7.593 1.392-3.501 4.213-5.668 7.438-7.333.965-.496 2.085-.69 3.135-1.022z" />
            <path d="M62.509 10.634c.483-3.001 1.778-6.05 4.553-8.297 1.344-1.089 2.767-1.166 4.089-.368 1.343.811 2.112 2.288 1.535 3.897-.923 2.575-1.995 5.123-3.287 7.531-.884 1.65-2.795 2.064-4.572 1.465-1.55-.52-2.382-1.87-2.318-4.229z" />
            <path d="M61.112 3.894c-.207 1.172-.472 2.974-.863 4.747-.149.672-.527 1.318-.905 1.909-.775 1.212-2.243 1.874-3.396 1.621-1.387-.306-2.386-1.441-2.51-3.084-.191-2.544.402-4.952 1.637-7.167.327-.588.913-1.117 1.506-1.452 2.281-1.293 4.621.172 4.53 3.427z" />
            <path d="M50.391 5.807c-.231 1.168-.408 2.54-.791 3.851-.344 1.175-1.155 2.029-2.486 2.099-1.289.069-2.614-.764-2.974-2.069-.747-2.708-.53-5.39.748-7.913.572-1.126 1.591-1.668 2.892-1.474 1.216.181 1.88 1.015 2.134 2.123.236 1.031.304 2.103.477 3.383z" />
            <path d="M34.457 10.168c.551-1.765 1.005-3.566 1.685-5.28.426-1.077 1.431-1.575 2.635-1.355 1.205.22 1.806 1.173 1.763 2.213-.087 2.059-.315 4.133-.731 6.147-.25 1.209-1.098 2.169-2.579 2.046-1.263-.103-2.175-1.105-2.428-2.628-.059-.35-.068-.707-.099-1.061l-.246-.083z" />
        </g>
    </g>
    <g id="hd-eco-light">
        <g>
            <path d="M72.195 54.426c1.326-.126 2.62-.344 3.917-.357 5.13-.04 10.262-.017 16.08-.017-2.185 5.348.893 11.378-5.359 15.024-5.657 3.297-12.87.369-13.615-6.173-.295-2.59-.623-5.176-1.022-8.477z" />
            <path d="M73.353 50.501c-2.841-7.592-10.326-12.931-9.435-22.441.904-9.642 8.344-17.525 17.864-17.656 9.69-.134 17.743 7.782 18.191 17.7.236 5.243-1.132 9.799-4.376 13.997-2.038 2.642-3.451 5.766-5.144 8.673l-1.534-.829c1.803-3.337 3.431-6.786 5.454-9.987 2.973-4.703 4.887-9.476 2.999-15.118-2.206-6.59-6.42-10.975-13.491-11.821-6.589-.787-11.778 1.858-15.259 7.518-3.792 6.164-3.522 12.301.371 18.386 2.233 3.493 4.284 7.101 6.417 10.656l-2.057.921z" />
        </g>
        <g opacity=".5">
            <path d="M32.037 62.272c1.827-2.174 3.93-4.676 5.267-6.269 8.58.386 16.296.735 24.011 1.083l1.198 1.553c-3.492 3.425-6.742 9.363-10.523 9.726-6.683.636-16.123 5.898-19.953-6.093z" />
            <path d="M27.003 10.665c8.661-1.964 14.991-.831 18.538 7.411.917 2.126 3.119 3.7 4.884 5.698-1.689 9.709-2.47 10.219-11.48 8.089-4.127-7.325-7.913-14.046-11.942-21.199z" />
            <path d="M-.001 56.731c7.684 0 14.655-.239 21.581.218 1.265.082 3.322 3.026 3.281 4.603-.064 2.451-1.07 6.513-2.623 7.025-10.217 3.369-17.772-.638-22.238-11.846z" />
            <path d="M.557 52.291c1.876-4.945 3.522-9.285 5.58-14.713.556-.191 2.565-1.44 4.563-1.425 1.943.015 4.839.802 5.595 2.187 1.215 2.233 2.945 4.254.767 8.131-4.038 7.178-9.499 6.55-16.505 5.82z" />
            <path d="M61.933 51.752c-10.495 2.225-14.379.645-15.996-5.99-.785-3.211.486-4.22 9.547-7.262 2.093 4.297 4.225 8.681 6.449 13.252z" />
            <path d="M23.181 32.357c-2.958-1.853-5.994-3.755-9.61-6.022l8.158-12.891c8.277 9.034 8.403 10.826 1.451 18.913z" />
        </g>
    </g>
    <g id="hd-hand-earth">
        <path d="M82.137 45.117h-41.579l-.295-.693c1.809-1.217 3.838-2.208 5.387-3.696 4.16-3.996 8.284-8.058 12.094-12.381 2.668-3.029 4.594-2.789 7.049.126 2.24 2.661 4.77 5.094 7.296 7.499 3.1 2.953 6.327 5.77 10.049 9.145zm-9.158-4.028c-2.849-3.482-15.677-3.839-20.974-1.056 6.87.346 13.66.686 20.974 1.056zm-5.467-4.842c-4.619.307-9.671-4.364-13.826 1.247 4.609-.415 9.217-.831 13.826-1.247zm-6.743-7.186l-3.419 3.721 8.008.932-4.589-4.653zm-12.029 12.412l-.055 1.035h19.006v-.124c-6.316-.305-12.634-.607-18.952-.911z" />
        <path d="M87.208 52.882c-.753.588-1.546 1.129-2.251 1.767-24.969 22.651-17.471 18.22-47.668 18.709-.964.017-2.127-.338-2.86.076-11.389 6.429-14.77-4.716-21.639-9.132 6.321-9.174 13.759-14.556 24.924-13.788 6.947.481 13.977-.214 20.925.273 2.27.159 4.395 2.38 6.585 3.656-2.118 1.062-4.167 2.823-6.366 3.035-4.799.466-9.676.145-14.521.145l-.408 3.117c1.698.632 3.351 1.614 5.102 1.841 11.292 1.459 20.81-1.807 28.348-10.643 2.453-2.877 5.273-5.996 9.829-3.391v4.336z" opacity=".5" />
        <path d="M62.269 18.593l-.703 3.587c-2.257-.932-4.304-2.347-6.474-2.569-7.139-.726-12.767-5.444-14.243-12.507 7.895-4.62 16.101-1.656 17.754 6.317-4.059-1.994-8.183-4.021-12.309-6.049l-.578.949c.778.453 1.604.844 2.328 1.373 3.954 2.892 7.852 5.864 11.852 8.691.587.413 1.616.199 2.44.277l-.067-.069z" opacity=".5" />
        <path d="M62.337 18.662l6.576-9.214-.431-.533c-1.867 1.49-3.734 2.981-5.587 4.458 1.559-6.614 4.742-8.987 11.265-8.402 3.796.34 4.41 1.312 2.838 4.928-2.794 6.423-7.837 9.149-14.726 8.694l.066.069z" opacity=".5" />
    </g>
    <g id="hd-cloud">
        <path d="M90.222 24.342c-.258 1.404-.438 2.829-.788 4.21-.912 3.587-2.663 6.733-5.158 9.472-2.209 2.424-4.818 4.292-7.826 5.566-3.109 1.32-6.366 1.975-9.759 1.742-1.191-.084-2.377-.252-3.559-.426-.423-.063-.689.042-.915.388-.977 1.507-2.21 2.775-3.641 3.847-2.449 1.839-5.188 2.939-8.247 3.23-2.894.277-5.67-.132-8.329-1.333-2.88-1.299-5.215-3.243-6.936-5.887-.555-.854-.992-1.788-1.437-2.709-.204-.424-.351-.563-.852-.348-4.602 1.973-9.196 1.933-13.72-.231-4.211-2.015-6.987-5.338-8.482-9.724-.376-1.104-.536-2.283-.796-3.427v-3.083c.271-1.205.437-2.447.832-3.608 1.303-3.841 3.679-6.87 7.18-8.956 3.09-1.841 6.437-2.609 10.023-2.235 1.013.107 2.012.336 3.03.51l.134-.307c1.013-2.739 2.579-5.087 4.819-6.985 5.592-4.735 13.752-5.18 19.802-1.041.38.26.632.247 1.024.033 6.129-3.308 12.486-3.774 19.01-1.362 4.025 1.488 7.311 4.011 9.925 7.424 1.847 2.412 3.169 5.073 3.898 8.012.338 1.36.516 2.762.768 4.145v3.083zm-2.864-1.56c.015-2.032-.299-4.022-.922-5.94-1.074-3.312-2.884-6.171-5.458-8.544-3.243-2.991-7.06-4.708-11.421-5.167-4.522-.477-8.707.594-12.559 2.991-.835.52-1.338.48-2.109-.105-3.932-2.985-8.285-3.845-12.955-2.221-4.519 1.572-7.367 4.823-8.643 9.439-.361 1.308-1.046 1.637-2.345 1.24-1.079-.329-2.18-.667-3.294-.789-3.9-.418-7.354.689-10.333 3.251-2.412 2.074-3.913 4.689-4.451 7.805-.762 4.414.412 8.32 3.438 11.613 2.42 2.634 5.481 4.053 9.047 4.284 2.781.178 5.374-.512 7.792-1.912 1.297-.751 2.099-.422 2.524 1.001.476 1.593 1.151 3.083 2.167 4.401 3.228 4.185 7.512 6.005 12.721 5.333 4.328-.558 7.6-2.89 9.862-6.626.66-1.089 1.082-1.236 2.345-.915 3.862.98 7.685.806 11.43-.527 3.694-1.316 6.729-3.551 9.114-6.687 2.687-3.532 3.965-7.524 4.051-11.925z" opacity=".5" />
        <path d="M50.034 64.865c1.726 2.838 3.55 5.505 4.589 8.586.778 2.305.215 4.114-1.657 5.673-1.432 1.194-3.694 1.316-5.557.3-1.961-1.069-2.974-3.577-2.209-5.766 1.071-3.064 2.803-5.793 4.54-8.509l.294-.285z" />
        <path d="M70.622 59.444c1.085 1.853 2.129 3.48 3.011 5.19.717 1.388 1.401 2.831 1.807 4.33.55 2.023-.256 3.753-1.928 4.945-1.61 1.148-3.419 1.289-5.208.37-1.756-.902-2.723-2.386-2.683-4.365.017-.838.268-1.717.613-2.488.704-1.574 1.512-3.104 2.339-4.619.587-1.077 1.273-2.099 2.05-3.362z" />
        <path d="M28.249 49.365c1.022 1.717 2.014 3.194 2.81 4.771.797 1.578 1.653 3.196 2.03 4.898.685 3.096-1.861 5.826-5.036 5.701-3.442-.137-5.675-3.434-4.498-6.672 1.107-3.046 2.872-5.738 4.694-8.698z" />
    </g>
    <g id="hd-earth-oxygen">
        <g opacity=".5">
            <path d="M46.751 23.378c8.951 2.733 15.773 7.831 18.569 17.156 3.788 12.635-3.214 25.705-15.808 29.743-12.428 3.988-25.995-2.867-30.09-15.2-4.141-12.476 2.378-25.866 14.759-30.328 1.238-.445 2.47-.913 3.704-1.371h8.865zm-25.873 24.181c.055 11.903 9.777 21.528 21.562 21.345 11.918-.187 21.278-9.766 21.211-21.71-.067-11.905-9.632-21.35-21.574-21.299-11.837.048-21.255 9.671-21.199 21.664z" opacity=".5" />
            <path d="M44.844 49.492l.699-3.549-5.303-.25c-1.19-3.253 6.869-3.797-.273-7.944l1.868-.097c1.505.306 3.117 1.104 4.489.804 2.165-.47 4.337-1.421 6.201-2.638 2.494-1.627 3.833-.707 5.268 1.373 3.651 5.293 3.221 10.471-.156 15.494l-5.18-1.119c-1.089-4.107-4.095 2.368-6.669-.103 3.094 5 .161 8.603-.414 12.539l-1.274.086c-.382-.886-.98-1.744-1.104-2.664-.393-2.888-.147-5.967-4.29-6.597-.541-.084-1.202-2.829-.86-4.082.231-.85 2.067-1.528 3.287-1.765 1.081-.211 2.303.288 3.711.513z" opacity=".5" />
            <path d="M30.865 39.655c-2.084-6.183-1.851-6.767 3.14-8.433 2.023 3.776 1.612 4.949-3.14 8.433z" opacity=".5" />
            <path d="M27.205 53.956c1.251.579 2.124.73 2.6 1.247 1.455 1.576 4.683 2.347 2.915 5.516-.296.531-1.811 1.047-2.149.785-2.206-1.73-4.786-3.43-3.367-7.548z" opacity=".5" />
            <path d="M27.717 41.487c2.076 3.49-2.204 4.684-2.733 7.235l-1.702-.607c.88-2.395 1.761-4.789 2.64-7.185l1.794.556z" opacity=".5" />
        </g>
        <g>
            <path d="M62.705 23.392c.006 8.341-6.226 14.541-14.585 14.508-8.104-.034-14.47-6.391-14.506-14.487-.036-8.089 6.582-14.631 14.723-14.556 8.198.076 14.363 6.311 14.368 14.535zm-6.008.067c.015-5.287-3.486-9.105-8.381-9.139-4.965-.036-8.753 3.948-8.713 9.162.038 5.149 3.723 8.99 8.621 8.988 4.987-.004 8.46-3.696 8.473-9.01z" />
            <path d="M75.281 34.078h6.418c.397 2.246-.124 3.348-2.359 3.304-3.585-.072-7.172-.019-11.428-.019.819-1.18 1.226-1.885 1.746-2.494 2.131-2.502 4.374-4.911 6.414-7.487.919-1.158 1.7-2.552 2.101-3.965.508-1.784-.132-3.417-2.061-4.053-1.852-.611-3.549-.153-4.643 1.542-1.108 1.723-.766 3.381.686 4.773.51.489 1.158.833 1.732 1.234-.917 2.55-1.748 2.835-3.713 1.322-2.634-2.029-3.322-5.917-1.574-8.899 1.744-2.979 5.547-4.16 9.075-2.821 3.077 1.169 4.834 4.353 3.789 7.596-.598 1.849-1.748 3.566-2.871 5.188-1.031 1.49-2.361 2.771-3.561 4.143l.249.634z" />
        </g>
    </g>
    <g id="hd-target">
        <path d="M63.176 18.294l-3.265 2.899c-14.487-3.68-23.799-.741-29.203 9.004-4.684 8.448-3.213 18.988 3.602 25.793 6.954 6.945 17.635 8.284 26.194 3.285 9.346-5.459 12.318-15.074 8.441-29.131l2.957-2.851c6.719 8.483 5.656 24.972-5.521 34.103-10.088 8.241-25.505 7.899-35.15-1.223-10.148-9.596-11.217-24.832-2.545-36.11 6.734-8.757 21.826-14.093 34.49-5.77z" />
        <path d="M59.685 34.494l3.595-3.254c.932 2.704 2.032 4.757 2.314 6.917 1.113 8.523-2.877 15.153-10.534 18-7.003 2.604-15.091-.058-19.159-6.308-4.353-6.687-3.672-14.78 1.699-20.453 5.408-5.712 14.787-6.835 20.74-2.153l-2.399 3.248c-9.121-1.808-13.661-.347-16.457 5.042-2.413 4.652-1.528 9.761 2.322 13.401 3.698 3.495 9.079 4.076 13.54 1.463 5.013-2.937 6.357-7.586 4.337-15.902z" />
        <path d="M47.933 40.663c1.418-1.545 2.899-3.037 4.242-4.644 3.317-3.968 7.577-6.805 9.378-12.479 1.322-4.167 6.27-7.183 9.478-10.579 2.151 2.109 3.955 3.879 6.131 6.014-4.362 3.411-7.11 8.986-13.816 11.152-4.05 1.308-6.929 6.163-10.41 9.342-1.129 1.031-2.496 1.799-3.754 2.688l-1.249-1.493z" />
        <path d="M50.74 34.94l-3.997 5.386c2.338 4.056 2.338 4.056 7.716-.147.592 3.337-.909 5.705-3.948 6.229-3.047.525-6.032-1.531-6.717-4.625-.735-3.318 1.537-5.863 6.946-6.843z" />
    </g>
    <g id="hd-light">
        <path d="M41.457 68.041c0-3.921.503-7.782-.186-11.417-.422-2.225-2.518-4.235-4.128-6.114-7.895-9.212-5.812-22.403 4.496-27.966 7.157-3.863 16.342-2.329 21.667 3.618 5.516 6.161 6.162 15.016 1.594 21.893-.35.526-.616 1.181-1.098 1.536-6.482 4.776-5.057 11.699-5.009 18.355-5.587 4.867-11.304 4.994-17.335.097zm10.841-11.177c3.01-3.956 5.584-7.292 8.108-10.664 4.209-5.625 3.587-12.943-1.46-17.579-5.109-4.691-12.567-4.69-17.623.003-5.153 4.783-5.756 11.891-1.484 17.55 2.629 3.483 5.266 6.961 8.088 10.69h4.372z" />
        <path d="M20.16 37.742c3.14-3.01 6.41-1.901 10.275-1.291-.472 1.143-.654 2.586-1.204 2.744-2.954.848-6.022 1.52-9.071-1.453z" />
        <path d="M27.815 18.861c4.127-3.298 5.21.139 6.894 1.463 1.614 1.269 2.448 2.863-.193 5.179l-6.701-6.642z" />
        <path d="M66.071 25.634c-3.459-2.918-1.458-4.442.077-5.898 1.549-1.468 2.954-4.152 6.511-.249l-6.588 6.148z" />
        <path d="M79.838 37.38c-1.929 3.576-4.981 2.352-7.529 2.218-.885-.046-1.704-1.361-3.193-2.65 4.366-1.348 7.501-1.981 10.722.432z" />
        <path d="M72.421 56.569c-3.712 3.324-4.898.324-6.432-1.01-1.509-1.314-3.3-2.795-.189-5.473l6.621 6.483z" />
        <path d="M48.948 18.897c-.974-4.123-1.592-7.188.595-10.283 4.208 1.868 2.254 5.25 2.416 7.862.039.63-1.642 1.366-3.01 2.422z" />
        <path d="M27.345 56.099l7.393-5.545c2.636 1.522 1.681 3.187-.052 4.645-1.711 1.439-3.034 4.837-7.341.9z" />
        <path d="M40.914 39.292c-2.215-3.162-1.348-6.143.372-8.03 3.612-3.964 2.739-2.739 7.473-3.072-3.764 2.936-7.229 5.908-7.845 11.102z" />
    </g>
    <g id="hd-network">
        <path d="M41.483 46.642c2.339-2.815 7.481-3.4 6.732-8.615-9.156-5.544-11.76-9.82-9.898-16.105 1.608-5.427 6.514-9.005 12.085-8.814 5.456.187 10.307 4.031 11.433 9.061 1.51 6.743-1.414 11.479-9.835 15.517-1.456 5.519 4.313 5.947 6.608 9.181 3.525-2.911 7.386-4.862 11.797-3.72 2.334.605 4.728 1.943 6.488 3.596 3.928 3.689 4.33 10.271 1.364 14.812-3.113 4.767-8.802 6.732-14.093 4.867-6.269-2.21-8.722-7.133-7.84-16.184l-5.995-4.768c-4.446 2.156-7.132 4.775-6.572 10.224.521 5.071-3.74 9.818-8.641 11.093-4.976 1.295-10.334-.772-13.305-5.132-2.901-4.259-2.648-10.058.618-14.132 3.384-4.221 8.717-5.817 13.595-3.881 1.734.687 3.301 1.796 5.458 3zm25.021 7.245c-2.745 1.296-5.759 2.649-4.007 6.883h11.653c.825-4.297-1.714-5.765-4.737-6.968.29-1.05.644-1.91.74-2.797.098-.902-.059-1.831-.103-2.712-4.553-.691-4.674-.499-3.546 5.594z" />
        <path d="M66.504 53.887c-1.128-6.093-1.007-6.285 3.546-5.594.044.88.2 1.81.103 2.712-.096.888-.45 1.747-.74 2.797 3.023 1.203 5.561 2.671 4.737 6.968h-11.653c-1.753-4.233 1.262-5.587 4.007-6.883z" fill="#fff" />
        <path d="M48.256 24.019c-1.127-6.093-.81-6.036 3.546-5.594.044.88.2 1.81.103 2.712-.096.888-.45 1.747-.74 2.797 3.023 1.203 5.562 2.671 4.737 6.968h-11.653c-1.753-4.233 1.261-5.586 4.007-6.883z" fill="#fff" />
        <path d="M30.455 54.449c-1.128-6.093-.81-6.036 3.546-5.594.044.88.201 1.81.103 2.712-.096.888-.45 1.747-.74 2.798 3.023 1.203 5.562 2.671 4.737 6.968h-11.653c-1.752-4.233 1.262-5.586 4.007-6.883z" fill="#fff" />
    </g>
</svg>
